<?xml version="1.0" encoding="UTF-8" standalone="no"?>
<!-- Created with Inkscape (http://www.inkscape.org/) -->

<svg
   width="71.432152mm"
   height="49.767937mm"
   viewBox="0 0 71.432152 49.767937"
   version="1.1"
   id="svg5"
   xml:space="preserve"
   inkscape:version="1.2 (dc2aedaf03, 2022-05-15)"
   sodipodi:docname="silueta.svg.2023_06_13_20_03_10.0.svg"
   xmlns:inkscape="http://www.inkscape.org/namespaces/inkscape"
   xmlns:sodipodi="http://sodipodi.sourceforge.net/DTD/sodipodi-0.dtd"
   xmlns="http://www.w3.org/2000/svg"
   xmlns:svg="http://www.w3.org/2000/svg"><sodipodi:namedview
     id="namedview7"
     pagecolor="#ffffff"
     bordercolor="#666666"
     borderopacity="1.0"
     inkscape:showpageshadow="2"
     inkscape:pageopacity="0.0"
     inkscape:pagecheckerboard="0"
     inkscape:deskcolor="#d1d1d1"
     inkscape:document-units="mm"
     showgrid="false"
     inkscape:zoom="2"
     inkscape:cx="163"
     inkscape:cy="512.25"
     inkscape:window-width="2400"
     inkscape:window-height="1271"
     inkscape:window-x="2391"
     inkscape:window-y="-9"
     inkscape:window-maximized="1"
     inkscape:current-layer="layer2" /><defs
     id="defs2"><inkscape:path-effect
       effect="powerclip"
       id="path-effect9427-6"
       is_visible="true"
       lpeversion="1"
       inverse="true"
       flatten="false"
       hide_clip="false"
       message="Utilice la regla de relleno parimpar en el diálogo &lt;b&gt;Relleno y borde&lt;/b&gt; si el resultado no está aplanada después de convertir el recorte en trayectos." /><clipPath
       clipPathUnits="userSpaceOnUse"
       id="clipath_lpe_path-effect9427-6"><path
         style="display:none;fill:#007ebb;fill-opacity:1;stroke-width:0.0219338"
         d="m 112.19983,101.98296 c -0.36956,-0.54755 -0.62461,-1.62943 -0.62461,-1.62943 l -0.73403,-0.003 -0.74549,-0.003 -0.0258,0.0936 c -0.009,0.0329 -0.12177,0.51068 -0.49903,1.04271 -0.51752,0.72983 -2.35554,2.64932 -2.35554,2.6593 0,0.01 3.09763,-0.0455 3.56206,-0.042 l 3.44487,0.0258 c -0.82293,-0.77378 -1.44685,-1.29136 -2.0224,-2.14411 z m -0.44641,-1.87424 c 0.87388,-0.0541 1.61309,-0.20557 2.17144,-0.445031 0.85803,-0.367958 1.38546,-0.748469 1.56282,-1.127474 0.19952,-0.426368 -0.032,-0.84028 -0.68371,-1.222354 l -0.18276,-0.107146 0.20217,-0.06045 c 0.1112,-0.03325 0.20687,-0.06513 0.21261,-0.07087 0.0147,-0.01469 -0.006,-0.02098 -1.26292,-0.375936 -0.62032,-0.175249 -1.13213,-0.314367 -1.13736,-0.309139 -0.005,0.0052 0.0614,0.222334 0.14814,0.482454 l 0.15764,0.472956 0.0695,-9.2e-5 c 0.0382,-4.5e-5 0.22686,-0.01013 0.41923,-0.02236 l 0.34977,-0.0223 0.17664,0.102391 c 0.73438,0.425672 0.93291,0.896234 0.53971,1.279226 -0.25606,0.249412 -0.61287,0.418425 -1.17644,0.557276 -1.53703,0.378685 -3.03379,0.434192 -4.17163,0.154707 -0.62112,-0.152559 -1.22544,-0.438602 -1.46759,-0.694647 -0.15362,-0.162428 -0.19151,-0.241568 -0.19151,-0.400056 0,-0.141999 0.0327,-0.2238 0.14838,-0.370922 0.17411,-0.221477 0.73602,-0.539477 1.32537,-0.750059 0.16014,-0.05723 0.28352,-0.111273 0.27417,-0.12011 -0.009,-0.0089 -0.30756,-0.186111 -0.66271,-0.393939 l -0.64572,-0.377867 -0.15486,0.04921 c -0.28582,0.09082 -0.7666,0.289248 -1.05391,0.43497 -0.59315,0.30086 -1.0051,0.63528 -1.15325,0.936207 -0.0679,0.137919 -0.0753,0.171246 -0.0753,0.33982 0,0.162227 0.008,0.204155 0.0642,0.317661 0.0862,0.175554 0.34278,0.431618 0.60477,0.603539 0.55582,0.36473 1.51048,0.751292 2.16701,0.877467 1.17795,0.226378 2.44502,0.323608 3.42611,0.262898 z m -0.32918,-1.013771 c -9e-5,-0.09953 -0.0247,-0.891604 -0.0547,-1.760186 -0.03,-0.868579 -0.0546,-1.606375 -0.0547,-1.639554 l -1.4e-4,-0.06032 h 0.55069 c 0.43181,0 0.54832,-0.0059 0.53969,-0.02743 -0.0588,-0.146547 -1.61879,-3.818461 -1.63294,-3.843763 -0.71549,1.817224 -0.69301,1.785352 -1.63546,3.843763 -0.008,0.02132 0.42642,0.02743 0.76162,0.02743 h 0.43073 l -0.014,0.345464 c -0.0363,0.897263 -0.11068,3.264482 -0.10305,3.279093 0.005,0.0091 0.27944,0.01643 0.61048,0.01643 h 0.60188 z"
         id="path669"
         sodipodi:nodetypes="scccsssscsscsscssssscsccsssssssssscssssssssscsscscccscssscc" /><path
         id="lpe_path-effect9427-6"
         style="fill:#007ebb;fill-opacity:1;stroke-width:0.0219338"
         class="powerclip"
         d="M 93.775301,83.522986 H 146.07239 V 122.83608 H 93.775301 Z m 18.424529,18.459974 c -0.36956,-0.54755 -0.62461,-1.62943 -0.62461,-1.62943 l -0.73403,-0.003 -0.74549,-0.003 -0.0258,0.0936 c -0.009,0.0329 -0.12177,0.51068 -0.49903,1.04271 -0.51752,0.72983 -2.35554,2.64932 -2.35554,2.6593 0,0.01 3.09763,-0.0455 3.56206,-0.042 l 3.44487,0.0258 c -0.82293,-0.77378 -1.44685,-1.29136 -2.0224,-2.14411 z m -0.44641,-1.87424 c 0.87388,-0.0541 1.61309,-0.20557 2.17144,-0.445031 0.85803,-0.367958 1.38546,-0.748469 1.56282,-1.127474 0.19952,-0.426368 -0.032,-0.84028 -0.68371,-1.222354 l -0.18276,-0.107146 0.20217,-0.06045 c 0.1112,-0.03325 0.20687,-0.06513 0.21261,-0.07087 0.0147,-0.01469 -0.006,-0.02098 -1.26292,-0.375936 -0.62032,-0.175249 -1.13213,-0.314367 -1.13736,-0.309139 -0.005,0.0052 0.0614,0.222334 0.14814,0.482454 l 0.15764,0.472956 0.0695,-9.2e-5 c 0.0382,-4.5e-5 0.22686,-0.01013 0.41923,-0.02236 l 0.34977,-0.0223 0.17664,0.102391 c 0.73438,0.425672 0.93291,0.896234 0.53971,1.279226 -0.25606,0.249412 -0.61287,0.418425 -1.17644,0.557276 -1.53703,0.378685 -3.03379,0.434192 -4.17163,0.154707 -0.62112,-0.152559 -1.22544,-0.438602 -1.46759,-0.694647 -0.15362,-0.162428 -0.19151,-0.241568 -0.19151,-0.400056 0,-0.141999 0.0327,-0.2238 0.14838,-0.370922 0.17411,-0.221477 0.73602,-0.539477 1.32537,-0.750059 0.16014,-0.05723 0.28352,-0.111273 0.27417,-0.12011 -0.009,-0.0089 -0.30756,-0.186111 -0.66271,-0.393939 l -0.64572,-0.377867 -0.15486,0.04921 c -0.28582,0.09082 -0.7666,0.289248 -1.05391,0.43497 -0.59315,0.30086 -1.0051,0.63528 -1.15325,0.936207 -0.0679,0.137919 -0.0753,0.171246 -0.0753,0.33982 0,0.162227 0.008,0.204155 0.0642,0.317661 0.0862,0.175554 0.34278,0.431618 0.60477,0.603539 0.55582,0.36473 1.51048,0.751292 2.16701,0.877467 1.17795,0.226378 2.44502,0.323608 3.42611,0.262898 z m -0.32918,-1.013771 c -9e-5,-0.09953 -0.0247,-0.891604 -0.0547,-1.760186 -0.03,-0.868579 -0.0546,-1.606375 -0.0547,-1.639554 l -1.4e-4,-0.06032 h 0.55069 c 0.43181,0 0.54832,-0.0059 0.53969,-0.02743 -0.0588,-0.146547 -1.61879,-3.818461 -1.63294,-3.843763 -0.71549,1.817224 -0.69301,1.785352 -1.63546,3.843763 -0.008,0.02132 0.42642,0.02743 0.76162,0.02743 h 0.43073 l -0.014,0.345464 c -0.0363,0.897263 -0.11068,3.264482 -0.10305,3.279093 0.005,0.0091 0.27944,0.01643 0.61048,0.01643 h 0.60188 z" /></clipPath></defs><g
     inkscape:groupmode="layer"
     id="layer4"
     inkscape:label="Metal"
     style="display:inline"
     transform="translate(-18.441714,-97.299382)"><ellipse
       style="fill:#999999;fill-rule:evenodd;stroke:#999999;stroke-width:0.425391"
       id="path489-7-1"
       transform="matrix(0.9988307,-0.04834503,0.14985457,0.98870805,0,0)"
       clip-path="none"
       cx="65.045975"
       cy="112.45822"
       rx="7.8437986"
       ry="1.1635385" /><path
       style="fill:none;stroke:#999999;stroke-width:0.665;stroke-linecap:round;stroke-linejoin:miter;stroke-dasharray:none;stroke-opacity:1"
       d="m 73.756383,103.69722 c 0,0 -6.922281,-2.61924 -15.434816,0.0935"
       id="path535" /><path
       style="fill:none;stroke:#999999;stroke-width:0.665;stroke-linecap:round;stroke-linejoin:miter;stroke-dasharray:none;stroke-opacity:1"
       d="m 33.114695,116.18206 c 0.748354,-0.28063 7.094124,-2.43312 14.405827,-0.0935"
       id="path537"
       sodipodi:nodetypes="cc" /><ellipse
       style="fill:none;fill-rule:evenodd;stroke:#999999;stroke-width:1.08937;stroke-dasharray:none"
       id="path591"
       cx="52.304981"
       cy="132.52122"
       rx="14.418668"
       ry="14.001408" /><path
       style="fill:none;stroke:#999999;stroke-width:0.665;stroke-linecap:round;stroke-linejoin:miter;stroke-dasharray:none;stroke-opacity:1"
       d="m 59.307108,116.08852 c 14.780004,0.46772 15.154183,0.0935 15.154183,0.0935 v 0"
       id="path1271" /><path
       style="fill:none;stroke:#999999;stroke-width:0.665;stroke-linecap:round;stroke-linejoin:miter;stroke-dasharray:none;stroke-opacity:1"
       d="m 62.58116,121.98181 c 0,0 2.899873,0.28063 11.693041,0.0935"
       id="path1273" /><path
       style="fill:none;stroke:#999999;stroke-width:0.665;stroke-linecap:round;stroke-linejoin:miter;stroke-dasharray:none;stroke-opacity:1"
       d="m 32.896509,130.32529 c 4.894792,0.79375 4.894792,0.46302 4.894792,0.46302"
       id="path1424" /><path
       style="fill:none;stroke:#999999;stroke-width:0.665;stroke-linecap:round;stroke-linejoin:miter;stroke-dasharray:none;stroke-opacity:1"
       d="m 58.891821,113.32581 c 0,0 4.564063,-2.57969 14.684375,-0.59532"
       id="path1426" /><path
       style="fill:none;stroke:#999999;stroke-width:0.49368;stroke-linecap:round;stroke-linejoin:miter;stroke-dasharray:none;stroke-opacity:1"
       d="m 60.172342,113.61575 c 0,0 8.020676,1.3223 12.182111,-0.45416"
       id="path1426-5"
       sodipodi:nodetypes="cc" /><path
       style="fill:none;stroke:#999999;stroke-width:0.665;stroke-linecap:round;stroke-linejoin:miter;stroke-dasharray:none;stroke-opacity:1"
       d="m 63.852759,103.80081 c 0,2.05052 0,2.05052 0,2.05052"
       id="path1428" /><path
       style="fill:none;stroke:#999999;stroke-width:0.665;stroke-linecap:round;stroke-linejoin:miter;stroke-dasharray:none;stroke-opacity:1"
       d="m 64.051196,108.49716 -0.06615,2.31511"
       id="path1430" /><path
       style="fill:none;stroke:#999999;stroke-width:0.665;stroke-linecap:round;stroke-linejoin:miter;stroke-dasharray:none;stroke-opacity:1"
       d="m 73.113175,104.32997 v 1.98438"
       id="path1432" /><path
       style="fill:none;stroke:#999999;stroke-width:0.665;stroke-linecap:round;stroke-linejoin:miter;stroke-dasharray:none;stroke-opacity:1"
       d="m 73.153889,108.75972 0.01779,2.12073"
       id="path1434" /><path
       style="fill:none;stroke:#999999;stroke-width:0.665;stroke-linecap:round;stroke-linejoin:miter;stroke-dasharray:none;stroke-opacity:1"
       d="m 40.53605,116.23394 6.04e-4,1.92279"
       id="path1436" /><path
       style="fill:none;stroke:#999999;stroke-width:0.665;stroke-linecap:round;stroke-linejoin:miter;stroke-dasharray:none;stroke-opacity:1"
       d="m 45.824586,116.67628 6.04e-4,1.92279"
       id="path1436-4" /><path
       style="fill:none;stroke:#999999;stroke-width:0.668396;stroke-linecap:round;stroke-linejoin:miter;stroke-dasharray:none;stroke-opacity:1"
       d="m 35.271961,116.88847 0.01159,2.10202"
       id="path1438" /><path
       style="fill:none;stroke:#999999;stroke-width:0.665;stroke-linecap:round;stroke-linejoin:miter;stroke-dasharray:none;stroke-opacity:1"
       d="m 35.266518,127.53898 0.02248,2.13303"
       id="path1440" /><path
       style="fill:none;stroke:#999999;stroke-width:0.665;stroke-linecap:round;stroke-linejoin:miter;stroke-dasharray:none;stroke-opacity:1"
       d="m 65.241821,117.49299 v 3.10886"
       id="path1442" /><path
       style="fill:none;stroke:#999999;stroke-width:0.671103;stroke-linecap:round;stroke-linejoin:miter;stroke-dasharray:none;stroke-opacity:1"
       d="m 71.899412,117.53573 0.04227,3.16873"
       id="path1444" /><path
       style="fill:#999999;stroke-width:1.10787"
       d="m 61.19292,103.77047 c 0,0 -1.273762,2.13016 -1.238684,4.55561 0.03508,2.42545 -0.830204,3.37267 -0.830204,3.37267 0,0 -0.479414,0.77499 -1.134226,-1.47824 -0.65481,-2.25322 0.128624,-6.22865 0.128624,-6.22865 l 3.975635,-1.09075 z"
       id="path1988" /><ellipse
       style="display:inline;fill:#999999;fill-rule:evenodd;stroke:#999999;stroke-width:0.468894"
       id="path489-0-9-3"
       transform="matrix(0.99973584,0.02298358,-0.27964891,0.96010233,0,0)"
       clip-path="none"
       ry="0.97983468"
       rx="11.316905"
       cy="108.45578"
       cx="60.347763" /><ellipse
       style="fill:#999999;fill-rule:evenodd;stroke:#999999;stroke-width:0.465795"
       id="path489-7-9"
       transform="matrix(0.99919148,-0.04020426,0.30248003,0.95315572,0,0)"
       clip-path="none"
       cx="46.120571"
       cy="105.33766"
       rx="11.329562"
       ry="0.96584165" /></g><path
     style="fill:#ffffff;fill-opacity:1;stroke-width:0.17197"
     d="m 119.14812,117.80417 c -0.37715,-0.0422 -0.78342,-0.15556 -0.90285,-0.25448 -0.34459,-0.2858 -0.26222,-2.49346 0.21316,-5.71467 0.23624,-1.60111 0.42957,-3.31007 0.42957,-3.79764 0,-1.42078 -0.3368,-2.76897 -0.80052,-3.20463 -0.39029,-0.36684 -0.46679,-0.37654 -1.3969,-0.18237 -0.54121,0.11334 -1.37097,0.41201 -1.84387,0.66458 -3.27567,1.74888 -3.10841,1.69159 -4.97689,1.70397 -0.95145,0.007 -1.85763,0.0697 -2.01367,0.14039 -0.67202,0.30656 -1.62935,1.75762 -2.26918,3.44004 -0.54639,1.43673 -0.65961,1.94797 -0.65168,2.94261 0.005,0.66209 0.09,1.47414 0.1882,1.8046 0.47197,1.586 0.15508,1.89279 -1.9554,1.89279 -1.61512,0 -1.72867,-0.12734 -1.99956,-2.2356 -0.19846,-1.54544 -0.18821,-1.70349 0.1882,-2.92352 0.42877,-1.38956 0.50461,-2.70456 0.27812,-4.82346 -0.35725,-3.34241 -1.00443,-1.75316 -1.299,3.18971 -0.0947,1.58855 -0.22435,2.42687 -0.447975,2.89635 -0.349535,0.73368 -0.731929,0.97628 -0.963179,0.61114 -0.212222,-0.33512 -0.194495,-1.7542 0.0287,-2.33548 0.380972,-0.9909 0.492633,-2.45394 0.514741,-6.74368 0.01866,-3.69064 0.07579,-4.62243 0.351285,-5.762289 0.657488,-2.720579 2.073328,-4.760699 5.228728,-7.534265 3.34866,-2.943366 5.23901,-3.431893 8.76645,-2.265587 0.76952,0.254475 1.95087,0.492234 2.68085,0.539693 1.19715,0.07766 1.47533,0.02378 3.36451,-0.623623 1.81746,-0.625145 2.24006,-0.708025 3.59608,-0.705717 1.63498,0.002 2.08109,0.138523 1.91099,0.581901 -0.0835,0.21782 -0.36779,0.275238 -1.35782,0.274562 -1.72445,-0.0016 -2.76517,0.395942 -3.8318,1.462598 -0.91265,0.912524 -1.75572,2.396673 -1.91328,3.368156 -0.0777,0.479619 0.002,0.709473 0.43615,1.255673 0.29226,0.367697 0.53137,0.840882 0.53137,1.051613 0,0.452102 0.56896,1.228362 1.00074,1.365421 0.16722,0.0527 0.60318,0.608027 0.9689,1.233233 0.81906,1.400201 1.42265,1.811321 2.56487,1.747121 0.65576,-0.038 0.86996,0.0163 0.98881,0.25415 0.0833,0.16535 0.22971,0.43633 0.32474,0.60187 0.0954,0.16534 0.22179,0.40312 0.28095,0.52791 0.0595,0.12477 -0.28762,1.13879 -0.77101,2.25319 -1.36962,3.1574 -2.90477,8.94276 -2.73162,10.29425 0.045,0.35166 0.18494,1.0838 0.31075,1.62714 0.14483,0.62541 0.16861,1.04429 0.0646,1.14155 -0.2022,0.18914 -2.15456,0.3415 -3.08561,0.24056 z m 6.0417,-0.58839 c -0.27812,-0.16162 -0.30429,-0.32253 -0.20406,-1.25764 0.0956,-0.89475 0.009,-1.52351 -0.5181,-3.79702 -0.88447,-3.80758 -0.83155,-4.58384 0.50931,-7.47088 0.89107,-1.91855 0.97956,-2.21044 0.87717,-2.89314 -0.0819,-0.54599 -0.059,-0.72544 0.0812,-0.63876 0.34713,0.21432 0.97101,-0.0637 1.18228,-0.5275 0.11707,-0.2572 0.15882,-0.703774 0.0963,-1.035915 -0.0868,-0.463414 -0.0536,-0.584052 0.16161,-0.584052 0.35884,0 0.62708,0.529853 0.62708,1.238627 0,0.41537 -0.18936,0.80252 -0.68788,1.40577 -0.65051,0.78722 -0.68787,0.89475 -0.68787,1.97904 0,0.6306 0.0804,1.80231 0.1791,2.60376 0.24464,1.99033 1.45959,8.16316 1.78877,9.08854 0.32024,0.90038 0.34303,1.59693 0.0613,1.87867 -0.26087,0.26094 -3.02079,0.26945 -3.46603,0.007 z m -18.84324,-0.64802 c -0.55103,-0.0954 -0.60399,-0.16371 -0.8119,-1.0478 -0.38736,-1.64734 -0.32094,-2.70842 0.2806,-4.48418 0.30201,-0.8914 0.73643,-1.91029 0.96537,-2.26416 0.57916,-0.89515 1.606,-1.54487 2.33177,-1.47529 0.51822,0.0497 0.57156,0.10472 0.53884,0.55677 -0.021,0.27593 -0.30262,0.93373 -0.62804,1.46176 -0.95938,1.55656 -1.20879,2.54815 -1.07591,4.27718 0.0641,0.83389 0.22551,1.65383 0.36828,1.87182 0.37062,0.56567 0.31229,0.89734 -0.17584,0.99867 -0.89123,0.18471 -1.22029,0.20406 -1.79329,0.10541 z m 23.18309,-3.80046 c -0.15322,-0.0896 -0.37295,-0.39089 -0.48846,-0.6698 -0.28957,-0.6991 0.0707,-1.47869 0.68319,-1.47869 0.35812,0 0.42013,0.0732 0.38176,0.44953 -0.0534,0.52379 0.30763,0.89399 0.71829,0.73643 0.49709,-0.191 0.76693,-0.99525 0.95544,-2.84838 0.10075,-0.98881 0.37423,-2.48963 0.60812,-3.33513 0.23391,-0.84553 0.42621,-1.7422 0.42738,-1.99267 0.002,-0.31098 -0.35565,-0.88284 -1.12796,-1.80564 l -1.13012,-1.35032 0.10261,-1.375749 c 0.10961,-1.468708 -0.0116,-1.876262 -0.52843,-1.778223 -0.22388,0.04221 -0.34011,0.235422 -0.37799,0.628662 -0.0299,0.311988 -0.14995,0.603922 -0.26634,0.648602 -0.11638,0.04501 -0.71097,-0.105874 -1.32114,-0.335121 l -1.10938,-0.416234 -0.0865,-0.835892 c -0.0478,-0.459725 -0.26709,-1.141566 -0.48757,-1.515233 -0.36397,-0.616866 -0.53995,-1.301241 -0.83727,-3.255521 -0.13083,-0.85996 0.24499,-0.793144 0.68207,0.12104 0.48501,1.014765 1.05012,0.774722 1.25957,-0.534962 0.10564,-0.660943 0.0637,-0.777592 -0.50838,-1.410756 -0.34298,-0.379481 -0.62358,-0.797769 -0.62358,-0.929248 0,-0.477847 1.15882,-0.594008 2.51619,-0.25245 1.69311,0.426333 3.58941,3.14859 5.49408,7.886972 0.95866,2.384922 1.15336,3.043233 1.2206,4.127253 0.10704,1.72538 0.30303,2.19283 1.0001,2.38532 0.74993,0.20686 2.21376,-0.0669 3.16134,-0.59247 0.87049,-0.48247 1.2251,-0.52612 1.2251,-0.15112 0,0.38582 -0.76999,1.04035 -1.83956,1.56365 -0.85572,0.41875 -1.04874,0.44723 -2.38431,0.35287 -1.82748,-0.1292 -1.91011,-0.0534 -2.56153,2.33254 -1.16951,4.28395 -1.49024,4.93139 -2.73593,5.5225 -0.65199,0.30962 -1.58996,0.35924 -2.02106,0.10728 z m -4.53677,-12.20871 c -0.0585,-0.0947 -0.59289,-0.17187 -1.18762,-0.17187 -1.29453,0 -1.64871,-0.24496 -2.44404,-1.690771 -0.29494,-0.536151 -0.73928,-1.075402 -0.98746,-1.198419 -0.5573,-0.275935 -0.85525,-0.803992 -0.75373,-1.33501 0.0518,-0.271179 -0.0893,-0.603783 -0.43149,-1.019082 -0.416,-0.504617 -0.48914,-0.719407 -0.4024,-1.181743 0.21875,-1.166261 1.91323,-3.325786 3.07424,-3.918117 0.5993,-0.305526 0.86847,-0.330689 2.4193,-0.223876 0.95975,0.06623 1.9469,0.222945 2.19371,0.348274 0.54387,0.275907 0.88545,1.035405 0.8105,1.801173 -0.073,0.745688 -0.38394,0.822599 -0.65738,0.162546 -0.24076,-0.581347 -0.75058,-0.938457 -1.13118,-0.792398 -0.17281,0.06623 -0.24389,0.385819 -0.24247,1.088038 0.002,1.305186 0.36726,2.630676 0.92461,3.361371 0.40686,0.53342 0.44911,0.73356 0.44911,2.128392 v 1.539603 l -0.65215,0.636759 c -0.69538,0.67906 -0.81436,0.7354 -0.98157,0.46486 z"
     id="path21-9-2-3-6-2-2"
     sodipodi:nodetypes="ssssssscsscssssssssscssssscscsscssssssssssssscssssssssssssssccsssssssssssssscssscscssssscssssssssssssssssssssssssssssssscsscss"
     clip-path="url(#clipath_lpe_path-effect9427-6)"
     inkscape:path-effect="#path-effect9427-6"
     inkscape:original-d="m 119.14812,117.80417 c -0.37715,-0.0422 -0.78342,-0.15556 -0.90285,-0.25448 -0.34459,-0.2858 -0.26222,-2.49346 0.21316,-5.71467 0.23624,-1.60111 0.42957,-3.31007 0.42957,-3.79764 0,-1.42078 -0.3368,-2.76897 -0.80052,-3.20463 -0.39029,-0.36684 -0.46679,-0.37654 -1.3969,-0.18237 -0.54121,0.11334 -1.37097,0.41201 -1.84387,0.66458 -3.27567,1.74888 -3.10841,1.69159 -4.97689,1.70397 -0.95145,0.007 -1.85763,0.0697 -2.01367,0.14039 -0.67202,0.30656 -1.62935,1.75762 -2.26918,3.44004 -0.54639,1.43673 -0.65961,1.94797 -0.65168,2.94261 0.005,0.66209 0.09,1.47414 0.1882,1.8046 0.47197,1.586 0.15508,1.89279 -1.9554,1.89279 -1.61512,0 -1.72867,-0.12734 -1.99956,-2.2356 -0.19846,-1.54544 -0.18821,-1.70349 0.1882,-2.92352 0.42877,-1.38956 0.50461,-2.70456 0.27812,-4.82346 -0.35725,-3.34241 -1.00443,-1.75316 -1.299,3.18971 -0.0947,1.58855 -0.22435,2.42687 -0.447975,2.89635 -0.349535,0.73368 -0.731929,0.97628 -0.963179,0.61114 -0.212222,-0.33512 -0.194495,-1.7542 0.0287,-2.33548 0.380972,-0.9909 0.492633,-2.45394 0.514741,-6.74368 0.01866,-3.69064 0.07579,-4.62243 0.351285,-5.762289 0.657488,-2.720579 2.073328,-4.760699 5.228728,-7.534265 3.34866,-2.943366 5.23901,-3.431893 8.76645,-2.265587 0.76952,0.254475 1.95087,0.492234 2.68085,0.539693 1.19715,0.07766 1.47533,0.02378 3.36451,-0.623623 1.81746,-0.625145 2.24006,-0.708025 3.59608,-0.705717 1.63498,0.002 2.08109,0.138523 1.91099,0.581901 -0.0835,0.21782 -0.36779,0.275238 -1.35782,0.274562 -1.72445,-0.0016 -2.76517,0.395942 -3.8318,1.462598 -0.91265,0.912524 -1.75572,2.396673 -1.91328,3.368156 -0.0777,0.479619 0.002,0.709473 0.43615,1.255673 0.29226,0.367697 0.53137,0.840882 0.53137,1.051613 0,0.452102 0.56896,1.228362 1.00074,1.365421 0.16722,0.0527 0.60318,0.608027 0.9689,1.233233 0.81906,1.400201 1.42265,1.811321 2.56487,1.747121 0.65576,-0.038 0.86996,0.0163 0.98881,0.25415 0.0833,0.16535 0.22971,0.43633 0.32474,0.60187 0.0954,0.16534 0.22179,0.40312 0.28095,0.52791 0.0595,0.12477 -0.28762,1.13879 -0.77101,2.25319 -1.36962,3.1574 -2.90477,8.94276 -2.73162,10.29425 0.045,0.35166 0.18494,1.0838 0.31075,1.62714 0.14483,0.62541 0.16861,1.04429 0.0646,1.14155 -0.2022,0.18914 -2.15456,0.3415 -3.08561,0.24056 z m 6.0417,-0.58839 c -0.27812,-0.16162 -0.30429,-0.32253 -0.20406,-1.25764 0.0956,-0.89475 0.009,-1.52351 -0.5181,-3.79702 -0.88447,-3.80758 -0.83155,-4.58384 0.50931,-7.47088 0.89107,-1.91855 0.97956,-2.21044 0.87717,-2.89314 -0.0819,-0.54599 -0.059,-0.72544 0.0812,-0.63876 0.34713,0.21432 0.97101,-0.0637 1.18228,-0.5275 0.11707,-0.2572 0.15882,-0.703774 0.0963,-1.035915 -0.0868,-0.463414 -0.0536,-0.584052 0.16161,-0.584052 0.35884,0 0.62708,0.529853 0.62708,1.238627 0,0.41537 -0.18936,0.80252 -0.68788,1.40577 -0.65051,0.78722 -0.68787,0.89475 -0.68787,1.97904 0,0.6306 0.0804,1.80231 0.1791,2.60376 0.24464,1.99033 1.45959,8.16316 1.78877,9.08854 0.32024,0.90038 0.34303,1.59693 0.0613,1.87867 -0.26087,0.26094 -3.02079,0.26945 -3.46603,0.007 z m -18.84324,-0.64802 c -0.55103,-0.0954 -0.60399,-0.16371 -0.8119,-1.0478 -0.38736,-1.64734 -0.32094,-2.70842 0.2806,-4.48418 0.30201,-0.8914 0.73643,-1.91029 0.96537,-2.26416 0.57916,-0.89515 1.606,-1.54487 2.33177,-1.47529 0.51822,0.0497 0.57156,0.10472 0.53884,0.55677 -0.021,0.27593 -0.30262,0.93373 -0.62804,1.46176 -0.95938,1.55656 -1.20879,2.54815 -1.07591,4.27718 0.0641,0.83389 0.22551,1.65383 0.36828,1.87182 0.37062,0.56567 0.31229,0.89734 -0.17584,0.99867 -0.89123,0.18471 -1.22029,0.20406 -1.79329,0.10541 z m 23.18309,-3.80046 c -0.15322,-0.0896 -0.37295,-0.39089 -0.48846,-0.6698 -0.28957,-0.6991 0.0707,-1.47869 0.68319,-1.47869 0.35812,0 0.42013,0.0732 0.38176,0.44953 -0.0534,0.52379 0.30763,0.89399 0.71829,0.73643 0.49709,-0.191 0.76693,-0.99525 0.95544,-2.84838 0.10075,-0.98881 0.37423,-2.48963 0.60812,-3.33513 0.23391,-0.84553 0.42621,-1.7422 0.42738,-1.99267 0.002,-0.31098 -0.35565,-0.88284 -1.12796,-1.80564 l -1.13012,-1.35032 0.10261,-1.375749 c 0.10961,-1.468708 -0.0116,-1.876262 -0.52843,-1.778223 -0.22388,0.04221 -0.34011,0.235422 -0.37799,0.628662 -0.0299,0.311988 -0.14995,0.603922 -0.26634,0.648602 -0.11638,0.04501 -0.71097,-0.105874 -1.32114,-0.335121 l -1.10938,-0.416234 -0.0865,-0.835892 c -0.0478,-0.459725 -0.26709,-1.141566 -0.48757,-1.515233 -0.36397,-0.616866 -0.53995,-1.301241 -0.83727,-3.255521 -0.13083,-0.85996 0.24499,-0.793144 0.68207,0.12104 0.48501,1.014765 1.05012,0.774722 1.25957,-0.534962 0.10564,-0.660943 0.0637,-0.777592 -0.50838,-1.410756 -0.34298,-0.379481 -0.62358,-0.797769 -0.62358,-0.929248 0,-0.477847 1.15882,-0.594008 2.51619,-0.25245 1.69311,0.426333 3.58941,3.14859 5.49408,7.886972 0.95866,2.384922 1.15336,3.043233 1.2206,4.127253 0.10704,1.72538 0.30303,2.19283 1.0001,2.38532 0.74993,0.20686 2.21376,-0.0669 3.16134,-0.59247 0.87049,-0.48247 1.2251,-0.52612 1.2251,-0.15112 0,0.38582 -0.76999,1.04035 -1.83956,1.56365 -0.85572,0.41875 -1.04874,0.44723 -2.38431,0.35287 -1.82748,-0.1292 -1.91011,-0.0534 -2.56153,2.33254 -1.16951,4.28395 -1.49024,4.93139 -2.73593,5.5225 -0.65199,0.30962 -1.58996,0.35924 -2.02106,0.10728 z m -4.53677,-12.20871 c -0.0585,-0.0947 -0.59289,-0.17187 -1.18762,-0.17187 -1.29453,0 -1.64871,-0.24496 -2.44404,-1.690771 -0.29494,-0.536151 -0.73928,-1.075402 -0.98746,-1.198419 -0.5573,-0.275935 -0.85525,-0.803992 -0.75373,-1.33501 0.0518,-0.271179 -0.0893,-0.603783 -0.43149,-1.019082 -0.416,-0.504617 -0.48914,-0.719407 -0.4024,-1.181743 0.21875,-1.166261 1.91323,-3.325786 3.07424,-3.918117 0.5993,-0.305526 0.86847,-0.330689 2.4193,-0.223876 0.95975,0.06623 1.9469,0.222945 2.19371,0.348274 0.54387,0.275907 0.88545,1.035405 0.8105,1.801173 -0.073,0.745688 -0.38394,0.822599 -0.65738,0.162546 -0.24076,-0.581347 -0.75058,-0.938457 -1.13118,-0.792398 -0.17281,0.06623 -0.24389,0.385819 -0.24247,1.088038 0.002,1.305186 0.36726,2.630676 0.92461,3.361371 0.40686,0.53342 0.44911,0.73356 0.44911,2.128392 v 1.539603 l -0.65215,0.636759 c -0.69538,0.67906 -0.81436,0.7354 -0.98157,0.46486 z"
     transform="matrix(0.46516709,0,0,0.46516709,-21.345584,-16.098036)" /></svg>
