<?xml version="1.0" encoding="UTF-8" standalone="no"?>
<!-- Created with Inkscape (http://www.inkscape.org/) -->

<svg
   width="78.836662mm"
   height="56.470482mm"
   viewBox="0 0 78.836662 56.470482"
   version="1.1"
   id="svg5"
   xml:space="preserve"
   inkscape:version="1.2 (dc2aedaf03, 2022-05-15)"
   sodipodi:docname="silueta.svg.2023_06_13_20_03_10.0.svg"
   xmlns:inkscape="http://www.inkscape.org/namespaces/inkscape"
   xmlns:sodipodi="http://sodipodi.sourceforge.net/DTD/sodipodi-0.dtd"
   xmlns="http://www.w3.org/2000/svg"
   xmlns:svg="http://www.w3.org/2000/svg"><sodipodi:namedview
     id="namedview7"
     pagecolor="#ffffff"
     bordercolor="#666666"
     borderopacity="1.0"
     inkscape:showpageshadow="2"
     inkscape:pageopacity="0.0"
     inkscape:pagecheckerboard="0"
     inkscape:deskcolor="#d1d1d1"
     inkscape:document-units="mm"
     showgrid="false"
     inkscape:zoom="2"
     inkscape:cx="163"
     inkscape:cy="512.25"
     inkscape:window-width="2400"
     inkscape:window-height="1271"
     inkscape:window-x="2391"
     inkscape:window-y="-9"
     inkscape:window-maximized="1"
     inkscape:current-layer="layer2" /><defs
     id="defs2"><inkscape:path-effect
       effect="powerclip"
       id="path-effect9427-6"
       is_visible="true"
       lpeversion="1"
       inverse="true"
       flatten="false"
       hide_clip="false"
       message="Utilice la regla de relleno parimpar en el diálogo &lt;b&gt;Relleno y borde&lt;/b&gt; si el resultado no está aplanada después de convertir el recorte en trayectos." /><clipPath
       clipPathUnits="userSpaceOnUse"
       id="clipath_lpe_path-effect9427-6"><path
         style="display:none;fill:#007ebb;fill-opacity:1;stroke-width:0.0219338"
         d="m 112.19983,101.98296 c -0.36956,-0.54755 -0.62461,-1.62943 -0.62461,-1.62943 l -0.73403,-0.003 -0.74549,-0.003 -0.0258,0.0936 c -0.009,0.0329 -0.12177,0.51068 -0.49903,1.04271 -0.51752,0.72983 -2.35554,2.64932 -2.35554,2.6593 0,0.01 3.09763,-0.0455 3.56206,-0.042 l 3.44487,0.0258 c -0.82293,-0.77378 -1.44685,-1.29136 -2.0224,-2.14411 z m -0.44641,-1.87424 c 0.87388,-0.0541 1.61309,-0.20557 2.17144,-0.445031 0.85803,-0.367958 1.38546,-0.748469 1.56282,-1.127474 0.19952,-0.426368 -0.032,-0.84028 -0.68371,-1.222354 l -0.18276,-0.107146 0.20217,-0.06045 c 0.1112,-0.03325 0.20687,-0.06513 0.21261,-0.07087 0.0147,-0.01469 -0.006,-0.02098 -1.26292,-0.375936 -0.62032,-0.175249 -1.13213,-0.314367 -1.13736,-0.309139 -0.005,0.0052 0.0614,0.222334 0.14814,0.482454 l 0.15764,0.472956 0.0695,-9.2e-5 c 0.0382,-4.5e-5 0.22686,-0.01013 0.41923,-0.02236 l 0.34977,-0.0223 0.17664,0.102391 c 0.73438,0.425672 0.93291,0.896234 0.53971,1.279226 -0.25606,0.249412 -0.61287,0.418425 -1.17644,0.557276 -1.53703,0.378685 -3.03379,0.434192 -4.17163,0.154707 -0.62112,-0.152559 -1.22544,-0.438602 -1.46759,-0.694647 -0.15362,-0.162428 -0.19151,-0.241568 -0.19151,-0.400056 0,-0.141999 0.0327,-0.2238 0.14838,-0.370922 0.17411,-0.221477 0.73602,-0.539477 1.32537,-0.750059 0.16014,-0.05723 0.28352,-0.111273 0.27417,-0.12011 -0.009,-0.0089 -0.30756,-0.186111 -0.66271,-0.393939 l -0.64572,-0.377867 -0.15486,0.04921 c -0.28582,0.09082 -0.7666,0.289248 -1.05391,0.43497 -0.59315,0.30086 -1.0051,0.63528 -1.15325,0.936207 -0.0679,0.137919 -0.0753,0.171246 -0.0753,0.33982 0,0.162227 0.008,0.204155 0.0642,0.317661 0.0862,0.175554 0.34278,0.431618 0.60477,0.603539 0.55582,0.36473 1.51048,0.751292 2.16701,0.877467 1.17795,0.226378 2.44502,0.323608 3.42611,0.262898 z m -0.32918,-1.013771 c -9e-5,-0.09953 -0.0247,-0.891604 -0.0547,-1.760186 -0.03,-0.868579 -0.0546,-1.606375 -0.0547,-1.639554 l -1.4e-4,-0.06032 h 0.55069 c 0.43181,0 0.54832,-0.0059 0.53969,-0.02743 -0.0588,-0.146547 -1.61879,-3.818461 -1.63294,-3.843763 -0.71549,1.817224 -0.69301,1.785352 -1.63546,3.843763 -0.008,0.02132 0.42642,0.02743 0.76162,0.02743 h 0.43073 l -0.014,0.345464 c -0.0363,0.897263 -0.11068,3.264482 -0.10305,3.279093 0.005,0.0091 0.27944,0.01643 0.61048,0.01643 h 0.60188 z"
         id="path669"
         sodipodi:nodetypes="scccsssscsscsscssssscsccsssssssssscssssssssscsscscccscssscc" /><path
         id="lpe_path-effect9427-6"
         style="fill:#007ebb;fill-opacity:1;stroke-width:0.0219338"
         class="powerclip"
         d="M 93.775301,83.522986 H 146.07239 V 122.83608 H 93.775301 Z m 18.424529,18.459974 c -0.36956,-0.54755 -0.62461,-1.62943 -0.62461,-1.62943 l -0.73403,-0.003 -0.74549,-0.003 -0.0258,0.0936 c -0.009,0.0329 -0.12177,0.51068 -0.49903,1.04271 -0.51752,0.72983 -2.35554,2.64932 -2.35554,2.6593 0,0.01 3.09763,-0.0455 3.56206,-0.042 l 3.44487,0.0258 c -0.82293,-0.77378 -1.44685,-1.29136 -2.0224,-2.14411 z m -0.44641,-1.87424 c 0.87388,-0.0541 1.61309,-0.20557 2.17144,-0.445031 0.85803,-0.367958 1.38546,-0.748469 1.56282,-1.127474 0.19952,-0.426368 -0.032,-0.84028 -0.68371,-1.222354 l -0.18276,-0.107146 0.20217,-0.06045 c 0.1112,-0.03325 0.20687,-0.06513 0.21261,-0.07087 0.0147,-0.01469 -0.006,-0.02098 -1.26292,-0.375936 -0.62032,-0.175249 -1.13213,-0.314367 -1.13736,-0.309139 -0.005,0.0052 0.0614,0.222334 0.14814,0.482454 l 0.15764,0.472956 0.0695,-9.2e-5 c 0.0382,-4.5e-5 0.22686,-0.01013 0.41923,-0.02236 l 0.34977,-0.0223 0.17664,0.102391 c 0.73438,0.425672 0.93291,0.896234 0.53971,1.279226 -0.25606,0.249412 -0.61287,0.418425 -1.17644,0.557276 -1.53703,0.378685 -3.03379,0.434192 -4.17163,0.154707 -0.62112,-0.152559 -1.22544,-0.438602 -1.46759,-0.694647 -0.15362,-0.162428 -0.19151,-0.241568 -0.19151,-0.400056 0,-0.141999 0.0327,-0.2238 0.14838,-0.370922 0.17411,-0.221477 0.73602,-0.539477 1.32537,-0.750059 0.16014,-0.05723 0.28352,-0.111273 0.27417,-0.12011 -0.009,-0.0089 -0.30756,-0.186111 -0.66271,-0.393939 l -0.64572,-0.377867 -0.15486,0.04921 c -0.28582,0.09082 -0.7666,0.289248 -1.05391,0.43497 -0.59315,0.30086 -1.0051,0.63528 -1.15325,0.936207 -0.0679,0.137919 -0.0753,0.171246 -0.0753,0.33982 0,0.162227 0.008,0.204155 0.0642,0.317661 0.0862,0.175554 0.34278,0.431618 0.60477,0.603539 0.55582,0.36473 1.51048,0.751292 2.16701,0.877467 1.17795,0.226378 2.44502,0.323608 3.42611,0.262898 z m -0.32918,-1.013771 c -9e-5,-0.09953 -0.0247,-0.891604 -0.0547,-1.760186 -0.03,-0.868579 -0.0546,-1.606375 -0.0547,-1.639554 l -1.4e-4,-0.06032 h 0.55069 c 0.43181,0 0.54832,-0.0059 0.53969,-0.02743 -0.0588,-0.146547 -1.61879,-3.818461 -1.63294,-3.843763 -0.71549,1.817224 -0.69301,1.785352 -1.63546,3.843763 -0.008,0.02132 0.42642,0.02743 0.76162,0.02743 h 0.43073 l -0.014,0.345464 c -0.0363,0.897263 -0.11068,3.264482 -0.10305,3.279093 0.005,0.0091 0.27944,0.01643 0.61048,0.01643 h 0.60188 z" /></clipPath></defs><g
     inkscape:groupmode="layer"
     id="layer3"
     inkscape:label="Serigrafia"
     style="display:inline"
     transform="translate(-12.638023,-93.070073)"><path
       style="fill:none;stroke:#ffffff;stroke-width:0.964114;stroke-linecap:round;stroke-linejoin:miter;stroke-dasharray:none;stroke-opacity:1"
       d="m 29.434918,107.27675 c 0.331896,0.52634 -0.132757,34.67265 -0.132757,34.67265"
       id="path1557" /><path
       style="fill:none;stroke:#ffffff;stroke-width:0.865;stroke-linecap:round;stroke-linejoin:miter;stroke-dasharray:none;stroke-opacity:1"
       d="m 81.690103,109.86823 -0.396875,25.00312"
       id="path1559" /><path
       style="fill:none;stroke:#ffffff;stroke-width:0.865;stroke-linecap:round;stroke-linejoin:miter;stroke-dasharray:none;stroke-opacity:1"
       d="m 77.805237,100.39178 c 0.144481,0.25814 0.01935,6.09114 0.01935,6.09114"
       id="path1561" /><path
       style="fill:none;stroke:#ffffff;stroke-width:0.865;stroke-linecap:round;stroke-linejoin:miter;stroke-dasharray:none;stroke-opacity:1"
       d="m 77.655207,109.92303 -0.396875,31.08854"
       id="path1563" /><path
       style="fill:none;stroke:#ffffff;stroke-width:0.965;stroke-linecap:round;stroke-linejoin:miter;stroke-dasharray:none;stroke-opacity:1"
       d="M 14.592916,143.96473 29.372919,129.5589 40.878874,144.43245"
       id="path1509" /><path
       style="fill:none;stroke:#ffffff;stroke-width:0.865;stroke-linecap:round;stroke-linejoin:miter;stroke-dasharray:none;stroke-opacity:1"
       d="m 36.97552,134.47448 -5.390885,12.89843"
       id="path1511" /><path
       style="fill:#ffffff;stroke:#ffffff;stroke-width:0.865;stroke-linecap:round;stroke-linejoin:miter;stroke-dasharray:none;stroke-opacity:1"
       d="m 67.567968,135.36744 5.622395,12.50157"
       id="path1513" /><path
       style="fill:#ffffff;stroke:#ffffff;stroke-width:0.865;stroke-linecap:round;stroke-linejoin:miter;stroke-dasharray:none;stroke-opacity:1"
       d="m 77.555989,129.14974 c 0.396875,0.46302 9.260416,16.66874 9.260416,16.66874"
       id="path1517" /><path
       style="fill:none;stroke:#ffffff;stroke-width:0.865;stroke-linecap:round;stroke-linejoin:miter;stroke-dasharray:none;stroke-opacity:1"
       d="m 81.756249,126.1401 7.474479,14.48594"
       id="path1521" /><path
       style="fill:none;stroke:#ffffff;stroke-width:0.805;stroke-linecap:round;stroke-linejoin:miter;stroke-dasharray:none;stroke-opacity:1"
       d="m 81.177018,126.27471 -9.117813,11.73057"
       id="path1523" /><path
       style="fill:#ffffff;stroke:#ffffff;stroke-width:0.801;stroke-linecap:round;stroke-linejoin:miter;stroke-dasharray:none;stroke-opacity:1"
       d="M 77.210552,129.21757 63.726036,145.93821"
       id="path1525" /><path
       style="fill:none;stroke:#ffffff;stroke-width:0.465;stroke-linecap:round;stroke-linejoin:miter;stroke-dasharray:none;stroke-opacity:1"
       d="m 32.834061,117.02396 0.18709,12.39463"
       id="path1820" /><path
       style="display:inline;fill:none;stroke:#ffffff;stroke-width:0.361;stroke-linecap:round;stroke-linejoin:miter;stroke-dasharray:none;stroke-opacity:1"
       d="m 47.593757,116.69173 -0.0062,1.74021"
       id="path1820-9" /><path
       style="fill:none;stroke:#ffffff;stroke-width:1.165;stroke-linecap:round;stroke-linejoin:round;stroke-dasharray:none;stroke-opacity:1"
       d="m 51.746068,117.27388 0.04677,-5.8933 5.752978,-0.28063"
       id="path1822" /><path
       style="fill:#ffffff;stroke:#ffffff;stroke-width:1.02165;stroke-linecap:round;stroke-linejoin:miter;stroke-dasharray:none;stroke-opacity:1"
       d="m 66.844818,122.98593 0.05136,3.85268"
       id="path1824" /><path
       style="fill:#ffffff;stroke:#ffffff;stroke-width:0.597711;stroke-linecap:round;stroke-linejoin:miter;stroke-dasharray:none;stroke-opacity:1"
       d="m 69.289622,122.80733 -2.471264,2.67489"
       id="path1826" /><path
       style="fill:#ffffff;stroke:#ffffff;stroke-width:0.516982;stroke-linecap:round;stroke-linejoin:miter;stroke-dasharray:none;stroke-opacity:1"
       d="m 64.580047,122.92833 2.433398,2.45678"
       id="path1828" /><path
       style="fill:none;stroke:#ffffff;stroke-width:0.267355px;stroke-linecap:round;stroke-linejoin:miter;stroke-opacity:1"
       d="m 59.168177,116.65117 0.044,2.63985"
       id="path1830" /><path
       style="fill:none;stroke:#ffffff;stroke-width:0.274659px;stroke-linecap:round;stroke-linejoin:miter;stroke-opacity:1"
       d="m 74.422541,116.89343 v 4.53622"
       id="path1832" /><path
       style="fill:none;stroke:#ffffff;stroke-width:0.268548px;stroke-linecap:round;stroke-linejoin:miter;stroke-opacity:1"
       d="m 73.809636,104.32965 0.04281,3.4221"
       id="path1834" /><path
       style="fill:none;stroke:#ffffff;stroke-width:0.264583px;stroke-linecap:round;stroke-linejoin:miter;stroke-opacity:1"
       d="m 73.828203,109.09725 0.04677,2.99342"
       id="path1836" /><ellipse
       style="fill:#ffffff;fill-rule:evenodd;stroke:#ffffff;stroke-width:0.564999;stroke-linecap:round;stroke-dasharray:none;stroke-opacity:1"
       id="path1890"
       cx="87.747871"
       cy="116.03513"
       rx="0.9921875"
       ry="1.4221354"
       transform="rotate(31.556265)" /><ellipse
       style="fill:#ffffff;fill-rule:evenodd;stroke:#ffffff;stroke-width:0.564999;stroke-linecap:round;stroke-dasharray:none;stroke-opacity:1"
       id="path1890-3"
       cx="104.12585"
       cy="109.66398"
       rx="0.9921875"
       ry="1.4221354"
       transform="rotate(31.556265)" /><ellipse
       style="display:inline;fill:#ffffff;fill-rule:evenodd;stroke:#ffffff;stroke-width:0.564999;stroke-linecap:round;stroke-dasharray:none;stroke-opacity:1"
       id="path1890-3-7"
       cx="130.64598"
       cy="92.608131"
       rx="0.9921875"
       ry="1.4221354"
       transform="rotate(31.556265)" /><ellipse
       style="fill:#ffffff;fill-rule:evenodd;stroke:#ffffff;stroke-width:0.564999;stroke-linecap:round;stroke-dasharray:none;stroke-opacity:1"
       id="path1890-4"
       cx="58.263344"
       cy="-139.77182"
       rx="0.9921875"
       ry="1.4221354"
       transform="rotate(141.36034)" /><ellipse
       style="fill:#ffffff;fill-rule:evenodd;stroke:#ffffff;stroke-width:0.564999;stroke-linecap:round;stroke-dasharray:none;stroke-opacity:1"
       id="path1890-0"
       cx="-26.196615"
       cy="163.15607"
       rx="0.9921875"
       ry="1.4221354"
       transform="rotate(-35.577913)" /><ellipse
       style="fill:#ffffff;fill-rule:evenodd;stroke:#ffffff;stroke-width:0.564999;stroke-linecap:round;stroke-dasharray:none;stroke-opacity:1"
       id="path1890-0-0"
       cx="-14.044305"
       cy="170.52652"
       rx="0.9921875"
       ry="1.4221354"
       transform="rotate(-35.577913)" /><ellipse
       style="fill:#ffffff;fill-rule:evenodd;stroke:#ffffff;stroke-width:0.564999;stroke-linecap:round;stroke-dasharray:none;stroke-opacity:1"
       id="path1890-0-5"
       cx="-9.3338146"
       cy="167.80037"
       rx="0.9921875"
       ry="1.4221354"
       transform="rotate(-35.577913)" /><ellipse
       style="display:inline;fill:#ffffff;fill-rule:evenodd;stroke:#ffffff;stroke-width:0.389171;stroke-linecap:round;stroke-dasharray:none;stroke-opacity:1"
       id="path1890-0-5-5"
       cx="1.4599541"
       cy="162.7838"
       rx="0.67184985"
       ry="0.99643171"
       transform="matrix(0.78262647,-0.62249161,0.54105698,0.84098594,0,0)" /><ellipse
       style="display:inline;fill:#ffffff;fill-rule:evenodd;stroke:#ffffff;stroke-width:0.564999;stroke-linecap:round;stroke-dasharray:none;stroke-opacity:1"
       id="path1890-0-5-8"
       cx="-16.569981"
       cy="166.82204"
       rx="0.9921875"
       ry="1.4221354"
       transform="rotate(-35.577913)" /><ellipse
       style="fill:#ffffff;fill-rule:evenodd;stroke:#ffffff;stroke-width:0.564999;stroke-linecap:round;stroke-dasharray:none;stroke-opacity:1"
       id="path1890-0-2"
       cx="131.91539"
       cy="84.223732"
       rx="0.9921875"
       ry="1.4221354"
       transform="rotate(30.311368)" /><circle
       style="fill:none;fill-rule:evenodd;stroke:#ffffff;stroke-width:0.424;stroke-dasharray:none"
       id="path2042"
       cx="69.117569"
       cy="107.13165"
       r="1.0492678" /><circle
       style="fill:none;fill-rule:evenodd;stroke:#ffffff;stroke-width:0.379;stroke-dasharray:none"
       id="path2042-6"
       cx="68.731689"
       cy="118.94162"
       r="0.83796394" /><circle
       style="fill:none;fill-rule:evenodd;stroke:#ffffff;stroke-width:0.373;stroke-dasharray:none"
       id="path2042-5"
       cx="38.414188"
       cy="123.13047"
       r="0.8102048" /><circle
       style="fill:#ffffff;fill-rule:evenodd;stroke-width:1.32"
       id="path2131"
       cx="38.414188"
       cy="123.13047"
       r="0.27285156" /><circle
       style="fill:#ffffff;fill-rule:evenodd;stroke-width:1.32"
       id="path2131-1"
       cx="68.731689"
       cy="118.94162"
       r="0.27285156" /><circle
       style="fill:#ffffff;fill-rule:evenodd;stroke-width:1.32"
       id="path2131-1-5"
       cx="69.117569"
       cy="107.13165"
       r="0.27285156" /><path
       style="fill:none;stroke:#ffffff;stroke-width:0.261014px;stroke-linecap:round;stroke-linejoin:miter;stroke-opacity:1"
       d="m 58.611691,111.8839 0.03664,0.98772 v 0"
       id="path3512" /><path
       style="display:inline;fill:#ffffff;stroke:#ffffff;stroke-width:0.264583px;stroke-linecap:butt;stroke-linejoin:miter;stroke-opacity:1"
       d="m 28.424796,103.93269 c -0.02761,-0.13104 -0.137271,-0.44935 -0.137271,-0.44935 l 0.784166,-0.15149 c 0,0 -1.231956,-0.47264 -0.73295,-0.99906 0.438242,-0.46232 1.079383,0.91294 1.079383,0.91294 0,0 0.16071,-1.31403 0.909903,-0.96271 0.562457,0.26376 -0.676436,1.15885 -0.676436,1.15885 l 0.816845,0.0312 -0.166257,0.51705 z"
       id="path6954"
       sodipodi:nodetypes="cccscscccc" /><path
       style="display:inline;fill:#ffffff;stroke:#ffffff;stroke-width:0.264583px;stroke-linecap:butt;stroke-linejoin:miter;stroke-opacity:1"
       d="m 77.009479,97.149393 c -0.03534,-0.129163 -0.163694,-0.440404 -0.163694,-0.440404 l 0.773795,-0.197758 c 0,0 -1.257833,-0.398702 -0.790944,-0.953806 0.410034,-0.487508 1.131656,0.84728 1.131656,0.84728 0,0 0.08245,-1.321249 0.85117,-1.015007 0.577118,0.229912 -0.606476,1.196942 -0.606476,1.196942 l 0.817259,-0.01729 -0.135282,0.526006 z"
       id="path6954-1"
       sodipodi:nodetypes="cccscscccc" /><path
       style="display:inline;fill:#ffffff;stroke:#ffffff;stroke-width:0.264583px;stroke-linecap:butt;stroke-linejoin:miter;stroke-opacity:1"
       d="m 80.664363,106.46224 c -0.03778,-0.12848 -0.172003,-0.43723 -0.172003,-0.43723 l 0.769911,-0.21237 c 0,0 -1.265155,-0.37482 -0.808861,-0.93866 0.40073,-0.49518 1.147496,0.8257 1.147496,0.8257 0,0 0.05742,-1.32258 0.831799,-1.03094 0.581368,0.21894 -0.583705,1.2082 -0.583705,1.2082 l 0.816785,-0.0328 -0.125299,0.52848 z"
       id="path6954-1-8"
       sodipodi:nodetypes="cccscscccc" /><path
       style="display:inline;fill:#ffffff;stroke:#ffffff;stroke-width:0.187587px;stroke-linecap:butt;stroke-linejoin:miter;stroke-opacity:1"
       d="m 54.519356,110.2931 c -0.02679,-0.0911 -0.121949,-0.30999 -0.121949,-0.30999 l 0.545859,-0.15057 c 0,0 -0.896982,-0.26574 -0.573474,-0.6655 0.284113,-0.35108 0.813563,0.58541 0.813563,0.58541 0,0 0.04071,-0.93769 0.589737,-0.73092 0.412184,0.15522 -0.413841,0.8566 -0.413841,0.8566 l 0.579092,-0.0233 -0.08883,0.37469 z"
       id="path6954-1-8-7"
       sodipodi:nodetypes="cccscscccc" /><path
       style="display:inline;fill:#ffffff;stroke:#ffffff;stroke-width:0.193952px;stroke-linecap:butt;stroke-linejoin:miter;stroke-opacity:1"
       d="m 83.012703,117.98905 c 0.09525,-0.0238 0.32538,-0.11293 0.32538,-0.11293 l 0.132563,0.57025 c 0,0 0.312307,-0.91546 0.71166,-0.56441 0.350723,0.30829 -0.63904,0.81582 -0.63904,0.81582 0,0 0.967001,0.0815 0.730267,0.64002 -0.177715,0.41928 -0.867507,-0.4636 -0.867507,-0.4636 l -4.07e-4,0.59922 -0.383338,-0.10755 z"
       id="path6954-1-8-6"
       sodipodi:nodetypes="cccscscccc" /><path
       style="display:inline;fill:#ffffff;stroke:#ffffff;stroke-width:0.193952px;stroke-linecap:butt;stroke-linejoin:miter;stroke-opacity:1"
       d="m 68.196017,135.13673 c 0.0765,-0.0615 0.24808,-0.23892 0.24808,-0.23892 l 0.359383,0.46217 c 0,0 -0.10018,-0.96206 0.409544,-0.81074 0.447649,0.13289 -0.23823,1.00856 -0.23823,1.00856 0,0 0.912113,-0.33134 0.93129,0.27498 0.0144,0.45516 -0.981943,-0.0573 -0.981943,-0.0573 l 0.250801,0.54421 -0.393117,0.063 z"
       id="path6954-1-8-6-9"
       sodipodi:nodetypes="cccscscccc" /><path
       style="display:inline;fill:#ffffff;stroke:#ffffff;stroke-width:0.193952px;stroke-linecap:butt;stroke-linejoin:miter;stroke-opacity:1"
       d="m 35.794245,135.81241 c -0.09692,-0.0156 -0.343601,-0.0239 -0.343601,-0.0239 l 0.101882,-0.57652 c 0,0 -0.646542,0.71943 -0.876089,0.23976 -0.201585,-0.4212 0.907957,-0.49956 0.907957,-0.49956 0,0 -0.857426,-0.45447 -0.42048,-0.87527 0.328009,-0.3159 0.615936,0.76689 0.615936,0.76689 l 0.235553,-0.55098 0.310343,0.24939 z"
       id="path6954-1-8-6-9-1"
       sodipodi:nodetypes="cccscscccc" /><rect
       style="fill:#ffffff;fill-rule:evenodd;stroke-width:0.208643"
       id="rect7109"
       width="2.4473958"
       height="11.773958"
       x="28.343489"
       y="109.00833" /><rect
       style="display:inline;fill:#ffffff;fill-rule:evenodd;stroke-width:0.158713"
       id="rect7109-3"
       width="2.4473958"
       height="6.8130207"
       x="80.400261"
       y="115.49062" /><rect
       style="display:inline;fill:#ffffff;fill-rule:evenodd;stroke-width:0.199045"
       id="rect7109-3-7"
       width="2.4473958"
       height="10.715625"
       x="76.431511"
       y="110.82734" /><rect
       style="display:inline;fill:#ffffff;fill-rule:evenodd;stroke-width:0.114919"
       id="rect7109-3-7-1"
       width="2.4473958"
       height="3.5718749"
       x="50.502342"
       y="112.38177" /><rect
       style="display:inline;fill:#ffffff;fill-rule:evenodd;stroke-width:0.108424"
       id="rect7109-3-7-1-3"
       width="4.2277927"
       height="1.8405739"
       x="42.888557"
       y="112.29382"
       transform="matrix(0.99953797,-0.03039472,0.0905374,0.99589306,0,0)" /><path
       style="display:inline;fill:none;stroke:#ffffff;stroke-width:0.665;stroke-linecap:round;stroke-linejoin:miter;stroke-dasharray:none;stroke-opacity:1"
       d="m 23.680208,134.87135 5.820833,3.24115 4.828646,-2.4474"
       id="path7347" /><path
       style="display:inline;fill:none;stroke:#ffffff;stroke-width:0.765;stroke-linecap:round;stroke-linejoin:miter;stroke-dasharray:none;stroke-opacity:1"
       d="m 29.567187,129.57969 7.606771,4.82864"
       id="path7349" /><path
       style="display:inline;fill:none;stroke:#ffffff;stroke-width:0.665;stroke-linecap:round;stroke-linejoin:miter;stroke-dasharray:none;stroke-opacity:1"
       d="m 82.038379,126.1913 7.29646,10.00925"
       id="path7351" /><path
       style="display:inline;fill:none;stroke:#ffffff;stroke-width:0.665;stroke-linecap:round;stroke-linejoin:miter;stroke-dasharray:none;stroke-opacity:1"
       d="m 81.326301,134.5737 3.373438,-2.57969"
       id="path7353" /><path
       style="display:inline;fill:none;stroke:#ffffff;stroke-width:0.665;stroke-linecap:round;stroke-linejoin:miter;stroke-dasharray:none;stroke-opacity:1"
       d="m 77.423697,129.28203 5.490104,15.21354"
       id="path7355" /><path
       style="display:inline;fill:none;stroke:#ffffff;stroke-width:0.665;stroke-linecap:round;stroke-linejoin:miter;stroke-dasharray:none;stroke-opacity:1"
       d="M 81.160936,135.86354 77.059895,139.7 71.834374,135.86354"
       id="path7357" /><path
       style="fill:none;stroke:#ffffff;stroke-width:0.351158;stroke-linecap:round;stroke-linejoin:miter;stroke-dasharray:none;stroke-opacity:1"
       d="m 29.326147,102.22694 v -2.00055"
       id="path7690" /><path
       style="display:inline;fill:none;stroke:#ffffff;stroke-width:0.351158;stroke-linecap:round;stroke-linejoin:miter;stroke-dasharray:none;stroke-opacity:1"
       d="m 77.782114,95.246197 v -2.00055"
       id="path7690-1" /><path
       style="display:inline;fill:none;stroke:#ffffff;stroke-width:0.351158;stroke-linecap:round;stroke-linejoin:miter;stroke-dasharray:none;stroke-opacity:1"
       d="m 81.430343,104.6474 v -2.00055"
       id="path7690-6" /><g
       id="g37754-8-2-9-7-4-3"
       transform="matrix(0.18076747,0,0,0.18076747,33.242454,93.265517)"><g
         id="g37727-7-4-4-6-1-9"
         transform="translate(0,0.8827805)"
         style="fill:#ffffff"><text
           xml:space="preserve"
           style="font-style:normal;font-variant:normal;font-weight:bold;font-stretch:normal;font-size:13.464px;line-height:1.25;font-family:Arial;-inkscape-font-specification:'Arial Bold';letter-spacing:0px;word-spacing:0px;fill:#ffffff;stroke-width:0.841498"
           x="124.29527"
           y="263.53876"
           id="text19842-8-1-0-9-5-5-9"><tspan
             sodipodi:role="line"
             id="tspan19840-4-8-5-8-2-8-6"
             style="font-style:normal;font-variant:normal;font-weight:bold;font-stretch:normal;font-family:Arial;-inkscape-font-specification:'Arial Bold';fill:#ffffff;stroke-width:0.841498"
             x="124.29527"
             y="263.53876">SB</tspan></text><text
           xml:space="preserve"
           style="font-style:normal;font-variant:normal;font-weight:bold;font-stretch:normal;font-size:13.464px;line-height:1.25;font-family:Arial;-inkscape-font-specification:'Arial Bold';letter-spacing:0px;word-spacing:0px;fill:#ffffff;stroke-width:0.841498"
           x="123.81535"
           y="251.48865"
           id="text19842-8-5-6-6-9-8-8-1"><tspan
             sodipodi:role="line"
             id="tspan19840-4-5-6-6-0-0-9-5"
             style="font-style:normal;font-variant:normal;font-weight:bold;font-stretch:normal;font-family:Arial;-inkscape-font-specification:'Arial Bold';fill:#ffffff;stroke-width:0.841498"
             x="123.81535"
             y="251.48865">UPCT</tspan></text></g><text
         xml:space="preserve"
         style="font-style:normal;font-variant:normal;font-weight:bold;font-stretch:normal;font-size:29.6529px;line-height:1.25;font-family:Arial;-inkscape-font-specification:'Arial Bold';letter-spacing:0px;word-spacing:0px;fill:#ffffff;stroke-width:1.8533"
         x="58.811188"
         y="254.80449"
         id="text19842-3-4-4-1-2-4-6"
         transform="scale(0.96297256,1.0384512)"><tspan
           sodipodi:role="line"
           id="tspan19840-8-0-2-9-7-6-1"
           style="font-style:normal;font-variant:normal;font-weight:bold;font-stretch:normal;font-family:Arial;-inkscape-font-specification:'Arial Bold';fill:#ffffff;stroke-width:1.8533"
           x="58.811188"
           y="254.80449">IEEE</tspan></text></g></g><path
     style="fill:#ffffff;fill-opacity:1;stroke-width:0.17197"
     d="m 119.14812,117.80417 c -0.37715,-0.0422 -0.78342,-0.15556 -0.90285,-0.25448 -0.34459,-0.2858 -0.26222,-2.49346 0.21316,-5.71467 0.23624,-1.60111 0.42957,-3.31007 0.42957,-3.79764 0,-1.42078 -0.3368,-2.76897 -0.80052,-3.20463 -0.39029,-0.36684 -0.46679,-0.37654 -1.3969,-0.18237 -0.54121,0.11334 -1.37097,0.41201 -1.84387,0.66458 -3.27567,1.74888 -3.10841,1.69159 -4.97689,1.70397 -0.95145,0.007 -1.85763,0.0697 -2.01367,0.14039 -0.67202,0.30656 -1.62935,1.75762 -2.26918,3.44004 -0.54639,1.43673 -0.65961,1.94797 -0.65168,2.94261 0.005,0.66209 0.09,1.47414 0.1882,1.8046 0.47197,1.586 0.15508,1.89279 -1.9554,1.89279 -1.61512,0 -1.72867,-0.12734 -1.99956,-2.2356 -0.19846,-1.54544 -0.18821,-1.70349 0.1882,-2.92352 0.42877,-1.38956 0.50461,-2.70456 0.27812,-4.82346 -0.35725,-3.34241 -1.00443,-1.75316 -1.299,3.18971 -0.0947,1.58855 -0.22435,2.42687 -0.447975,2.89635 -0.349535,0.73368 -0.731929,0.97628 -0.963179,0.61114 -0.212222,-0.33512 -0.194495,-1.7542 0.0287,-2.33548 0.380972,-0.9909 0.492633,-2.45394 0.514741,-6.74368 0.01866,-3.69064 0.07579,-4.62243 0.351285,-5.762289 0.657488,-2.720579 2.073328,-4.760699 5.228728,-7.534265 3.34866,-2.943366 5.23901,-3.431893 8.76645,-2.265587 0.76952,0.254475 1.95087,0.492234 2.68085,0.539693 1.19715,0.07766 1.47533,0.02378 3.36451,-0.623623 1.81746,-0.625145 2.24006,-0.708025 3.59608,-0.705717 1.63498,0.002 2.08109,0.138523 1.91099,0.581901 -0.0835,0.21782 -0.36779,0.275238 -1.35782,0.274562 -1.72445,-0.0016 -2.76517,0.395942 -3.8318,1.462598 -0.91265,0.912524 -1.75572,2.396673 -1.91328,3.368156 -0.0777,0.479619 0.002,0.709473 0.43615,1.255673 0.29226,0.367697 0.53137,0.840882 0.53137,1.051613 0,0.452102 0.56896,1.228362 1.00074,1.365421 0.16722,0.0527 0.60318,0.608027 0.9689,1.233233 0.81906,1.400201 1.42265,1.811321 2.56487,1.747121 0.65576,-0.038 0.86996,0.0163 0.98881,0.25415 0.0833,0.16535 0.22971,0.43633 0.32474,0.60187 0.0954,0.16534 0.22179,0.40312 0.28095,0.52791 0.0595,0.12477 -0.28762,1.13879 -0.77101,2.25319 -1.36962,3.1574 -2.90477,8.94276 -2.73162,10.29425 0.045,0.35166 0.18494,1.0838 0.31075,1.62714 0.14483,0.62541 0.16861,1.04429 0.0646,1.14155 -0.2022,0.18914 -2.15456,0.3415 -3.08561,0.24056 z m 6.0417,-0.58839 c -0.27812,-0.16162 -0.30429,-0.32253 -0.20406,-1.25764 0.0956,-0.89475 0.009,-1.52351 -0.5181,-3.79702 -0.88447,-3.80758 -0.83155,-4.58384 0.50931,-7.47088 0.89107,-1.91855 0.97956,-2.21044 0.87717,-2.89314 -0.0819,-0.54599 -0.059,-0.72544 0.0812,-0.63876 0.34713,0.21432 0.97101,-0.0637 1.18228,-0.5275 0.11707,-0.2572 0.15882,-0.703774 0.0963,-1.035915 -0.0868,-0.463414 -0.0536,-0.584052 0.16161,-0.584052 0.35884,0 0.62708,0.529853 0.62708,1.238627 0,0.41537 -0.18936,0.80252 -0.68788,1.40577 -0.65051,0.78722 -0.68787,0.89475 -0.68787,1.97904 0,0.6306 0.0804,1.80231 0.1791,2.60376 0.24464,1.99033 1.45959,8.16316 1.78877,9.08854 0.32024,0.90038 0.34303,1.59693 0.0613,1.87867 -0.26087,0.26094 -3.02079,0.26945 -3.46603,0.007 z m -18.84324,-0.64802 c -0.55103,-0.0954 -0.60399,-0.16371 -0.8119,-1.0478 -0.38736,-1.64734 -0.32094,-2.70842 0.2806,-4.48418 0.30201,-0.8914 0.73643,-1.91029 0.96537,-2.26416 0.57916,-0.89515 1.606,-1.54487 2.33177,-1.47529 0.51822,0.0497 0.57156,0.10472 0.53884,0.55677 -0.021,0.27593 -0.30262,0.93373 -0.62804,1.46176 -0.95938,1.55656 -1.20879,2.54815 -1.07591,4.27718 0.0641,0.83389 0.22551,1.65383 0.36828,1.87182 0.37062,0.56567 0.31229,0.89734 -0.17584,0.99867 -0.89123,0.18471 -1.22029,0.20406 -1.79329,0.10541 z m 23.18309,-3.80046 c -0.15322,-0.0896 -0.37295,-0.39089 -0.48846,-0.6698 -0.28957,-0.6991 0.0707,-1.47869 0.68319,-1.47869 0.35812,0 0.42013,0.0732 0.38176,0.44953 -0.0534,0.52379 0.30763,0.89399 0.71829,0.73643 0.49709,-0.191 0.76693,-0.99525 0.95544,-2.84838 0.10075,-0.98881 0.37423,-2.48963 0.60812,-3.33513 0.23391,-0.84553 0.42621,-1.7422 0.42738,-1.99267 0.002,-0.31098 -0.35565,-0.88284 -1.12796,-1.80564 l -1.13012,-1.35032 0.10261,-1.375749 c 0.10961,-1.468708 -0.0116,-1.876262 -0.52843,-1.778223 -0.22388,0.04221 -0.34011,0.235422 -0.37799,0.628662 -0.0299,0.311988 -0.14995,0.603922 -0.26634,0.648602 -0.11638,0.04501 -0.71097,-0.105874 -1.32114,-0.335121 l -1.10938,-0.416234 -0.0865,-0.835892 c -0.0478,-0.459725 -0.26709,-1.141566 -0.48757,-1.515233 -0.36397,-0.616866 -0.53995,-1.301241 -0.83727,-3.255521 -0.13083,-0.85996 0.24499,-0.793144 0.68207,0.12104 0.48501,1.014765 1.05012,0.774722 1.25957,-0.534962 0.10564,-0.660943 0.0637,-0.777592 -0.50838,-1.410756 -0.34298,-0.379481 -0.62358,-0.797769 -0.62358,-0.929248 0,-0.477847 1.15882,-0.594008 2.51619,-0.25245 1.69311,0.426333 3.58941,3.14859 5.49408,7.886972 0.95866,2.384922 1.15336,3.043233 1.2206,4.127253 0.10704,1.72538 0.30303,2.19283 1.0001,2.38532 0.74993,0.20686 2.21376,-0.0669 3.16134,-0.59247 0.87049,-0.48247 1.2251,-0.52612 1.2251,-0.15112 0,0.38582 -0.76999,1.04035 -1.83956,1.56365 -0.85572,0.41875 -1.04874,0.44723 -2.38431,0.35287 -1.82748,-0.1292 -1.91011,-0.0534 -2.56153,2.33254 -1.16951,4.28395 -1.49024,4.93139 -2.73593,5.5225 -0.65199,0.30962 -1.58996,0.35924 -2.02106,0.10728 z m -4.53677,-12.20871 c -0.0585,-0.0947 -0.59289,-0.17187 -1.18762,-0.17187 -1.29453,0 -1.64871,-0.24496 -2.44404,-1.690771 -0.29494,-0.536151 -0.73928,-1.075402 -0.98746,-1.198419 -0.5573,-0.275935 -0.85525,-0.803992 -0.75373,-1.33501 0.0518,-0.271179 -0.0893,-0.603783 -0.43149,-1.019082 -0.416,-0.504617 -0.48914,-0.719407 -0.4024,-1.181743 0.21875,-1.166261 1.91323,-3.325786 3.07424,-3.918117 0.5993,-0.305526 0.86847,-0.330689 2.4193,-0.223876 0.95975,0.06623 1.9469,0.222945 2.19371,0.348274 0.54387,0.275907 0.88545,1.035405 0.8105,1.801173 -0.073,0.745688 -0.38394,0.822599 -0.65738,0.162546 -0.24076,-0.581347 -0.75058,-0.938457 -1.13118,-0.792398 -0.17281,0.06623 -0.24389,0.385819 -0.24247,1.088038 0.002,1.305186 0.36726,2.630676 0.92461,3.361371 0.40686,0.53342 0.44911,0.73356 0.44911,2.128392 v 1.539603 l -0.65215,0.636759 c -0.69538,0.67906 -0.81436,0.7354 -0.98157,0.46486 z"
     id="path21-9-2-3-6-2-2"
     sodipodi:nodetypes="ssssssscsscssssssssscssssscscsscssssssssssssscssssssssssssssccsssssssssssssscssscscssssscssssssssssssssssssssssssssssssscsscss"
     clip-path="url(#clipath_lpe_path-effect9427-6)"
     inkscape:path-effect="#path-effect9427-6"
     inkscape:original-d="m 119.14812,117.80417 c -0.37715,-0.0422 -0.78342,-0.15556 -0.90285,-0.25448 -0.34459,-0.2858 -0.26222,-2.49346 0.21316,-5.71467 0.23624,-1.60111 0.42957,-3.31007 0.42957,-3.79764 0,-1.42078 -0.3368,-2.76897 -0.80052,-3.20463 -0.39029,-0.36684 -0.46679,-0.37654 -1.3969,-0.18237 -0.54121,0.11334 -1.37097,0.41201 -1.84387,0.66458 -3.27567,1.74888 -3.10841,1.69159 -4.97689,1.70397 -0.95145,0.007 -1.85763,0.0697 -2.01367,0.14039 -0.67202,0.30656 -1.62935,1.75762 -2.26918,3.44004 -0.54639,1.43673 -0.65961,1.94797 -0.65168,2.94261 0.005,0.66209 0.09,1.47414 0.1882,1.8046 0.47197,1.586 0.15508,1.89279 -1.9554,1.89279 -1.61512,0 -1.72867,-0.12734 -1.99956,-2.2356 -0.19846,-1.54544 -0.18821,-1.70349 0.1882,-2.92352 0.42877,-1.38956 0.50461,-2.70456 0.27812,-4.82346 -0.35725,-3.34241 -1.00443,-1.75316 -1.299,3.18971 -0.0947,1.58855 -0.22435,2.42687 -0.447975,2.89635 -0.349535,0.73368 -0.731929,0.97628 -0.963179,0.61114 -0.212222,-0.33512 -0.194495,-1.7542 0.0287,-2.33548 0.380972,-0.9909 0.492633,-2.45394 0.514741,-6.74368 0.01866,-3.69064 0.07579,-4.62243 0.351285,-5.762289 0.657488,-2.720579 2.073328,-4.760699 5.228728,-7.534265 3.34866,-2.943366 5.23901,-3.431893 8.76645,-2.265587 0.76952,0.254475 1.95087,0.492234 2.68085,0.539693 1.19715,0.07766 1.47533,0.02378 3.36451,-0.623623 1.81746,-0.625145 2.24006,-0.708025 3.59608,-0.705717 1.63498,0.002 2.08109,0.138523 1.91099,0.581901 -0.0835,0.21782 -0.36779,0.275238 -1.35782,0.274562 -1.72445,-0.0016 -2.76517,0.395942 -3.8318,1.462598 -0.91265,0.912524 -1.75572,2.396673 -1.91328,3.368156 -0.0777,0.479619 0.002,0.709473 0.43615,1.255673 0.29226,0.367697 0.53137,0.840882 0.53137,1.051613 0,0.452102 0.56896,1.228362 1.00074,1.365421 0.16722,0.0527 0.60318,0.608027 0.9689,1.233233 0.81906,1.400201 1.42265,1.811321 2.56487,1.747121 0.65576,-0.038 0.86996,0.0163 0.98881,0.25415 0.0833,0.16535 0.22971,0.43633 0.32474,0.60187 0.0954,0.16534 0.22179,0.40312 0.28095,0.52791 0.0595,0.12477 -0.28762,1.13879 -0.77101,2.25319 -1.36962,3.1574 -2.90477,8.94276 -2.73162,10.29425 0.045,0.35166 0.18494,1.0838 0.31075,1.62714 0.14483,0.62541 0.16861,1.04429 0.0646,1.14155 -0.2022,0.18914 -2.15456,0.3415 -3.08561,0.24056 z m 6.0417,-0.58839 c -0.27812,-0.16162 -0.30429,-0.32253 -0.20406,-1.25764 0.0956,-0.89475 0.009,-1.52351 -0.5181,-3.79702 -0.88447,-3.80758 -0.83155,-4.58384 0.50931,-7.47088 0.89107,-1.91855 0.97956,-2.21044 0.87717,-2.89314 -0.0819,-0.54599 -0.059,-0.72544 0.0812,-0.63876 0.34713,0.21432 0.97101,-0.0637 1.18228,-0.5275 0.11707,-0.2572 0.15882,-0.703774 0.0963,-1.035915 -0.0868,-0.463414 -0.0536,-0.584052 0.16161,-0.584052 0.35884,0 0.62708,0.529853 0.62708,1.238627 0,0.41537 -0.18936,0.80252 -0.68788,1.40577 -0.65051,0.78722 -0.68787,0.89475 -0.68787,1.97904 0,0.6306 0.0804,1.80231 0.1791,2.60376 0.24464,1.99033 1.45959,8.16316 1.78877,9.08854 0.32024,0.90038 0.34303,1.59693 0.0613,1.87867 -0.26087,0.26094 -3.02079,0.26945 -3.46603,0.007 z m -18.84324,-0.64802 c -0.55103,-0.0954 -0.60399,-0.16371 -0.8119,-1.0478 -0.38736,-1.64734 -0.32094,-2.70842 0.2806,-4.48418 0.30201,-0.8914 0.73643,-1.91029 0.96537,-2.26416 0.57916,-0.89515 1.606,-1.54487 2.33177,-1.47529 0.51822,0.0497 0.57156,0.10472 0.53884,0.55677 -0.021,0.27593 -0.30262,0.93373 -0.62804,1.46176 -0.95938,1.55656 -1.20879,2.54815 -1.07591,4.27718 0.0641,0.83389 0.22551,1.65383 0.36828,1.87182 0.37062,0.56567 0.31229,0.89734 -0.17584,0.99867 -0.89123,0.18471 -1.22029,0.20406 -1.79329,0.10541 z m 23.18309,-3.80046 c -0.15322,-0.0896 -0.37295,-0.39089 -0.48846,-0.6698 -0.28957,-0.6991 0.0707,-1.47869 0.68319,-1.47869 0.35812,0 0.42013,0.0732 0.38176,0.44953 -0.0534,0.52379 0.30763,0.89399 0.71829,0.73643 0.49709,-0.191 0.76693,-0.99525 0.95544,-2.84838 0.10075,-0.98881 0.37423,-2.48963 0.60812,-3.33513 0.23391,-0.84553 0.42621,-1.7422 0.42738,-1.99267 0.002,-0.31098 -0.35565,-0.88284 -1.12796,-1.80564 l -1.13012,-1.35032 0.10261,-1.375749 c 0.10961,-1.468708 -0.0116,-1.876262 -0.52843,-1.778223 -0.22388,0.04221 -0.34011,0.235422 -0.37799,0.628662 -0.0299,0.311988 -0.14995,0.603922 -0.26634,0.648602 -0.11638,0.04501 -0.71097,-0.105874 -1.32114,-0.335121 l -1.10938,-0.416234 -0.0865,-0.835892 c -0.0478,-0.459725 -0.26709,-1.141566 -0.48757,-1.515233 -0.36397,-0.616866 -0.53995,-1.301241 -0.83727,-3.255521 -0.13083,-0.85996 0.24499,-0.793144 0.68207,0.12104 0.48501,1.014765 1.05012,0.774722 1.25957,-0.534962 0.10564,-0.660943 0.0637,-0.777592 -0.50838,-1.410756 -0.34298,-0.379481 -0.62358,-0.797769 -0.62358,-0.929248 0,-0.477847 1.15882,-0.594008 2.51619,-0.25245 1.69311,0.426333 3.58941,3.14859 5.49408,7.886972 0.95866,2.384922 1.15336,3.043233 1.2206,4.127253 0.10704,1.72538 0.30303,2.19283 1.0001,2.38532 0.74993,0.20686 2.21376,-0.0669 3.16134,-0.59247 0.87049,-0.48247 1.2251,-0.52612 1.2251,-0.15112 0,0.38582 -0.76999,1.04035 -1.83956,1.56365 -0.85572,0.41875 -1.04874,0.44723 -2.38431,0.35287 -1.82748,-0.1292 -1.91011,-0.0534 -2.56153,2.33254 -1.16951,4.28395 -1.49024,4.93139 -2.73593,5.5225 -0.65199,0.30962 -1.58996,0.35924 -2.02106,0.10728 z m -4.53677,-12.20871 c -0.0585,-0.0947 -0.59289,-0.17187 -1.18762,-0.17187 -1.29453,0 -1.64871,-0.24496 -2.44404,-1.690771 -0.29494,-0.536151 -0.73928,-1.075402 -0.98746,-1.198419 -0.5573,-0.275935 -0.85525,-0.803992 -0.75373,-1.33501 0.0518,-0.271179 -0.0893,-0.603783 -0.43149,-1.019082 -0.416,-0.504617 -0.48914,-0.719407 -0.4024,-1.181743 0.21875,-1.166261 1.91323,-3.325786 3.07424,-3.918117 0.5993,-0.305526 0.86847,-0.330689 2.4193,-0.223876 0.95975,0.06623 1.9469,0.222945 2.19371,0.348274 0.54387,0.275907 0.88545,1.035405 0.8105,1.801173 -0.073,0.745688 -0.38394,0.822599 -0.65738,0.162546 -0.24076,-0.581347 -0.75058,-0.938457 -1.13118,-0.792398 -0.17281,0.06623 -0.24389,0.385819 -0.24247,1.088038 0.002,1.305186 0.36726,2.630676 0.92461,3.361371 0.40686,0.53342 0.44911,0.73356 0.44911,2.128392 v 1.539603 l -0.65215,0.636759 c -0.69538,0.67906 -0.81436,0.7354 -0.98157,0.46486 z"
     transform="matrix(0.46516709,0,0,0.46516709,-15.541893,-11.868727)" /></svg>
