<?xml version="1.0" encoding="UTF-8" standalone="no"?>
<!-- Created with Inkscape (http://www.inkscape.org/) -->

<svg
   width="92.31237mm"
   height="15.168991mm"
   viewBox="0 0 92.31237 15.168991"
   version="1.1"
   id="svg1071"
   sodipodi:docname="Guitarra.svg"
   inkscape:version="1.2 (dc2aedaf03, 2022-05-15)"
   xml:space="preserve"
   xmlns:inkscape="http://www.inkscape.org/namespaces/inkscape"
   xmlns:sodipodi="http://sodipodi.sourceforge.net/DTD/sodipodi-0.dtd"
   xmlns="http://www.w3.org/2000/svg"
   xmlns:svg="http://www.w3.org/2000/svg"><sodipodi:namedview
     id="namedview1073"
     pagecolor="#ffffff"
     bordercolor="#666666"
     borderopacity="1.0"
     inkscape:showpageshadow="2"
     inkscape:pageopacity="0.0"
     inkscape:pagecheckerboard="0"
     inkscape:deskcolor="#d1d1d1"
     inkscape:document-units="mm"
     showgrid="false"
     inkscape:zoom="4.2331174"
     inkscape:cx="258.5565"
     inkscape:cy="385.41336"
     inkscape:window-width="2400"
     inkscape:window-height="1271"
     inkscape:window-x="2391"
     inkscape:window-y="-9"
     inkscape:window-maximized="1"
     inkscape:current-layer="layer3" /><defs
     id="defs1068"><inkscape:path-effect
       effect="powerclip"
       id="path-effect1017"
       is_visible="true"
       lpeversion="1"
       inverse="true"
       flatten="false"
       hide_clip="false"
       message="Utilice la regla de relleno parimpar en el diálogo &lt;b&gt;Relleno y borde&lt;/b&gt; si el resultado no está aplanada después de convertir el recorte en trayectos." /><inkscape:path-effect
       effect="powerclip"
       id="path-effect1812"
       is_visible="true"
       lpeversion="1"
       inverse="true"
       flatten="false"
       hide_clip="false"
       message="Utilice la regla de relleno parimpar en el diálogo &lt;b&gt;Relleno y borde&lt;/b&gt; si el resultado no está aplanada después de convertir el recorte en trayectos." /><inkscape:path-effect
       effect="powerclip"
       id="path-effect900"
       is_visible="true"
       lpeversion="1"
       inverse="true"
       flatten="false"
       hide_clip="false"
       message="Utilice la regla de relleno parimpar en el diálogo &lt;b&gt;Relleno y borde&lt;/b&gt; si el resultado no está aplanada después de convertir el recorte en trayectos." /><inkscape:path-effect
       effect="powerclip"
       id="path-effect667"
       is_visible="true"
       lpeversion="1"
       inverse="true"
       flatten="false"
       hide_clip="false"
       message="Utilice la regla de relleno parimpar en el diálogo &lt;b&gt;Relleno y borde&lt;/b&gt; si el resultado no está aplanada después de convertir el recorte en trayectos." /><clipPath
       clipPathUnits="userSpaceOnUse"
       id="clipPath657"><g
         id="g665"
         style="display:none"><circle
           style="fill:#b3b3b3;fill-rule:evenodd;stroke-width:0.420215"
           id="circle659"
           r="1.3"
           cy="49.083309"
           cx="63.709435" /><circle
           style="fill:#b3b3b3;fill-rule:evenodd;stroke-width:0.420215"
           id="circle661"
           r="1.3"
           cy="49.083309"
           cx="69.799973" /><rect
           style="fill:#b3b3b3;fill-rule:evenodd;stroke-width:0.315731"
           id="rect663"
           width="5.5627837"
           height="0.68753505"
           x="71.316139"
           y="48.73954" /></g><path
         id="lpe_path-effect667"
         class="powerclip"
         d="M 56.13223,42.433308 H 82.569861 V 55.733309 H 56.13223 Z m 8.877204,6.650001 a 1.3,1.3 0 0 0 -1.299999,-1.3 1.3,1.3 0 0 0 -1.3,1.3 1.3,1.3 0 0 0 1.3,1.3 1.3,1.3 0 0 0 1.299999,-1.3 z m 6.090538,0 a 1.3,1.3 0 0 0 -1.299999,-1.3 1.3,1.3 0 0 0 -1.3,1.3 1.3,1.3 0 0 0 1.3,1.3 1.3,1.3 0 0 0 1.299999,-1.3 z m 0.216167,-0.343769 v 0.687535 h 5.562784 V 48.73954 Z" /></clipPath><clipPath
       clipPathUnits="userSpaceOnUse"
       id="clipPath1808"><path
         id="path1810"
         style="display:none;fill:none;fill-rule:evenodd;stroke:#000000;stroke-width:0.0647224;stroke-dasharray:none;stroke-opacity:1"
         d="m 75.748539,35.674136 a 0.85783108,0.85783108 0 0 0 -0.819166,0.575487 l -0.0011,-5.29e-4 -2.095426,6.518288 a 0.85783108,0.85783108 0 0 0 -0.0016,0.0049 0.85783108,0.85783108 0 0 0 -0.0016,0.0049 l -0.01752,0.05521 0.0021,5.29e-4 a 0.85783108,0.85783108 0 0 0 0.571241,1.018252 0.85783108,0.85783108 0 0 0 1.057534,-0.494261 l 0.0021,5.3e-4 0.01699,-0.05309 a 0.85783108,0.85783108 0 0 0 0.0027,-0.0068 0.85783108,0.85783108 0 0 0 0.0048,-0.01646 0.85783108,0.85783108 0 0 0 0.0016,-0.0049 l 2.08375,-6.481123 a 0.85783108,0.85783108 0 0 0 0.0068,-0.02125 0.85783108,0.85783108 0 0 0 -0.560623,-1.058066 0.85783108,0.85783108 0 0 0 -0.252704,-0.04142 z" /><path
         id="lpe_path-effect1812"
         style="fill:none;fill-rule:evenodd;stroke:#000000;stroke-width:0.0647224;stroke-dasharray:none;stroke-opacity:1"
         class="powerclip"
         d="m 61.503395,30.564312 h 20.313027 v 18.43793 H 61.503395 Z m 14.245144,5.109824 a 0.85783108,0.85783108 0 0 0 -0.819166,0.575487 l -0.0011,-5.29e-4 -2.095426,6.518288 a 0.85783108,0.85783108 0 0 0 -0.0016,0.0049 0.85783108,0.85783108 0 0 0 -0.0016,0.0049 l -0.01752,0.05521 0.0021,5.29e-4 a 0.85783108,0.85783108 0 0 0 0.571241,1.018252 0.85783108,0.85783108 0 0 0 1.057534,-0.494261 l 0.0021,5.3e-4 0.01699,-0.05309 a 0.85783108,0.85783108 0 0 0 0.0027,-0.0068 0.85783108,0.85783108 0 0 0 0.0048,-0.01646 0.85783108,0.85783108 0 0 0 0.0016,-0.0049 l 2.08375,-6.481123 a 0.85783108,0.85783108 0 0 0 0.0068,-0.02125 0.85783108,0.85783108 0 0 0 -0.560623,-1.058066 0.85783108,0.85783108 0 0 0 -0.252704,-0.04142 z" /></clipPath><clipPath
       clipPathUnits="userSpaceOnUse"
       id="clipPath1013"><rect
         style="display:none;fill:#0000ff;fill-rule:evenodd;stroke-width:0.295204"
         id="rect1015"
         width="1"
         height="1"
         x="132.17529"
         y="34.959675"
         d="m 132.17529,34.959675 h 1 v 1 h -1 z" /><path
         id="lpe_path-effect1017"
         style="fill:#0000ff;fill-rule:evenodd;stroke-width:0.295204"
         class="powerclip"
         d="m 127.19182,30.423736 h 11 v 11.000001 h -11 z m 4.98347,4.535939 v 1 h 1 v -1 z" /></clipPath></defs><g
     inkscape:label="Capa 1"
     inkscape:groupmode="layer"
     id="layer1"
     transform="translate(-25.775088,-96.378598)"><path
       style="fill:#b3b3b3;fill-rule:evenodd;stroke-width:0.264583"
       id="rect229"
       width="10.313026"
       height="8.4379301"
       x="66.503395"
       y="35.564312"
       clip-path="url(#clipPath1808)"
       sodipodi:type="rect"
       transform="translate(-35.357143,60.814285)"
       d="m 66.503395,35.564312 h 10.313027 v 8.43793 H 66.503395 Z"
       inkscape:path-effect="#path-effect900;#path-effect1812" /><g
       id="g312"
       clip-path="url(#clipPath657)"
       style="fill:#b3b3b3"
       transform="translate(-35.357143,60.814285)"
       inkscape:path-effect="#path-effect667"><path
         style="fill:#b3b3b3;fill-rule:evenodd;stroke-width:0.263246"
         id="rect231"
         width="13.3"
         height="3.3"
         x="62.661015"
         y="47.433308"
         sodipodi:type="rect"
         d="m 62.661015,47.433308 h 13.3 v 3.3 h -13.3 z" /><circle
         style="fill:#b3b3b3;fill-rule:evenodd;stroke-width:0.264289"
         id="path285"
         cx="62.78223"
         cy="49.083309"
         r="1.65"
         d="m 64.43223,49.083309 a 1.65,1.65 0 0 1 -1.65,1.65 1.65,1.65 0 0 1 -1.65,-1.65 1.65,1.65 0 0 1 1.65,-1.65 1.65,1.65 0 0 1 1.65,1.65 z" /><circle
         style="fill:#b3b3b3;fill-rule:evenodd;stroke-width:0.264289"
         id="path285-9"
         cx="75.919861"
         cy="49.083309"
         r="1.65"
         d="m 77.569861,49.083309 a 1.65,1.65 0 0 1 -1.65,1.65 1.65,1.65 0 0 1 -1.65,-1.65 1.65,1.65 0 0 1 1.65,-1.65 1.65,1.65 0 0 1 1.65,1.65 z" /></g><path
       style="fill:#b3b3b3;stroke:#b3b3b3;stroke-width:0.278562px;stroke-linecap:butt;stroke-linejoin:miter;stroke-opacity:1"
       d="m 102.35913,98.170493 0.0659,4.288697"
       id="path313-0-3" /><path
       style="fill:#b3b3b3;stroke:#b3b3b3;stroke-width:0.278562px;stroke-linecap:butt;stroke-linejoin:miter;stroke-opacity:1"
       d="m 91.077997,98.248969 0.0659,4.288701"
       id="path313-0" /><path
       style="fill:#b3b3b3;stroke:#b3b3b3;stroke-width:0.278562px;stroke-linecap:butt;stroke-linejoin:miter;stroke-opacity:1"
       d="m 94.459017,98.203641 0.0659,4.288699"
       id="path313-0-5" /><path
       style="fill:#b3b3b3;stroke:#b3b3b3;stroke-width:0.278562px;stroke-linecap:butt;stroke-linejoin:miter;stroke-opacity:1"
       d="m 98.094167,98.192592 0.0659,4.288698"
       id="path313-0-8" /><path
       style="fill:#b3b3b3;stroke:#b3b3b3;stroke-width:0.283927px;stroke-linecap:butt;stroke-linejoin:miter;stroke-opacity:1"
       d="m 87.835147,98.18233 0.0657,4.46617"
       id="path313-9" /><path
       style="fill:#b3b3b3;stroke:#b3b3b3;stroke-width:0.287256px;stroke-linecap:butt;stroke-linejoin:miter;stroke-opacity:1"
       d="m 81.874197,98.12693 0.0657,4.57697"
       id="path313-19" /><path
       style="fill:#b3b3b3;stroke:#b3b3b3;stroke-width:0.287256px;stroke-linecap:butt;stroke-linejoin:miter;stroke-opacity:1"
       d="m 79.211347,98.12693 0.0657,4.57697"
       id="path313-19-6" /><path
       style="fill:#b3b3b3;stroke:#b3b3b3;stroke-width:0.291184px;stroke-linecap:butt;stroke-linejoin:miter;stroke-opacity:1"
       d="m 76.614857,98.060431 0.0656,4.709969"
       id="path313-19-65" /><path
       style="fill:#b3b3b3;stroke:#b3b3b3;stroke-width:0.291184px;stroke-linecap:butt;stroke-linejoin:miter;stroke-opacity:1"
       d="m 74.178147,98.023818 0.0656,4.709972"
       id="path313-19-65-1" /><path
       style="fill:#b3b3b3;stroke:#b3b3b3;stroke-width:0.296328px;stroke-linecap:butt;stroke-linejoin:miter;stroke-opacity:1"
       d="m 71.974297,97.971759 0.0655,4.887311"
       id="path313-19-9" /><path
       style="fill:#b3b3b3;stroke:#b3b3b3;stroke-width:0.296328px;stroke-linecap:butt;stroke-linejoin:miter;stroke-opacity:1"
       d="m 69.830757,97.971759 0.0655,4.887311"
       id="path313-19-9-7" /><path
       style="fill:#b3b3b3;stroke:#b3b3b3;stroke-width:0.296328px;stroke-linecap:butt;stroke-linejoin:miter;stroke-opacity:1"
       d="m 67.731427,97.971759 0.0655,4.887311"
       id="path313-19-9-4" /><path
       style="fill:#b3b3b3;stroke:#b3b3b3;stroke-width:0.296328px;stroke-linecap:butt;stroke-linejoin:miter;stroke-opacity:1"
       d="m 65.842027,97.971759 0.0655,4.887311"
       id="path313-19-9-1" /><path
       style="fill:#b3b3b3;stroke:#b3b3b3;stroke-width:0.296328px;stroke-linecap:butt;stroke-linejoin:miter;stroke-opacity:1"
       d="m 64.07417,97.971759 0.0655,4.887311"
       id="path313-19-9-78" /><path
       style="fill:#b3b3b3;stroke:#b3b3b3;stroke-width:0.296328px;stroke-linecap:butt;stroke-linejoin:miter;stroke-opacity:1"
       d="m 62.284214,97.971759 0.0655,4.887311"
       id="path313-19-9-3" /><path
       style="fill:#b3b3b3;stroke:#b3b3b3;stroke-width:0.296328px;stroke-linecap:butt;stroke-linejoin:miter;stroke-opacity:1"
       d="m 60.792584,97.971759 0.0655,4.887311"
       id="path313-19-9-5" /><path
       style="fill:#b3b3b3;stroke:#b3b3b3;stroke-width:0.296328px;stroke-linecap:butt;stroke-linejoin:miter;stroke-opacity:1"
       d="m 59.256759,97.971759 0.0655,4.887311"
       id="path313-19-9-8" /><path
       style="fill:#b3b3b3;stroke:#b3b3b3;stroke-width:0.302572px;stroke-linecap:butt;stroke-linejoin:miter;stroke-opacity:1"
       d="m 57.880563,97.862059 0.06536,5.106711"
       id="path313-19-9-9" /><path
       style="fill:#b3b3b3;stroke:#b3b3b3;stroke-width:0.302572px;stroke-linecap:butt;stroke-linejoin:miter;stroke-opacity:1"
       d="m 56.661748,97.862059 0.06536,5.106711"
       id="path313-19-9-9-3" /><path
       style="fill:#b3b3b3;stroke:#b3b3b3;stroke-width:0.302572px;stroke-linecap:butt;stroke-linejoin:miter;stroke-opacity:1"
       d="m 55.442936,97.862059 0.06536,5.106711"
       id="path313-19-9-9-5" /><path
       style="fill:#b3b3b3;stroke:#b3b3b3;stroke-width:0.302572px;stroke-linecap:butt;stroke-linejoin:miter;stroke-opacity:1"
       d="m 54.208498,97.862059 0.06536,5.106711"
       id="path313-19-9-9-2" /><path
       style="fill:#b3b3b3;stroke:#b3b3b3;stroke-width:0.302572px;stroke-linecap:butt;stroke-linejoin:miter;stroke-opacity:1"
       d="m 53.08344,97.862059 0.06536,5.106711"
       id="path313-19-9-9-34" /><path
       style="fill:#b3b3b3;stroke:#b3b3b3;stroke-width:0.287872px;stroke-linecap:butt;stroke-linejoin:miter;stroke-opacity:1"
       d="m 84.802237,98.115772 0.0656,4.599288"
       id="path313-1" /><ellipse
       style="fill:#b3b3b3;fill-rule:evenodd;stroke:#b3b3b3;stroke-width:0.282958"
       id="path715"
       cx="105.24868"
       cy="98.310776"
       rx="0.60852057"
       ry="0.60852081" /><ellipse
       style="fill:#b3b3b3;fill-rule:evenodd;stroke:#b3b3b3;stroke-width:0.282958"
       id="path715-4"
       cx="107.70263"
       cy="99.129448"
       rx="0.60852057"
       ry="0.60852081" /><ellipse
       style="fill:#b3b3b3;fill-rule:evenodd;stroke:#b3b3b3;stroke-width:0.282958"
       id="path715-3"
       cx="110.19975"
       cy="99.947083"
       rx="0.60852057"
       ry="0.60852081" /><ellipse
       style="fill:#b3b3b3;fill-rule:evenodd;stroke:#b3b3b3;stroke-width:0.282958"
       id="path715-6"
       cx="112.74102"
       cy="100.80891"
       rx="0.60852057"
       ry="0.60852081" /><ellipse
       style="fill:#b3b3b3;fill-rule:evenodd;stroke:#b3b3b3;stroke-width:0.282958"
       id="path715-30"
       cx="114.95084"
       cy="101.42767"
       rx="0.60852057"
       ry="0.60852081" /><ellipse
       style="fill:#b3b3b3;fill-rule:evenodd;stroke:#b3b3b3;stroke-width:0.282958"
       id="path715-8"
       cx="117.33746"
       cy="102.2674"
       rx="0.60852057"
       ry="0.60852081" /><path
       style="fill:#b3b3b3;fill-rule:evenodd;stroke:#b3b3b3;stroke-width:0.204004"
       id="path957"
       clip-path="url(#clipPath1013)"
       transform="matrix(0,-0.87573318,2.4498275,0,14.369717,216.37687)"
       d="m 133.08982,35.923737 a 0.39799801,0.39799809 0 0 1 -0.398,0.397998 0.39799801,0.39799809 0 0 1 -0.398,-0.397998 0.39799801,0.39799809 0 0 1 0.398,-0.397999 0.39799801,0.39799809 0 0 1 0.398,0.397999 z"
       sodipodi:type="arc"
       sodipodi:ry="0.39799809"
       sodipodi:rx="0.39799801"
       sodipodi:cy="35.923737"
       sodipodi:cx="132.69182"
       inkscape:path-effect="#path-effect1017" /><g
       id="g312-1-2"
       clip-path="none"
       transform="matrix(0,-0.44653107,0.39725201,0,31.199585,131.58449)"
       style="fill:#b3b3b3"><path
         style="fill:#b3b3b3;fill-rule:evenodd;stroke-width:0.263246"
         id="rect231-4-5"
         width="13.3"
         height="3.3"
         x="62.661015"
         y="47.433308"
         sodipodi:type="rect"
         d="m 62.661015,47.433308 h 13.3 v 3.3 h -13.3 z" /><circle
         style="fill:#b3b3b3;fill-rule:evenodd;stroke-width:0.264289"
         id="path285-5-3"
         cx="62.78223"
         cy="49.083309"
         r="1.65" /><circle
         style="fill:#b3b3b3;fill-rule:evenodd;stroke-width:0.264289"
         id="path285-9-7-0"
         cx="75.919861"
         cy="49.083309"
         r="1.65" /></g></g></svg>
