<?xml version="1.0" encoding="UTF-8" standalone="no"?>
<!-- Created with Inkscape (http://www.inkscape.org/) -->

<svg
   width="98.792824mm"
   height="33.592064mm"
   viewBox="0 0 98.792824 33.592064"
   version="1.1"
   id="svg1071"
   sodipodi:docname="Guitarra.svg"
   inkscape:version="1.2 (dc2aedaf03, 2022-05-15)"
   xml:space="preserve"
   xmlns:inkscape="http://www.inkscape.org/namespaces/inkscape"
   xmlns:sodipodi="http://sodipodi.sourceforge.net/DTD/sodipodi-0.dtd"
   xmlns="http://www.w3.org/2000/svg"
   xmlns:svg="http://www.w3.org/2000/svg"><sodipodi:namedview
     id="namedview1073"
     pagecolor="#ffffff"
     bordercolor="#666666"
     borderopacity="1.0"
     inkscape:showpageshadow="2"
     inkscape:pageopacity="0.0"
     inkscape:pagecheckerboard="0"
     inkscape:deskcolor="#d1d1d1"
     inkscape:document-units="mm"
     showgrid="false"
     inkscape:zoom="4.2331174"
     inkscape:cx="258.5565"
     inkscape:cy="385.41336"
     inkscape:window-width="2400"
     inkscape:window-height="1271"
     inkscape:window-x="2391"
     inkscape:window-y="-9"
     inkscape:window-maximized="1"
     inkscape:current-layer="layer3" /><defs
     id="defs1068" /><g
     inkscape:groupmode="layer"
     id="layer2"
     inkscape:label="Silueta"
     transform="translate(-20.964306,-83.618299)"><path
       style="display:inline;fill:none;stroke:#800080;stroke-width:0.264583px;stroke-linecap:butt;stroke-linejoin:miter;stroke-opacity:1"
       d="m 61.511934,97.718976 40.925646,0.280631 c 0,0 -0.3274,-0.982213 0.98221,-1.122531 1.82325,-0.19535 14.16077,4.157734 15.62191,4.770764 1.37543,0.57707 0.40923,4.4948 -3.88209,2.89987 -1.09956,-0.40866 -0.8112,-2.20301 -2.75956,-0.0935 -0.83951,0.90893 -9.0738,-1.82411 -9.0738,-1.82411 l -46.023811,0.56126 c 0,0 -5.721387,2.30692 -2e-6,5.51912 8.90895,5.00181 0.976785,5.82063 -2.946646,5.42557 -3.977742,-0.40053 -3.187534,-2.38544 -7.390003,-2.10475 -5.125359,0.34234 -10.897915,3.92887 -10.897915,3.92887 0,0 -14.65691,7.23236 -14.967093,-15.10742 -0.269586,-19.415979 12.508013,-18.22998 16.978296,-15.715445 0.748356,0.42095 7.030806,6.883273 15.598519,2.338609 8.250571,-2.964239 9.331364,5.075073 7.46016,7.998036 -1.714591,2.678321 0.374179,2.245066 0.374179,2.245066 z"
       id="path181"
       sodipodi:nodetypes="ccssssccssscsscsc"
       inkscape:export-filename="silueta_v5.svg"
       inkscape:export-xdpi="96.0978"
       inkscape:export-ydpi="96.0978" /></g></svg>
