%TF.GenerationSoftware,KiCad,Pcbnew,7.0.5-4d25ed1034~172~ubuntu22.04.1*%
%TF.CreationDate,2023-06-16T00:18:41+02:00*%
%TF.ProjectId,guitarra,67756974-6172-4726-912e-6b696361645f,rev?*%
%TF.SameCoordinates,Original*%
%TF.FileFunction,Legend,Bot*%
%TF.FilePolarity,Positive*%
%FSLAX46Y46*%
G04 Gerber Fmt 4.6, Leading zero omitted, Abs format (unit mm)*
G04 Created by KiCad (PCBNEW 7.0.5-4d25ed1034~172~ubuntu22.04.1) date 2023-06-16 00:18:41*
%MOMM*%
%LPD*%
G01*
G04 APERTURE LIST*
%ADD10C,0.150000*%
%ADD11C,0.120000*%
G04 APERTURE END LIST*
D10*
%TO.C,*%
%TO.C,BT1*%
X118775714Y-64971009D02*
X118632857Y-65018628D01*
X118632857Y-65018628D02*
X118585238Y-65066247D01*
X118585238Y-65066247D02*
X118537619Y-65161485D01*
X118537619Y-65161485D02*
X118537619Y-65304342D01*
X118537619Y-65304342D02*
X118585238Y-65399580D01*
X118585238Y-65399580D02*
X118632857Y-65447200D01*
X118632857Y-65447200D02*
X118728095Y-65494819D01*
X118728095Y-65494819D02*
X119109047Y-65494819D01*
X119109047Y-65494819D02*
X119109047Y-64494819D01*
X119109047Y-64494819D02*
X118775714Y-64494819D01*
X118775714Y-64494819D02*
X118680476Y-64542438D01*
X118680476Y-64542438D02*
X118632857Y-64590057D01*
X118632857Y-64590057D02*
X118585238Y-64685295D01*
X118585238Y-64685295D02*
X118585238Y-64780533D01*
X118585238Y-64780533D02*
X118632857Y-64875771D01*
X118632857Y-64875771D02*
X118680476Y-64923390D01*
X118680476Y-64923390D02*
X118775714Y-64971009D01*
X118775714Y-64971009D02*
X119109047Y-64971009D01*
X118251904Y-64494819D02*
X117680476Y-64494819D01*
X117966190Y-65494819D02*
X117966190Y-64494819D01*
X116823333Y-65494819D02*
X117394761Y-65494819D01*
X117109047Y-65494819D02*
X117109047Y-64494819D01*
X117109047Y-64494819D02*
X117204285Y-64637676D01*
X117204285Y-64637676D02*
X117299523Y-64732914D01*
X117299523Y-64732914D02*
X117394761Y-64780533D01*
%TO.C,*%
G36*
X101538046Y-43952996D02*
G01*
X101588873Y-43956269D01*
X101642767Y-43962073D01*
X101692483Y-43969750D01*
X101734579Y-43978779D01*
X101788279Y-43992595D01*
X101845708Y-44009222D01*
X101902905Y-44027397D01*
X101955911Y-44045855D01*
X102000765Y-44063332D01*
X102033507Y-44078566D01*
X102037172Y-44080492D01*
X102059602Y-44091438D01*
X102090274Y-44105621D01*
X102123668Y-44120477D01*
X102164273Y-44138498D01*
X102220261Y-44164269D01*
X102274431Y-44190140D01*
X102322328Y-44213972D01*
X102359493Y-44233626D01*
X102371082Y-44239908D01*
X102400598Y-44254889D01*
X102425622Y-44266372D01*
X102440918Y-44273294D01*
X102469531Y-44287595D01*
X102499004Y-44303500D01*
X102519808Y-44315040D01*
X102545601Y-44328857D01*
X102563594Y-44337920D01*
X102606039Y-44361561D01*
X102657176Y-44397470D01*
X102711160Y-44441771D01*
X102764710Y-44491761D01*
X102814541Y-44544734D01*
X102836740Y-44570445D01*
X102866034Y-44605900D01*
X102893744Y-44641761D01*
X102921843Y-44680793D01*
X102952297Y-44725756D01*
X102987077Y-44779417D01*
X103028151Y-44844538D01*
X103049302Y-44878057D01*
X103080561Y-44925960D01*
X103108367Y-44966059D01*
X103135548Y-45002512D01*
X103147589Y-45019705D01*
X103159048Y-45040961D01*
X103162409Y-45055014D01*
X103157052Y-45077768D01*
X103141074Y-45117249D01*
X103115140Y-45158407D01*
X103077249Y-45204761D01*
X103061262Y-45223106D01*
X103039040Y-45249902D01*
X103022468Y-45271503D01*
X103014285Y-45284446D01*
X103013964Y-45285189D01*
X103002234Y-45301722D01*
X102984301Y-45318441D01*
X102971569Y-45328457D01*
X102948047Y-45347558D01*
X102918596Y-45371850D01*
X102886787Y-45398408D01*
X102859594Y-45420700D01*
X102822340Y-45448446D01*
X102788729Y-45469111D01*
X102754111Y-45485751D01*
X102734484Y-45493568D01*
X102695289Y-45503874D01*
X102664829Y-45501778D01*
X102641107Y-45486273D01*
X102622120Y-45456350D01*
X102605869Y-45411002D01*
X102595376Y-45375064D01*
X102578843Y-45319567D01*
X102564925Y-45275767D01*
X102552402Y-45240987D01*
X102540053Y-45212553D01*
X102526657Y-45187788D01*
X102510993Y-45164015D01*
X102491841Y-45138560D01*
X102467981Y-45108747D01*
X102439115Y-45073076D01*
X102403444Y-45028966D01*
X102368973Y-44986315D01*
X102340281Y-44950785D01*
X102324992Y-44932238D01*
X102284836Y-44886265D01*
X102240722Y-44838837D01*
X102195501Y-44792812D01*
X102152021Y-44751047D01*
X102113138Y-44716398D01*
X102081700Y-44691721D01*
X102027160Y-44654350D01*
X101980060Y-44624094D01*
X101944215Y-44603692D01*
X101918955Y-44592737D01*
X101893530Y-44582311D01*
X101867919Y-44568161D01*
X101849650Y-44558924D01*
X101817816Y-44546098D01*
X101775317Y-44530671D01*
X101724773Y-44513450D01*
X101668801Y-44495239D01*
X101610020Y-44476842D01*
X101551050Y-44459063D01*
X101494510Y-44442706D01*
X101443017Y-44428575D01*
X101399192Y-44417476D01*
X101365653Y-44410211D01*
X101345019Y-44407586D01*
X101333532Y-44405807D01*
X101313837Y-44398055D01*
X101303019Y-44392572D01*
X101279323Y-44381912D01*
X101251465Y-44370344D01*
X101239512Y-44365574D01*
X101194292Y-44347147D01*
X101160690Y-44332375D01*
X101135606Y-44319535D01*
X101115939Y-44306906D01*
X101098588Y-44292766D01*
X101080451Y-44275394D01*
X101079471Y-44274411D01*
X101056004Y-44249034D01*
X101043481Y-44230310D01*
X101039777Y-44215093D01*
X101043280Y-44191877D01*
X101054886Y-44158595D01*
X101071607Y-44125966D01*
X101090305Y-44101072D01*
X101092778Y-44098698D01*
X101113836Y-44081602D01*
X101143157Y-44060730D01*
X101175486Y-44039548D01*
X101205566Y-44021526D01*
X101228141Y-44010130D01*
X101239653Y-44005051D01*
X101261070Y-43994189D01*
X101283797Y-43985293D01*
X101319128Y-43976221D01*
X101362911Y-43967735D01*
X101411137Y-43960520D01*
X101459797Y-43955260D01*
X101504881Y-43952636D01*
X101538046Y-43952996D01*
G37*
G36*
X96569799Y-43331084D02*
G01*
X96627417Y-43333443D01*
X96676439Y-43337366D01*
X96712976Y-43342859D01*
X96732752Y-43346868D01*
X96765988Y-43352653D01*
X96792547Y-43356190D01*
X96809903Y-43357846D01*
X96869949Y-43364126D01*
X96919548Y-43370651D01*
X96963478Y-43378352D01*
X97006512Y-43388157D01*
X97053424Y-43400997D01*
X97108992Y-43417800D01*
X97154129Y-43432484D01*
X97244794Y-43467067D01*
X97319248Y-43503432D01*
X97377452Y-43541555D01*
X97419371Y-43581413D01*
X97444963Y-43622982D01*
X97448603Y-43636296D01*
X97452853Y-43665287D01*
X97455825Y-43702350D01*
X97457030Y-43742650D01*
X97457359Y-43781129D01*
X97459215Y-43835703D01*
X97463791Y-43879161D01*
X97472350Y-43914856D01*
X97486157Y-43946145D01*
X97506473Y-43976381D01*
X97534562Y-44008918D01*
X97571689Y-44047109D01*
X97583183Y-44058756D01*
X97628142Y-44107986D01*
X97659816Y-44150034D01*
X97678896Y-44185926D01*
X97686075Y-44216688D01*
X97685577Y-44228138D01*
X97678205Y-44260192D01*
X97663691Y-44298042D01*
X97643831Y-44336600D01*
X97633638Y-44362296D01*
X97625927Y-44401115D01*
X97622249Y-44445893D01*
X97623017Y-44491309D01*
X97628646Y-44532042D01*
X97629637Y-44536318D01*
X97636777Y-44564036D01*
X97647692Y-44603579D01*
X97661468Y-44651779D01*
X97677187Y-44705466D01*
X97693936Y-44761471D01*
X97710801Y-44816627D01*
X97717301Y-44839308D01*
X97724054Y-44867631D01*
X97727189Y-44887482D01*
X97727429Y-44890662D01*
X97730953Y-44915105D01*
X97736726Y-44942235D01*
X97739379Y-44958353D01*
X97741874Y-44990769D01*
X97743174Y-45031312D01*
X97743286Y-45075249D01*
X97742212Y-45117847D01*
X97739956Y-45154372D01*
X97736523Y-45180090D01*
X97729087Y-45200097D01*
X97711261Y-45231529D01*
X97686472Y-45267434D01*
X97657583Y-45304204D01*
X97627456Y-45338237D01*
X97598954Y-45365926D01*
X97574935Y-45383663D01*
X97561350Y-45392584D01*
X97536527Y-45411451D01*
X97506545Y-45436054D01*
X97475218Y-45463342D01*
X97440528Y-45495458D01*
X97410974Y-45526212D01*
X97392232Y-45551730D01*
X97382959Y-45574419D01*
X97381818Y-45596686D01*
X97387466Y-45620939D01*
X97390794Y-45631352D01*
X97397570Y-45654974D01*
X97400933Y-45670459D01*
X97401195Y-45674586D01*
X97399277Y-45684158D01*
X97392261Y-45691699D01*
X97378526Y-45697453D01*
X97356448Y-45701663D01*
X97324407Y-45704577D01*
X97280782Y-45706437D01*
X97223953Y-45707489D01*
X97152297Y-45707976D01*
X96925820Y-45708793D01*
X96844370Y-45611676D01*
X96837035Y-45602943D01*
X96809105Y-45570057D01*
X96783722Y-45541067D01*
X96758788Y-45513830D01*
X96732203Y-45486203D01*
X96701871Y-45456045D01*
X96665694Y-45421214D01*
X96621569Y-45379567D01*
X96567403Y-45328963D01*
X96532135Y-45296002D01*
X96504538Y-45269623D01*
X96485108Y-45249767D01*
X96471838Y-45234039D01*
X96462717Y-45220043D01*
X96455735Y-45205382D01*
X96448883Y-45187662D01*
X96441987Y-45167229D01*
X96432430Y-45132124D01*
X96426787Y-45102306D01*
X96426499Y-45099993D01*
X96421878Y-45071720D01*
X96414666Y-45035562D01*
X96406294Y-44998749D01*
X96404239Y-44990103D01*
X96397748Y-44958931D01*
X96393970Y-44934202D01*
X96393670Y-44920644D01*
X96394417Y-44914251D01*
X96389951Y-44900925D01*
X96388045Y-44898382D01*
X96380603Y-44882721D01*
X96372698Y-44860141D01*
X96367415Y-44845178D01*
X96353992Y-44814335D01*
X96338389Y-44784112D01*
X96328363Y-44766484D01*
X96312179Y-44737902D01*
X96299680Y-44715676D01*
X96297171Y-44711240D01*
X96280804Y-44683619D01*
X96258467Y-44647289D01*
X96232717Y-44606366D01*
X96206106Y-44564969D01*
X96196026Y-44549712D01*
X96156969Y-44494176D01*
X96113981Y-44437711D01*
X96068924Y-44382405D01*
X96023660Y-44330352D01*
X95980051Y-44283639D01*
X95939959Y-44244357D01*
X95905247Y-44214598D01*
X95877777Y-44196450D01*
X95836326Y-44182727D01*
X95798085Y-44183833D01*
X95764711Y-44198787D01*
X95737400Y-44226374D01*
X95717350Y-44265382D01*
X95705757Y-44314595D01*
X95703820Y-44372801D01*
X95705166Y-44389428D01*
X95716397Y-44450029D01*
X95736035Y-44510712D01*
X95761631Y-44563400D01*
X95764695Y-44568768D01*
X95776315Y-44595056D01*
X95782256Y-44618386D01*
X95782859Y-44634141D01*
X95777209Y-44643886D01*
X95760183Y-44650285D01*
X95737803Y-44654614D01*
X95700655Y-44652009D01*
X95661872Y-44636591D01*
X95619806Y-44607604D01*
X95572813Y-44564292D01*
X95536753Y-44525405D01*
X95495514Y-44473624D01*
X95463795Y-44424389D01*
X95442976Y-44379911D01*
X95434432Y-44342398D01*
X95433956Y-44336908D01*
X95430095Y-44311878D01*
X95424092Y-44284088D01*
X95422480Y-44274790D01*
X95421977Y-44242621D01*
X95425943Y-44202173D01*
X95433554Y-44158593D01*
X95443982Y-44117028D01*
X95456404Y-44082627D01*
X95457061Y-44081171D01*
X95467454Y-44057758D01*
X95475576Y-44038895D01*
X95477654Y-44034051D01*
X95489122Y-44011702D01*
X95504527Y-43989044D01*
X95525664Y-43964098D01*
X95554323Y-43934883D01*
X95592298Y-43899419D01*
X95641379Y-43855727D01*
X95645092Y-43852448D01*
X95673304Y-43825860D01*
X95700462Y-43796715D01*
X95728403Y-43762666D01*
X95758961Y-43721361D01*
X95793974Y-43670453D01*
X95835277Y-43607591D01*
X95845535Y-43592923D01*
X95874900Y-43557371D01*
X95909908Y-43520871D01*
X95945681Y-43488331D01*
X95977342Y-43464660D01*
X96064207Y-43416873D01*
X96170894Y-43373519D01*
X96280945Y-43343870D01*
X96288874Y-43342404D01*
X96331139Y-43337088D01*
X96384254Y-43333288D01*
X96444327Y-43331015D01*
X96507472Y-43330277D01*
X96569799Y-43331084D01*
G37*
G36*
X96880601Y-45856874D02*
G01*
X96998765Y-45975038D01*
X97059231Y-45987796D01*
X97081414Y-45992012D01*
X97142317Y-45998001D01*
X97193352Y-45994041D01*
X97232848Y-45980203D01*
X97243464Y-45973668D01*
X97271258Y-45952400D01*
X97297086Y-45927668D01*
X97316962Y-45903543D01*
X97326899Y-45884103D01*
X97328581Y-45878093D01*
X97337210Y-45865951D01*
X97356060Y-45858249D01*
X97376792Y-45855649D01*
X97392551Y-45859199D01*
X97397681Y-45865497D01*
X97408542Y-45884951D01*
X97422118Y-45913582D01*
X97436614Y-45947778D01*
X97442142Y-45961411D01*
X97457381Y-45996485D01*
X97470351Y-46020824D01*
X97483253Y-46038154D01*
X97498292Y-46052207D01*
X97502135Y-46055300D01*
X97533777Y-46078623D01*
X97567551Y-46099109D01*
X97606910Y-46118477D01*
X97655308Y-46138448D01*
X97716199Y-46160741D01*
X97731855Y-46166281D01*
X97774974Y-46181852D01*
X97813763Y-46196283D01*
X97844483Y-46208171D01*
X97863390Y-46216107D01*
X97867936Y-46218106D01*
X97889809Y-46226826D01*
X97923433Y-46239550D01*
X97966045Y-46255255D01*
X98014877Y-46272916D01*
X98067166Y-46291511D01*
X98070160Y-46292567D01*
X98150114Y-46320774D01*
X98216215Y-46344134D01*
X98270082Y-46363234D01*
X98313327Y-46378659D01*
X98347566Y-46390996D01*
X98374413Y-46400829D01*
X98395483Y-46408747D01*
X98412391Y-46415333D01*
X98426752Y-46421174D01*
X98440180Y-46426856D01*
X98444057Y-46428525D01*
X98493851Y-46450927D01*
X98538185Y-46473217D01*
X98581634Y-46497991D01*
X98628775Y-46527848D01*
X98684182Y-46565387D01*
X98703346Y-46579530D01*
X98739763Y-46609381D01*
X98782243Y-46646862D01*
X98828735Y-46689922D01*
X98877189Y-46736512D01*
X98925555Y-46784582D01*
X98971780Y-46832082D01*
X99013816Y-46876960D01*
X99049612Y-46917170D01*
X99077117Y-46950659D01*
X99094280Y-46975378D01*
X99106152Y-46995423D01*
X99123993Y-47024674D01*
X99142788Y-47054827D01*
X99173145Y-47102985D01*
X99196410Y-47140090D01*
X99213737Y-47168030D01*
X99226578Y-47189173D01*
X99236391Y-47205885D01*
X99244627Y-47220534D01*
X99244706Y-47220677D01*
X99257927Y-47242877D01*
X99276621Y-47272138D01*
X99296768Y-47302166D01*
X99317309Y-47332236D01*
X99337577Y-47362401D01*
X99352861Y-47385663D01*
X99361800Y-47399686D01*
X99371426Y-47415090D01*
X99383257Y-47434366D01*
X99398853Y-47460075D01*
X99419775Y-47494778D01*
X99447586Y-47541036D01*
X99458070Y-47558142D01*
X99476000Y-47586716D01*
X99494737Y-47616025D01*
X99509285Y-47638758D01*
X99527743Y-47668159D01*
X99541777Y-47691127D01*
X99545117Y-47696720D01*
X99568130Y-47734412D01*
X99595250Y-47777822D01*
X99622309Y-47820329D01*
X99645139Y-47855311D01*
X99654618Y-47868002D01*
X99675180Y-47892792D01*
X99702900Y-47924524D01*
X99735368Y-47960452D01*
X99770171Y-47997826D01*
X99806949Y-48036394D01*
X99837293Y-48067229D01*
X99861161Y-48089913D01*
X99880878Y-48106539D01*
X99898776Y-48119203D01*
X99917181Y-48129995D01*
X99943111Y-48146256D01*
X99987389Y-48180747D01*
X100040549Y-48228651D01*
X100118688Y-48302742D01*
X100116390Y-48348037D01*
X100114677Y-48365396D01*
X100108591Y-48393968D01*
X100100219Y-48414139D01*
X100091071Y-48431047D01*
X100088280Y-48443145D01*
X100088340Y-48444562D01*
X100082553Y-48456900D01*
X100069327Y-48473388D01*
X100068354Y-48474424D01*
X100051271Y-48495295D01*
X100038774Y-48514851D01*
X100035330Y-48520022D01*
X100020017Y-48537802D01*
X99994421Y-48564699D01*
X99959827Y-48599463D01*
X99917517Y-48640847D01*
X99868777Y-48687600D01*
X99814891Y-48738472D01*
X99757143Y-48792215D01*
X99696817Y-48847577D01*
X99693953Y-48850185D01*
X99650150Y-48889461D01*
X99615605Y-48918574D01*
X99587984Y-48938821D01*
X99564954Y-48951503D01*
X99544182Y-48957919D01*
X99523336Y-48959368D01*
X99500082Y-48957150D01*
X99495210Y-48956422D01*
X99472488Y-48951619D01*
X99452790Y-48943629D01*
X99432600Y-48930198D01*
X99408404Y-48909074D01*
X99376687Y-48878001D01*
X99359862Y-48860405D01*
X99322268Y-48812951D01*
X99293503Y-48761070D01*
X99270018Y-48698796D01*
X99266350Y-48689892D01*
X99255991Y-48674296D01*
X99249462Y-48665610D01*
X99236899Y-48645112D01*
X99222283Y-48618884D01*
X99208450Y-48592057D01*
X99198235Y-48569762D01*
X99190038Y-48553567D01*
X99176947Y-48532888D01*
X99168592Y-48520428D01*
X99153191Y-48495764D01*
X99136885Y-48468257D01*
X99135058Y-48465113D01*
X99116614Y-48435062D01*
X99093637Y-48399623D01*
X99070660Y-48365811D01*
X99066757Y-48360232D01*
X99044155Y-48327788D01*
X99022639Y-48296707D01*
X99006396Y-48273038D01*
X99002660Y-48267580D01*
X98984657Y-48241718D01*
X98962132Y-48209805D01*
X98939074Y-48177505D01*
X98932706Y-48168622D01*
X98909420Y-48135826D01*
X98887829Y-48104998D01*
X98871912Y-48081813D01*
X98838292Y-48031758D01*
X98807854Y-47986245D01*
X98784401Y-47950906D01*
X98766728Y-47923920D01*
X98753628Y-47903469D01*
X98751350Y-47899899D01*
X98735217Y-47875717D01*
X98714074Y-47845171D01*
X98691880Y-47813995D01*
X98687117Y-47807365D01*
X98665594Y-47776405D01*
X98646626Y-47747660D01*
X98633855Y-47726614D01*
X98622256Y-47706579D01*
X98599090Y-47669098D01*
X98568625Y-47621752D01*
X98532159Y-47566581D01*
X98518687Y-47546034D01*
X98499307Y-47515830D01*
X98479907Y-47485060D01*
X98476378Y-47479409D01*
X98450257Y-47438141D01*
X98425663Y-47400578D01*
X98398832Y-47361069D01*
X98366006Y-47313965D01*
X98362123Y-47308426D01*
X98339569Y-47275917D01*
X98318213Y-47244652D01*
X98302218Y-47220715D01*
X98277935Y-47184578D01*
X98245670Y-47138386D01*
X98211341Y-47090679D01*
X98178624Y-47046559D01*
X98151195Y-47011132D01*
X98137360Y-46993752D01*
X98108337Y-46956856D01*
X98074071Y-46912923D01*
X98037486Y-46865728D01*
X98001507Y-46819049D01*
X97969057Y-46776660D01*
X97943059Y-46742337D01*
X97941976Y-46740921D01*
X97927034Y-46723238D01*
X97902221Y-46695665D01*
X97869048Y-46659809D01*
X97829026Y-46617276D01*
X97783666Y-46569675D01*
X97734479Y-46518613D01*
X97682976Y-46465697D01*
X97663221Y-46445515D01*
X97608588Y-46389848D01*
X97563773Y-46344504D01*
X97527563Y-46308334D01*
X97498745Y-46280190D01*
X97476104Y-46258922D01*
X97458426Y-46243380D01*
X97444497Y-46232417D01*
X97433105Y-46224881D01*
X97423035Y-46219628D01*
X97392341Y-46205730D01*
X97363912Y-46193647D01*
X97343117Y-46186310D01*
X97325970Y-46182355D01*
X97308481Y-46180415D01*
X97298499Y-46179687D01*
X97267350Y-46177423D01*
X97235270Y-46175098D01*
X97216745Y-46174512D01*
X97179331Y-46175864D01*
X97143387Y-46179661D01*
X97117615Y-46182085D01*
X97058853Y-46179141D01*
X96996914Y-46166405D01*
X96937711Y-46144877D01*
X96889607Y-46116617D01*
X96836157Y-46069596D01*
X96784273Y-46006695D01*
X96733702Y-45927646D01*
X96718886Y-45896496D01*
X96709804Y-45852019D01*
X96716767Y-45809712D01*
X96739814Y-45768520D01*
X96762437Y-45738710D01*
X96880601Y-45856874D01*
G37*
G36*
X99703310Y-41735021D02*
G01*
X99824707Y-41743581D01*
X99941251Y-41751799D01*
X100168347Y-41777576D01*
X100189358Y-41780560D01*
X100232957Y-41788048D01*
X100265542Y-41796627D01*
X100290993Y-41807841D01*
X100313189Y-41823234D01*
X100327089Y-41836098D01*
X100336008Y-41844352D01*
X100344362Y-41853039D01*
X100359558Y-41871600D01*
X100371770Y-41892201D01*
X100381686Y-41917236D01*
X100389993Y-41949101D01*
X100397378Y-41990190D01*
X100404528Y-42042901D01*
X100412132Y-42109627D01*
X100426989Y-42265045D01*
X100442230Y-42494033D01*
X100450057Y-42724550D01*
X100450416Y-42952569D01*
X100448259Y-43019334D01*
X100443258Y-43174064D01*
X100428531Y-43385007D01*
X100421160Y-43461573D01*
X100412705Y-43539339D01*
X100404106Y-43608832D01*
X100395599Y-43668421D01*
X100387418Y-43716477D01*
X100379796Y-43751372D01*
X100372968Y-43771478D01*
X100365476Y-43782858D01*
X100346947Y-43804587D01*
X100324502Y-43826400D01*
X100312949Y-43835811D01*
X100294965Y-43847377D01*
X100273449Y-43857079D01*
X100246255Y-43865435D01*
X100211238Y-43872966D01*
X100166253Y-43880189D01*
X100109154Y-43887624D01*
X100037799Y-43895791D01*
X99812834Y-43916208D01*
X99500108Y-43930541D01*
X99185831Y-43928829D01*
X98871146Y-43911085D01*
X98557193Y-43877322D01*
X98531756Y-43873881D01*
X98480252Y-43866049D01*
X98437630Y-43857091D01*
X98402848Y-43845481D01*
X98374867Y-43829694D01*
X98352645Y-43808205D01*
X98335139Y-43779488D01*
X98321308Y-43742018D01*
X98310114Y-43694271D01*
X98300512Y-43634720D01*
X98291461Y-43561840D01*
X98281922Y-43474106D01*
X98267076Y-43315617D01*
X98257623Y-43151263D01*
X98739080Y-43151263D01*
X98745896Y-43158600D01*
X98763366Y-43155112D01*
X98770140Y-43152768D01*
X98776857Y-43153453D01*
X98777658Y-43163318D01*
X98773697Y-43185799D01*
X98769220Y-43211591D01*
X98763763Y-43269012D01*
X98764798Y-43321220D01*
X98772362Y-43363278D01*
X98784505Y-43402862D01*
X98823359Y-43420241D01*
X98824420Y-43420711D01*
X98877425Y-43435189D01*
X98938547Y-43435902D01*
X99007109Y-43422976D01*
X99082434Y-43396537D01*
X99163846Y-43356711D01*
X99183526Y-43345635D01*
X99274983Y-43289111D01*
X99366502Y-43224994D01*
X99450779Y-43158335D01*
X99455418Y-43154267D01*
X99524772Y-43154267D01*
X99525067Y-43155271D01*
X99532831Y-43166572D01*
X99550109Y-43187970D01*
X99575505Y-43217894D01*
X99607633Y-43254771D01*
X99645099Y-43297029D01*
X99686514Y-43343100D01*
X99730485Y-43391408D01*
X99775623Y-43440383D01*
X99820535Y-43488453D01*
X99942800Y-43618324D01*
X99965649Y-43601541D01*
X99972814Y-43596104D01*
X99998168Y-43575253D01*
X100027242Y-43549691D01*
X100055921Y-43523193D01*
X100080080Y-43499531D01*
X100095604Y-43482481D01*
X100096166Y-43481768D01*
X100111219Y-43462864D01*
X100120694Y-43448703D01*
X100123652Y-43436489D01*
X100119156Y-43423424D01*
X100106264Y-43406710D01*
X100084043Y-43383550D01*
X100051550Y-43351146D01*
X100044690Y-43344324D01*
X100011416Y-43311924D01*
X99969953Y-43272354D01*
X99923521Y-43228648D01*
X99875340Y-43183843D01*
X99828632Y-43140976D01*
X99786028Y-43102344D01*
X99748901Y-43069202D01*
X99720830Y-43044983D01*
X99700273Y-43028451D01*
X99685690Y-43018374D01*
X99675541Y-43013521D01*
X99668287Y-43012658D01*
X99659628Y-43015633D01*
X99643216Y-43027151D01*
X99619863Y-43048601D01*
X99587887Y-43081426D01*
X99565802Y-43105179D01*
X99544535Y-43128961D01*
X99530093Y-43146208D01*
X99524772Y-43154267D01*
X99455418Y-43154267D01*
X99511004Y-43105527D01*
X99611633Y-43008583D01*
X99703675Y-42908530D01*
X99785381Y-42807454D01*
X99854996Y-42707441D01*
X99910767Y-42610578D01*
X99930440Y-42569949D01*
X99962119Y-42491436D01*
X99983034Y-42418506D01*
X99993152Y-42352269D01*
X99992435Y-42293838D01*
X99980846Y-42244323D01*
X99958351Y-42204836D01*
X99924914Y-42176488D01*
X99904247Y-42166896D01*
X99855259Y-42156333D01*
X99796764Y-42156640D01*
X99730358Y-42167501D01*
X99657641Y-42188604D01*
X99580210Y-42219630D01*
X99499664Y-42260267D01*
X99438642Y-42294183D01*
X99418706Y-42394509D01*
X99418158Y-42397283D01*
X99411337Y-42435997D01*
X99406992Y-42468822D01*
X99405487Y-42492370D01*
X99407178Y-42503245D01*
X99407207Y-42503273D01*
X99419284Y-42503934D01*
X99443937Y-42495275D01*
X99480382Y-42477573D01*
X99487113Y-42474079D01*
X99534150Y-42451887D01*
X99582247Y-42432517D01*
X99627556Y-42417284D01*
X99666231Y-42407502D01*
X99694421Y-42404484D01*
X99732216Y-42411223D01*
X99762935Y-42429849D01*
X99782418Y-42459428D01*
X99790349Y-42499127D01*
X99786414Y-42548114D01*
X99770298Y-42605553D01*
X99765889Y-42617201D01*
X99734258Y-42685230D01*
X99691445Y-42758730D01*
X99639682Y-42834779D01*
X99581197Y-42910462D01*
X99518222Y-42982858D01*
X99452987Y-43049053D01*
X99387722Y-43106125D01*
X99375178Y-43116067D01*
X99295333Y-43175755D01*
X99219362Y-43226416D01*
X99148208Y-43267695D01*
X99082812Y-43299241D01*
X99024114Y-43320698D01*
X98973057Y-43331713D01*
X98930581Y-43331935D01*
X98897629Y-43321008D01*
X98875140Y-43298580D01*
X98873799Y-43296186D01*
X98864992Y-43267438D01*
X98861824Y-43228820D01*
X98864374Y-43185382D01*
X98872722Y-43142170D01*
X98878598Y-43121572D01*
X98885911Y-43102704D01*
X98896184Y-43087283D01*
X98912668Y-43070678D01*
X98938611Y-43048257D01*
X98991009Y-43003917D01*
X98972109Y-42960524D01*
X98966463Y-42947854D01*
X98949943Y-42913741D01*
X98934431Y-42885560D01*
X98921710Y-42866394D01*
X98913561Y-42859320D01*
X98908425Y-42864299D01*
X98895950Y-42881055D01*
X98878031Y-42907193D01*
X98856304Y-42940189D01*
X98832404Y-42977515D01*
X98807967Y-43016647D01*
X98784629Y-43055060D01*
X98764026Y-43090225D01*
X98757426Y-43102066D01*
X98742921Y-43132590D01*
X98739080Y-43151263D01*
X98257623Y-43151263D01*
X98249972Y-43018233D01*
X98247235Y-42721554D01*
X98258872Y-42422689D01*
X98284888Y-42118739D01*
X98287605Y-42094228D01*
X98613851Y-42094228D01*
X98616878Y-42107095D01*
X98626298Y-42132135D01*
X98629713Y-42140554D01*
X98642376Y-42169348D01*
X98660093Y-42207525D01*
X98681846Y-42253068D01*
X98706617Y-42303963D01*
X98733392Y-42358192D01*
X98761152Y-42413738D01*
X98788879Y-42468584D01*
X98815557Y-42520715D01*
X98840169Y-42568115D01*
X98861698Y-42608765D01*
X98879127Y-42640650D01*
X98891437Y-42661753D01*
X98897613Y-42670058D01*
X98901999Y-42671030D01*
X98913160Y-42667243D01*
X98929821Y-42654421D01*
X98954543Y-42630803D01*
X98999244Y-42586102D01*
X99075371Y-42669922D01*
X99080989Y-42676094D01*
X99112304Y-42710192D01*
X99151218Y-42752192D01*
X99194667Y-42798811D01*
X99239594Y-42846762D01*
X99282936Y-42892757D01*
X99414374Y-43031775D01*
X99431892Y-43014257D01*
X99441550Y-43005024D01*
X99462726Y-42985828D01*
X99486434Y-42965170D01*
X99501637Y-42951167D01*
X99522819Y-42928194D01*
X99536559Y-42908896D01*
X99541193Y-42899640D01*
X99544247Y-42886553D01*
X99538432Y-42874261D01*
X99522100Y-42856829D01*
X99518858Y-42853640D01*
X99497794Y-42833479D01*
X99467338Y-42804887D01*
X99429786Y-42769973D01*
X99387439Y-42730847D01*
X99342596Y-42689618D01*
X99297552Y-42648396D01*
X99254610Y-42609290D01*
X99216065Y-42574410D01*
X99184217Y-42545866D01*
X99161365Y-42525765D01*
X99106724Y-42478623D01*
X99154054Y-42431292D01*
X99169038Y-42416001D01*
X99187468Y-42395169D01*
X99195940Y-42381338D01*
X99196128Y-42372161D01*
X99188201Y-42365775D01*
X99167196Y-42353204D01*
X99135180Y-42335611D01*
X99094157Y-42313986D01*
X99046133Y-42289315D01*
X98993111Y-42262585D01*
X98937096Y-42234784D01*
X98880092Y-42206900D01*
X98824104Y-42179917D01*
X98771136Y-42154826D01*
X98723193Y-42132613D01*
X98682278Y-42114265D01*
X98650397Y-42100769D01*
X98629554Y-42093112D01*
X98628004Y-42092648D01*
X98617473Y-42090443D01*
X98613851Y-42094228D01*
X98287605Y-42094228D01*
X98289651Y-42075764D01*
X98297116Y-42014999D01*
X98304367Y-41967110D01*
X98311993Y-41929880D01*
X98320584Y-41901089D01*
X98330728Y-41878518D01*
X98343015Y-41859948D01*
X98358032Y-41843161D01*
X98361457Y-41839787D01*
X98381000Y-41823191D01*
X98403191Y-41809657D01*
X98430325Y-41798536D01*
X98464703Y-41789180D01*
X98508618Y-41780939D01*
X98564370Y-41773169D01*
X98634254Y-41765218D01*
X98701989Y-41758374D01*
X98953867Y-41738918D01*
X99206675Y-41728557D01*
X99457471Y-41727266D01*
X99703310Y-41735021D01*
G37*
G36*
X95301928Y-44030059D02*
G01*
X95310987Y-44033495D01*
X95325351Y-44041664D01*
X95336423Y-44054892D01*
X95349118Y-44078196D01*
X95349391Y-44078741D01*
X95357226Y-44097973D01*
X95362916Y-44121500D01*
X95366852Y-44152359D01*
X95369425Y-44193584D01*
X95371028Y-44248214D01*
X95371594Y-44271009D01*
X95373488Y-44319896D01*
X95376087Y-44364988D01*
X95379123Y-44402066D01*
X95382328Y-44426913D01*
X95390992Y-44473785D01*
X95467724Y-44544849D01*
X95498701Y-44573103D01*
X95539112Y-44607870D01*
X95575480Y-44635821D01*
X95612062Y-44660153D01*
X95653119Y-44684065D01*
X95684777Y-44698752D01*
X95729370Y-44711106D01*
X95771719Y-44714163D01*
X95808160Y-44707768D01*
X95835026Y-44691766D01*
X95835062Y-44691730D01*
X95847027Y-44669365D01*
X95851962Y-44635902D01*
X95850039Y-44595026D01*
X95841430Y-44550422D01*
X95826308Y-44505773D01*
X95813108Y-44474284D01*
X95798477Y-44438279D01*
X95788559Y-44411546D01*
X95782215Y-44390641D01*
X95778307Y-44372117D01*
X95775699Y-44352530D01*
X95775001Y-44340753D01*
X95778266Y-44309581D01*
X95787544Y-44282016D01*
X95801030Y-44262336D01*
X95816919Y-44254816D01*
X95818443Y-44255004D01*
X95832604Y-44262802D01*
X95853801Y-44279953D01*
X95879170Y-44303562D01*
X95905849Y-44330733D01*
X95930972Y-44358569D01*
X95951677Y-44384175D01*
X95965099Y-44404656D01*
X95969524Y-44412935D01*
X95990633Y-44449498D01*
X96020882Y-44498686D01*
X96059924Y-44559929D01*
X96064635Y-44567072D01*
X96079236Y-44588131D01*
X96099996Y-44616911D01*
X96127892Y-44654737D01*
X96163894Y-44702936D01*
X96208977Y-44762830D01*
X96211953Y-44766915D01*
X96222526Y-44784644D01*
X96225783Y-44796148D01*
X96226672Y-44802838D01*
X96235466Y-44816236D01*
X96238084Y-44819379D01*
X96249001Y-44839264D01*
X96262319Y-44870994D01*
X96276974Y-44911354D01*
X96291900Y-44957130D01*
X96306036Y-45005107D01*
X96318318Y-45052073D01*
X96327679Y-45094812D01*
X96332130Y-45114314D01*
X96343914Y-45154962D01*
X96359692Y-45201527D01*
X96377642Y-45248418D01*
X96377922Y-45249100D01*
X96401313Y-45294224D01*
X96434299Y-45337249D01*
X96478931Y-45380460D01*
X96537261Y-45426140D01*
X96540954Y-45428909D01*
X96562964Y-45451956D01*
X96579870Y-45484836D01*
X96585112Y-45499165D01*
X96589547Y-45521399D01*
X96587341Y-45544686D01*
X96578380Y-45575975D01*
X96569258Y-45600954D01*
X96554320Y-45635546D01*
X96539901Y-45663164D01*
X96533784Y-45673673D01*
X96519675Y-45700978D01*
X96510175Y-45723590D01*
X96507725Y-45730572D01*
X96497438Y-45755778D01*
X96481551Y-45790433D01*
X96459287Y-45836191D01*
X96429871Y-45894707D01*
X96428126Y-45898143D01*
X96412261Y-45929370D01*
X96398072Y-45957300D01*
X96388446Y-45976249D01*
X96376385Y-45996219D01*
X96362198Y-46013979D01*
X96345499Y-46026863D01*
X96320154Y-46041227D01*
X96294371Y-46052275D01*
X96274923Y-46056694D01*
X96267455Y-46053875D01*
X96248034Y-46040346D01*
X96219582Y-46016580D01*
X96183408Y-45983623D01*
X96105636Y-45910551D01*
X96056902Y-45912535D01*
X96056073Y-45912569D01*
X96024795Y-45915613D01*
X96003567Y-45922891D01*
X95986250Y-45936481D01*
X95978714Y-45944754D01*
X95960050Y-45978853D01*
X95955967Y-46018813D01*
X95966482Y-46065187D01*
X95991612Y-46118528D01*
X95994482Y-46123208D01*
X96013892Y-46148231D01*
X96042373Y-46179043D01*
X96076532Y-46212437D01*
X96112981Y-46245206D01*
X96148331Y-46274141D01*
X96179194Y-46296035D01*
X96192197Y-46304268D01*
X96258839Y-46348186D01*
X96314913Y-46388210D01*
X96359363Y-46423513D01*
X96391135Y-46453266D01*
X96409175Y-46476640D01*
X96410502Y-46479070D01*
X96424009Y-46502802D01*
X96435822Y-46522155D01*
X96444258Y-46541114D01*
X96453739Y-46574636D01*
X96462877Y-46618273D01*
X96471071Y-46668722D01*
X96477719Y-46722682D01*
X96482220Y-46776847D01*
X96486401Y-46844769D01*
X96491434Y-46923019D01*
X96495905Y-46987617D01*
X96499953Y-47040161D01*
X96503709Y-47082248D01*
X96507307Y-47115470D01*
X96510883Y-47141425D01*
X96514570Y-47161710D01*
X96518990Y-47185883D01*
X96521358Y-47206984D01*
X96520455Y-47216896D01*
X96519815Y-47219914D01*
X96521167Y-47236030D01*
X96525551Y-47262376D01*
X96532386Y-47295116D01*
X96549057Y-47368596D01*
X96611344Y-47428451D01*
X96649463Y-47463177D01*
X96684850Y-47490376D01*
X96717008Y-47508905D01*
X96732672Y-47516452D01*
X96772175Y-47536051D01*
X96817738Y-47559207D01*
X96865196Y-47583755D01*
X96910385Y-47607531D01*
X96949141Y-47628373D01*
X96977299Y-47644118D01*
X96985669Y-47648999D01*
X97015183Y-47666572D01*
X97045104Y-47685109D01*
X97079831Y-47707371D01*
X97123762Y-47736121D01*
X97149775Y-47752844D01*
X97185061Y-47774657D01*
X97215475Y-47792591D01*
X97231147Y-47801728D01*
X97266225Y-47823359D01*
X97297747Y-47844092D01*
X97313169Y-47854643D01*
X97343438Y-47875009D01*
X97369227Y-47891976D01*
X97391425Y-47906911D01*
X97431665Y-47935737D01*
X97477820Y-47970294D01*
X97526008Y-48007612D01*
X97572347Y-48044718D01*
X97612961Y-48078642D01*
X97644869Y-48106059D01*
X97704491Y-48157152D01*
X97754181Y-48199402D01*
X97795638Y-48234127D01*
X97830562Y-48262644D01*
X97860650Y-48286268D01*
X97887602Y-48306317D01*
X97913116Y-48324109D01*
X97938893Y-48340959D01*
X97966629Y-48358185D01*
X97998026Y-48377103D01*
X98016508Y-48387498D01*
X98075044Y-48413310D01*
X98136136Y-48431057D01*
X98196018Y-48440082D01*
X98250925Y-48439728D01*
X98297096Y-48429338D01*
X98309917Y-48424252D01*
X98326065Y-48415532D01*
X98335706Y-48403359D01*
X98344773Y-48381815D01*
X98349593Y-48365229D01*
X98351415Y-48322287D01*
X98340563Y-48278528D01*
X98318047Y-48239328D01*
X98316592Y-48237522D01*
X98298312Y-48218697D01*
X98276114Y-48204734D01*
X98243870Y-48191698D01*
X98215013Y-48180303D01*
X98197751Y-48168391D01*
X98192156Y-48152841D01*
X98196993Y-48130065D01*
X98211022Y-48096475D01*
X98213858Y-48090376D01*
X98236689Y-48052137D01*
X98267267Y-48020165D01*
X98273220Y-48015130D01*
X98296249Y-47999113D01*
X98319530Y-47990333D01*
X98345894Y-47988933D01*
X98378171Y-47995055D01*
X98419192Y-48008839D01*
X98471786Y-48030429D01*
X98491848Y-48040199D01*
X98515469Y-48055580D01*
X98541700Y-48077546D01*
X98574497Y-48109127D01*
X98590910Y-48125591D01*
X98612636Y-48148277D01*
X98626620Y-48165648D01*
X98635369Y-48181746D01*
X98641395Y-48200614D01*
X98647204Y-48226294D01*
X98651628Y-48251048D01*
X98655824Y-48298306D01*
X98654952Y-48343314D01*
X98649221Y-48381542D01*
X98638838Y-48408460D01*
X98635861Y-48413392D01*
X98623389Y-48437828D01*
X98611852Y-48465025D01*
X98608964Y-48471995D01*
X98586604Y-48508751D01*
X98552713Y-48548127D01*
X98510390Y-48587203D01*
X98462728Y-48623061D01*
X98412822Y-48652779D01*
X98409979Y-48654233D01*
X98364405Y-48676091D01*
X98321210Y-48694306D01*
X98283401Y-48707798D01*
X98253980Y-48715488D01*
X98235952Y-48716298D01*
X98229605Y-48715463D01*
X98217131Y-48719145D01*
X98216835Y-48719421D01*
X98205457Y-48723969D01*
X98181364Y-48728232D01*
X98143313Y-48732382D01*
X98090057Y-48736590D01*
X98083140Y-48737044D01*
X98061972Y-48737819D01*
X98040803Y-48737196D01*
X98016411Y-48734793D01*
X97985571Y-48730229D01*
X97945062Y-48723122D01*
X97891660Y-48713091D01*
X97876423Y-48709905D01*
X97815375Y-48693082D01*
X97745551Y-48668687D01*
X97670557Y-48638250D01*
X97594000Y-48603301D01*
X97519483Y-48565369D01*
X97450615Y-48525984D01*
X97431550Y-48514348D01*
X97392673Y-48490702D01*
X97363041Y-48472843D01*
X97339265Y-48458736D01*
X97317959Y-48446348D01*
X97306848Y-48439676D01*
X97279986Y-48422423D01*
X97252826Y-48403880D01*
X97239311Y-48394470D01*
X97210589Y-48375246D01*
X97186314Y-48359884D01*
X97171740Y-48351056D01*
X97143274Y-48333629D01*
X97114206Y-48315668D01*
X97096143Y-48304734D01*
X97062369Y-48285314D01*
X97032617Y-48269298D01*
X97018939Y-48262235D01*
X96985033Y-48244210D01*
X96953094Y-48226682D01*
X96951006Y-48225512D01*
X96922106Y-48209511D01*
X96886563Y-48190076D01*
X96851586Y-48171150D01*
X96846217Y-48168259D01*
X96813426Y-48150386D01*
X96783308Y-48133657D01*
X96761789Y-48121357D01*
X96716854Y-48095484D01*
X96661746Y-48065737D01*
X96615387Y-48043167D01*
X96580105Y-48028957D01*
X96548050Y-48019707D01*
X96483446Y-48009389D01*
X96421971Y-48010192D01*
X96366196Y-48021715D01*
X96318694Y-48043559D01*
X96282036Y-48075326D01*
X96273538Y-48085940D01*
X96252073Y-48115241D01*
X96234560Y-48142212D01*
X96218092Y-48169626D01*
X96164723Y-48249962D01*
X96110069Y-48320107D01*
X96055744Y-48378103D01*
X96003365Y-48421995D01*
X95977186Y-48440975D01*
X95942002Y-48467140D01*
X95909543Y-48491877D01*
X95877202Y-48516748D01*
X95850089Y-48536476D01*
X95826689Y-48551223D01*
X95802224Y-48563680D01*
X95771916Y-48576543D01*
X95730987Y-48592501D01*
X95730763Y-48592586D01*
X95701061Y-48603160D01*
X95664656Y-48614873D01*
X95624742Y-48626852D01*
X95584518Y-48638219D01*
X95547180Y-48648098D01*
X95515927Y-48655613D01*
X95493954Y-48659889D01*
X95484459Y-48660048D01*
X95480199Y-48659087D01*
X95463435Y-48660219D01*
X95439324Y-48664351D01*
X95388351Y-48674487D01*
X95330969Y-48683620D01*
X95282680Y-48687735D01*
X95239746Y-48686916D01*
X95198431Y-48681249D01*
X95154997Y-48670818D01*
X95126239Y-48658755D01*
X95101833Y-48637972D01*
X95089471Y-48612946D01*
X95090432Y-48586527D01*
X95105992Y-48561563D01*
X95122499Y-48547475D01*
X95154995Y-48527160D01*
X95189473Y-48512129D01*
X95219253Y-48505681D01*
X95228047Y-48504551D01*
X95252584Y-48499225D01*
X95285358Y-48490612D01*
X95321739Y-48479880D01*
X95344821Y-48472763D01*
X95376349Y-48463282D01*
X95399932Y-48456487D01*
X95411699Y-48453515D01*
X95413603Y-48453188D01*
X95436543Y-48446412D01*
X95470195Y-48433440D01*
X95511262Y-48415820D01*
X95556449Y-48395102D01*
X95602456Y-48372834D01*
X95645988Y-48350565D01*
X95683749Y-48329846D01*
X95712440Y-48312222D01*
X95725168Y-48303572D01*
X95810343Y-48241666D01*
X95880225Y-48182811D01*
X95935411Y-48126222D01*
X95976500Y-48071113D01*
X96004088Y-48016699D01*
X96018775Y-47962197D01*
X96021156Y-47906821D01*
X96020725Y-47900548D01*
X96018083Y-47876325D01*
X96013223Y-47854082D01*
X96004977Y-47832104D01*
X95992183Y-47808679D01*
X95973674Y-47782095D01*
X95948286Y-47750637D01*
X95914852Y-47712593D01*
X95872209Y-47666252D01*
X95819192Y-47609899D01*
X95817911Y-47608544D01*
X95775416Y-47563208D01*
X95735685Y-47520070D01*
X95700445Y-47481063D01*
X95671424Y-47448122D01*
X95650347Y-47423176D01*
X95638942Y-47408161D01*
X95628363Y-47391338D01*
X95605707Y-47353811D01*
X95586842Y-47320558D01*
X95574466Y-47296266D01*
X95573051Y-47293238D01*
X95563009Y-47273728D01*
X95550235Y-47250702D01*
X95529481Y-47212549D01*
X95502097Y-47156752D01*
X95471514Y-47088914D01*
X95437181Y-47007809D01*
X95398549Y-46912211D01*
X95387426Y-46884330D01*
X95367857Y-46836056D01*
X95350416Y-46794007D01*
X95336066Y-46760456D01*
X95325772Y-46737680D01*
X95320496Y-46727953D01*
X95317640Y-46724495D01*
X95311684Y-46709298D01*
X95310091Y-46703414D01*
X95302633Y-46684424D01*
X95290506Y-46656758D01*
X95275298Y-46624125D01*
X95269802Y-46612453D01*
X95249053Y-46565879D01*
X95227965Y-46515429D01*
X95210350Y-46470143D01*
X95201506Y-46446575D01*
X95189637Y-46416461D01*
X95180339Y-46394673D01*
X95175093Y-46384796D01*
X95172522Y-46380615D01*
X95164543Y-46363362D01*
X95153377Y-46336518D01*
X95140597Y-46303772D01*
X95133089Y-46284440D01*
X95120450Y-46253952D01*
X95109981Y-46231197D01*
X95103399Y-46220043D01*
X95098247Y-46213282D01*
X95090144Y-46195508D01*
X95088131Y-46189501D01*
X95080262Y-46168956D01*
X95068468Y-46139817D01*
X95054444Y-46106317D01*
X95044892Y-46082797D01*
X95029631Y-46042529D01*
X95012320Y-45994618D01*
X94993924Y-45941952D01*
X94975405Y-45887417D01*
X94957727Y-45833897D01*
X94941854Y-45784280D01*
X94928749Y-45741452D01*
X94919376Y-45708299D01*
X94914697Y-45687706D01*
X94913646Y-45681690D01*
X94907831Y-45655762D01*
X94899062Y-45621837D01*
X94888792Y-45585654D01*
X94874659Y-45533958D01*
X94859544Y-45470642D01*
X94845588Y-45404659D01*
X94834078Y-45342119D01*
X94826300Y-45289135D01*
X94822220Y-45261575D01*
X94814382Y-45220388D01*
X94805460Y-45182017D01*
X94805220Y-45181095D01*
X94798350Y-45151220D01*
X94794355Y-45126676D01*
X94794090Y-45112697D01*
X94794982Y-45106182D01*
X94791342Y-45093715D01*
X94789729Y-45091136D01*
X94785218Y-45075390D01*
X94781849Y-45052232D01*
X94780323Y-45037265D01*
X94776388Y-45003525D01*
X94771963Y-44969644D01*
X94770921Y-44960942D01*
X94768452Y-44924141D01*
X94767253Y-44877164D01*
X94767247Y-44824446D01*
X94768357Y-44770420D01*
X94770505Y-44719522D01*
X94773614Y-44676185D01*
X94777608Y-44644844D01*
X94778604Y-44639735D01*
X94788084Y-44602373D01*
X94801654Y-44560509D01*
X94817673Y-44518227D01*
X94834500Y-44479615D01*
X94850493Y-44448758D01*
X94864010Y-44429742D01*
X94866409Y-44427272D01*
X94878737Y-44411543D01*
X94882704Y-44400645D01*
X94882626Y-44398973D01*
X94887719Y-44385510D01*
X94899369Y-44367186D01*
X94900872Y-44365150D01*
X94915508Y-44344494D01*
X94934821Y-44316321D01*
X94955047Y-44286110D01*
X94976583Y-44255262D01*
X95014727Y-44206563D01*
X95055992Y-44159650D01*
X95097463Y-44117591D01*
X95136227Y-44083457D01*
X95169372Y-44060317D01*
X95191806Y-44048304D01*
X95234695Y-44030680D01*
X95270573Y-44024788D01*
X95301928Y-44030059D01*
G37*
G36*
X99769036Y-40840702D02*
G01*
X99788463Y-40840991D01*
X99907596Y-40844412D01*
X100024169Y-40850496D01*
X100135414Y-40859001D01*
X100238567Y-40869686D01*
X100330864Y-40882309D01*
X100409539Y-40896629D01*
X100436003Y-40901755D01*
X100460856Y-40905518D01*
X100475363Y-40906416D01*
X100486005Y-40907113D01*
X100511972Y-40912083D01*
X100548953Y-40921002D01*
X100594322Y-40933136D01*
X100645456Y-40947753D01*
X100699730Y-40964118D01*
X100754520Y-40981498D01*
X100807202Y-40999161D01*
X100819590Y-41003528D01*
X100878939Y-41026194D01*
X100944206Y-41053474D01*
X101011817Y-41083687D01*
X101065244Y-41109008D01*
X101078203Y-41115150D01*
X101139790Y-41146183D01*
X101193009Y-41175103D01*
X101234286Y-41200229D01*
X101256438Y-41214761D01*
X101287280Y-41234516D01*
X101312380Y-41250092D01*
X101383571Y-41295258D01*
X101457738Y-41347464D01*
X101535336Y-41407461D01*
X101619784Y-41477781D01*
X101641961Y-41496824D01*
X101701165Y-41548012D01*
X101755568Y-41595716D01*
X101806784Y-41641475D01*
X101856427Y-41686830D01*
X101906112Y-41733320D01*
X101957454Y-41782485D01*
X102012065Y-41835866D01*
X102071561Y-41895003D01*
X102137557Y-41961435D01*
X102211666Y-42036702D01*
X102295505Y-42122345D01*
X102342147Y-42170079D01*
X102407302Y-42236735D01*
X102470814Y-42301682D01*
X102531274Y-42363482D01*
X102587277Y-42420698D01*
X102637415Y-42471894D01*
X102680282Y-42515630D01*
X102714468Y-42550471D01*
X102738570Y-42574979D01*
X102751854Y-42588366D01*
X102804389Y-42639871D01*
X102862145Y-42694580D01*
X102923237Y-42750855D01*
X102985784Y-42807060D01*
X103047902Y-42861554D01*
X103107705Y-42912703D01*
X103163313Y-42958867D01*
X103212841Y-42998409D01*
X103254407Y-43029692D01*
X103286126Y-43051079D01*
X103314428Y-43067546D01*
X103353860Y-43089007D01*
X103396985Y-43111299D01*
X103440782Y-43132964D01*
X103482232Y-43152548D01*
X103518316Y-43168595D01*
X103546014Y-43179647D01*
X103562305Y-43184249D01*
X103570840Y-43188450D01*
X103589647Y-43202788D01*
X103615788Y-43225424D01*
X103647318Y-43254411D01*
X103682293Y-43287809D01*
X103718768Y-43323675D01*
X103754799Y-43360064D01*
X103788440Y-43395037D01*
X103817747Y-43426648D01*
X103840776Y-43452956D01*
X103855582Y-43472017D01*
X103860222Y-43481889D01*
X103860376Y-43490406D01*
X103864900Y-43511602D01*
X103873254Y-43537822D01*
X103880420Y-43562426D01*
X103880982Y-43592325D01*
X103868553Y-43612588D01*
X103842955Y-43623708D01*
X103840789Y-43624081D01*
X103818479Y-43624649D01*
X103785555Y-43622395D01*
X103746749Y-43617938D01*
X103706794Y-43611895D01*
X103670421Y-43604883D01*
X103642365Y-43597522D01*
X103615404Y-43588299D01*
X103549329Y-43562045D01*
X103486352Y-43531038D01*
X103424755Y-43493984D01*
X103362814Y-43449589D01*
X103298811Y-43396561D01*
X103231023Y-43333607D01*
X103157732Y-43259432D01*
X103077217Y-43172745D01*
X103035700Y-43129849D01*
X102974567Y-43073184D01*
X102904698Y-43014029D01*
X102829338Y-42955110D01*
X102751731Y-42899158D01*
X102750344Y-42898201D01*
X102683809Y-42851752D01*
X102616998Y-42804137D01*
X102552708Y-42757409D01*
X102493736Y-42713621D01*
X102442876Y-42674825D01*
X102402927Y-42643075D01*
X102368817Y-42615656D01*
X102329849Y-42585328D01*
X102291446Y-42556282D01*
X102257653Y-42531574D01*
X102232515Y-42514266D01*
X102227269Y-42511360D01*
X102203784Y-42504028D01*
X102176441Y-42500869D01*
X102151715Y-42502267D01*
X102136082Y-42508600D01*
X102130835Y-42518080D01*
X102126038Y-42540331D01*
X102124585Y-42566820D01*
X102126711Y-42590820D01*
X102132656Y-42605604D01*
X102137916Y-42612377D01*
X102141367Y-42624661D01*
X102141177Y-42627322D01*
X102143426Y-42634809D01*
X102150142Y-42646686D01*
X102162511Y-42664625D01*
X102181716Y-42690299D01*
X102208944Y-42725380D01*
X102245377Y-42771543D01*
X102246715Y-42773230D01*
X102275966Y-42810264D01*
X102304678Y-42846832D01*
X102329615Y-42878798D01*
X102347538Y-42902031D01*
X102358039Y-42915671D01*
X102397914Y-42965935D01*
X102444780Y-43023227D01*
X102495420Y-43083731D01*
X102546614Y-43143628D01*
X102595143Y-43199101D01*
X102637792Y-43246331D01*
X102669595Y-43279596D01*
X102718046Y-43326764D01*
X102769012Y-43372962D01*
X102820208Y-43416340D01*
X102869353Y-43455050D01*
X102914161Y-43487243D01*
X102952351Y-43511071D01*
X102981639Y-43524685D01*
X102984206Y-43525665D01*
X103001352Y-43534780D01*
X103022144Y-43548318D01*
X103038034Y-43558215D01*
X103066134Y-43573817D01*
X103101271Y-43592154D01*
X103139306Y-43611012D01*
X103156170Y-43619165D01*
X103204054Y-43642614D01*
X103245093Y-43663356D01*
X103285506Y-43684576D01*
X103331509Y-43709459D01*
X103335546Y-43711697D01*
X103367908Y-43731301D01*
X103404679Y-43755746D01*
X103441208Y-43781738D01*
X103472849Y-43805985D01*
X103494951Y-43825196D01*
X103511682Y-43843646D01*
X103536196Y-43874026D01*
X103563462Y-43910201D01*
X103590305Y-43947821D01*
X103613551Y-43982543D01*
X103630021Y-44010019D01*
X103633631Y-44016250D01*
X103650360Y-44041132D01*
X103675715Y-44075608D01*
X103708092Y-44117616D01*
X103745883Y-44165096D01*
X103787483Y-44215990D01*
X103831286Y-44268235D01*
X103854756Y-44296697D01*
X103888204Y-44342303D01*
X103911038Y-44382466D01*
X103924820Y-44420155D01*
X103931106Y-44458340D01*
X103932111Y-44471998D01*
X103932753Y-44491032D01*
X103931320Y-44508272D01*
X103926762Y-44525224D01*
X103918029Y-44543391D01*
X103904072Y-44564277D01*
X103883843Y-44589388D01*
X103856291Y-44620226D01*
X103820369Y-44658297D01*
X103775027Y-44705104D01*
X103719215Y-44762153D01*
X103657585Y-44824598D01*
X103592722Y-44888706D01*
X103536707Y-44941563D01*
X103488416Y-44983749D01*
X103446727Y-45015840D01*
X103410514Y-45038419D01*
X103378657Y-45052064D01*
X103350029Y-45057355D01*
X103323508Y-45054871D01*
X103297972Y-45045193D01*
X103272295Y-45028899D01*
X103245354Y-45006568D01*
X103236831Y-44998772D01*
X103218939Y-44981056D01*
X103202620Y-44962098D01*
X103186021Y-44939237D01*
X103167293Y-44909811D01*
X103144584Y-44871161D01*
X103116043Y-44820624D01*
X103115716Y-44820041D01*
X103103511Y-44799603D01*
X103085936Y-44771641D01*
X103066682Y-44742029D01*
X103046456Y-44711418D01*
X103026492Y-44681076D01*
X103011285Y-44657836D01*
X103006475Y-44650649D01*
X102985183Y-44621064D01*
X102956939Y-44583944D01*
X102924528Y-44542751D01*
X102890739Y-44500947D01*
X102858357Y-44461994D01*
X102830170Y-44429355D01*
X102808964Y-44406491D01*
X102789078Y-44388044D01*
X102756335Y-44360740D01*
X102718212Y-44331192D01*
X102678279Y-44301994D01*
X102640105Y-44275741D01*
X102607261Y-44255028D01*
X102583315Y-44242452D01*
X102571285Y-44237009D01*
X102547846Y-44225745D01*
X102520538Y-44212169D01*
X102500837Y-44202478D01*
X102463155Y-44184864D01*
X102429054Y-44169881D01*
X102423014Y-44167305D01*
X102394766Y-44154658D01*
X102356317Y-44136881D01*
X102311148Y-44115637D01*
X102262740Y-44092590D01*
X102214575Y-44069404D01*
X102170135Y-44047744D01*
X102132900Y-44029271D01*
X102106353Y-44015651D01*
X102088746Y-44006782D01*
X102048144Y-43988157D01*
X101999314Y-43967334D01*
X101946957Y-43946239D01*
X101895776Y-43926795D01*
X101850471Y-43910926D01*
X101827973Y-43903763D01*
X101792037Y-43893862D01*
X101756680Y-43886727D01*
X101717648Y-43881730D01*
X101670680Y-43878243D01*
X101611522Y-43875637D01*
X101584060Y-43874608D01*
X101541956Y-43872857D01*
X101504831Y-43871121D01*
X101478417Y-43869657D01*
X101470790Y-43869332D01*
X101428670Y-43871272D01*
X101378063Y-43878032D01*
X101323953Y-43888533D01*
X101271327Y-43901703D01*
X101225170Y-43916464D01*
X101190468Y-43931744D01*
X101182318Y-43936261D01*
X101156136Y-43950645D01*
X101135091Y-43962039D01*
X101119395Y-43972761D01*
X101111103Y-43983197D01*
X101109348Y-43987060D01*
X101097726Y-44003955D01*
X101075341Y-44032604D01*
X101042110Y-44073108D01*
X100997952Y-44125565D01*
X100942787Y-44190076D01*
X100920507Y-44215319D01*
X100861453Y-44276947D01*
X100798907Y-44335656D01*
X100735450Y-44389336D01*
X100673667Y-44435871D01*
X100616137Y-44473145D01*
X100565444Y-44499047D01*
X100555607Y-44503485D01*
X100533045Y-44514333D01*
X100506666Y-44527512D01*
X100486117Y-44537264D01*
X100454092Y-44550761D01*
X100420503Y-44563514D01*
X100389505Y-44574045D01*
X100365247Y-44580878D01*
X100351884Y-44582537D01*
X100343034Y-44583414D01*
X100322380Y-44588267D01*
X100295637Y-44596084D01*
X100293314Y-44596819D01*
X100251520Y-44609712D01*
X100206366Y-44623151D01*
X100161035Y-44636244D01*
X100118707Y-44648097D01*
X100082566Y-44657820D01*
X100055793Y-44664520D01*
X100041571Y-44667305D01*
X100034564Y-44668351D01*
X100012500Y-44673689D01*
X99986179Y-44681708D01*
X99966849Y-44687870D01*
X99931130Y-44698372D01*
X99896018Y-44707872D01*
X99893068Y-44708642D01*
X99854720Y-44720588D01*
X99804415Y-44738936D01*
X99744603Y-44762685D01*
X99677738Y-44790835D01*
X99606268Y-44822382D01*
X99532645Y-44856326D01*
X99514707Y-44865167D01*
X99477127Y-44885145D01*
X99436465Y-44908094D01*
X99398677Y-44930614D01*
X99369714Y-44949310D01*
X99364010Y-44953259D01*
X99336814Y-44971967D01*
X99312372Y-44988625D01*
X99291695Y-45006929D01*
X99265506Y-45043539D01*
X99243924Y-45089399D01*
X99228793Y-45140356D01*
X99221956Y-45192263D01*
X99221552Y-45210512D01*
X99223206Y-45243971D01*
X99228898Y-45276539D01*
X99239593Y-45310566D01*
X99256254Y-45348399D01*
X99279845Y-45392384D01*
X99311330Y-45444873D01*
X99351673Y-45508210D01*
X99368915Y-45534902D01*
X99388617Y-45565604D01*
X99403950Y-45589707D01*
X99409867Y-45598574D01*
X99428100Y-45623631D01*
X99451641Y-45654161D01*
X99476890Y-45685437D01*
X99485881Y-45696357D01*
X99515801Y-45733355D01*
X99545723Y-45771161D01*
X99570335Y-45803089D01*
X99571280Y-45804337D01*
X99597233Y-45835767D01*
X99626075Y-45866611D01*
X99651733Y-45890361D01*
X99690009Y-45921629D01*
X99758281Y-45977105D01*
X99814632Y-46022442D01*
X99859481Y-46057975D01*
X99893249Y-46084035D01*
X99916355Y-46100957D01*
X99934303Y-46113625D01*
X99958165Y-46130834D01*
X99988837Y-46153275D01*
X100027906Y-46182109D01*
X100076953Y-46218503D01*
X100137563Y-46263620D01*
X100149061Y-46272143D01*
X100177181Y-46292814D01*
X100210836Y-46317408D01*
X100245031Y-46342271D01*
X100268397Y-46359213D01*
X100313865Y-46392223D01*
X100350372Y-46418800D01*
X100380966Y-46441173D01*
X100408695Y-46461569D01*
X100436611Y-46482217D01*
X100461417Y-46500362D01*
X100492548Y-46522626D01*
X100518066Y-46540351D01*
X100551120Y-46562900D01*
X100594813Y-46593703D01*
X100633768Y-46622861D01*
X100673602Y-46654633D01*
X100719936Y-46693272D01*
X100744743Y-46714489D01*
X100798273Y-46761433D01*
X100861333Y-46817957D01*
X100932518Y-46882780D01*
X101010428Y-46954621D01*
X101093659Y-47032199D01*
X101180809Y-47114232D01*
X101302218Y-47229057D01*
X101307008Y-47264645D01*
X101308235Y-47283596D01*
X101303170Y-47321070D01*
X101287778Y-47361983D01*
X101261272Y-47407834D01*
X101222860Y-47460114D01*
X101171751Y-47520319D01*
X101171210Y-47520925D01*
X101117276Y-47579844D01*
X101060104Y-47639661D01*
X101001464Y-47698727D01*
X100943120Y-47755389D01*
X100886841Y-47807993D01*
X100834395Y-47854888D01*
X100787550Y-47894421D01*
X100748071Y-47924939D01*
X100717727Y-47944791D01*
X100696853Y-47955354D01*
X100668928Y-47963530D01*
X100641376Y-47961428D01*
X100607373Y-47949330D01*
X100601548Y-47946591D01*
X100567502Y-47922807D01*
X100531091Y-47885863D01*
X100493963Y-47838057D01*
X100457761Y-47781688D01*
X100424132Y-47719054D01*
X100394723Y-47652452D01*
X100393636Y-47649707D01*
X100380927Y-47618766D01*
X100369274Y-47592234D01*
X100361073Y-47575595D01*
X100353344Y-47561219D01*
X100343664Y-47540657D01*
X100336147Y-47524352D01*
X100303363Y-47473189D01*
X100255501Y-47418604D01*
X100193177Y-47361182D01*
X100117010Y-47301513D01*
X100027619Y-47240182D01*
X100017006Y-47233329D01*
X99968094Y-47202022D01*
X99921171Y-47172400D01*
X99880150Y-47146922D01*
X99848948Y-47128041D01*
X99829330Y-47115996D01*
X99800532Y-47097598D01*
X99770920Y-47078113D01*
X99744586Y-47060720D01*
X99713882Y-47040906D01*
X99689564Y-47025695D01*
X99671523Y-47014561D01*
X99641307Y-46995493D01*
X99611184Y-46976119D01*
X99588264Y-46961468D01*
X99560280Y-46944193D01*
X99539155Y-46931823D01*
X99504662Y-46912722D01*
X99443795Y-46878684D01*
X99395187Y-46850971D01*
X99357282Y-46828700D01*
X99338855Y-46818027D01*
X99304359Y-46799381D01*
X99273769Y-46784257D01*
X99260409Y-46777868D01*
X99231931Y-46762807D01*
X99209814Y-46749336D01*
X99209699Y-46749257D01*
X99187117Y-46734627D01*
X99166569Y-46722786D01*
X99164661Y-46721801D01*
X99143119Y-46710703D01*
X99118745Y-46698161D01*
X99111587Y-46694337D01*
X99084246Y-46678260D01*
X99057280Y-46660752D01*
X99049655Y-46655576D01*
X99020812Y-46637072D01*
X98994502Y-46621490D01*
X98986361Y-46616916D01*
X98954586Y-46598198D01*
X98912050Y-46572078D01*
X98857307Y-46537669D01*
X98839670Y-46527859D01*
X98825850Y-46522596D01*
X98823410Y-46521947D01*
X98808202Y-46514501D01*
X98788362Y-46501921D01*
X98778945Y-46495677D01*
X98764010Y-46486763D01*
X98743624Y-46475578D01*
X98715914Y-46461149D01*
X98679003Y-46442504D01*
X98631018Y-46418670D01*
X98570084Y-46388675D01*
X98559902Y-46383807D01*
X98535992Y-46373300D01*
X98519102Y-46367111D01*
X98509609Y-46363777D01*
X98496601Y-46356157D01*
X98495629Y-46355353D01*
X98482542Y-46348022D01*
X98458926Y-46336704D01*
X98428783Y-46323133D01*
X98396117Y-46309041D01*
X98364928Y-46296163D01*
X98339219Y-46286229D01*
X98322993Y-46280976D01*
X98320587Y-46280361D01*
X98301546Y-46274218D01*
X98273531Y-46264073D01*
X98241688Y-46251772D01*
X98223881Y-46244805D01*
X98182700Y-46229218D01*
X98136776Y-46212332D01*
X98093139Y-46196753D01*
X98079885Y-46192110D01*
X98009151Y-46167232D01*
X97951559Y-46146753D01*
X97905028Y-46129901D01*
X97867473Y-46115900D01*
X97836814Y-46103979D01*
X97810967Y-46093360D01*
X97787852Y-46083273D01*
X97756042Y-46069405D01*
X97718825Y-46053960D01*
X97687920Y-46041902D01*
X97670944Y-46034676D01*
X97636225Y-46015932D01*
X97605704Y-45995116D01*
X97567229Y-45964463D01*
X97578385Y-45921721D01*
X97579696Y-45916359D01*
X97583407Y-45863850D01*
X97570877Y-45809852D01*
X97542054Y-45754146D01*
X97532467Y-45738802D01*
X97507670Y-45688025D01*
X97497125Y-45643104D01*
X97501046Y-45604822D01*
X97505500Y-45593058D01*
X97516025Y-45575202D01*
X97533333Y-45555784D01*
X97560686Y-45530751D01*
X97585958Y-45508390D01*
X97619405Y-45478324D01*
X97656228Y-45444880D01*
X97692048Y-45412016D01*
X97722458Y-45383731D01*
X97747080Y-45359820D01*
X97764218Y-45341105D01*
X97776379Y-45324528D01*
X97786072Y-45307029D01*
X97795811Y-45285551D01*
X97804461Y-45263604D01*
X97823345Y-45195597D01*
X97833894Y-45122561D01*
X97834879Y-45051848D01*
X97832857Y-45019670D01*
X97830921Y-44989025D01*
X97829585Y-44968011D01*
X97828385Y-44957989D01*
X97822757Y-44930865D01*
X97814508Y-44901661D01*
X97811472Y-44892019D01*
X97801630Y-44858283D01*
X97789525Y-44814363D01*
X97776114Y-44763978D01*
X97762352Y-44710846D01*
X97749195Y-44658685D01*
X97737598Y-44611214D01*
X97728518Y-44572151D01*
X97722907Y-44545213D01*
X97722777Y-44544476D01*
X97720697Y-44509496D01*
X97723745Y-44463764D01*
X97731270Y-44411810D01*
X97742620Y-44358159D01*
X97757143Y-44307339D01*
X97758258Y-44303789D01*
X97765330Y-44267147D01*
X97768142Y-44223790D01*
X97766539Y-44181211D01*
X97760374Y-44146900D01*
X97751386Y-44128548D01*
X97734537Y-44103365D01*
X97713668Y-44077281D01*
X97705479Y-44067811D01*
X97663839Y-44014799D01*
X97632424Y-43965795D01*
X97612937Y-43923400D01*
X97612483Y-43921978D01*
X97608088Y-43900049D01*
X97604018Y-43866434D01*
X97600708Y-43825446D01*
X97598594Y-43781405D01*
X97596349Y-43728637D01*
X97591835Y-43680786D01*
X97583716Y-43642208D01*
X97570407Y-43609088D01*
X97550322Y-43577614D01*
X97521880Y-43543972D01*
X97483496Y-43504350D01*
X97473429Y-43494330D01*
X97438749Y-43460917D01*
X97412034Y-43437486D01*
X97390973Y-43422122D01*
X97373259Y-43412909D01*
X97356762Y-43405833D01*
X97326416Y-43391759D01*
X97295646Y-43376553D01*
X97281321Y-43369774D01*
X97246793Y-43355575D01*
X97205903Y-43340605D01*
X97164736Y-43327159D01*
X97144968Y-43321150D01*
X97098104Y-43306837D01*
X97051697Y-43292590D01*
X97013392Y-43280752D01*
X97002979Y-43277588D01*
X96971850Y-43268986D01*
X96947114Y-43263389D01*
X96933384Y-43261884D01*
X96931005Y-43262044D01*
X96912586Y-43259805D01*
X96889187Y-43253735D01*
X96883680Y-43251997D01*
X96824817Y-43237550D01*
X96754617Y-43226244D01*
X96677484Y-43218422D01*
X96597825Y-43214427D01*
X96520044Y-43214606D01*
X96448545Y-43219300D01*
X96443249Y-43219863D01*
X96398652Y-43224963D01*
X96360479Y-43230424D01*
X96325652Y-43237117D01*
X96291091Y-43245910D01*
X96253715Y-43257673D01*
X96210445Y-43273278D01*
X96158200Y-43293594D01*
X96093903Y-43319491D01*
X96069608Y-43329322D01*
X96045289Y-43339302D01*
X96026058Y-43347837D01*
X96008785Y-43356693D01*
X95990341Y-43367631D01*
X95967598Y-43382410D01*
X95937427Y-43402796D01*
X95896699Y-43430548D01*
X95889773Y-43435294D01*
X95845095Y-43468173D01*
X95808009Y-43500688D01*
X95771989Y-43538486D01*
X95756088Y-43556165D01*
X95726553Y-43588529D01*
X95691105Y-43626999D01*
X95652872Y-43668181D01*
X95614985Y-43708683D01*
X95510017Y-43820408D01*
X95470458Y-43822978D01*
X95442712Y-43821807D01*
X95414575Y-43809793D01*
X95396950Y-43785304D01*
X95389286Y-43747833D01*
X95388887Y-43735882D01*
X95390362Y-43713786D01*
X95394415Y-43701586D01*
X95396851Y-43698156D01*
X95397203Y-43684257D01*
X95397201Y-43684252D01*
X95398502Y-43679448D01*
X95405410Y-43669532D01*
X95418684Y-43653698D01*
X95439083Y-43631137D01*
X95467369Y-43601039D01*
X95504300Y-43562598D01*
X95550637Y-43515002D01*
X95607141Y-43457445D01*
X95674569Y-43389117D01*
X95697162Y-43366273D01*
X95759154Y-43303703D01*
X95810973Y-43251637D01*
X95853616Y-43209121D01*
X95888084Y-43175205D01*
X95915376Y-43148937D01*
X95936489Y-43129365D01*
X95952423Y-43115538D01*
X95964178Y-43106504D01*
X95972752Y-43101314D01*
X95979145Y-43099012D01*
X95981815Y-43098311D01*
X96000396Y-43091300D01*
X96029301Y-43078657D01*
X96065114Y-43061918D01*
X96104418Y-43042620D01*
X96113086Y-43038274D01*
X96152969Y-43018554D01*
X96189321Y-43000993D01*
X96218433Y-42987365D01*
X96236600Y-42979441D01*
X96243220Y-42976761D01*
X96271750Y-42964073D01*
X96300305Y-42950086D01*
X96316806Y-42941652D01*
X96346078Y-42926889D01*
X96384190Y-42907784D01*
X96428072Y-42885876D01*
X96474652Y-42862704D01*
X96533763Y-42833169D01*
X96598736Y-42799991D01*
X96653848Y-42770712D01*
X96701958Y-42743651D01*
X96745927Y-42717130D01*
X96788615Y-42689473D01*
X96802258Y-42680082D01*
X98160896Y-42680082D01*
X98161114Y-42951722D01*
X98171411Y-43220511D01*
X98191808Y-43481609D01*
X98193488Y-43498371D01*
X98203445Y-43592073D01*
X98212954Y-43670822D01*
X98222267Y-43735890D01*
X98231637Y-43788552D01*
X98241315Y-43830078D01*
X98251553Y-43861745D01*
X98262603Y-43884824D01*
X98274719Y-43900588D01*
X98280595Y-43905853D01*
X98300672Y-43918588D01*
X98328634Y-43929690D01*
X98366618Y-43939764D01*
X98416760Y-43949419D01*
X98481197Y-43959261D01*
X98508265Y-43962960D01*
X98629316Y-43977538D01*
X98761036Y-43990623D01*
X98898793Y-44001866D01*
X99037960Y-44010919D01*
X99173903Y-44017433D01*
X99301992Y-44021058D01*
X99317934Y-44021278D01*
X99392305Y-44021257D01*
X99474042Y-44019759D01*
X99561312Y-44016926D01*
X99652284Y-44012901D01*
X99745127Y-44007826D01*
X99838008Y-44001844D01*
X99929097Y-43995097D01*
X100016560Y-43987729D01*
X100098566Y-43979882D01*
X100173285Y-43971698D01*
X100238884Y-43963321D01*
X100293533Y-43954893D01*
X100335397Y-43946557D01*
X100362647Y-43938454D01*
X100395741Y-43918826D01*
X100428934Y-43887345D01*
X100454211Y-43850439D01*
X100459457Y-43837227D01*
X100468079Y-43803681D01*
X100476811Y-43756466D01*
X100485518Y-43697296D01*
X100494067Y-43627883D01*
X100502321Y-43549940D01*
X100510147Y-43465179D01*
X100517409Y-43375316D01*
X100523971Y-43282063D01*
X100529700Y-43187131D01*
X100534459Y-43092235D01*
X100538115Y-42999089D01*
X100540532Y-42909404D01*
X100541576Y-42824894D01*
X100541110Y-42747273D01*
X100540974Y-42739672D01*
X100538840Y-42659765D01*
X100535442Y-42574746D01*
X100530937Y-42486410D01*
X100525481Y-42396554D01*
X100519232Y-42306972D01*
X100512347Y-42219464D01*
X100504984Y-42135821D01*
X100497300Y-42057842D01*
X100489451Y-41987322D01*
X100481597Y-41926057D01*
X100473891Y-41875843D01*
X100466494Y-41838477D01*
X100459562Y-41815754D01*
X100452228Y-41803773D01*
X100435418Y-41782518D01*
X100414435Y-41759817D01*
X100399421Y-41745977D01*
X100380767Y-41732565D01*
X100358782Y-41721508D01*
X100331286Y-41712216D01*
X100296099Y-41704100D01*
X100251044Y-41696570D01*
X100193938Y-41689038D01*
X100122604Y-41680914D01*
X100047839Y-41673191D01*
X99811668Y-41654035D01*
X99573617Y-41642376D01*
X99336454Y-41638191D01*
X99102946Y-41641454D01*
X98875856Y-41652141D01*
X98657951Y-41670228D01*
X98451998Y-41695691D01*
X98422013Y-41700326D01*
X98375297Y-41709363D01*
X98339778Y-41719838D01*
X98312013Y-41733207D01*
X98288564Y-41750927D01*
X98265988Y-41774453D01*
X98262624Y-41778431D01*
X98251476Y-41793608D01*
X98242135Y-41810924D01*
X98234138Y-41832413D01*
X98227027Y-41860114D01*
X98220338Y-41896061D01*
X98213611Y-41942289D01*
X98206385Y-42000836D01*
X98198198Y-42073735D01*
X98190605Y-42147601D01*
X98170734Y-42410429D01*
X98160896Y-42680082D01*
X96802258Y-42680082D01*
X96832883Y-42659002D01*
X96881590Y-42624041D01*
X96919273Y-42594547D01*
X96992001Y-42526374D01*
X97064480Y-42444019D01*
X97135498Y-42348922D01*
X97203837Y-42242524D01*
X97233528Y-42192965D01*
X97258550Y-42151570D01*
X97277646Y-42120412D01*
X97289613Y-42101467D01*
X97297804Y-42087801D01*
X97307954Y-42067461D01*
X97312371Y-42058016D01*
X97323613Y-42035696D01*
X97339252Y-42005577D01*
X97357341Y-41971443D01*
X97369641Y-41948331D01*
X97389885Y-41909830D01*
X97407966Y-41874917D01*
X97421053Y-41849035D01*
X97429254Y-41832828D01*
X97446455Y-41800571D01*
X97461873Y-41773530D01*
X97465552Y-41767423D01*
X97483052Y-41738312D01*
X97498974Y-41711755D01*
X97506111Y-41700017D01*
X97526898Y-41666862D01*
X97552261Y-41627352D01*
X97578996Y-41586453D01*
X97603897Y-41549132D01*
X97624352Y-41520760D01*
X97662123Y-41473820D01*
X97706988Y-41422678D01*
X97756491Y-41369792D01*
X97808176Y-41317616D01*
X97859590Y-41268607D01*
X97908278Y-41225221D01*
X97951783Y-41189916D01*
X97987653Y-41165146D01*
X98006552Y-41153674D01*
X98035518Y-41135811D01*
X98065414Y-41117151D01*
X98091723Y-41101425D01*
X98116654Y-41088024D01*
X98133398Y-41080716D01*
X98151978Y-41073429D01*
X98174775Y-41061731D01*
X98185528Y-41055754D01*
X98213299Y-41042190D01*
X98247822Y-41026891D01*
X98285987Y-41011061D01*
X98324680Y-40995902D01*
X98360790Y-40982617D01*
X98391203Y-40972405D01*
X98412810Y-40966473D01*
X98422495Y-40966020D01*
X98425859Y-40966690D01*
X98441107Y-40963779D01*
X98463322Y-40956365D01*
X98468641Y-40954484D01*
X98494326Y-40947135D01*
X98530828Y-40938211D01*
X98574073Y-40928670D01*
X98619992Y-40919471D01*
X98637768Y-40916098D01*
X98680598Y-40907968D01*
X98717710Y-40900918D01*
X98745623Y-40895612D01*
X98760856Y-40892709D01*
X98770646Y-40891232D01*
X98796443Y-40888644D01*
X98825973Y-40886751D01*
X98841289Y-40885906D01*
X98874242Y-40883321D01*
X98900956Y-40880306D01*
X98931608Y-40876698D01*
X98978298Y-40872575D01*
X99036944Y-40868301D01*
X99105220Y-40863985D01*
X99180797Y-40859731D01*
X99261348Y-40855646D01*
X99344548Y-40851836D01*
X99428068Y-40848408D01*
X99509582Y-40845468D01*
X99586763Y-40843120D01*
X99657284Y-40841473D01*
X99718817Y-40840632D01*
X99769036Y-40840702D01*
G37*
D11*
%TO.C,SW1*%
X104700000Y-68830000D02*
X104700000Y-69620000D01*
X104100000Y-70630000D02*
X98400000Y-70630000D01*
X102850000Y-67780000D02*
X101150000Y-67780000D01*
X102650000Y-71920000D02*
X102450000Y-72130000D01*
X102650000Y-70630000D02*
X102650000Y-71920000D01*
X102450000Y-72130000D02*
X101550000Y-72130000D01*
X101350000Y-71920000D02*
X101550000Y-72130000D01*
X101350000Y-71920000D02*
X101350000Y-70630000D01*
X99850000Y-67780000D02*
X99650000Y-67780000D01*
X97800000Y-69620000D02*
X97800000Y-68830000D01*
%TO.C,REF\u002A\u002A*%
X130150000Y-45750000D02*
G75*
G03*
X130150000Y-45750000I-2250000J0D01*
G01*
%TO.C,BT1*%
X112686385Y-45838537D02*
G75*
G03*
X104990000Y-45840001I-3846385J-9501463D01*
G01*
X93290000Y-52590000D02*
X98090000Y-52590000D01*
X93290000Y-58090000D02*
X93290000Y-52590000D01*
X98090000Y-58090000D02*
X93290000Y-58090000D01*
X98290000Y-45840000D02*
X104990000Y-45840000D01*
X104890000Y-66190000D02*
X98090000Y-61390000D01*
X112790000Y-66190000D02*
X104890000Y-66190000D01*
X119390000Y-45840000D02*
X112690000Y-45840000D01*
X119590000Y-52590000D02*
X124390000Y-52590000D01*
X119640000Y-61390000D02*
X112790000Y-66190000D01*
X124390000Y-52590000D02*
X124390000Y-58090000D01*
X124390000Y-58090000D02*
X119590000Y-58090000D01*
%TD*%
M02*
