%TF.GenerationSoftware,KiCad,Pcbnew,7.0.5-4d25ed1034~172~ubuntu22.04.1*%
%TF.CreationDate,2023-06-15T22:52:14+02:00*%
%TF.ProjectId,guitarra,67756974-6172-4726-912e-6b696361645f,rev?*%
%TF.SameCoordinates,Original*%
%TF.FileFunction,Legend,Top*%
%TF.FilePolarity,Positive*%
%FSLAX46Y46*%
G04 Gerber Fmt 4.6, Leading zero omitted, Abs format (unit mm)*
G04 Created by KiCad (PCBNEW 7.0.5-4d25ed1034~172~ubuntu22.04.1) date 2023-06-15 22:52:14*
%MOMM*%
%LPD*%
G01*
G04 APERTURE LIST*
%ADD10C,0.120000*%
%ADD11C,0.010000*%
G04 APERTURE END LIST*
D10*
%TO.C,C1*%
X94838748Y-48535000D02*
X95361252Y-48535000D01*
X94838748Y-47065000D02*
X95361252Y-47065000D01*
%TO.C,C2*%
X98338748Y-41465000D02*
X98861252Y-41465000D01*
X98338748Y-42935000D02*
X98861252Y-42935000D01*
%TO.C,R4*%
X98372936Y-43665000D02*
X98827064Y-43665000D01*
X98372936Y-45135000D02*
X98827064Y-45135000D01*
%TO.C,D2*%
X154560000Y-54077500D02*
X152640000Y-54077500D01*
X152640000Y-54077500D02*
X152640000Y-56762500D01*
X154560000Y-56762500D02*
X154560000Y-54077500D01*
%TO.C,Q1*%
X104130000Y-40890000D02*
X101700000Y-40890000D01*
X104150000Y-40900000D02*
X104150000Y-41900000D01*
X104150000Y-42900000D02*
X104150000Y-43950000D01*
X104150000Y-43950000D02*
X102300000Y-43950000D01*
%TO.C,D1*%
X142110000Y-54127500D02*
X140190000Y-54127500D01*
X140190000Y-54127500D02*
X140190000Y-56812500D01*
X142110000Y-56812500D02*
X142110000Y-54127500D01*
%TO.C,D6*%
X134340000Y-54837500D02*
X134340000Y-57522500D01*
X136260000Y-57522500D02*
X136260000Y-54837500D01*
X134340000Y-57522500D02*
X136260000Y-57522500D01*
%TO.C,D4*%
X147230000Y-57497500D02*
X149150000Y-57497500D01*
X149150000Y-57497500D02*
X149150000Y-54812500D01*
X147230000Y-54812500D02*
X147230000Y-57497500D01*
%TO.C,Q2*%
X100730000Y-46090000D02*
X98300000Y-46090000D01*
X100750000Y-46100000D02*
X100750000Y-47100000D01*
X100750000Y-48100000D02*
X100750000Y-49150000D01*
X100750000Y-49150000D02*
X98900000Y-49150000D01*
%TO.C,Ref\u002A\u002A*%
D11*
X125308266Y-45709459D02*
X125356369Y-45739171D01*
X125403945Y-45776005D01*
X125437069Y-45809584D01*
X125444250Y-45824459D01*
X125431894Y-45846097D01*
X125397208Y-45895283D01*
X125344266Y-45966809D01*
X125277141Y-46055469D01*
X125199909Y-46156056D01*
X125116642Y-46263361D01*
X125031415Y-46372178D01*
X124948302Y-46477300D01*
X124871376Y-46573519D01*
X124804713Y-46655628D01*
X124752385Y-46718420D01*
X124718467Y-46756688D01*
X124707483Y-46766166D01*
X124683672Y-46753778D01*
X124640073Y-46722292D01*
X124613573Y-46701125D01*
X124567571Y-46658186D01*
X124539948Y-46622665D01*
X124536234Y-46611167D01*
X124549606Y-46586372D01*
X124585688Y-46534857D01*
X124640258Y-46461855D01*
X124709093Y-46372600D01*
X124787972Y-46272324D01*
X124872672Y-46166262D01*
X124958970Y-46059647D01*
X125042645Y-45957713D01*
X125119474Y-45865692D01*
X125185236Y-45788819D01*
X125235707Y-45732326D01*
X125266665Y-45701448D01*
X125273562Y-45697250D01*
X125308266Y-45709459D01*
G36*
X125308266Y-45709459D02*
G01*
X125356369Y-45739171D01*
X125403945Y-45776005D01*
X125437069Y-45809584D01*
X125444250Y-45824459D01*
X125431894Y-45846097D01*
X125397208Y-45895283D01*
X125344266Y-45966809D01*
X125277141Y-46055469D01*
X125199909Y-46156056D01*
X125116642Y-46263361D01*
X125031415Y-46372178D01*
X124948302Y-46477300D01*
X124871376Y-46573519D01*
X124804713Y-46655628D01*
X124752385Y-46718420D01*
X124718467Y-46756688D01*
X124707483Y-46766166D01*
X124683672Y-46753778D01*
X124640073Y-46722292D01*
X124613573Y-46701125D01*
X124567571Y-46658186D01*
X124539948Y-46622665D01*
X124536234Y-46611167D01*
X124549606Y-46586372D01*
X124585688Y-46534857D01*
X124640258Y-46461855D01*
X124709093Y-46372600D01*
X124787972Y-46272324D01*
X124872672Y-46166262D01*
X124958970Y-46059647D01*
X125042645Y-45957713D01*
X125119474Y-45865692D01*
X125185236Y-45788819D01*
X125235707Y-45732326D01*
X125266665Y-45701448D01*
X125273562Y-45697250D01*
X125308266Y-45709459D01*
G37*
X128599304Y-48302968D02*
X128687973Y-48385878D01*
X128734854Y-48462617D01*
X128739996Y-48533472D01*
X128703449Y-48598731D01*
X128657293Y-48638331D01*
X128591919Y-48667318D01*
X128522858Y-48660834D01*
X128441883Y-48618217D01*
X128363858Y-48565268D01*
X128312598Y-48623509D01*
X128278666Y-48665827D01*
X128261247Y-48694889D01*
X128260669Y-48697625D01*
X128247348Y-48713236D01*
X128215960Y-48699246D01*
X128187124Y-48672500D01*
X128170518Y-48653069D01*
X128162713Y-48634828D01*
X128166799Y-48611634D01*
X128185868Y-48577344D01*
X128223008Y-48525814D01*
X128274695Y-48459402D01*
X128444793Y-48459402D01*
X128450660Y-48482914D01*
X128478172Y-48506964D01*
X128532340Y-48535537D01*
X128574008Y-48529753D01*
X128595361Y-48492779D01*
X128584747Y-48448653D01*
X128554770Y-48415987D01*
X128518100Y-48392423D01*
X128493652Y-48397932D01*
X128469087Y-48424797D01*
X128444793Y-48459402D01*
X128274695Y-48459402D01*
X128281311Y-48450902D01*
X128328865Y-48390750D01*
X128475349Y-48205584D01*
X128599304Y-48302968D01*
G36*
X128599304Y-48302968D02*
G01*
X128687973Y-48385878D01*
X128734854Y-48462617D01*
X128739996Y-48533472D01*
X128703449Y-48598731D01*
X128657293Y-48638331D01*
X128591919Y-48667318D01*
X128522858Y-48660834D01*
X128441883Y-48618217D01*
X128363858Y-48565268D01*
X128312598Y-48623509D01*
X128278666Y-48665827D01*
X128261247Y-48694889D01*
X128260669Y-48697625D01*
X128247348Y-48713236D01*
X128215960Y-48699246D01*
X128187124Y-48672500D01*
X128170518Y-48653069D01*
X128162713Y-48634828D01*
X128166799Y-48611634D01*
X128185868Y-48577344D01*
X128223008Y-48525814D01*
X128274695Y-48459402D01*
X128444793Y-48459402D01*
X128450660Y-48482914D01*
X128478172Y-48506964D01*
X128532340Y-48535537D01*
X128574008Y-48529753D01*
X128595361Y-48492779D01*
X128584747Y-48448653D01*
X128554770Y-48415987D01*
X128518100Y-48392423D01*
X128493652Y-48397932D01*
X128469087Y-48424797D01*
X128444793Y-48459402D01*
X128274695Y-48459402D01*
X128281311Y-48450902D01*
X128328865Y-48390750D01*
X128475349Y-48205584D01*
X128599304Y-48302968D01*
G37*
X98747974Y-64083273D02*
X98903974Y-64115034D01*
X98913295Y-64117837D01*
X99110395Y-64199833D01*
X99286282Y-64315563D01*
X99437504Y-64460331D01*
X99560605Y-64629441D01*
X99652131Y-64818198D01*
X99708627Y-65021906D01*
X99726707Y-65223500D01*
X99707031Y-65440235D01*
X99650493Y-65641984D01*
X99560834Y-65825749D01*
X99441794Y-65988533D01*
X99297112Y-66127337D01*
X99130528Y-66239164D01*
X98945782Y-66321016D01*
X98746612Y-66369895D01*
X98536760Y-66382804D01*
X98319963Y-66356746D01*
X98314469Y-66355565D01*
X98113512Y-66290851D01*
X97928702Y-66189780D01*
X97764808Y-66056771D01*
X97626594Y-65896241D01*
X97518830Y-65712609D01*
X97461731Y-65565228D01*
X97435436Y-65443150D01*
X97421749Y-65298368D01*
X97420862Y-65147170D01*
X97432968Y-65005842D01*
X97453935Y-64904550D01*
X97535161Y-64700699D01*
X97651033Y-64518758D01*
X97798134Y-64362111D01*
X97973044Y-64234142D01*
X98172347Y-64138237D01*
X98256250Y-64110166D01*
X98406625Y-64080635D01*
X98576362Y-64071738D01*
X98747974Y-64083273D01*
G36*
X98747974Y-64083273D02*
G01*
X98903974Y-64115034D01*
X98913295Y-64117837D01*
X99110395Y-64199833D01*
X99286282Y-64315563D01*
X99437504Y-64460331D01*
X99560605Y-64629441D01*
X99652131Y-64818198D01*
X99708627Y-65021906D01*
X99726707Y-65223500D01*
X99707031Y-65440235D01*
X99650493Y-65641984D01*
X99560834Y-65825749D01*
X99441794Y-65988533D01*
X99297112Y-66127337D01*
X99130528Y-66239164D01*
X98945782Y-66321016D01*
X98746612Y-66369895D01*
X98536760Y-66382804D01*
X98319963Y-66356746D01*
X98314469Y-66355565D01*
X98113512Y-66290851D01*
X97928702Y-66189780D01*
X97764808Y-66056771D01*
X97626594Y-65896241D01*
X97518830Y-65712609D01*
X97461731Y-65565228D01*
X97435436Y-65443150D01*
X97421749Y-65298368D01*
X97420862Y-65147170D01*
X97432968Y-65005842D01*
X97453935Y-64904550D01*
X97535161Y-64700699D01*
X97651033Y-64518758D01*
X97798134Y-64362111D01*
X97973044Y-64234142D01*
X98172347Y-64138237D01*
X98256250Y-64110166D01*
X98406625Y-64080635D01*
X98576362Y-64071738D01*
X98747974Y-64083273D01*
G37*
X107156129Y-64940347D02*
X107249605Y-64943340D01*
X107319762Y-64949623D01*
X107376098Y-64960253D01*
X107428110Y-64976289D01*
X107456701Y-64987156D01*
X107545980Y-65027628D01*
X107619393Y-65070462D01*
X107668776Y-65110204D01*
X107686000Y-65140369D01*
X107666370Y-65148804D01*
X107613608Y-65155423D01*
X107536904Y-65159330D01*
X107484917Y-65160000D01*
X107283833Y-65160000D01*
X107283833Y-65348851D01*
X107469042Y-65354967D01*
X107654250Y-65361083D01*
X107580969Y-65408032D01*
X107486929Y-65451426D01*
X107361785Y-65484816D01*
X107215776Y-65507311D01*
X107059139Y-65518022D01*
X106902110Y-65516059D01*
X106754928Y-65500534D01*
X106682714Y-65486092D01*
X106544815Y-65440898D01*
X106443433Y-65383176D01*
X106379194Y-65316512D01*
X106352722Y-65244496D01*
X106364643Y-65170714D01*
X106415583Y-65098754D01*
X106506167Y-65032204D01*
X106596177Y-64989695D01*
X106651563Y-64969508D01*
X106704414Y-64955545D01*
X106764377Y-64946692D01*
X106841103Y-64941833D01*
X106944241Y-64939855D01*
X107029833Y-64939585D01*
X107156129Y-64940347D01*
G36*
X107156129Y-64940347D02*
G01*
X107249605Y-64943340D01*
X107319762Y-64949623D01*
X107376098Y-64960253D01*
X107428110Y-64976289D01*
X107456701Y-64987156D01*
X107545980Y-65027628D01*
X107619393Y-65070462D01*
X107668776Y-65110204D01*
X107686000Y-65140369D01*
X107666370Y-65148804D01*
X107613608Y-65155423D01*
X107536904Y-65159330D01*
X107484917Y-65160000D01*
X107283833Y-65160000D01*
X107283833Y-65348851D01*
X107469042Y-65354967D01*
X107654250Y-65361083D01*
X107580969Y-65408032D01*
X107486929Y-65451426D01*
X107361785Y-65484816D01*
X107215776Y-65507311D01*
X107059139Y-65518022D01*
X106902110Y-65516059D01*
X106754928Y-65500534D01*
X106682714Y-65486092D01*
X106544815Y-65440898D01*
X106443433Y-65383176D01*
X106379194Y-65316512D01*
X106352722Y-65244496D01*
X106364643Y-65170714D01*
X106415583Y-65098754D01*
X106506167Y-65032204D01*
X106596177Y-64989695D01*
X106651563Y-64969508D01*
X106704414Y-64955545D01*
X106764377Y-64946692D01*
X106841103Y-64941833D01*
X106944241Y-64939855D01*
X107029833Y-64939585D01*
X107156129Y-64940347D01*
G37*
X104843974Y-64083273D02*
X104999974Y-64115034D01*
X105009295Y-64117837D01*
X105210048Y-64200694D01*
X105387012Y-64316283D01*
X105537449Y-64460608D01*
X105658623Y-64629672D01*
X105747795Y-64819481D01*
X105802228Y-65026036D01*
X105819185Y-65245343D01*
X105817474Y-65297583D01*
X105785769Y-65516208D01*
X105716289Y-65718272D01*
X105611288Y-65900377D01*
X105473024Y-66059123D01*
X105303752Y-66191111D01*
X105177750Y-66261146D01*
X104973307Y-66340865D01*
X104772582Y-66380399D01*
X104568848Y-66380586D01*
X104414380Y-66356363D01*
X104214756Y-66292078D01*
X104030516Y-66191950D01*
X103866721Y-66060813D01*
X103728431Y-65903499D01*
X103620708Y-65724841D01*
X103548612Y-65529672D01*
X103548577Y-65529537D01*
X103526872Y-65404883D01*
X103517740Y-65257964D01*
X103521181Y-65106936D01*
X103537196Y-64969956D01*
X103548577Y-64917462D01*
X103621346Y-64719834D01*
X103729970Y-64540590D01*
X103870503Y-64383693D01*
X104038998Y-64253109D01*
X104231508Y-64152802D01*
X104352250Y-64110166D01*
X104502625Y-64080635D01*
X104672362Y-64071738D01*
X104843974Y-64083273D01*
G36*
X104843974Y-64083273D02*
G01*
X104999974Y-64115034D01*
X105009295Y-64117837D01*
X105210048Y-64200694D01*
X105387012Y-64316283D01*
X105537449Y-64460608D01*
X105658623Y-64629672D01*
X105747795Y-64819481D01*
X105802228Y-65026036D01*
X105819185Y-65245343D01*
X105817474Y-65297583D01*
X105785769Y-65516208D01*
X105716289Y-65718272D01*
X105611288Y-65900377D01*
X105473024Y-66059123D01*
X105303752Y-66191111D01*
X105177750Y-66261146D01*
X104973307Y-66340865D01*
X104772582Y-66380399D01*
X104568848Y-66380586D01*
X104414380Y-66356363D01*
X104214756Y-66292078D01*
X104030516Y-66191950D01*
X103866721Y-66060813D01*
X103728431Y-65903499D01*
X103620708Y-65724841D01*
X103548612Y-65529672D01*
X103548577Y-65529537D01*
X103526872Y-65404883D01*
X103517740Y-65257964D01*
X103521181Y-65106936D01*
X103537196Y-64969956D01*
X103548577Y-64917462D01*
X103621346Y-64719834D01*
X103729970Y-64540590D01*
X103870503Y-64383693D01*
X104038998Y-64253109D01*
X104231508Y-64152802D01*
X104352250Y-64110166D01*
X104502625Y-64080635D01*
X104672362Y-64071738D01*
X104843974Y-64083273D01*
G37*
X129260545Y-48831598D02*
X129308388Y-48863622D01*
X129370064Y-48908251D01*
X129436152Y-48958328D01*
X129497232Y-49006700D01*
X129543881Y-49046209D01*
X129566679Y-49069702D01*
X129567327Y-49071005D01*
X129560579Y-49097425D01*
X129542780Y-49126824D01*
X129516697Y-49154817D01*
X129491646Y-49148925D01*
X129473703Y-49134480D01*
X129435743Y-49105055D01*
X129404806Y-49094963D01*
X129373283Y-49107788D01*
X129333565Y-49147118D01*
X129278042Y-49216540D01*
X129265815Y-49232466D01*
X129210602Y-49301292D01*
X129162757Y-49355008D01*
X129129224Y-49386098D01*
X129119544Y-49390833D01*
X129085908Y-49377099D01*
X129060040Y-49356302D01*
X129045979Y-49337762D01*
X129045008Y-49316012D01*
X129060647Y-49283551D01*
X129096413Y-49232881D01*
X129150754Y-49162928D01*
X129204767Y-49092867D01*
X129247080Y-49035012D01*
X129271900Y-48997445D01*
X129276000Y-48988227D01*
X129260143Y-48966576D01*
X129222725Y-48937461D01*
X129186968Y-48907206D01*
X129184259Y-48877439D01*
X129191720Y-48860944D01*
X129218199Y-48827786D01*
X129235956Y-48819333D01*
X129260545Y-48831598D01*
G36*
X129260545Y-48831598D02*
G01*
X129308388Y-48863622D01*
X129370064Y-48908251D01*
X129436152Y-48958328D01*
X129497232Y-49006700D01*
X129543881Y-49046209D01*
X129566679Y-49069702D01*
X129567327Y-49071005D01*
X129560579Y-49097425D01*
X129542780Y-49126824D01*
X129516697Y-49154817D01*
X129491646Y-49148925D01*
X129473703Y-49134480D01*
X129435743Y-49105055D01*
X129404806Y-49094963D01*
X129373283Y-49107788D01*
X129333565Y-49147118D01*
X129278042Y-49216540D01*
X129265815Y-49232466D01*
X129210602Y-49301292D01*
X129162757Y-49355008D01*
X129129224Y-49386098D01*
X129119544Y-49390833D01*
X129085908Y-49377099D01*
X129060040Y-49356302D01*
X129045979Y-49337762D01*
X129045008Y-49316012D01*
X129060647Y-49283551D01*
X129096413Y-49232881D01*
X129150754Y-49162928D01*
X129204767Y-49092867D01*
X129247080Y-49035012D01*
X129271900Y-48997445D01*
X129276000Y-48988227D01*
X129260143Y-48966576D01*
X129222725Y-48937461D01*
X129186968Y-48907206D01*
X129184259Y-48877439D01*
X129191720Y-48860944D01*
X129218199Y-48827786D01*
X129235956Y-48819333D01*
X129260545Y-48831598D01*
G37*
X128937899Y-48596552D02*
X129021464Y-48631195D01*
X129087941Y-48691218D01*
X129127766Y-48769112D01*
X129134889Y-48821002D01*
X129130517Y-48870130D01*
X129120867Y-48896854D01*
X129091878Y-48901328D01*
X129051911Y-48885664D01*
X129018035Y-48859669D01*
X129007316Y-48833150D01*
X129007744Y-48831854D01*
X129004486Y-48789885D01*
X128976092Y-48746072D01*
X128935450Y-48717174D01*
X128916697Y-48713500D01*
X128852462Y-48724265D01*
X128801874Y-48762115D01*
X128766298Y-48811504D01*
X128735400Y-48885291D01*
X128737583Y-48946989D01*
X128771561Y-48989445D01*
X128800347Y-49001291D01*
X128855777Y-49001567D01*
X128885353Y-48987889D01*
X128914814Y-48973658D01*
X128941824Y-48993650D01*
X128947905Y-49001400D01*
X128975974Y-49054410D01*
X128965640Y-49092296D01*
X128925372Y-49116190D01*
X128834934Y-49134397D01*
X128768000Y-49121938D01*
X128707848Y-49083983D01*
X128651531Y-49023173D01*
X128613831Y-48956716D01*
X128607800Y-48935464D01*
X128610783Y-48846173D01*
X128646354Y-48755887D01*
X128706589Y-48675900D01*
X128783566Y-48617503D01*
X128846810Y-48594800D01*
X128937899Y-48596552D01*
G36*
X128937899Y-48596552D02*
G01*
X129021464Y-48631195D01*
X129087941Y-48691218D01*
X129127766Y-48769112D01*
X129134889Y-48821002D01*
X129130517Y-48870130D01*
X129120867Y-48896854D01*
X129091878Y-48901328D01*
X129051911Y-48885664D01*
X129018035Y-48859669D01*
X129007316Y-48833150D01*
X129007744Y-48831854D01*
X129004486Y-48789885D01*
X128976092Y-48746072D01*
X128935450Y-48717174D01*
X128916697Y-48713500D01*
X128852462Y-48724265D01*
X128801874Y-48762115D01*
X128766298Y-48811504D01*
X128735400Y-48885291D01*
X128737583Y-48946989D01*
X128771561Y-48989445D01*
X128800347Y-49001291D01*
X128855777Y-49001567D01*
X128885353Y-48987889D01*
X128914814Y-48973658D01*
X128941824Y-48993650D01*
X128947905Y-49001400D01*
X128975974Y-49054410D01*
X128965640Y-49092296D01*
X128925372Y-49116190D01*
X128834934Y-49134397D01*
X128768000Y-49121938D01*
X128707848Y-49083983D01*
X128651531Y-49023173D01*
X128613831Y-48956716D01*
X128607800Y-48935464D01*
X128610783Y-48846173D01*
X128646354Y-48755887D01*
X128706589Y-48675900D01*
X128783566Y-48617503D01*
X128846810Y-48594800D01*
X128937899Y-48596552D01*
G37*
X128092851Y-47902076D02*
X128120900Y-47928658D01*
X128136771Y-47949453D01*
X128140331Y-47970979D01*
X128128258Y-48001290D01*
X128097229Y-48048439D01*
X128043920Y-48120478D01*
X128039088Y-48126900D01*
X127977388Y-48213679D01*
X127943574Y-48276128D01*
X127936376Y-48320604D01*
X127954524Y-48353469D01*
X127989084Y-48377108D01*
X128016662Y-48386850D01*
X128044090Y-48381293D01*
X128077121Y-48355743D01*
X128121509Y-48305504D01*
X128183008Y-48225883D01*
X128196500Y-48207853D01*
X128243887Y-48146480D01*
X128282034Y-48101000D01*
X128303754Y-48079901D01*
X128305280Y-48079351D01*
X128329900Y-48090688D01*
X128365460Y-48116275D01*
X128412111Y-48154050D01*
X128271713Y-48327941D01*
X128208302Y-48405473D01*
X128163298Y-48455685D01*
X128128887Y-48484496D01*
X128097253Y-48497822D01*
X128060583Y-48501579D01*
X128042199Y-48501728D01*
X127951649Y-48486834D01*
X127896869Y-48454103D01*
X127829067Y-48378061D01*
X127796507Y-48297416D01*
X127794333Y-48271694D01*
X127806074Y-48240500D01*
X127837058Y-48186804D01*
X127880924Y-48119529D01*
X127931312Y-48047601D01*
X127981862Y-47979942D01*
X128026213Y-47925477D01*
X128058006Y-47893130D01*
X128067797Y-47888000D01*
X128092851Y-47902076D01*
G36*
X128092851Y-47902076D02*
G01*
X128120900Y-47928658D01*
X128136771Y-47949453D01*
X128140331Y-47970979D01*
X128128258Y-48001290D01*
X128097229Y-48048439D01*
X128043920Y-48120478D01*
X128039088Y-48126900D01*
X127977388Y-48213679D01*
X127943574Y-48276128D01*
X127936376Y-48320604D01*
X127954524Y-48353469D01*
X127989084Y-48377108D01*
X128016662Y-48386850D01*
X128044090Y-48381293D01*
X128077121Y-48355743D01*
X128121509Y-48305504D01*
X128183008Y-48225883D01*
X128196500Y-48207853D01*
X128243887Y-48146480D01*
X128282034Y-48101000D01*
X128303754Y-48079901D01*
X128305280Y-48079351D01*
X128329900Y-48090688D01*
X128365460Y-48116275D01*
X128412111Y-48154050D01*
X128271713Y-48327941D01*
X128208302Y-48405473D01*
X128163298Y-48455685D01*
X128128887Y-48484496D01*
X128097253Y-48497822D01*
X128060583Y-48501579D01*
X128042199Y-48501728D01*
X127951649Y-48486834D01*
X127896869Y-48454103D01*
X127829067Y-48378061D01*
X127796507Y-48297416D01*
X127794333Y-48271694D01*
X127806074Y-48240500D01*
X127837058Y-48186804D01*
X127880924Y-48119529D01*
X127931312Y-48047601D01*
X127981862Y-47979942D01*
X128026213Y-47925477D01*
X128058006Y-47893130D01*
X128067797Y-47888000D01*
X128092851Y-47902076D01*
G37*
X127723185Y-48472825D02*
X127799796Y-48498462D01*
X127867485Y-48542119D01*
X127884040Y-48558509D01*
X127917583Y-48615323D01*
X127934276Y-48681888D01*
X127930409Y-48739729D01*
X127923423Y-48754629D01*
X127892267Y-48771391D01*
X127850775Y-48764353D01*
X127815069Y-48740937D01*
X127801272Y-48708564D01*
X127803351Y-48699363D01*
X127799740Y-48658614D01*
X127771547Y-48616099D01*
X127731999Y-48589098D01*
X127716969Y-48586500D01*
X127691712Y-48599764D01*
X127699321Y-48639402D01*
X127739737Y-48705181D01*
X127752589Y-48722562D01*
X127802807Y-48811071D01*
X127811985Y-48890108D01*
X127780156Y-48960447D01*
X127763545Y-48979045D01*
X127702602Y-49020547D01*
X127633430Y-49026429D01*
X127547989Y-48997283D01*
X127543802Y-48995241D01*
X127462146Y-48935263D01*
X127416445Y-48855143D01*
X127407179Y-48782807D01*
X127417081Y-48713167D01*
X127442438Y-48682296D01*
X127484326Y-48689142D01*
X127496322Y-48695887D01*
X127530252Y-48732624D01*
X127530246Y-48771385D01*
X127534013Y-48818422D01*
X127561131Y-48861531D01*
X127600898Y-48892617D01*
X127642611Y-48903584D01*
X127675567Y-48886335D01*
X127677807Y-48883011D01*
X127673997Y-48855276D01*
X127650341Y-48806428D01*
X127626139Y-48768072D01*
X127578662Y-48678010D01*
X127562799Y-48596574D01*
X127577918Y-48530029D01*
X127623386Y-48484642D01*
X127656013Y-48472159D01*
X127723185Y-48472825D01*
G36*
X127723185Y-48472825D02*
G01*
X127799796Y-48498462D01*
X127867485Y-48542119D01*
X127884040Y-48558509D01*
X127917583Y-48615323D01*
X127934276Y-48681888D01*
X127930409Y-48739729D01*
X127923423Y-48754629D01*
X127892267Y-48771391D01*
X127850775Y-48764353D01*
X127815069Y-48740937D01*
X127801272Y-48708564D01*
X127803351Y-48699363D01*
X127799740Y-48658614D01*
X127771547Y-48616099D01*
X127731999Y-48589098D01*
X127716969Y-48586500D01*
X127691712Y-48599764D01*
X127699321Y-48639402D01*
X127739737Y-48705181D01*
X127752589Y-48722562D01*
X127802807Y-48811071D01*
X127811985Y-48890108D01*
X127780156Y-48960447D01*
X127763545Y-48979045D01*
X127702602Y-49020547D01*
X127633430Y-49026429D01*
X127547989Y-48997283D01*
X127543802Y-48995241D01*
X127462146Y-48935263D01*
X127416445Y-48855143D01*
X127407179Y-48782807D01*
X127417081Y-48713167D01*
X127442438Y-48682296D01*
X127484326Y-48689142D01*
X127496322Y-48695887D01*
X127530252Y-48732624D01*
X127530246Y-48771385D01*
X127534013Y-48818422D01*
X127561131Y-48861531D01*
X127600898Y-48892617D01*
X127642611Y-48903584D01*
X127675567Y-48886335D01*
X127677807Y-48883011D01*
X127673997Y-48855276D01*
X127650341Y-48806428D01*
X127626139Y-48768072D01*
X127578662Y-48678010D01*
X127562799Y-48596574D01*
X127577918Y-48530029D01*
X127623386Y-48484642D01*
X127656013Y-48472159D01*
X127723185Y-48472825D01*
G37*
X128072576Y-48729518D02*
X128117628Y-48754463D01*
X128174598Y-48794321D01*
X128234212Y-48841852D01*
X128287196Y-48889817D01*
X128324274Y-48930976D01*
X128335414Y-48950527D01*
X128339844Y-49021117D01*
X128313348Y-49083925D01*
X128269999Y-49119784D01*
X128228039Y-49154697D01*
X128217667Y-49203730D01*
X128202772Y-49264300D01*
X128175333Y-49306166D01*
X128123068Y-49340740D01*
X128061359Y-49345177D01*
X127984917Y-49318462D01*
X127888456Y-49259580D01*
X127872000Y-49247958D01*
X127807133Y-49200298D01*
X127758124Y-49162006D01*
X127733142Y-49139546D01*
X127731553Y-49136833D01*
X127743385Y-49118373D01*
X127916500Y-49118373D01*
X127929578Y-49145622D01*
X127959816Y-49173113D01*
X128013895Y-49211000D01*
X128052528Y-49217880D01*
X128086384Y-49196148D01*
X128096600Y-49171693D01*
X128078475Y-49137883D01*
X128054908Y-49111482D01*
X128006154Y-49066829D01*
X127971718Y-49055232D01*
X127941820Y-49074941D01*
X127930400Y-49089208D01*
X127916500Y-49118373D01*
X127743385Y-49118373D01*
X127743675Y-49117922D01*
X127775994Y-49073829D01*
X127822359Y-49012506D01*
X127876620Y-48941906D01*
X127877784Y-48940410D01*
X128051550Y-48940410D01*
X128059568Y-48962752D01*
X128090667Y-48989205D01*
X128149986Y-49024811D01*
X128191145Y-49024553D01*
X128209226Y-49006366D01*
X128204902Y-48977035D01*
X128172061Y-48936896D01*
X128165158Y-48930731D01*
X128124190Y-48898806D01*
X128098632Y-48893595D01*
X128073436Y-48912409D01*
X128071807Y-48914041D01*
X128051550Y-48940410D01*
X127877784Y-48940410D01*
X127932627Y-48869982D01*
X127984229Y-48804686D01*
X128025275Y-48753971D01*
X128048716Y-48726725D01*
X128072576Y-48729518D01*
G36*
X128072576Y-48729518D02*
G01*
X128117628Y-48754463D01*
X128174598Y-48794321D01*
X128234212Y-48841852D01*
X128287196Y-48889817D01*
X128324274Y-48930976D01*
X128335414Y-48950527D01*
X128339844Y-49021117D01*
X128313348Y-49083925D01*
X128269999Y-49119784D01*
X128228039Y-49154697D01*
X128217667Y-49203730D01*
X128202772Y-49264300D01*
X128175333Y-49306166D01*
X128123068Y-49340740D01*
X128061359Y-49345177D01*
X127984917Y-49318462D01*
X127888456Y-49259580D01*
X127872000Y-49247958D01*
X127807133Y-49200298D01*
X127758124Y-49162006D01*
X127733142Y-49139546D01*
X127731553Y-49136833D01*
X127743385Y-49118373D01*
X127916500Y-49118373D01*
X127929578Y-49145622D01*
X127959816Y-49173113D01*
X128013895Y-49211000D01*
X128052528Y-49217880D01*
X128086384Y-49196148D01*
X128096600Y-49171693D01*
X128078475Y-49137883D01*
X128054908Y-49111482D01*
X128006154Y-49066829D01*
X127971718Y-49055232D01*
X127941820Y-49074941D01*
X127930400Y-49089208D01*
X127916500Y-49118373D01*
X127743385Y-49118373D01*
X127743675Y-49117922D01*
X127775994Y-49073829D01*
X127822359Y-49012506D01*
X127876620Y-48941906D01*
X127877784Y-48940410D01*
X128051550Y-48940410D01*
X128059568Y-48962752D01*
X128090667Y-48989205D01*
X128149986Y-49024811D01*
X128191145Y-49024553D01*
X128209226Y-49006366D01*
X128204902Y-48977035D01*
X128172061Y-48936896D01*
X128165158Y-48930731D01*
X128124190Y-48898806D01*
X128098632Y-48893595D01*
X128073436Y-48912409D01*
X128071807Y-48914041D01*
X128051550Y-48940410D01*
X127877784Y-48940410D01*
X127932627Y-48869982D01*
X127984229Y-48804686D01*
X128025275Y-48753971D01*
X128048716Y-48726725D01*
X128072576Y-48729518D01*
G37*
X129807324Y-45931706D02*
X129812430Y-45980303D01*
X129788646Y-46061218D01*
X129729605Y-46126868D01*
X129641453Y-46170812D01*
X129626628Y-46174997D01*
X129543716Y-46197109D01*
X129490327Y-46214658D01*
X129454834Y-46233023D01*
X129425610Y-46257584D01*
X129407208Y-46276516D01*
X129336682Y-46363019D01*
X129252066Y-46487891D01*
X129154112Y-46649853D01*
X129043569Y-46847626D01*
X128921187Y-47079931D01*
X128829212Y-47261736D01*
X128758318Y-47403322D01*
X128692635Y-47533304D01*
X128634764Y-47646627D01*
X128587307Y-47738237D01*
X128552865Y-47803080D01*
X128534041Y-47836100D01*
X128532307Y-47838528D01*
X128491504Y-47863849D01*
X128434988Y-47856362D01*
X128358266Y-47815397D01*
X128352912Y-47811854D01*
X128271321Y-47751458D01*
X128199494Y-47687552D01*
X128144938Y-47627830D01*
X128115155Y-47579986D01*
X128111833Y-47564710D01*
X128124830Y-47528019D01*
X128158506Y-47473470D01*
X128194805Y-47426130D01*
X128231598Y-47374482D01*
X128281819Y-47293113D01*
X128340595Y-47190479D01*
X128403057Y-47075035D01*
X128453062Y-46977833D01*
X128534454Y-46820311D01*
X128606045Y-46695252D01*
X128673965Y-46595894D01*
X128744345Y-46515479D01*
X128823315Y-46447248D01*
X128917005Y-46384440D01*
X129031545Y-46320296D01*
X129065453Y-46302589D01*
X129203299Y-46225059D01*
X129311893Y-46150781D01*
X129375124Y-46094797D01*
X129424655Y-46043812D01*
X129456237Y-46019231D01*
X129480949Y-46016645D01*
X129509872Y-46031647D01*
X129518959Y-46037563D01*
X129564071Y-46060838D01*
X129602036Y-46057376D01*
X129628015Y-46045019D01*
X129677304Y-46004701D01*
X129712947Y-45955973D01*
X129749261Y-45909814D01*
X129783696Y-45902452D01*
X129807324Y-45931706D01*
G36*
X129807324Y-45931706D02*
G01*
X129812430Y-45980303D01*
X129788646Y-46061218D01*
X129729605Y-46126868D01*
X129641453Y-46170812D01*
X129626628Y-46174997D01*
X129543716Y-46197109D01*
X129490327Y-46214658D01*
X129454834Y-46233023D01*
X129425610Y-46257584D01*
X129407208Y-46276516D01*
X129336682Y-46363019D01*
X129252066Y-46487891D01*
X129154112Y-46649853D01*
X129043569Y-46847626D01*
X128921187Y-47079931D01*
X128829212Y-47261736D01*
X128758318Y-47403322D01*
X128692635Y-47533304D01*
X128634764Y-47646627D01*
X128587307Y-47738237D01*
X128552865Y-47803080D01*
X128534041Y-47836100D01*
X128532307Y-47838528D01*
X128491504Y-47863849D01*
X128434988Y-47856362D01*
X128358266Y-47815397D01*
X128352912Y-47811854D01*
X128271321Y-47751458D01*
X128199494Y-47687552D01*
X128144938Y-47627830D01*
X128115155Y-47579986D01*
X128111833Y-47564710D01*
X128124830Y-47528019D01*
X128158506Y-47473470D01*
X128194805Y-47426130D01*
X128231598Y-47374482D01*
X128281819Y-47293113D01*
X128340595Y-47190479D01*
X128403057Y-47075035D01*
X128453062Y-46977833D01*
X128534454Y-46820311D01*
X128606045Y-46695252D01*
X128673965Y-46595894D01*
X128744345Y-46515479D01*
X128823315Y-46447248D01*
X128917005Y-46384440D01*
X129031545Y-46320296D01*
X129065453Y-46302589D01*
X129203299Y-46225059D01*
X129311893Y-46150781D01*
X129375124Y-46094797D01*
X129424655Y-46043812D01*
X129456237Y-46019231D01*
X129480949Y-46016645D01*
X129509872Y-46031647D01*
X129518959Y-46037563D01*
X129564071Y-46060838D01*
X129602036Y-46057376D01*
X129628015Y-46045019D01*
X129677304Y-46004701D01*
X129712947Y-45955973D01*
X129749261Y-45909814D01*
X129783696Y-45902452D01*
X129807324Y-45931706D01*
G37*
X126418630Y-46596634D02*
X126467019Y-46626516D01*
X126537865Y-46675623D01*
X126625909Y-46740288D01*
X126725896Y-46816845D01*
X126743546Y-46830655D01*
X127073259Y-47089444D01*
X127015754Y-47170770D01*
X126976945Y-47219109D01*
X126944448Y-47248483D01*
X126934353Y-47252548D01*
X126909639Y-47240220D01*
X126858998Y-47206176D01*
X126789388Y-47155360D01*
X126707766Y-47092715D01*
X126692277Y-47080519D01*
X126474099Y-46908039D01*
X126404281Y-46990561D01*
X126364377Y-47040049D01*
X126338955Y-47076038D01*
X126334148Y-47086360D01*
X126349774Y-47103654D01*
X126392679Y-47141325D01*
X126456519Y-47194022D01*
X126534954Y-47256395D01*
X126544701Y-47264006D01*
X126755568Y-47428376D01*
X126698159Y-47509569D01*
X126659180Y-47557886D01*
X126626255Y-47587201D01*
X126615965Y-47591214D01*
X126590624Y-47578908D01*
X126539718Y-47545036D01*
X126470542Y-47494720D01*
X126390393Y-47433085D01*
X126387226Y-47430586D01*
X126308951Y-47369655D01*
X126243721Y-47320562D01*
X126198035Y-47288078D01*
X126178393Y-47276973D01*
X126178155Y-47277128D01*
X126163145Y-47296183D01*
X126128844Y-47338631D01*
X126084609Y-47392916D01*
X125996178Y-47501083D01*
X126237481Y-47688353D01*
X126333821Y-47763373D01*
X126400157Y-47818155D01*
X126439554Y-47858893D01*
X126455077Y-47891779D01*
X126449791Y-47923006D01*
X126426760Y-47958768D01*
X126392334Y-48001242D01*
X126342908Y-48061567D01*
X126015579Y-47804301D01*
X125914553Y-47724240D01*
X125825505Y-47652417D01*
X125753631Y-47593125D01*
X125704124Y-47550656D01*
X125682181Y-47529305D01*
X125681624Y-47528305D01*
X125692771Y-47509011D01*
X125726032Y-47461596D01*
X125777430Y-47391273D01*
X125842984Y-47303256D01*
X125918716Y-47202759D01*
X126000647Y-47094996D01*
X126084799Y-46985181D01*
X126167192Y-46878528D01*
X126243847Y-46780250D01*
X126310787Y-46695561D01*
X126364030Y-46629675D01*
X126397952Y-46589641D01*
X126418630Y-46596634D01*
G36*
X126418630Y-46596634D02*
G01*
X126467019Y-46626516D01*
X126537865Y-46675623D01*
X126625909Y-46740288D01*
X126725896Y-46816845D01*
X126743546Y-46830655D01*
X127073259Y-47089444D01*
X127015754Y-47170770D01*
X126976945Y-47219109D01*
X126944448Y-47248483D01*
X126934353Y-47252548D01*
X126909639Y-47240220D01*
X126858998Y-47206176D01*
X126789388Y-47155360D01*
X126707766Y-47092715D01*
X126692277Y-47080519D01*
X126474099Y-46908039D01*
X126404281Y-46990561D01*
X126364377Y-47040049D01*
X126338955Y-47076038D01*
X126334148Y-47086360D01*
X126349774Y-47103654D01*
X126392679Y-47141325D01*
X126456519Y-47194022D01*
X126534954Y-47256395D01*
X126544701Y-47264006D01*
X126755568Y-47428376D01*
X126698159Y-47509569D01*
X126659180Y-47557886D01*
X126626255Y-47587201D01*
X126615965Y-47591214D01*
X126590624Y-47578908D01*
X126539718Y-47545036D01*
X126470542Y-47494720D01*
X126390393Y-47433085D01*
X126387226Y-47430586D01*
X126308951Y-47369655D01*
X126243721Y-47320562D01*
X126198035Y-47288078D01*
X126178393Y-47276973D01*
X126178155Y-47277128D01*
X126163145Y-47296183D01*
X126128844Y-47338631D01*
X126084609Y-47392916D01*
X125996178Y-47501083D01*
X126237481Y-47688353D01*
X126333821Y-47763373D01*
X126400157Y-47818155D01*
X126439554Y-47858893D01*
X126455077Y-47891779D01*
X126449791Y-47923006D01*
X126426760Y-47958768D01*
X126392334Y-48001242D01*
X126342908Y-48061567D01*
X126015579Y-47804301D01*
X125914553Y-47724240D01*
X125825505Y-47652417D01*
X125753631Y-47593125D01*
X125704124Y-47550656D01*
X125682181Y-47529305D01*
X125681624Y-47528305D01*
X125692771Y-47509011D01*
X125726032Y-47461596D01*
X125777430Y-47391273D01*
X125842984Y-47303256D01*
X125918716Y-47202759D01*
X126000647Y-47094996D01*
X126084799Y-46985181D01*
X126167192Y-46878528D01*
X126243847Y-46780250D01*
X126310787Y-46695561D01*
X126364030Y-46629675D01*
X126397952Y-46589641D01*
X126418630Y-46596634D01*
G37*
X125643318Y-45972350D02*
X125693755Y-46009098D01*
X125766119Y-46063751D01*
X125854813Y-46132082D01*
X125954240Y-46209862D01*
X125954903Y-46210385D01*
X126267304Y-46456547D01*
X126202212Y-46547186D01*
X126160540Y-46597085D01*
X126126730Y-46622861D01*
X126113768Y-46623558D01*
X126088988Y-46605574D01*
X126038214Y-46566790D01*
X125968607Y-46512730D01*
X125887325Y-46448922D01*
X125878847Y-46442230D01*
X125667277Y-46275168D01*
X125598388Y-46354861D01*
X125558552Y-46404004D01*
X125533675Y-46440580D01*
X125529500Y-46451053D01*
X125545306Y-46469667D01*
X125588340Y-46508147D01*
X125652029Y-46560872D01*
X125729703Y-46622152D01*
X125807686Y-46684184D01*
X125871626Y-46738493D01*
X125914876Y-46779193D01*
X125930787Y-46800297D01*
X125919048Y-46829843D01*
X125888366Y-46877254D01*
X125870575Y-46900719D01*
X125809484Y-46977592D01*
X125593058Y-46806497D01*
X125511587Y-46744198D01*
X125441833Y-46694824D01*
X125390371Y-46662738D01*
X125363774Y-46652303D01*
X125362049Y-46653159D01*
X125341744Y-46678435D01*
X125304324Y-46725424D01*
X125269764Y-46768979D01*
X125192062Y-46867042D01*
X125434187Y-47057054D01*
X125676313Y-47247065D01*
X125608960Y-47334699D01*
X125569069Y-47383724D01*
X125539559Y-47414741D01*
X125530262Y-47420616D01*
X125510932Y-47407508D01*
X125463848Y-47372028D01*
X125394298Y-47318267D01*
X125307572Y-47250316D01*
X125208958Y-47172266D01*
X125201417Y-47166267D01*
X125102161Y-47086557D01*
X125014872Y-47015058D01*
X124944798Y-46956186D01*
X124897191Y-46914357D01*
X124877300Y-46893985D01*
X124877098Y-46893527D01*
X124887582Y-46871440D01*
X124920887Y-46822129D01*
X124972912Y-46750754D01*
X125039559Y-46662476D01*
X125116729Y-46562454D01*
X125200325Y-46455847D01*
X125286248Y-46347817D01*
X125370398Y-46243523D01*
X125448677Y-46148124D01*
X125516988Y-46066781D01*
X125571231Y-46004653D01*
X125607307Y-45966901D01*
X125620407Y-45957736D01*
X125643318Y-45972350D01*
G36*
X125643318Y-45972350D02*
G01*
X125693755Y-46009098D01*
X125766119Y-46063751D01*
X125854813Y-46132082D01*
X125954240Y-46209862D01*
X125954903Y-46210385D01*
X126267304Y-46456547D01*
X126202212Y-46547186D01*
X126160540Y-46597085D01*
X126126730Y-46622861D01*
X126113768Y-46623558D01*
X126088988Y-46605574D01*
X126038214Y-46566790D01*
X125968607Y-46512730D01*
X125887325Y-46448922D01*
X125878847Y-46442230D01*
X125667277Y-46275168D01*
X125598388Y-46354861D01*
X125558552Y-46404004D01*
X125533675Y-46440580D01*
X125529500Y-46451053D01*
X125545306Y-46469667D01*
X125588340Y-46508147D01*
X125652029Y-46560872D01*
X125729703Y-46622152D01*
X125807686Y-46684184D01*
X125871626Y-46738493D01*
X125914876Y-46779193D01*
X125930787Y-46800297D01*
X125919048Y-46829843D01*
X125888366Y-46877254D01*
X125870575Y-46900719D01*
X125809484Y-46977592D01*
X125593058Y-46806497D01*
X125511587Y-46744198D01*
X125441833Y-46694824D01*
X125390371Y-46662738D01*
X125363774Y-46652303D01*
X125362049Y-46653159D01*
X125341744Y-46678435D01*
X125304324Y-46725424D01*
X125269764Y-46768979D01*
X125192062Y-46867042D01*
X125434187Y-47057054D01*
X125676313Y-47247065D01*
X125608960Y-47334699D01*
X125569069Y-47383724D01*
X125539559Y-47414741D01*
X125530262Y-47420616D01*
X125510932Y-47407508D01*
X125463848Y-47372028D01*
X125394298Y-47318267D01*
X125307572Y-47250316D01*
X125208958Y-47172266D01*
X125201417Y-47166267D01*
X125102161Y-47086557D01*
X125014872Y-47015058D01*
X124944798Y-46956186D01*
X124897191Y-46914357D01*
X124877300Y-46893985D01*
X124877098Y-46893527D01*
X124887582Y-46871440D01*
X124920887Y-46822129D01*
X124972912Y-46750754D01*
X125039559Y-46662476D01*
X125116729Y-46562454D01*
X125200325Y-46455847D01*
X125286248Y-46347817D01*
X125370398Y-46243523D01*
X125448677Y-46148124D01*
X125516988Y-46066781D01*
X125571231Y-46004653D01*
X125607307Y-45966901D01*
X125620407Y-45957736D01*
X125643318Y-45972350D01*
G37*
X127231295Y-47223792D02*
X127277300Y-47256371D01*
X127346224Y-47307609D01*
X127432941Y-47373686D01*
X127532323Y-47450781D01*
X127549443Y-47464186D01*
X127664020Y-47554082D01*
X127748656Y-47622186D01*
X127806412Y-47673218D01*
X127840348Y-47711900D01*
X127853524Y-47742954D01*
X127849001Y-47771103D01*
X127829840Y-47801068D01*
X127799099Y-47837570D01*
X127794740Y-47842658D01*
X127757041Y-47874690D01*
X127725570Y-47882380D01*
X127725191Y-47882241D01*
X127699006Y-47865729D01*
X127647112Y-47828180D01*
X127576834Y-47775039D01*
X127495492Y-47711750D01*
X127489043Y-47706662D01*
X127279803Y-47541407D01*
X127209299Y-47624745D01*
X127169205Y-47674251D01*
X127143516Y-47710021D01*
X127138481Y-47720313D01*
X127154101Y-47737200D01*
X127196992Y-47774531D01*
X127260826Y-47826997D01*
X127339274Y-47889291D01*
X127349516Y-47897289D01*
X127560866Y-48062035D01*
X127502974Y-48143898D01*
X127464298Y-48192390D01*
X127432246Y-48221991D01*
X127422254Y-48226214D01*
X127397677Y-48213965D01*
X127347342Y-48180238D01*
X127278457Y-48130111D01*
X127198231Y-48068667D01*
X127193861Y-48065239D01*
X127115151Y-48004358D01*
X127049457Y-47955305D01*
X127003284Y-47922809D01*
X126983137Y-47911603D01*
X126982836Y-47911781D01*
X126967632Y-47931041D01*
X126933225Y-47973600D01*
X126889876Y-48026801D01*
X126802379Y-48133852D01*
X127044356Y-48322580D01*
X127130045Y-48390178D01*
X127202284Y-48448629D01*
X127255183Y-48493051D01*
X127282854Y-48518565D01*
X127285538Y-48522445D01*
X127272463Y-48543586D01*
X127239976Y-48585211D01*
X127215898Y-48613972D01*
X127147053Y-48694361D01*
X126815356Y-48434055D01*
X126714054Y-48353849D01*
X126625156Y-48282112D01*
X126553710Y-48223030D01*
X126504764Y-48180788D01*
X126483365Y-48159571D01*
X126482829Y-48158347D01*
X126495075Y-48139879D01*
X126529423Y-48093289D01*
X126581855Y-48023773D01*
X126648355Y-47936525D01*
X126724907Y-47836739D01*
X126807493Y-47729610D01*
X126892096Y-47620331D01*
X126974700Y-47514098D01*
X127051287Y-47416105D01*
X127117841Y-47331546D01*
X127170345Y-47265616D01*
X127204782Y-47223509D01*
X127213336Y-47213693D01*
X127231295Y-47223792D01*
G36*
X127231295Y-47223792D02*
G01*
X127277300Y-47256371D01*
X127346224Y-47307609D01*
X127432941Y-47373686D01*
X127532323Y-47450781D01*
X127549443Y-47464186D01*
X127664020Y-47554082D01*
X127748656Y-47622186D01*
X127806412Y-47673218D01*
X127840348Y-47711900D01*
X127853524Y-47742954D01*
X127849001Y-47771103D01*
X127829840Y-47801068D01*
X127799099Y-47837570D01*
X127794740Y-47842658D01*
X127757041Y-47874690D01*
X127725570Y-47882380D01*
X127725191Y-47882241D01*
X127699006Y-47865729D01*
X127647112Y-47828180D01*
X127576834Y-47775039D01*
X127495492Y-47711750D01*
X127489043Y-47706662D01*
X127279803Y-47541407D01*
X127209299Y-47624745D01*
X127169205Y-47674251D01*
X127143516Y-47710021D01*
X127138481Y-47720313D01*
X127154101Y-47737200D01*
X127196992Y-47774531D01*
X127260826Y-47826997D01*
X127339274Y-47889291D01*
X127349516Y-47897289D01*
X127560866Y-48062035D01*
X127502974Y-48143898D01*
X127464298Y-48192390D01*
X127432246Y-48221991D01*
X127422254Y-48226214D01*
X127397677Y-48213965D01*
X127347342Y-48180238D01*
X127278457Y-48130111D01*
X127198231Y-48068667D01*
X127193861Y-48065239D01*
X127115151Y-48004358D01*
X127049457Y-47955305D01*
X127003284Y-47922809D01*
X126983137Y-47911603D01*
X126982836Y-47911781D01*
X126967632Y-47931041D01*
X126933225Y-47973600D01*
X126889876Y-48026801D01*
X126802379Y-48133852D01*
X127044356Y-48322580D01*
X127130045Y-48390178D01*
X127202284Y-48448629D01*
X127255183Y-48493051D01*
X127282854Y-48518565D01*
X127285538Y-48522445D01*
X127272463Y-48543586D01*
X127239976Y-48585211D01*
X127215898Y-48613972D01*
X127147053Y-48694361D01*
X126815356Y-48434055D01*
X126714054Y-48353849D01*
X126625156Y-48282112D01*
X126553710Y-48223030D01*
X126504764Y-48180788D01*
X126483365Y-48159571D01*
X126482829Y-48158347D01*
X126495075Y-48139879D01*
X126529423Y-48093289D01*
X126581855Y-48023773D01*
X126648355Y-47936525D01*
X126724907Y-47836739D01*
X126807493Y-47729610D01*
X126892096Y-47620331D01*
X126974700Y-47514098D01*
X127051287Y-47416105D01*
X127117841Y-47331546D01*
X127170345Y-47265616D01*
X127204782Y-47223509D01*
X127213336Y-47213693D01*
X127231295Y-47223792D01*
G37*
X110743674Y-52089382D02*
X110886273Y-52147469D01*
X111013636Y-52237690D01*
X111120619Y-52358267D01*
X111202073Y-52507426D01*
X111232870Y-52596531D01*
X111241928Y-52628101D01*
X111249883Y-52657705D01*
X111256197Y-52687306D01*
X111260332Y-52718864D01*
X111261749Y-52754344D01*
X111259910Y-52795707D01*
X111254278Y-52844916D01*
X111244313Y-52903932D01*
X111229479Y-52974719D01*
X111209235Y-53059238D01*
X111183045Y-53159452D01*
X111150369Y-53277324D01*
X111110671Y-53414815D01*
X111063411Y-53573888D01*
X111008051Y-53756505D01*
X110944053Y-53964628D01*
X110870879Y-54200221D01*
X110787991Y-54465245D01*
X110694851Y-54761663D01*
X110590919Y-55091436D01*
X110475659Y-55456528D01*
X110348531Y-55858900D01*
X110269360Y-56109459D01*
X110158069Y-56461206D01*
X110049634Y-56802986D01*
X109944793Y-57132514D01*
X109844286Y-57447505D01*
X109748850Y-57745677D01*
X109659225Y-58024743D01*
X109576149Y-58282421D01*
X109500361Y-58516425D01*
X109432599Y-58724471D01*
X109373601Y-58904276D01*
X109324108Y-59053553D01*
X109284856Y-59170020D01*
X109256586Y-59251391D01*
X109240034Y-59295383D01*
X109237359Y-59301147D01*
X109143286Y-59433686D01*
X109022101Y-59542545D01*
X108881259Y-59624694D01*
X108728217Y-59677102D01*
X108570431Y-59696735D01*
X108415359Y-59680564D01*
X108350709Y-59661612D01*
X108206029Y-59588319D01*
X108083654Y-59482932D01*
X107987019Y-59351254D01*
X107919557Y-59199084D01*
X107884703Y-59032226D01*
X107884128Y-58873500D01*
X107890797Y-58837938D01*
X107906989Y-58773534D01*
X107932984Y-58679380D01*
X107969060Y-58554565D01*
X108015496Y-58398182D01*
X108072571Y-58209321D01*
X108140564Y-57987073D01*
X108219753Y-57730531D01*
X108310417Y-57438784D01*
X108412836Y-57110924D01*
X108527288Y-56746042D01*
X108654052Y-56343230D01*
X108793407Y-55901578D01*
X108880436Y-55626238D01*
X109014488Y-55202283D01*
X109136391Y-54816755D01*
X109246841Y-54467745D01*
X109346533Y-54153343D01*
X109436164Y-53871638D01*
X109516430Y-53620721D01*
X109588026Y-53398682D01*
X109651649Y-53203611D01*
X109707994Y-53033598D01*
X109757757Y-52886733D01*
X109801635Y-52761106D01*
X109840323Y-52654807D01*
X109874517Y-52565926D01*
X109904914Y-52492553D01*
X109932208Y-52432779D01*
X109957097Y-52384693D01*
X109980276Y-52346385D01*
X110002441Y-52315946D01*
X110024288Y-52291466D01*
X110046513Y-52271034D01*
X110069812Y-52252741D01*
X110094881Y-52234676D01*
X110122415Y-52214931D01*
X110123854Y-52213876D01*
X110275930Y-52125674D01*
X110433357Y-52076709D01*
X110590987Y-52065203D01*
X110743674Y-52089382D01*
G36*
X110743674Y-52089382D02*
G01*
X110886273Y-52147469D01*
X111013636Y-52237690D01*
X111120619Y-52358267D01*
X111202073Y-52507426D01*
X111232870Y-52596531D01*
X111241928Y-52628101D01*
X111249883Y-52657705D01*
X111256197Y-52687306D01*
X111260332Y-52718864D01*
X111261749Y-52754344D01*
X111259910Y-52795707D01*
X111254278Y-52844916D01*
X111244313Y-52903932D01*
X111229479Y-52974719D01*
X111209235Y-53059238D01*
X111183045Y-53159452D01*
X111150369Y-53277324D01*
X111110671Y-53414815D01*
X111063411Y-53573888D01*
X111008051Y-53756505D01*
X110944053Y-53964628D01*
X110870879Y-54200221D01*
X110787991Y-54465245D01*
X110694851Y-54761663D01*
X110590919Y-55091436D01*
X110475659Y-55456528D01*
X110348531Y-55858900D01*
X110269360Y-56109459D01*
X110158069Y-56461206D01*
X110049634Y-56802986D01*
X109944793Y-57132514D01*
X109844286Y-57447505D01*
X109748850Y-57745677D01*
X109659225Y-58024743D01*
X109576149Y-58282421D01*
X109500361Y-58516425D01*
X109432599Y-58724471D01*
X109373601Y-58904276D01*
X109324108Y-59053553D01*
X109284856Y-59170020D01*
X109256586Y-59251391D01*
X109240034Y-59295383D01*
X109237359Y-59301147D01*
X109143286Y-59433686D01*
X109022101Y-59542545D01*
X108881259Y-59624694D01*
X108728217Y-59677102D01*
X108570431Y-59696735D01*
X108415359Y-59680564D01*
X108350709Y-59661612D01*
X108206029Y-59588319D01*
X108083654Y-59482932D01*
X107987019Y-59351254D01*
X107919557Y-59199084D01*
X107884703Y-59032226D01*
X107884128Y-58873500D01*
X107890797Y-58837938D01*
X107906989Y-58773534D01*
X107932984Y-58679380D01*
X107969060Y-58554565D01*
X108015496Y-58398182D01*
X108072571Y-58209321D01*
X108140564Y-57987073D01*
X108219753Y-57730531D01*
X108310417Y-57438784D01*
X108412836Y-57110924D01*
X108527288Y-56746042D01*
X108654052Y-56343230D01*
X108793407Y-55901578D01*
X108880436Y-55626238D01*
X109014488Y-55202283D01*
X109136391Y-54816755D01*
X109246841Y-54467745D01*
X109346533Y-54153343D01*
X109436164Y-53871638D01*
X109516430Y-53620721D01*
X109588026Y-53398682D01*
X109651649Y-53203611D01*
X109707994Y-53033598D01*
X109757757Y-52886733D01*
X109801635Y-52761106D01*
X109840323Y-52654807D01*
X109874517Y-52565926D01*
X109904914Y-52492553D01*
X109932208Y-52432779D01*
X109957097Y-52384693D01*
X109980276Y-52346385D01*
X110002441Y-52315946D01*
X110024288Y-52291466D01*
X110046513Y-52271034D01*
X110069812Y-52252741D01*
X110094881Y-52234676D01*
X110122415Y-52214931D01*
X110123854Y-52213876D01*
X110275930Y-52125674D01*
X110433357Y-52076709D01*
X110590987Y-52065203D01*
X110743674Y-52089382D01*
G37*
X117690723Y-47347414D02*
X118393457Y-47372713D01*
X119068648Y-47414453D01*
X119306500Y-47433787D01*
X120177207Y-47525120D01*
X121021630Y-47645523D01*
X121839267Y-47794777D01*
X122629611Y-47972662D01*
X123392160Y-48178958D01*
X124126409Y-48413445D01*
X124831854Y-48675905D01*
X125507989Y-48966118D01*
X126154312Y-49283864D01*
X126770317Y-49628924D01*
X127355501Y-50001077D01*
X127909359Y-50400106D01*
X128431387Y-50825790D01*
X128921081Y-51277909D01*
X129377935Y-51756244D01*
X129466943Y-51856895D01*
X129568845Y-51975776D01*
X129676182Y-52104761D01*
X129785599Y-52239458D01*
X129893739Y-52375475D01*
X129997247Y-52508419D01*
X130092767Y-52633897D01*
X130176944Y-52747519D01*
X130246423Y-52844890D01*
X130297846Y-52921620D01*
X130327860Y-52973315D01*
X130334333Y-52992272D01*
X130313512Y-52994126D01*
X130252432Y-52995928D01*
X130153167Y-52997668D01*
X130017791Y-52999336D01*
X129848378Y-53000923D01*
X129647003Y-53002420D01*
X129415740Y-53003817D01*
X129156662Y-53005105D01*
X128871845Y-53006274D01*
X128563361Y-53007314D01*
X128233286Y-53008217D01*
X127883693Y-53008972D01*
X127516657Y-53009571D01*
X127134252Y-53010003D01*
X126738551Y-53010260D01*
X126383314Y-53010333D01*
X122432295Y-53010333D01*
X122446314Y-53807547D01*
X122448362Y-53946575D01*
X122450320Y-54123467D01*
X122452166Y-54333755D01*
X122453880Y-54572970D01*
X122455438Y-54836642D01*
X122456820Y-55120304D01*
X122458005Y-55419487D01*
X122458970Y-55729721D01*
X122459694Y-56046537D01*
X122460155Y-56365468D01*
X122460332Y-56682044D01*
X122460333Y-56710435D01*
X122460333Y-58816109D01*
X124227750Y-58800490D01*
X124497166Y-58798318D01*
X124754056Y-58796652D01*
X124995321Y-58795490D01*
X125217862Y-58794826D01*
X125418580Y-58794657D01*
X125594376Y-58794980D01*
X125742152Y-58795789D01*
X125858810Y-58797082D01*
X125941249Y-58798854D01*
X125986372Y-58801102D01*
X125994250Y-58802727D01*
X125977615Y-58822138D01*
X125933981Y-58858686D01*
X125871414Y-58905795D01*
X125842476Y-58926416D01*
X125741614Y-59003773D01*
X125622573Y-59105568D01*
X125493984Y-59223480D01*
X125364481Y-59349186D01*
X125242696Y-59474366D01*
X125137261Y-59590697D01*
X125074115Y-59667121D01*
X124893901Y-59919361D01*
X124749877Y-60169284D01*
X124637400Y-60425733D01*
X124572524Y-60622204D01*
X124552607Y-60697785D01*
X124538918Y-60769911D01*
X124530380Y-60849430D01*
X124525916Y-60947190D01*
X124524449Y-61074040D01*
X124524421Y-61106583D01*
X124528391Y-61285187D01*
X124542120Y-61438215D01*
X124568582Y-61577597D01*
X124610749Y-61715264D01*
X124671595Y-61863145D01*
X124754092Y-62033171D01*
X124756512Y-62037916D01*
X124958474Y-62401085D01*
X125178941Y-62736990D01*
X125415282Y-63042350D01*
X125664865Y-63313880D01*
X125925058Y-63548298D01*
X126036567Y-63634673D01*
X126117324Y-63692818D01*
X126200830Y-63749617D01*
X126291708Y-63807761D01*
X126394584Y-63869940D01*
X126514082Y-63938846D01*
X126654827Y-64017169D01*
X126821443Y-64107600D01*
X127018556Y-64212829D01*
X127148750Y-64281740D01*
X127417488Y-64424476D01*
X127654627Y-64552435D01*
X127866612Y-64669408D01*
X128059888Y-64779186D01*
X128240902Y-64885558D01*
X128416098Y-64992316D01*
X128591921Y-65103249D01*
X128774818Y-65222149D01*
X128971233Y-65352805D01*
X128979667Y-65358466D01*
X129374339Y-65630932D01*
X129728842Y-65891335D01*
X130043491Y-66139988D01*
X130318602Y-66377202D01*
X130554490Y-66603289D01*
X130751470Y-66818561D01*
X130909858Y-67023330D01*
X131029969Y-67217907D01*
X131112118Y-67402605D01*
X131139749Y-67494090D01*
X131151424Y-67568796D01*
X131157199Y-67666716D01*
X131155965Y-67769004D01*
X131155938Y-67769518D01*
X131147523Y-67871591D01*
X131132059Y-67948731D01*
X131105272Y-68018247D01*
X131084517Y-68058854D01*
X130978303Y-68212002D01*
X130831724Y-68353857D01*
X130644734Y-68484434D01*
X130417287Y-68603746D01*
X130149338Y-68711807D01*
X129840843Y-68808630D01*
X129491755Y-68894228D01*
X129102030Y-68968616D01*
X128671622Y-69031806D01*
X128200485Y-69083812D01*
X127688575Y-69124647D01*
X127455667Y-69138789D01*
X127333008Y-69144108D01*
X127178009Y-69148504D01*
X126996935Y-69151982D01*
X126796055Y-69154544D01*
X126581637Y-69156194D01*
X126359948Y-69156935D01*
X126137257Y-69156771D01*
X125919831Y-69155705D01*
X125713938Y-69153742D01*
X125525845Y-69150883D01*
X125361821Y-69147134D01*
X125228134Y-69142497D01*
X125137917Y-69137494D01*
X124613899Y-69086153D01*
X124117071Y-69009900D01*
X123639031Y-68906742D01*
X123171377Y-68774687D01*
X122705706Y-68611740D01*
X122399264Y-68487960D01*
X122203014Y-68401643D01*
X121973270Y-68295173D01*
X121712947Y-68169991D01*
X121424963Y-68027538D01*
X121112234Y-67869254D01*
X120777676Y-67696582D01*
X120460083Y-67529939D01*
X120255981Y-67422588D01*
X120083604Y-67333328D01*
X119937636Y-67259754D01*
X119812762Y-67199458D01*
X119703668Y-67150036D01*
X119605038Y-67109079D01*
X119511557Y-67074182D01*
X119417910Y-67042939D01*
X119318782Y-67012943D01*
X119317083Y-67012448D01*
X118979238Y-66931512D01*
X118608731Y-66875324D01*
X118207153Y-66843754D01*
X117776093Y-66836673D01*
X117317141Y-66853949D01*
X116831886Y-66895453D01*
X116321919Y-66961054D01*
X115788830Y-67050621D01*
X115234207Y-67164024D01*
X114659641Y-67301133D01*
X114159377Y-67435481D01*
X113846490Y-67526520D01*
X113515036Y-67628196D01*
X113171981Y-67738085D01*
X112824293Y-67853761D01*
X112478941Y-67972799D01*
X112142891Y-68092772D01*
X111823111Y-68211257D01*
X111526569Y-68325827D01*
X111260233Y-68434058D01*
X111125965Y-68491390D01*
X111049593Y-68523682D01*
X110989556Y-68547156D01*
X110955057Y-68558296D01*
X110950391Y-68558447D01*
X110949272Y-68536517D01*
X110948998Y-68477007D01*
X110949518Y-68384660D01*
X110950783Y-68264220D01*
X110952743Y-68120430D01*
X110955347Y-67958034D01*
X110958547Y-67781775D01*
X110958591Y-67779490D01*
X110973413Y-67007156D01*
X111091831Y-66970015D01*
X111164263Y-66944714D01*
X111259551Y-66907905D01*
X111362069Y-66865727D01*
X111411333Y-66844466D01*
X111675466Y-66711504D01*
X111900776Y-66561897D01*
X112087424Y-66395508D01*
X112235570Y-66212200D01*
X112320135Y-66066328D01*
X112373685Y-65947281D01*
X112414296Y-65829973D01*
X112443895Y-65704965D01*
X112464408Y-65562819D01*
X112477763Y-65394094D01*
X112483512Y-65265833D01*
X112486669Y-65078974D01*
X112480433Y-64923600D01*
X112463035Y-64789556D01*
X112432706Y-64666686D01*
X112387677Y-64544835D01*
X112339900Y-64441301D01*
X112231945Y-64264968D01*
X112084596Y-64091662D01*
X111900787Y-63923892D01*
X111683454Y-63764168D01*
X111435533Y-63615002D01*
X111280009Y-63534861D01*
X111074601Y-63434916D01*
X111073634Y-61937375D01*
X111072667Y-60439833D01*
X112197048Y-60439833D01*
X112185308Y-60138208D01*
X112184007Y-60086527D01*
X112182519Y-59994742D01*
X112180861Y-59865081D01*
X112179051Y-59699772D01*
X112177105Y-59501044D01*
X112175041Y-59271124D01*
X112172875Y-59012242D01*
X112170624Y-58726626D01*
X112168306Y-58416503D01*
X112165938Y-58084103D01*
X112163536Y-57731653D01*
X112161118Y-57361382D01*
X112158701Y-56975519D01*
X112156301Y-56576292D01*
X112153936Y-56165928D01*
X112151623Y-55746657D01*
X112151364Y-55698500D01*
X112149072Y-55281473D01*
X112146734Y-54874870D01*
X112145221Y-54623216D01*
X120155433Y-54623216D01*
X120155601Y-54984898D01*
X120156064Y-55385431D01*
X120156812Y-55826251D01*
X120157216Y-56026583D01*
X120163750Y-59138083D01*
X120213266Y-59260782D01*
X120278365Y-59380259D01*
X120371724Y-59494268D01*
X120372016Y-59494565D01*
X120513590Y-59611312D01*
X120668427Y-59688324D01*
X120834072Y-59724951D01*
X121008074Y-59720543D01*
X121126833Y-59694683D01*
X121269297Y-59632146D01*
X121400368Y-59534465D01*
X121512241Y-59408680D01*
X121590360Y-59276632D01*
X121645417Y-59159250D01*
X121645417Y-52766916D01*
X121584467Y-52634957D01*
X121497075Y-52493318D01*
X121377158Y-52369439D01*
X121233531Y-52271969D01*
X121194949Y-52252740D01*
X121048799Y-52206426D01*
X120890100Y-52192919D01*
X120732794Y-52212229D01*
X120615126Y-52252324D01*
X120458923Y-52346758D01*
X120331840Y-52469989D01*
X120237083Y-52618038D01*
X120177855Y-52786923D01*
X120175282Y-52798666D01*
X120171686Y-52827658D01*
X120168472Y-52879722D01*
X120165633Y-52956291D01*
X120163160Y-53058801D01*
X120161046Y-53188686D01*
X120159282Y-53347381D01*
X120157859Y-53536321D01*
X120156772Y-53756940D01*
X120156010Y-54010672D01*
X120155566Y-54298953D01*
X120155433Y-54623216D01*
X112145221Y-54623216D01*
X112144364Y-54480789D01*
X112141980Y-54101330D01*
X112139598Y-53738594D01*
X112137234Y-53394679D01*
X112134906Y-53071685D01*
X112132629Y-52771712D01*
X112130419Y-52496860D01*
X112128294Y-52249229D01*
X112126270Y-52030917D01*
X112124363Y-51844026D01*
X112122591Y-51690653D01*
X112120968Y-51572900D01*
X112119512Y-51492866D01*
X112118240Y-51452651D01*
X112118012Y-51449599D01*
X112106864Y-51338782D01*
X111468057Y-51333183D01*
X110829250Y-51327583D01*
X110783355Y-49877666D01*
X110775405Y-49626286D01*
X110767684Y-49381685D01*
X110760322Y-49148072D01*
X110753453Y-48929657D01*
X110747208Y-48730649D01*
X110741719Y-48555255D01*
X110737119Y-48407686D01*
X110733538Y-48292149D01*
X110731110Y-48212854D01*
X110730438Y-48190436D01*
X110723417Y-47953123D01*
X110818667Y-47931324D01*
X111019094Y-47888564D01*
X111255888Y-47843367D01*
X111523207Y-47796573D01*
X111815211Y-47749022D01*
X112126058Y-47701555D01*
X112449909Y-47655009D01*
X112780923Y-47610226D01*
X113113258Y-47568045D01*
X113441076Y-47529305D01*
X113758534Y-47494846D01*
X114057167Y-47465747D01*
X114771931Y-47409607D01*
X115501048Y-47369652D01*
X116236139Y-47345934D01*
X116968823Y-47338505D01*
X117690723Y-47347414D01*
G36*
X117690723Y-47347414D02*
G01*
X118393457Y-47372713D01*
X119068648Y-47414453D01*
X119306500Y-47433787D01*
X120177207Y-47525120D01*
X121021630Y-47645523D01*
X121839267Y-47794777D01*
X122629611Y-47972662D01*
X123392160Y-48178958D01*
X124126409Y-48413445D01*
X124831854Y-48675905D01*
X125507989Y-48966118D01*
X126154312Y-49283864D01*
X126770317Y-49628924D01*
X127355501Y-50001077D01*
X127909359Y-50400106D01*
X128431387Y-50825790D01*
X128921081Y-51277909D01*
X129377935Y-51756244D01*
X129466943Y-51856895D01*
X129568845Y-51975776D01*
X129676182Y-52104761D01*
X129785599Y-52239458D01*
X129893739Y-52375475D01*
X129997247Y-52508419D01*
X130092767Y-52633897D01*
X130176944Y-52747519D01*
X130246423Y-52844890D01*
X130297846Y-52921620D01*
X130327860Y-52973315D01*
X130334333Y-52992272D01*
X130313512Y-52994126D01*
X130252432Y-52995928D01*
X130153167Y-52997668D01*
X130017791Y-52999336D01*
X129848378Y-53000923D01*
X129647003Y-53002420D01*
X129415740Y-53003817D01*
X129156662Y-53005105D01*
X128871845Y-53006274D01*
X128563361Y-53007314D01*
X128233286Y-53008217D01*
X127883693Y-53008972D01*
X127516657Y-53009571D01*
X127134252Y-53010003D01*
X126738551Y-53010260D01*
X126383314Y-53010333D01*
X122432295Y-53010333D01*
X122446314Y-53807547D01*
X122448362Y-53946575D01*
X122450320Y-54123467D01*
X122452166Y-54333755D01*
X122453880Y-54572970D01*
X122455438Y-54836642D01*
X122456820Y-55120304D01*
X122458005Y-55419487D01*
X122458970Y-55729721D01*
X122459694Y-56046537D01*
X122460155Y-56365468D01*
X122460332Y-56682044D01*
X122460333Y-56710435D01*
X122460333Y-58816109D01*
X124227750Y-58800490D01*
X124497166Y-58798318D01*
X124754056Y-58796652D01*
X124995321Y-58795490D01*
X125217862Y-58794826D01*
X125418580Y-58794657D01*
X125594376Y-58794980D01*
X125742152Y-58795789D01*
X125858810Y-58797082D01*
X125941249Y-58798854D01*
X125986372Y-58801102D01*
X125994250Y-58802727D01*
X125977615Y-58822138D01*
X125933981Y-58858686D01*
X125871414Y-58905795D01*
X125842476Y-58926416D01*
X125741614Y-59003773D01*
X125622573Y-59105568D01*
X125493984Y-59223480D01*
X125364481Y-59349186D01*
X125242696Y-59474366D01*
X125137261Y-59590697D01*
X125074115Y-59667121D01*
X124893901Y-59919361D01*
X124749877Y-60169284D01*
X124637400Y-60425733D01*
X124572524Y-60622204D01*
X124552607Y-60697785D01*
X124538918Y-60769911D01*
X124530380Y-60849430D01*
X124525916Y-60947190D01*
X124524449Y-61074040D01*
X124524421Y-61106583D01*
X124528391Y-61285187D01*
X124542120Y-61438215D01*
X124568582Y-61577597D01*
X124610749Y-61715264D01*
X124671595Y-61863145D01*
X124754092Y-62033171D01*
X124756512Y-62037916D01*
X124958474Y-62401085D01*
X125178941Y-62736990D01*
X125415282Y-63042350D01*
X125664865Y-63313880D01*
X125925058Y-63548298D01*
X126036567Y-63634673D01*
X126117324Y-63692818D01*
X126200830Y-63749617D01*
X126291708Y-63807761D01*
X126394584Y-63869940D01*
X126514082Y-63938846D01*
X126654827Y-64017169D01*
X126821443Y-64107600D01*
X127018556Y-64212829D01*
X127148750Y-64281740D01*
X127417488Y-64424476D01*
X127654627Y-64552435D01*
X127866612Y-64669408D01*
X128059888Y-64779186D01*
X128240902Y-64885558D01*
X128416098Y-64992316D01*
X128591921Y-65103249D01*
X128774818Y-65222149D01*
X128971233Y-65352805D01*
X128979667Y-65358466D01*
X129374339Y-65630932D01*
X129728842Y-65891335D01*
X130043491Y-66139988D01*
X130318602Y-66377202D01*
X130554490Y-66603289D01*
X130751470Y-66818561D01*
X130909858Y-67023330D01*
X131029969Y-67217907D01*
X131112118Y-67402605D01*
X131139749Y-67494090D01*
X131151424Y-67568796D01*
X131157199Y-67666716D01*
X131155965Y-67769004D01*
X131155938Y-67769518D01*
X131147523Y-67871591D01*
X131132059Y-67948731D01*
X131105272Y-68018247D01*
X131084517Y-68058854D01*
X130978303Y-68212002D01*
X130831724Y-68353857D01*
X130644734Y-68484434D01*
X130417287Y-68603746D01*
X130149338Y-68711807D01*
X129840843Y-68808630D01*
X129491755Y-68894228D01*
X129102030Y-68968616D01*
X128671622Y-69031806D01*
X128200485Y-69083812D01*
X127688575Y-69124647D01*
X127455667Y-69138789D01*
X127333008Y-69144108D01*
X127178009Y-69148504D01*
X126996935Y-69151982D01*
X126796055Y-69154544D01*
X126581637Y-69156194D01*
X126359948Y-69156935D01*
X126137257Y-69156771D01*
X125919831Y-69155705D01*
X125713938Y-69153742D01*
X125525845Y-69150883D01*
X125361821Y-69147134D01*
X125228134Y-69142497D01*
X125137917Y-69137494D01*
X124613899Y-69086153D01*
X124117071Y-69009900D01*
X123639031Y-68906742D01*
X123171377Y-68774687D01*
X122705706Y-68611740D01*
X122399264Y-68487960D01*
X122203014Y-68401643D01*
X121973270Y-68295173D01*
X121712947Y-68169991D01*
X121424963Y-68027538D01*
X121112234Y-67869254D01*
X120777676Y-67696582D01*
X120460083Y-67529939D01*
X120255981Y-67422588D01*
X120083604Y-67333328D01*
X119937636Y-67259754D01*
X119812762Y-67199458D01*
X119703668Y-67150036D01*
X119605038Y-67109079D01*
X119511557Y-67074182D01*
X119417910Y-67042939D01*
X119318782Y-67012943D01*
X119317083Y-67012448D01*
X118979238Y-66931512D01*
X118608731Y-66875324D01*
X118207153Y-66843754D01*
X117776093Y-66836673D01*
X117317141Y-66853949D01*
X116831886Y-66895453D01*
X116321919Y-66961054D01*
X115788830Y-67050621D01*
X115234207Y-67164024D01*
X114659641Y-67301133D01*
X114159377Y-67435481D01*
X113846490Y-67526520D01*
X113515036Y-67628196D01*
X113171981Y-67738085D01*
X112824293Y-67853761D01*
X112478941Y-67972799D01*
X112142891Y-68092772D01*
X111823111Y-68211257D01*
X111526569Y-68325827D01*
X111260233Y-68434058D01*
X111125965Y-68491390D01*
X111049593Y-68523682D01*
X110989556Y-68547156D01*
X110955057Y-68558296D01*
X110950391Y-68558447D01*
X110949272Y-68536517D01*
X110948998Y-68477007D01*
X110949518Y-68384660D01*
X110950783Y-68264220D01*
X110952743Y-68120430D01*
X110955347Y-67958034D01*
X110958547Y-67781775D01*
X110958591Y-67779490D01*
X110973413Y-67007156D01*
X111091831Y-66970015D01*
X111164263Y-66944714D01*
X111259551Y-66907905D01*
X111362069Y-66865727D01*
X111411333Y-66844466D01*
X111675466Y-66711504D01*
X111900776Y-66561897D01*
X112087424Y-66395508D01*
X112235570Y-66212200D01*
X112320135Y-66066328D01*
X112373685Y-65947281D01*
X112414296Y-65829973D01*
X112443895Y-65704965D01*
X112464408Y-65562819D01*
X112477763Y-65394094D01*
X112483512Y-65265833D01*
X112486669Y-65078974D01*
X112480433Y-64923600D01*
X112463035Y-64789556D01*
X112432706Y-64666686D01*
X112387677Y-64544835D01*
X112339900Y-64441301D01*
X112231945Y-64264968D01*
X112084596Y-64091662D01*
X111900787Y-63923892D01*
X111683454Y-63764168D01*
X111435533Y-63615002D01*
X111280009Y-63534861D01*
X111074601Y-63434916D01*
X111073634Y-61937375D01*
X111072667Y-60439833D01*
X112197048Y-60439833D01*
X112185308Y-60138208D01*
X112184007Y-60086527D01*
X112182519Y-59994742D01*
X112180861Y-59865081D01*
X112179051Y-59699772D01*
X112177105Y-59501044D01*
X112175041Y-59271124D01*
X112172875Y-59012242D01*
X112170624Y-58726626D01*
X112168306Y-58416503D01*
X112165938Y-58084103D01*
X112163536Y-57731653D01*
X112161118Y-57361382D01*
X112158701Y-56975519D01*
X112156301Y-56576292D01*
X112153936Y-56165928D01*
X112151623Y-55746657D01*
X112151364Y-55698500D01*
X112149072Y-55281473D01*
X112146734Y-54874870D01*
X112145221Y-54623216D01*
X120155433Y-54623216D01*
X120155601Y-54984898D01*
X120156064Y-55385431D01*
X120156812Y-55826251D01*
X120157216Y-56026583D01*
X120163750Y-59138083D01*
X120213266Y-59260782D01*
X120278365Y-59380259D01*
X120371724Y-59494268D01*
X120372016Y-59494565D01*
X120513590Y-59611312D01*
X120668427Y-59688324D01*
X120834072Y-59724951D01*
X121008074Y-59720543D01*
X121126833Y-59694683D01*
X121269297Y-59632146D01*
X121400368Y-59534465D01*
X121512241Y-59408680D01*
X121590360Y-59276632D01*
X121645417Y-59159250D01*
X121645417Y-52766916D01*
X121584467Y-52634957D01*
X121497075Y-52493318D01*
X121377158Y-52369439D01*
X121233531Y-52271969D01*
X121194949Y-52252740D01*
X121048799Y-52206426D01*
X120890100Y-52192919D01*
X120732794Y-52212229D01*
X120615126Y-52252324D01*
X120458923Y-52346758D01*
X120331840Y-52469989D01*
X120237083Y-52618038D01*
X120177855Y-52786923D01*
X120175282Y-52798666D01*
X120171686Y-52827658D01*
X120168472Y-52879722D01*
X120165633Y-52956291D01*
X120163160Y-53058801D01*
X120161046Y-53188686D01*
X120159282Y-53347381D01*
X120157859Y-53536321D01*
X120156772Y-53756940D01*
X120156010Y-54010672D01*
X120155566Y-54298953D01*
X120155433Y-54623216D01*
X112145221Y-54623216D01*
X112144364Y-54480789D01*
X112141980Y-54101330D01*
X112139598Y-53738594D01*
X112137234Y-53394679D01*
X112134906Y-53071685D01*
X112132629Y-52771712D01*
X112130419Y-52496860D01*
X112128294Y-52249229D01*
X112126270Y-52030917D01*
X112124363Y-51844026D01*
X112122591Y-51690653D01*
X112120968Y-51572900D01*
X112119512Y-51492866D01*
X112118240Y-51452651D01*
X112118012Y-51449599D01*
X112106864Y-51338782D01*
X111468057Y-51333183D01*
X110829250Y-51327583D01*
X110783355Y-49877666D01*
X110775405Y-49626286D01*
X110767684Y-49381685D01*
X110760322Y-49148072D01*
X110753453Y-48929657D01*
X110747208Y-48730649D01*
X110741719Y-48555255D01*
X110737119Y-48407686D01*
X110733538Y-48292149D01*
X110731110Y-48212854D01*
X110730438Y-48190436D01*
X110723417Y-47953123D01*
X110818667Y-47931324D01*
X111019094Y-47888564D01*
X111255888Y-47843367D01*
X111523207Y-47796573D01*
X111815211Y-47749022D01*
X112126058Y-47701555D01*
X112449909Y-47655009D01*
X112780923Y-47610226D01*
X113113258Y-47568045D01*
X113441076Y-47529305D01*
X113758534Y-47494846D01*
X114057167Y-47465747D01*
X114771931Y-47409607D01*
X115501048Y-47369652D01*
X116236139Y-47345934D01*
X116968823Y-47338505D01*
X117690723Y-47347414D01*
G37*
X128348246Y-43383074D02*
X128472054Y-43387177D01*
X128563021Y-43392525D01*
X128630640Y-43400543D01*
X128684405Y-43412659D01*
X128733808Y-43430299D01*
X128770540Y-43446541D01*
X128875009Y-43504270D01*
X128972867Y-43579799D01*
X129071204Y-43679675D01*
X129177108Y-43810445D01*
X129204830Y-43847688D01*
X129328159Y-44003743D01*
X129440094Y-44120317D01*
X129541628Y-44198407D01*
X129568561Y-44213632D01*
X129614731Y-44234644D01*
X129688874Y-44265271D01*
X129779157Y-44300715D01*
X129839700Y-44323620D01*
X130028742Y-44403821D01*
X130181452Y-44491011D01*
X130303690Y-44588762D01*
X130345533Y-44631802D01*
X130389149Y-44682476D01*
X130406990Y-44713612D01*
X130402972Y-44735851D01*
X130389590Y-44751481D01*
X130368852Y-44767020D01*
X130344551Y-44767230D01*
X130307114Y-44748937D01*
X130246967Y-44708972D01*
X130234008Y-44699944D01*
X130149864Y-44641890D01*
X130098762Y-44608648D01*
X130079699Y-44599873D01*
X130091669Y-44615221D01*
X130133668Y-44654345D01*
X130154070Y-44672526D01*
X130256880Y-44766047D01*
X130330285Y-44839786D01*
X130378655Y-44899487D01*
X130406356Y-44950893D01*
X130417758Y-44999747D01*
X130418736Y-45020498D01*
X130409956Y-45090066D01*
X130388031Y-45150579D01*
X130383421Y-45158081D01*
X130347843Y-45210416D01*
X130394005Y-45170094D01*
X130420395Y-45139548D01*
X130434513Y-45098106D01*
X130439775Y-45032844D01*
X130440167Y-44995469D01*
X130441083Y-44922637D01*
X130446487Y-44882445D01*
X130460357Y-44865205D01*
X130486674Y-44861225D01*
X130495329Y-44861166D01*
X130560368Y-44879295D01*
X130632384Y-44928167D01*
X130701927Y-44999509D01*
X130759544Y-45085048D01*
X130766586Y-45098617D01*
X130793258Y-45157946D01*
X130809630Y-45214100D01*
X130818081Y-45280671D01*
X130820989Y-45371249D01*
X130821138Y-45410364D01*
X130812059Y-45591678D01*
X130786483Y-45792179D01*
X130746823Y-46002592D01*
X130695497Y-46213640D01*
X130634919Y-46416050D01*
X130567505Y-46600546D01*
X130495670Y-46757853D01*
X130449046Y-46839110D01*
X130391497Y-46937648D01*
X130363043Y-47013173D01*
X130363760Y-47073492D01*
X130393726Y-47126415D01*
X130452377Y-47179265D01*
X130555626Y-47239430D01*
X130694731Y-47291639D01*
X130826458Y-47325795D01*
X130869563Y-47348904D01*
X130885600Y-47384567D01*
X130871214Y-47418569D01*
X130851185Y-47430652D01*
X130783861Y-47442134D01*
X130688330Y-47439029D01*
X130575899Y-47421931D01*
X130541042Y-47414275D01*
X130440044Y-47379802D01*
X130346609Y-47321894D01*
X130308209Y-47290887D01*
X130225930Y-47223037D01*
X130166324Y-47181011D01*
X130121443Y-47161400D01*
X130083341Y-47160794D01*
X130044069Y-47175785D01*
X130042156Y-47176767D01*
X130003248Y-47200300D01*
X129938398Y-47243189D01*
X129855858Y-47299834D01*
X129763883Y-47364637D01*
X129740340Y-47381486D01*
X129596595Y-47482062D01*
X129479061Y-47557148D01*
X129381872Y-47608876D01*
X129299161Y-47639378D01*
X129225059Y-47650788D01*
X129153700Y-47645238D01*
X129079215Y-47624861D01*
X129074917Y-47623354D01*
X128982242Y-47575552D01*
X128922881Y-47511725D01*
X128900490Y-47436496D01*
X128902510Y-47405423D01*
X128930751Y-47322422D01*
X128981010Y-47269962D01*
X129043855Y-47253000D01*
X129106533Y-47265373D01*
X129134823Y-47299487D01*
X129125950Y-47350832D01*
X129115400Y-47369269D01*
X129092276Y-47410788D01*
X129094544Y-47437303D01*
X129111352Y-47457257D01*
X129138519Y-47477419D01*
X129168983Y-47474542D01*
X129204577Y-47457614D01*
X129242515Y-47431419D01*
X129303177Y-47382460D01*
X129378765Y-47317305D01*
X129461481Y-47242524D01*
X129477083Y-47228027D01*
X129569551Y-47143455D01*
X129665323Y-47058783D01*
X129753162Y-46983782D01*
X129821830Y-46928223D01*
X129822447Y-46927749D01*
X129888885Y-46872183D01*
X129942608Y-46818953D01*
X129973562Y-46778192D01*
X129975905Y-46773053D01*
X129984315Y-46730182D01*
X129990945Y-46656895D01*
X129994920Y-46565101D01*
X129995667Y-46504165D01*
X129996153Y-46406011D01*
X129999103Y-46340357D01*
X130006754Y-46297370D01*
X130021342Y-46267216D01*
X130045106Y-46240063D01*
X130058767Y-46226799D01*
X130112063Y-46169354D01*
X130166519Y-46101301D01*
X130179160Y-46083671D01*
X130212340Y-46031236D01*
X130220910Y-46001087D01*
X130207571Y-45983165D01*
X130206346Y-45982389D01*
X130166724Y-45980898D01*
X130132213Y-46005140D01*
X130088088Y-46035825D01*
X130053588Y-46046500D01*
X130016368Y-46027852D01*
X129967085Y-45975338D01*
X129910122Y-45894096D01*
X129878062Y-45840702D01*
X129855351Y-45797146D01*
X129850977Y-45764756D01*
X129865984Y-45725533D01*
X129886965Y-45687244D01*
X129913867Y-45637118D01*
X129927840Y-45606519D01*
X129928229Y-45602090D01*
X129913679Y-45618011D01*
X129880136Y-45660658D01*
X129833455Y-45722484D01*
X129805167Y-45760750D01*
X129688750Y-45919319D01*
X129569783Y-45919409D01*
X129511684Y-45918303D01*
X129469239Y-45910972D01*
X129431263Y-45891560D01*
X129386573Y-45854209D01*
X129323984Y-45793060D01*
X129318925Y-45788017D01*
X129187033Y-45656534D01*
X129190939Y-45544905D01*
X129938035Y-45544905D01*
X129941596Y-45563243D01*
X129951459Y-45549083D01*
X129969104Y-45492103D01*
X129973012Y-45461276D01*
X129983165Y-45418731D01*
X130008479Y-45354316D01*
X130044029Y-45277461D01*
X130084891Y-45197598D01*
X130126140Y-45124158D01*
X130162851Y-45066572D01*
X130190101Y-45034272D01*
X130197942Y-45030500D01*
X130216582Y-45042180D01*
X130226119Y-45082081D01*
X130228500Y-45146916D01*
X130230698Y-45215006D01*
X130239306Y-45250374D01*
X130257348Y-45262493D01*
X130265542Y-45263009D01*
X130288144Y-45258101D01*
X130276119Y-45245881D01*
X130268483Y-45231583D01*
X130313167Y-45231583D01*
X130323750Y-45242166D01*
X130334333Y-45231583D01*
X130323750Y-45221000D01*
X130313167Y-45231583D01*
X130268483Y-45231583D01*
X130259480Y-45214727D01*
X130252774Y-45158015D01*
X130252998Y-45143751D01*
X130248287Y-45061213D01*
X130227388Y-45017127D01*
X130192085Y-45012258D01*
X130144161Y-45047372D01*
X130113284Y-45083724D01*
X130044050Y-45192770D01*
X129987285Y-45316735D01*
X129950527Y-45437809D01*
X129942448Y-45487299D01*
X129938035Y-45544905D01*
X129190939Y-45544905D01*
X129193728Y-45465225D01*
X129194891Y-45366717D01*
X129192100Y-45272844D01*
X129185950Y-45199899D01*
X129183463Y-45184128D01*
X129176461Y-45115140D01*
X129190111Y-45060377D01*
X129210668Y-45022880D01*
X129240582Y-44953664D01*
X129254673Y-44880083D01*
X129254833Y-44873151D01*
X129260702Y-44809029D01*
X129275006Y-44757439D01*
X129276760Y-44753913D01*
X129318483Y-44711152D01*
X129392704Y-44667999D01*
X129489726Y-44627478D01*
X129599852Y-44592610D01*
X129674379Y-44575416D01*
X130016833Y-44575416D01*
X130027417Y-44586000D01*
X130038000Y-44575416D01*
X130027417Y-44564833D01*
X130016833Y-44575416D01*
X129674379Y-44575416D01*
X129713385Y-44566417D01*
X129820626Y-44551921D01*
X129911879Y-44552143D01*
X129920755Y-44553228D01*
X129970972Y-44559260D01*
X129983219Y-44557057D01*
X129961291Y-44545280D01*
X129953333Y-44541743D01*
X129890538Y-44528438D01*
X129800377Y-44527113D01*
X129695703Y-44536545D01*
X129589371Y-44555509D01*
X129494237Y-44582782D01*
X129484725Y-44586346D01*
X129403415Y-44623681D01*
X129325384Y-44669041D01*
X129288933Y-44695412D01*
X129238461Y-44744425D01*
X129215938Y-44791644D01*
X129211571Y-44836249D01*
X129203151Y-44912426D01*
X129184125Y-44988238D01*
X129183572Y-44989800D01*
X129173599Y-45040539D01*
X129166768Y-45121472D01*
X129162978Y-45222832D01*
X129162129Y-45334850D01*
X129164118Y-45447756D01*
X129168847Y-45551783D01*
X129176213Y-45637161D01*
X129186116Y-45694123D01*
X129190979Y-45707171D01*
X129221515Y-45745857D01*
X129270597Y-45791760D01*
X129286867Y-45804735D01*
X129334425Y-45849840D01*
X129357587Y-45900466D01*
X129359374Y-45968616D01*
X129347267Y-46044706D01*
X129337978Y-46073979D01*
X129318812Y-46101716D01*
X129283841Y-46132692D01*
X129227137Y-46171682D01*
X129142770Y-46223460D01*
X129077392Y-46262074D01*
X128865617Y-46391931D01*
X128652693Y-46532994D01*
X128449927Y-46677350D01*
X128268622Y-46817082D01*
X128183823Y-46887656D01*
X128093872Y-46969226D01*
X128027856Y-47041315D01*
X127974382Y-47117773D01*
X127931160Y-47194866D01*
X127881732Y-47288383D01*
X127845353Y-47348916D01*
X127815055Y-47380781D01*
X127783866Y-47388295D01*
X127744817Y-47375774D01*
X127690939Y-47347535D01*
X127687585Y-47345708D01*
X127622630Y-47305126D01*
X127551257Y-47252433D01*
X127481949Y-47195009D01*
X127423191Y-47140234D01*
X127383470Y-47095489D01*
X127371000Y-47070341D01*
X127387464Y-47024533D01*
X127436821Y-46952208D01*
X127519015Y-46853431D01*
X127633991Y-46728265D01*
X127781694Y-46576777D01*
X127836941Y-46521681D01*
X127940909Y-46416889D01*
X128039204Y-46314622D01*
X128126133Y-46221050D01*
X128196007Y-46142340D01*
X128243134Y-46084661D01*
X128253346Y-46070367D01*
X128314088Y-45965946D01*
X128354216Y-45868539D01*
X128370838Y-45786737D01*
X128365200Y-45738124D01*
X128330512Y-45697779D01*
X128259005Y-45655872D01*
X128156033Y-45614514D01*
X128026951Y-45575818D01*
X127877113Y-45541896D01*
X127859022Y-45538439D01*
X127734319Y-45513583D01*
X127639793Y-45489763D01*
X127563686Y-45462241D01*
X127494237Y-45426282D01*
X127419686Y-45377149D01*
X127371000Y-45341873D01*
X127320369Y-45306576D01*
X127292643Y-45291538D01*
X127292728Y-45299288D01*
X127296027Y-45303242D01*
X127319599Y-45334486D01*
X127327610Y-45362029D01*
X127316157Y-45389343D01*
X127281338Y-45419899D01*
X127219252Y-45457170D01*
X127125996Y-45504626D01*
X127004707Y-45562435D01*
X126867005Y-45645072D01*
X126749733Y-45755659D01*
X126649436Y-45898378D01*
X126562658Y-46077408D01*
X126547637Y-46115291D01*
X126522609Y-46157030D01*
X126486319Y-46170080D01*
X126432292Y-46154259D01*
X126354942Y-46109962D01*
X126279260Y-46055641D01*
X126237130Y-46005665D01*
X126226259Y-45950050D01*
X126244353Y-45878813D01*
X126282572Y-45794961D01*
X126381918Y-45641056D01*
X126516723Y-45501652D01*
X126680954Y-45382839D01*
X126704266Y-45369157D01*
X126768668Y-45330507D01*
X126808086Y-45303418D01*
X126819833Y-45290733D01*
X126801221Y-45295298D01*
X126751875Y-45318765D01*
X126587988Y-45416153D01*
X126453609Y-45527711D01*
X126339389Y-45662749D01*
X126235977Y-45830581D01*
X126233688Y-45834833D01*
X126186069Y-45910435D01*
X126138467Y-45951757D01*
X126084006Y-45959491D01*
X126015813Y-45934333D01*
X125927013Y-45876977D01*
X125913564Y-45867168D01*
X125833221Y-45804073D01*
X125781194Y-45749061D01*
X125756910Y-45694419D01*
X125759796Y-45632435D01*
X125789279Y-45555396D01*
X125844785Y-45455589D01*
X125878858Y-45399974D01*
X125961130Y-45285150D01*
X125972695Y-45273916D01*
X126841833Y-45273916D01*
X126852417Y-45284500D01*
X126863000Y-45273916D01*
X126852417Y-45263333D01*
X126841833Y-45273916D01*
X125972695Y-45273916D01*
X125998116Y-45249222D01*
X126891222Y-45249222D01*
X126894128Y-45261805D01*
X126905333Y-45263333D01*
X126922756Y-45255588D01*
X126919444Y-45249222D01*
X126894324Y-45246688D01*
X126891222Y-45249222D01*
X125998116Y-45249222D01*
X126014295Y-45233506D01*
X126962766Y-45233506D01*
X126983243Y-45235301D01*
X127021750Y-45231221D01*
X127094720Y-45229065D01*
X127162394Y-45237956D01*
X127169917Y-45240057D01*
X127224500Y-45256144D01*
X127243461Y-45258039D01*
X127231391Y-45244779D01*
X127213496Y-45230910D01*
X127157323Y-45208580D01*
X127081691Y-45202233D01*
X127006631Y-45212594D01*
X126979417Y-45222415D01*
X126962766Y-45233506D01*
X126014295Y-45233506D01*
X126050082Y-45198745D01*
X126088333Y-45170458D01*
X126165849Y-45111749D01*
X126242897Y-45044960D01*
X126286408Y-45001821D01*
X126343843Y-44934410D01*
X126405128Y-44854092D01*
X126415548Y-44839278D01*
X127407372Y-44839278D01*
X127417259Y-44856574D01*
X127455683Y-44894076D01*
X127517101Y-44946879D01*
X127595968Y-45010075D01*
X127629622Y-45035994D01*
X127723247Y-45107885D01*
X127811289Y-45176477D01*
X127884972Y-45234868D01*
X127935517Y-45276152D01*
X127942500Y-45282114D01*
X127987350Y-45320271D01*
X128016430Y-45343713D01*
X128021644Y-45347139D01*
X128022606Y-45328020D01*
X128020889Y-45276162D01*
X128016864Y-45201048D01*
X128014439Y-45162791D01*
X128010163Y-45050403D01*
X128015312Y-44966818D01*
X128030818Y-44899368D01*
X128034677Y-44888251D01*
X128067180Y-44798919D01*
X128001930Y-44747853D01*
X127959927Y-44717228D01*
X127928355Y-44707875D01*
X127888660Y-44718195D01*
X127849632Y-44734733D01*
X127785328Y-44756610D01*
X127696989Y-44778904D01*
X127602629Y-44797125D01*
X127593250Y-44798598D01*
X127512227Y-44812425D01*
X127447752Y-44826078D01*
X127411035Y-44837104D01*
X127407372Y-44839278D01*
X126415548Y-44839278D01*
X126465564Y-44768177D01*
X126520454Y-44683973D01*
X126565100Y-44608789D01*
X126594803Y-44549932D01*
X126604865Y-44514713D01*
X126602952Y-44509396D01*
X126580672Y-44515490D01*
X126534857Y-44548728D01*
X126470252Y-44604755D01*
X126391604Y-44679214D01*
X126303657Y-44767748D01*
X126211158Y-44866000D01*
X126194024Y-44884785D01*
X126064796Y-45020809D01*
X125956175Y-45121159D01*
X125867209Y-45186591D01*
X125796946Y-45217865D01*
X125771996Y-45220999D01*
X125724620Y-45208482D01*
X125709101Y-45173785D01*
X125724252Y-45121195D01*
X125768887Y-45054999D01*
X125837780Y-44983176D01*
X125952233Y-44875820D01*
X126055822Y-44773319D01*
X126155780Y-44667793D01*
X126259343Y-44551363D01*
X126373746Y-44416151D01*
X126499655Y-44262388D01*
X126595514Y-44145943D01*
X126608777Y-44130304D01*
X127651430Y-44130304D01*
X127655110Y-44181364D01*
X127683679Y-44270399D01*
X127742038Y-44374065D01*
X127823924Y-44484800D01*
X127923075Y-44595044D01*
X128033230Y-44697236D01*
X128148127Y-44783814D01*
X128160967Y-44792176D01*
X128276955Y-44855434D01*
X128392131Y-44898500D01*
X128497698Y-44919268D01*
X128584857Y-44915632D01*
X128621753Y-44902472D01*
X128647876Y-44879797D01*
X128657270Y-44840968D01*
X128655146Y-44786279D01*
X128641480Y-44725077D01*
X128613973Y-44656301D01*
X128579071Y-44591758D01*
X128543221Y-44543254D01*
X128512869Y-44522598D01*
X128511121Y-44522500D01*
X128493759Y-44537868D01*
X128496110Y-44573964D01*
X128515199Y-44615775D01*
X128533967Y-44637830D01*
X128569282Y-44686563D01*
X128588756Y-44737228D01*
X128589558Y-44803807D01*
X128559324Y-44845006D01*
X128501226Y-44860380D01*
X128418435Y-44849488D01*
X128314125Y-44811885D01*
X128256295Y-44783668D01*
X128122258Y-44702722D01*
X128007100Y-44612503D01*
X127967157Y-44571406D01*
X128051760Y-44571406D01*
X128097566Y-44608497D01*
X128135898Y-44632477D01*
X128158962Y-44635953D01*
X128177274Y-44615566D01*
X128213841Y-44568576D01*
X128262538Y-44502988D01*
X128295066Y-44457992D01*
X128348505Y-44386183D01*
X128394444Y-44329638D01*
X128426561Y-44295870D01*
X128436665Y-44289666D01*
X128467385Y-44302616D01*
X128496017Y-44324297D01*
X128526435Y-44346111D01*
X128541717Y-44336545D01*
X128544489Y-44329589D01*
X128554905Y-44295626D01*
X128572310Y-44235022D01*
X128593772Y-44158431D01*
X128616362Y-44076510D01*
X128637147Y-43999912D01*
X128653197Y-43939294D01*
X128661581Y-43905309D01*
X128662167Y-43901786D01*
X128644917Y-43907648D01*
X128598051Y-43930478D01*
X128528892Y-43966566D01*
X128451602Y-44008436D01*
X128241038Y-44124260D01*
X128296305Y-44171798D01*
X128351572Y-44219337D01*
X128201666Y-44395371D01*
X128051760Y-44571406D01*
X127967157Y-44571406D01*
X127915416Y-44518171D01*
X127851802Y-44424884D01*
X127820854Y-44337801D01*
X127819541Y-44293349D01*
X127825558Y-44262212D01*
X127841354Y-44245480D01*
X127877326Y-44238960D01*
X127943871Y-44238458D01*
X127955243Y-44238615D01*
X128084403Y-44240480D01*
X128061076Y-44177316D01*
X128016663Y-44116389D01*
X127937724Y-44073782D01*
X127828866Y-44051662D01*
X127788851Y-44049275D01*
X127710425Y-44054600D01*
X127666389Y-44079860D01*
X127651430Y-44130304D01*
X126608777Y-44130304D01*
X126691053Y-44033296D01*
X126780283Y-43931256D01*
X126857218Y-43846632D01*
X126915871Y-43786234D01*
X126929973Y-43772980D01*
X127096892Y-43644693D01*
X127286347Y-43542640D01*
X127500948Y-43466103D01*
X127743307Y-43414365D01*
X128016036Y-43386708D01*
X128321744Y-43382415D01*
X128348246Y-43383074D01*
G36*
X128348246Y-43383074D02*
G01*
X128472054Y-43387177D01*
X128563021Y-43392525D01*
X128630640Y-43400543D01*
X128684405Y-43412659D01*
X128733808Y-43430299D01*
X128770540Y-43446541D01*
X128875009Y-43504270D01*
X128972867Y-43579799D01*
X129071204Y-43679675D01*
X129177108Y-43810445D01*
X129204830Y-43847688D01*
X129328159Y-44003743D01*
X129440094Y-44120317D01*
X129541628Y-44198407D01*
X129568561Y-44213632D01*
X129614731Y-44234644D01*
X129688874Y-44265271D01*
X129779157Y-44300715D01*
X129839700Y-44323620D01*
X130028742Y-44403821D01*
X130181452Y-44491011D01*
X130303690Y-44588762D01*
X130345533Y-44631802D01*
X130389149Y-44682476D01*
X130406990Y-44713612D01*
X130402972Y-44735851D01*
X130389590Y-44751481D01*
X130368852Y-44767020D01*
X130344551Y-44767230D01*
X130307114Y-44748937D01*
X130246967Y-44708972D01*
X130234008Y-44699944D01*
X130149864Y-44641890D01*
X130098762Y-44608648D01*
X130079699Y-44599873D01*
X130091669Y-44615221D01*
X130133668Y-44654345D01*
X130154070Y-44672526D01*
X130256880Y-44766047D01*
X130330285Y-44839786D01*
X130378655Y-44899487D01*
X130406356Y-44950893D01*
X130417758Y-44999747D01*
X130418736Y-45020498D01*
X130409956Y-45090066D01*
X130388031Y-45150579D01*
X130383421Y-45158081D01*
X130347843Y-45210416D01*
X130394005Y-45170094D01*
X130420395Y-45139548D01*
X130434513Y-45098106D01*
X130439775Y-45032844D01*
X130440167Y-44995469D01*
X130441083Y-44922637D01*
X130446487Y-44882445D01*
X130460357Y-44865205D01*
X130486674Y-44861225D01*
X130495329Y-44861166D01*
X130560368Y-44879295D01*
X130632384Y-44928167D01*
X130701927Y-44999509D01*
X130759544Y-45085048D01*
X130766586Y-45098617D01*
X130793258Y-45157946D01*
X130809630Y-45214100D01*
X130818081Y-45280671D01*
X130820989Y-45371249D01*
X130821138Y-45410364D01*
X130812059Y-45591678D01*
X130786483Y-45792179D01*
X130746823Y-46002592D01*
X130695497Y-46213640D01*
X130634919Y-46416050D01*
X130567505Y-46600546D01*
X130495670Y-46757853D01*
X130449046Y-46839110D01*
X130391497Y-46937648D01*
X130363043Y-47013173D01*
X130363760Y-47073492D01*
X130393726Y-47126415D01*
X130452377Y-47179265D01*
X130555626Y-47239430D01*
X130694731Y-47291639D01*
X130826458Y-47325795D01*
X130869563Y-47348904D01*
X130885600Y-47384567D01*
X130871214Y-47418569D01*
X130851185Y-47430652D01*
X130783861Y-47442134D01*
X130688330Y-47439029D01*
X130575899Y-47421931D01*
X130541042Y-47414275D01*
X130440044Y-47379802D01*
X130346609Y-47321894D01*
X130308209Y-47290887D01*
X130225930Y-47223037D01*
X130166324Y-47181011D01*
X130121443Y-47161400D01*
X130083341Y-47160794D01*
X130044069Y-47175785D01*
X130042156Y-47176767D01*
X130003248Y-47200300D01*
X129938398Y-47243189D01*
X129855858Y-47299834D01*
X129763883Y-47364637D01*
X129740340Y-47381486D01*
X129596595Y-47482062D01*
X129479061Y-47557148D01*
X129381872Y-47608876D01*
X129299161Y-47639378D01*
X129225059Y-47650788D01*
X129153700Y-47645238D01*
X129079215Y-47624861D01*
X129074917Y-47623354D01*
X128982242Y-47575552D01*
X128922881Y-47511725D01*
X128900490Y-47436496D01*
X128902510Y-47405423D01*
X128930751Y-47322422D01*
X128981010Y-47269962D01*
X129043855Y-47253000D01*
X129106533Y-47265373D01*
X129134823Y-47299487D01*
X129125950Y-47350832D01*
X129115400Y-47369269D01*
X129092276Y-47410788D01*
X129094544Y-47437303D01*
X129111352Y-47457257D01*
X129138519Y-47477419D01*
X129168983Y-47474542D01*
X129204577Y-47457614D01*
X129242515Y-47431419D01*
X129303177Y-47382460D01*
X129378765Y-47317305D01*
X129461481Y-47242524D01*
X129477083Y-47228027D01*
X129569551Y-47143455D01*
X129665323Y-47058783D01*
X129753162Y-46983782D01*
X129821830Y-46928223D01*
X129822447Y-46927749D01*
X129888885Y-46872183D01*
X129942608Y-46818953D01*
X129973562Y-46778192D01*
X129975905Y-46773053D01*
X129984315Y-46730182D01*
X129990945Y-46656895D01*
X129994920Y-46565101D01*
X129995667Y-46504165D01*
X129996153Y-46406011D01*
X129999103Y-46340357D01*
X130006754Y-46297370D01*
X130021342Y-46267216D01*
X130045106Y-46240063D01*
X130058767Y-46226799D01*
X130112063Y-46169354D01*
X130166519Y-46101301D01*
X130179160Y-46083671D01*
X130212340Y-46031236D01*
X130220910Y-46001087D01*
X130207571Y-45983165D01*
X130206346Y-45982389D01*
X130166724Y-45980898D01*
X130132213Y-46005140D01*
X130088088Y-46035825D01*
X130053588Y-46046500D01*
X130016368Y-46027852D01*
X129967085Y-45975338D01*
X129910122Y-45894096D01*
X129878062Y-45840702D01*
X129855351Y-45797146D01*
X129850977Y-45764756D01*
X129865984Y-45725533D01*
X129886965Y-45687244D01*
X129913867Y-45637118D01*
X129927840Y-45606519D01*
X129928229Y-45602090D01*
X129913679Y-45618011D01*
X129880136Y-45660658D01*
X129833455Y-45722484D01*
X129805167Y-45760750D01*
X129688750Y-45919319D01*
X129569783Y-45919409D01*
X129511684Y-45918303D01*
X129469239Y-45910972D01*
X129431263Y-45891560D01*
X129386573Y-45854209D01*
X129323984Y-45793060D01*
X129318925Y-45788017D01*
X129187033Y-45656534D01*
X129190939Y-45544905D01*
X129938035Y-45544905D01*
X129941596Y-45563243D01*
X129951459Y-45549083D01*
X129969104Y-45492103D01*
X129973012Y-45461276D01*
X129983165Y-45418731D01*
X130008479Y-45354316D01*
X130044029Y-45277461D01*
X130084891Y-45197598D01*
X130126140Y-45124158D01*
X130162851Y-45066572D01*
X130190101Y-45034272D01*
X130197942Y-45030500D01*
X130216582Y-45042180D01*
X130226119Y-45082081D01*
X130228500Y-45146916D01*
X130230698Y-45215006D01*
X130239306Y-45250374D01*
X130257348Y-45262493D01*
X130265542Y-45263009D01*
X130288144Y-45258101D01*
X130276119Y-45245881D01*
X130268483Y-45231583D01*
X130313167Y-45231583D01*
X130323750Y-45242166D01*
X130334333Y-45231583D01*
X130323750Y-45221000D01*
X130313167Y-45231583D01*
X130268483Y-45231583D01*
X130259480Y-45214727D01*
X130252774Y-45158015D01*
X130252998Y-45143751D01*
X130248287Y-45061213D01*
X130227388Y-45017127D01*
X130192085Y-45012258D01*
X130144161Y-45047372D01*
X130113284Y-45083724D01*
X130044050Y-45192770D01*
X129987285Y-45316735D01*
X129950527Y-45437809D01*
X129942448Y-45487299D01*
X129938035Y-45544905D01*
X129190939Y-45544905D01*
X129193728Y-45465225D01*
X129194891Y-45366717D01*
X129192100Y-45272844D01*
X129185950Y-45199899D01*
X129183463Y-45184128D01*
X129176461Y-45115140D01*
X129190111Y-45060377D01*
X129210668Y-45022880D01*
X129240582Y-44953664D01*
X129254673Y-44880083D01*
X129254833Y-44873151D01*
X129260702Y-44809029D01*
X129275006Y-44757439D01*
X129276760Y-44753913D01*
X129318483Y-44711152D01*
X129392704Y-44667999D01*
X129489726Y-44627478D01*
X129599852Y-44592610D01*
X129674379Y-44575416D01*
X130016833Y-44575416D01*
X130027417Y-44586000D01*
X130038000Y-44575416D01*
X130027417Y-44564833D01*
X130016833Y-44575416D01*
X129674379Y-44575416D01*
X129713385Y-44566417D01*
X129820626Y-44551921D01*
X129911879Y-44552143D01*
X129920755Y-44553228D01*
X129970972Y-44559260D01*
X129983219Y-44557057D01*
X129961291Y-44545280D01*
X129953333Y-44541743D01*
X129890538Y-44528438D01*
X129800377Y-44527113D01*
X129695703Y-44536545D01*
X129589371Y-44555509D01*
X129494237Y-44582782D01*
X129484725Y-44586346D01*
X129403415Y-44623681D01*
X129325384Y-44669041D01*
X129288933Y-44695412D01*
X129238461Y-44744425D01*
X129215938Y-44791644D01*
X129211571Y-44836249D01*
X129203151Y-44912426D01*
X129184125Y-44988238D01*
X129183572Y-44989800D01*
X129173599Y-45040539D01*
X129166768Y-45121472D01*
X129162978Y-45222832D01*
X129162129Y-45334850D01*
X129164118Y-45447756D01*
X129168847Y-45551783D01*
X129176213Y-45637161D01*
X129186116Y-45694123D01*
X129190979Y-45707171D01*
X129221515Y-45745857D01*
X129270597Y-45791760D01*
X129286867Y-45804735D01*
X129334425Y-45849840D01*
X129357587Y-45900466D01*
X129359374Y-45968616D01*
X129347267Y-46044706D01*
X129337978Y-46073979D01*
X129318812Y-46101716D01*
X129283841Y-46132692D01*
X129227137Y-46171682D01*
X129142770Y-46223460D01*
X129077392Y-46262074D01*
X128865617Y-46391931D01*
X128652693Y-46532994D01*
X128449927Y-46677350D01*
X128268622Y-46817082D01*
X128183823Y-46887656D01*
X128093872Y-46969226D01*
X128027856Y-47041315D01*
X127974382Y-47117773D01*
X127931160Y-47194866D01*
X127881732Y-47288383D01*
X127845353Y-47348916D01*
X127815055Y-47380781D01*
X127783866Y-47388295D01*
X127744817Y-47375774D01*
X127690939Y-47347535D01*
X127687585Y-47345708D01*
X127622630Y-47305126D01*
X127551257Y-47252433D01*
X127481949Y-47195009D01*
X127423191Y-47140234D01*
X127383470Y-47095489D01*
X127371000Y-47070341D01*
X127387464Y-47024533D01*
X127436821Y-46952208D01*
X127519015Y-46853431D01*
X127633991Y-46728265D01*
X127781694Y-46576777D01*
X127836941Y-46521681D01*
X127940909Y-46416889D01*
X128039204Y-46314622D01*
X128126133Y-46221050D01*
X128196007Y-46142340D01*
X128243134Y-46084661D01*
X128253346Y-46070367D01*
X128314088Y-45965946D01*
X128354216Y-45868539D01*
X128370838Y-45786737D01*
X128365200Y-45738124D01*
X128330512Y-45697779D01*
X128259005Y-45655872D01*
X128156033Y-45614514D01*
X128026951Y-45575818D01*
X127877113Y-45541896D01*
X127859022Y-45538439D01*
X127734319Y-45513583D01*
X127639793Y-45489763D01*
X127563686Y-45462241D01*
X127494237Y-45426282D01*
X127419686Y-45377149D01*
X127371000Y-45341873D01*
X127320369Y-45306576D01*
X127292643Y-45291538D01*
X127292728Y-45299288D01*
X127296027Y-45303242D01*
X127319599Y-45334486D01*
X127327610Y-45362029D01*
X127316157Y-45389343D01*
X127281338Y-45419899D01*
X127219252Y-45457170D01*
X127125996Y-45504626D01*
X127004707Y-45562435D01*
X126867005Y-45645072D01*
X126749733Y-45755659D01*
X126649436Y-45898378D01*
X126562658Y-46077408D01*
X126547637Y-46115291D01*
X126522609Y-46157030D01*
X126486319Y-46170080D01*
X126432292Y-46154259D01*
X126354942Y-46109962D01*
X126279260Y-46055641D01*
X126237130Y-46005665D01*
X126226259Y-45950050D01*
X126244353Y-45878813D01*
X126282572Y-45794961D01*
X126381918Y-45641056D01*
X126516723Y-45501652D01*
X126680954Y-45382839D01*
X126704266Y-45369157D01*
X126768668Y-45330507D01*
X126808086Y-45303418D01*
X126819833Y-45290733D01*
X126801221Y-45295298D01*
X126751875Y-45318765D01*
X126587988Y-45416153D01*
X126453609Y-45527711D01*
X126339389Y-45662749D01*
X126235977Y-45830581D01*
X126233688Y-45834833D01*
X126186069Y-45910435D01*
X126138467Y-45951757D01*
X126084006Y-45959491D01*
X126015813Y-45934333D01*
X125927013Y-45876977D01*
X125913564Y-45867168D01*
X125833221Y-45804073D01*
X125781194Y-45749061D01*
X125756910Y-45694419D01*
X125759796Y-45632435D01*
X125789279Y-45555396D01*
X125844785Y-45455589D01*
X125878858Y-45399974D01*
X125961130Y-45285150D01*
X125972695Y-45273916D01*
X126841833Y-45273916D01*
X126852417Y-45284500D01*
X126863000Y-45273916D01*
X126852417Y-45263333D01*
X126841833Y-45273916D01*
X125972695Y-45273916D01*
X125998116Y-45249222D01*
X126891222Y-45249222D01*
X126894128Y-45261805D01*
X126905333Y-45263333D01*
X126922756Y-45255588D01*
X126919444Y-45249222D01*
X126894324Y-45246688D01*
X126891222Y-45249222D01*
X125998116Y-45249222D01*
X126014295Y-45233506D01*
X126962766Y-45233506D01*
X126983243Y-45235301D01*
X127021750Y-45231221D01*
X127094720Y-45229065D01*
X127162394Y-45237956D01*
X127169917Y-45240057D01*
X127224500Y-45256144D01*
X127243461Y-45258039D01*
X127231391Y-45244779D01*
X127213496Y-45230910D01*
X127157323Y-45208580D01*
X127081691Y-45202233D01*
X127006631Y-45212594D01*
X126979417Y-45222415D01*
X126962766Y-45233506D01*
X126014295Y-45233506D01*
X126050082Y-45198745D01*
X126088333Y-45170458D01*
X126165849Y-45111749D01*
X126242897Y-45044960D01*
X126286408Y-45001821D01*
X126343843Y-44934410D01*
X126405128Y-44854092D01*
X126415548Y-44839278D01*
X127407372Y-44839278D01*
X127417259Y-44856574D01*
X127455683Y-44894076D01*
X127517101Y-44946879D01*
X127595968Y-45010075D01*
X127629622Y-45035994D01*
X127723247Y-45107885D01*
X127811289Y-45176477D01*
X127884972Y-45234868D01*
X127935517Y-45276152D01*
X127942500Y-45282114D01*
X127987350Y-45320271D01*
X128016430Y-45343713D01*
X128021644Y-45347139D01*
X128022606Y-45328020D01*
X128020889Y-45276162D01*
X128016864Y-45201048D01*
X128014439Y-45162791D01*
X128010163Y-45050403D01*
X128015312Y-44966818D01*
X128030818Y-44899368D01*
X128034677Y-44888251D01*
X128067180Y-44798919D01*
X128001930Y-44747853D01*
X127959927Y-44717228D01*
X127928355Y-44707875D01*
X127888660Y-44718195D01*
X127849632Y-44734733D01*
X127785328Y-44756610D01*
X127696989Y-44778904D01*
X127602629Y-44797125D01*
X127593250Y-44798598D01*
X127512227Y-44812425D01*
X127447752Y-44826078D01*
X127411035Y-44837104D01*
X127407372Y-44839278D01*
X126415548Y-44839278D01*
X126465564Y-44768177D01*
X126520454Y-44683973D01*
X126565100Y-44608789D01*
X126594803Y-44549932D01*
X126604865Y-44514713D01*
X126602952Y-44509396D01*
X126580672Y-44515490D01*
X126534857Y-44548728D01*
X126470252Y-44604755D01*
X126391604Y-44679214D01*
X126303657Y-44767748D01*
X126211158Y-44866000D01*
X126194024Y-44884785D01*
X126064796Y-45020809D01*
X125956175Y-45121159D01*
X125867209Y-45186591D01*
X125796946Y-45217865D01*
X125771996Y-45220999D01*
X125724620Y-45208482D01*
X125709101Y-45173785D01*
X125724252Y-45121195D01*
X125768887Y-45054999D01*
X125837780Y-44983176D01*
X125952233Y-44875820D01*
X126055822Y-44773319D01*
X126155780Y-44667793D01*
X126259343Y-44551363D01*
X126373746Y-44416151D01*
X126499655Y-44262388D01*
X126595514Y-44145943D01*
X126608777Y-44130304D01*
X127651430Y-44130304D01*
X127655110Y-44181364D01*
X127683679Y-44270399D01*
X127742038Y-44374065D01*
X127823924Y-44484800D01*
X127923075Y-44595044D01*
X128033230Y-44697236D01*
X128148127Y-44783814D01*
X128160967Y-44792176D01*
X128276955Y-44855434D01*
X128392131Y-44898500D01*
X128497698Y-44919268D01*
X128584857Y-44915632D01*
X128621753Y-44902472D01*
X128647876Y-44879797D01*
X128657270Y-44840968D01*
X128655146Y-44786279D01*
X128641480Y-44725077D01*
X128613973Y-44656301D01*
X128579071Y-44591758D01*
X128543221Y-44543254D01*
X128512869Y-44522598D01*
X128511121Y-44522500D01*
X128493759Y-44537868D01*
X128496110Y-44573964D01*
X128515199Y-44615775D01*
X128533967Y-44637830D01*
X128569282Y-44686563D01*
X128588756Y-44737228D01*
X128589558Y-44803807D01*
X128559324Y-44845006D01*
X128501226Y-44860380D01*
X128418435Y-44849488D01*
X128314125Y-44811885D01*
X128256295Y-44783668D01*
X128122258Y-44702722D01*
X128007100Y-44612503D01*
X127967157Y-44571406D01*
X128051760Y-44571406D01*
X128097566Y-44608497D01*
X128135898Y-44632477D01*
X128158962Y-44635953D01*
X128177274Y-44615566D01*
X128213841Y-44568576D01*
X128262538Y-44502988D01*
X128295066Y-44457992D01*
X128348505Y-44386183D01*
X128394444Y-44329638D01*
X128426561Y-44295870D01*
X128436665Y-44289666D01*
X128467385Y-44302616D01*
X128496017Y-44324297D01*
X128526435Y-44346111D01*
X128541717Y-44336545D01*
X128544489Y-44329589D01*
X128554905Y-44295626D01*
X128572310Y-44235022D01*
X128593772Y-44158431D01*
X128616362Y-44076510D01*
X128637147Y-43999912D01*
X128653197Y-43939294D01*
X128661581Y-43905309D01*
X128662167Y-43901786D01*
X128644917Y-43907648D01*
X128598051Y-43930478D01*
X128528892Y-43966566D01*
X128451602Y-44008436D01*
X128241038Y-44124260D01*
X128296305Y-44171798D01*
X128351572Y-44219337D01*
X128201666Y-44395371D01*
X128051760Y-44571406D01*
X127967157Y-44571406D01*
X127915416Y-44518171D01*
X127851802Y-44424884D01*
X127820854Y-44337801D01*
X127819541Y-44293349D01*
X127825558Y-44262212D01*
X127841354Y-44245480D01*
X127877326Y-44238960D01*
X127943871Y-44238458D01*
X127955243Y-44238615D01*
X128084403Y-44240480D01*
X128061076Y-44177316D01*
X128016663Y-44116389D01*
X127937724Y-44073782D01*
X127828866Y-44051662D01*
X127788851Y-44049275D01*
X127710425Y-44054600D01*
X127666389Y-44079860D01*
X127651430Y-44130304D01*
X126608777Y-44130304D01*
X126691053Y-44033296D01*
X126780283Y-43931256D01*
X126857218Y-43846632D01*
X126915871Y-43786234D01*
X126929973Y-43772980D01*
X127096892Y-43644693D01*
X127286347Y-43542640D01*
X127500948Y-43466103D01*
X127743307Y-43414365D01*
X128016036Y-43386708D01*
X128321744Y-43382415D01*
X128348246Y-43383074D01*
G37*
D10*
%TO.C,R3*%
X94872936Y-49365000D02*
X95327064Y-49365000D01*
X94872936Y-50835000D02*
X95327064Y-50835000D01*
%TO.C,D5*%
X158790000Y-57447500D02*
X160710000Y-57447500D01*
X160710000Y-57447500D02*
X160710000Y-54762500D01*
X158790000Y-54762500D02*
X158790000Y-57447500D01*
%TO.C,D3*%
X167310000Y-54077500D02*
X165390000Y-54077500D01*
X165390000Y-54077500D02*
X165390000Y-56762500D01*
X167310000Y-56762500D02*
X167310000Y-54077500D01*
%TO.C,R2*%
X107385000Y-45177064D02*
X107385000Y-44722936D01*
X105915000Y-45177064D02*
X105915000Y-44722936D01*
%TO.C,R1*%
X103165000Y-46572936D02*
X103165000Y-47027064D01*
X104635000Y-46572936D02*
X104635000Y-47027064D01*
%TD*%
M02*
