%TF.GenerationSoftware,KiCad,Pcbnew,7.0.5-4d25ed1034~172~ubuntu22.04.1*%
%TF.CreationDate,2023-06-16T00:18:41+02:00*%
%TF.ProjectId,guitarra,67756974-6172-4726-912e-6b696361645f,rev?*%
%TF.SameCoordinates,Original*%
%TF.FileFunction,Legend,Top*%
%TF.FilePolarity,Positive*%
%FSLAX46Y46*%
G04 Gerber Fmt 4.6, Leading zero omitted, Abs format (unit mm)*
G04 Created by KiCad (PCBNEW 7.0.5-4d25ed1034~172~ubuntu22.04.1) date 2023-06-16 00:18:41*
%MOMM*%
%LPD*%
G01*
G04 APERTURE LIST*
%ADD10C,0.120000*%
%ADD11C,0.010000*%
G04 APERTURE END LIST*
%TO.C,G\u002A\u002A\u002A*%
G36*
X96558768Y-51746229D02*
G01*
X96725447Y-51748263D01*
X96884346Y-51754900D01*
X97032005Y-51766521D01*
X97173733Y-51783609D01*
X97314840Y-51806652D01*
X97405556Y-51824393D01*
X97449984Y-51833538D01*
X97489147Y-51841518D01*
X97515172Y-51846728D01*
X97516667Y-51847019D01*
X97546818Y-51853996D01*
X97593201Y-51866083D01*
X97650806Y-51881853D01*
X97714626Y-51899881D01*
X97779651Y-51918742D01*
X97840873Y-51937011D01*
X97893283Y-51953262D01*
X97916429Y-51960787D01*
X98200042Y-52066923D01*
X98474526Y-52193093D01*
X98739178Y-52338766D01*
X98993291Y-52503411D01*
X99236159Y-52686498D01*
X99389712Y-52820155D01*
X99467078Y-52887496D01*
X99685341Y-53105873D01*
X99890244Y-53341101D01*
X100075587Y-53584898D01*
X100117482Y-53646770D01*
X100166209Y-53723447D01*
X100218765Y-53809807D01*
X100272144Y-53900727D01*
X100323342Y-53991087D01*
X100369356Y-54075764D01*
X100407181Y-54149635D01*
X100408905Y-54153162D01*
X100442149Y-54223838D01*
X100477937Y-54304164D01*
X100514183Y-54389073D01*
X100548804Y-54473497D01*
X100579715Y-54552368D01*
X100604832Y-54620620D01*
X100620119Y-54666666D01*
X100650916Y-54768544D01*
X100676109Y-54854405D01*
X100697039Y-54929344D01*
X100715046Y-54998455D01*
X100731469Y-55066831D01*
X100747649Y-55139566D01*
X100760422Y-55200000D01*
X100769809Y-55250671D01*
X100780694Y-55318600D01*
X100792377Y-55398931D01*
X100804159Y-55486808D01*
X100815341Y-55577374D01*
X100817976Y-55600000D01*
X100822739Y-55656265D01*
X100826461Y-55730290D01*
X100829145Y-55817730D01*
X100830791Y-55914241D01*
X100831399Y-56015479D01*
X100830971Y-56117102D01*
X100829505Y-56214763D01*
X100827004Y-56304121D01*
X100823467Y-56380830D01*
X100818896Y-56440547D01*
X100817866Y-56450000D01*
X100786577Y-56681681D01*
X100748003Y-56897286D01*
X100700703Y-57102177D01*
X100643232Y-57301718D01*
X100574149Y-57501272D01*
X100492010Y-57706203D01*
X100460220Y-57779488D01*
X100385562Y-57937610D01*
X100300833Y-58098010D01*
X100210213Y-58253265D01*
X100117880Y-58395948D01*
X100093992Y-58430234D01*
X100068184Y-58467167D01*
X100042772Y-58504312D01*
X100034491Y-58516666D01*
X99970423Y-58606394D01*
X99891519Y-58705868D01*
X99800929Y-58811789D01*
X99701808Y-58920858D01*
X99597308Y-59029775D01*
X99490582Y-59135241D01*
X99384782Y-59233958D01*
X99283062Y-59322626D01*
X99202225Y-59387580D01*
X98973123Y-59554021D01*
X98745005Y-59700852D01*
X98514078Y-59830166D01*
X98276547Y-59944057D01*
X98028620Y-60044616D01*
X97977778Y-60063196D01*
X97931348Y-60079767D01*
X97892518Y-60093230D01*
X97856502Y-60105049D01*
X97818515Y-60116685D01*
X97773769Y-60129601D01*
X97717480Y-60145259D01*
X97644861Y-60165123D01*
X97638889Y-60166750D01*
X97393149Y-60224014D01*
X97135289Y-60265819D01*
X96869282Y-60292035D01*
X96599095Y-60302533D01*
X96328701Y-60297183D01*
X96062069Y-60275854D01*
X95803168Y-60238418D01*
X95750000Y-60228469D01*
X95708424Y-60220442D01*
X95660191Y-60211237D01*
X95638889Y-60207208D01*
X95596227Y-60198144D01*
X95543798Y-60185583D01*
X95494445Y-60172645D01*
X95443041Y-60158504D01*
X95389768Y-60143972D01*
X95348029Y-60132696D01*
X95291882Y-60115995D01*
X95220536Y-60092269D01*
X95139134Y-60063436D01*
X95052819Y-60031413D01*
X94966734Y-59998121D01*
X94886024Y-59965476D01*
X94815830Y-59935399D01*
X94800000Y-59928265D01*
X94661504Y-59862614D01*
X94532722Y-59796071D01*
X94407925Y-59725318D01*
X94281380Y-59647039D01*
X94147356Y-59557918D01*
X94083334Y-59513571D01*
X93846510Y-59334331D01*
X93622592Y-59137628D01*
X93412519Y-58924722D01*
X93348227Y-58849711D01*
X93707848Y-58849711D01*
X93709258Y-58866528D01*
X93723938Y-58870762D01*
X93741667Y-58868441D01*
X93770231Y-58862146D01*
X93811611Y-58851834D01*
X93857273Y-58839641D01*
X93861112Y-58838577D01*
X93912877Y-58824334D01*
X93974379Y-58807636D01*
X94033861Y-58791671D01*
X94044445Y-58788856D01*
X94099933Y-58774072D01*
X94166421Y-58756275D01*
X94233461Y-58738266D01*
X94266667Y-58729314D01*
X94331544Y-58711824D01*
X94403480Y-58692471D01*
X94471089Y-58674317D01*
X94499923Y-58666590D01*
X94546873Y-58653774D01*
X94585580Y-58642748D01*
X94611148Y-58634933D01*
X94618625Y-58632123D01*
X94633398Y-58627110D01*
X94661457Y-58620118D01*
X94674258Y-58617324D01*
X94695522Y-58612668D01*
X94720706Y-58606709D01*
X94752287Y-58598793D01*
X94792742Y-58588266D01*
X94824780Y-58579738D01*
X95727801Y-58579738D01*
X95733376Y-58595026D01*
X95737628Y-58600555D01*
X95747304Y-58614876D01*
X95764057Y-58643302D01*
X95784630Y-58680263D01*
X95789292Y-58688888D01*
X95824573Y-58754153D01*
X95858805Y-58816820D01*
X95890169Y-58873618D01*
X95916843Y-58921276D01*
X95937009Y-58956522D01*
X95948845Y-58976085D01*
X95950016Y-58977777D01*
X95959225Y-58992678D01*
X95975446Y-59020942D01*
X95994677Y-59055555D01*
X96015133Y-59092658D01*
X96043594Y-59143938D01*
X96077162Y-59204210D01*
X96112940Y-59268285D01*
X96148032Y-59330976D01*
X96179542Y-59387096D01*
X96204572Y-59431458D01*
X96205634Y-59433333D01*
X96219678Y-59458359D01*
X96242427Y-59499196D01*
X96271863Y-59552192D01*
X96305963Y-59613695D01*
X96342708Y-59680054D01*
X96380077Y-59747617D01*
X96416049Y-59812733D01*
X96448604Y-59871750D01*
X96475721Y-59921017D01*
X96495380Y-59956883D01*
X96497686Y-59961111D01*
X96522563Y-60005444D01*
X96540050Y-60032917D01*
X96552390Y-60046693D01*
X96560706Y-60050000D01*
X96569795Y-60041004D01*
X96585257Y-60017661D01*
X96600092Y-59991666D01*
X96620051Y-59955848D01*
X96647146Y-59908886D01*
X96676862Y-59858560D01*
X96690747Y-59835466D01*
X96715357Y-59794500D01*
X96734972Y-59761242D01*
X96747170Y-59739836D01*
X96750000Y-59734092D01*
X96753065Y-59727893D01*
X96762588Y-59710640D01*
X96779063Y-59681474D01*
X96802983Y-59639537D01*
X96834841Y-59583970D01*
X96875132Y-59513914D01*
X96924349Y-59428512D01*
X96982984Y-59326903D01*
X97051533Y-59208231D01*
X97130487Y-59071635D01*
X97175122Y-58994444D01*
X97230245Y-58899115D01*
X97275264Y-58821220D01*
X97311199Y-58758958D01*
X97339075Y-58710527D01*
X97359914Y-58674126D01*
X97374739Y-58647954D01*
X97384571Y-58630209D01*
X97390435Y-58619090D01*
X97393352Y-58612796D01*
X97394346Y-58609526D01*
X97394445Y-58608140D01*
X97401019Y-58595943D01*
X97413889Y-58579814D01*
X97426481Y-58564203D01*
X97421866Y-58560825D01*
X97405556Y-58563901D01*
X97381477Y-58569808D01*
X97343697Y-58579810D01*
X97299878Y-58591874D01*
X97294445Y-58593400D01*
X97186410Y-58622432D01*
X97088847Y-58645161D01*
X96996428Y-58662272D01*
X96903826Y-58674446D01*
X96805713Y-58682369D01*
X96696764Y-58686724D01*
X96571650Y-58688194D01*
X96555556Y-58688209D01*
X96450487Y-58687782D01*
X96362651Y-58686115D01*
X96287067Y-58682624D01*
X96218756Y-58676729D01*
X96152738Y-58667847D01*
X96084032Y-58655397D01*
X96007660Y-58638796D01*
X95918640Y-58617463D01*
X95890540Y-58610505D01*
X95835274Y-58596831D01*
X95788173Y-58585315D01*
X95753201Y-58576917D01*
X95734327Y-58572596D01*
X95732206Y-58572222D01*
X95727801Y-58579738D01*
X94824780Y-58579738D01*
X94844549Y-58574476D01*
X94910185Y-58556769D01*
X94992128Y-58534491D01*
X95092853Y-58506990D01*
X95100000Y-58505036D01*
X95167131Y-58486824D01*
X95228665Y-58470398D01*
X95280720Y-58456773D01*
X95319412Y-58446965D01*
X95340861Y-58441989D01*
X95341667Y-58441839D01*
X95363812Y-58435225D01*
X95372223Y-58427899D01*
X95363031Y-58419258D01*
X95338590Y-58403735D01*
X95303598Y-58384242D01*
X95291667Y-58378014D01*
X95204357Y-58328971D01*
X95107097Y-58267230D01*
X95004953Y-58196476D01*
X94902990Y-58120393D01*
X94806274Y-58042666D01*
X94719869Y-57966979D01*
X94696723Y-57945229D01*
X94626469Y-57873059D01*
X94550136Y-57786191D01*
X94471666Y-57689763D01*
X94394997Y-57588912D01*
X94324071Y-57488777D01*
X94262830Y-57394493D01*
X94226266Y-57331884D01*
X94200963Y-57287533D01*
X94183175Y-57261551D01*
X94170978Y-57252188D01*
X94162448Y-57257693D01*
X94157634Y-57269444D01*
X94147098Y-57304324D01*
X94131861Y-57356261D01*
X94113165Y-57420902D01*
X94092249Y-57493892D01*
X94070357Y-57570876D01*
X94048730Y-57647499D01*
X94028609Y-57719406D01*
X94011235Y-57782243D01*
X94006384Y-57800000D01*
X93993211Y-57847719D01*
X93976706Y-57906520D01*
X93958365Y-57971174D01*
X93939686Y-58036451D01*
X93922167Y-58097122D01*
X93907305Y-58147957D01*
X93896599Y-58183727D01*
X93895003Y-58188888D01*
X93889293Y-58208388D01*
X93878598Y-58246072D01*
X93863824Y-58298694D01*
X93845881Y-58363013D01*
X93825676Y-58435784D01*
X93806381Y-58505555D01*
X93784973Y-58582783D01*
X93765025Y-58654124D01*
X93747436Y-58716411D01*
X93733105Y-58766477D01*
X93722932Y-58801157D01*
X93718047Y-58816666D01*
X93707848Y-58849711D01*
X93348227Y-58849711D01*
X93217231Y-58696875D01*
X93037666Y-58455349D01*
X92874763Y-58201404D01*
X92729462Y-57936301D01*
X92602701Y-57661303D01*
X92497338Y-57383333D01*
X92480241Y-57332253D01*
X92465128Y-57285734D01*
X92453919Y-57249760D01*
X92449236Y-57233333D01*
X92441874Y-57205686D01*
X92430772Y-57165479D01*
X92418563Y-57122222D01*
X92406657Y-57077531D01*
X92393556Y-57022224D01*
X92378661Y-56953530D01*
X92361373Y-56868679D01*
X92341092Y-56764902D01*
X92339295Y-56755555D01*
X92324347Y-56665792D01*
X92310427Y-56559706D01*
X92298034Y-56443192D01*
X92287665Y-56322144D01*
X92279818Y-56202455D01*
X92274991Y-56090018D01*
X92274136Y-56025231D01*
X92537603Y-56025231D01*
X92546925Y-56037108D01*
X92568254Y-56053135D01*
X92603459Y-56075048D01*
X92654411Y-56104585D01*
X92716667Y-56139910D01*
X92773218Y-56171942D01*
X92825349Y-56201506D01*
X92868952Y-56226269D01*
X92899918Y-56243900D01*
X92911112Y-56250308D01*
X92937626Y-56265590D01*
X92975302Y-56287319D01*
X93016055Y-56310835D01*
X93016667Y-56311188D01*
X93063575Y-56338060D01*
X93113413Y-56366299D01*
X93150000Y-56386787D01*
X93187177Y-56407868D01*
X93235372Y-56435819D01*
X93286600Y-56465990D01*
X93309753Y-56479795D01*
X93350895Y-56504274D01*
X93384258Y-56523807D01*
X93405719Y-56535999D01*
X93411498Y-56538888D01*
X93421668Y-56544229D01*
X93447095Y-56558778D01*
X93483968Y-56580329D01*
X93528480Y-56606674D01*
X93529522Y-56607294D01*
X93581759Y-56638144D01*
X93633893Y-56668518D01*
X93679136Y-56694482D01*
X93705556Y-56709297D01*
X93739203Y-56728264D01*
X93785758Y-56755136D01*
X93839093Y-56786351D01*
X93893082Y-56818345D01*
X93893558Y-56818629D01*
X93940591Y-56846253D01*
X93980350Y-56868754D01*
X94009213Y-56884146D01*
X94023556Y-56890442D01*
X94024424Y-56890390D01*
X94023604Y-56878467D01*
X94016127Y-56855165D01*
X94015796Y-56854318D01*
X94003411Y-56817094D01*
X93988351Y-56763044D01*
X93971803Y-56697227D01*
X93954952Y-56624701D01*
X93938985Y-56550523D01*
X93925089Y-56479754D01*
X93916753Y-56432042D01*
X93896235Y-56262587D01*
X93887050Y-56081754D01*
X93887076Y-56079419D01*
X94150685Y-56079419D01*
X94151213Y-56120180D01*
X94153671Y-56179201D01*
X94154273Y-56191375D01*
X94157887Y-56251637D01*
X94162323Y-56307892D01*
X94167056Y-56354370D01*
X94170978Y-56381302D01*
X94171560Y-56385298D01*
X94172198Y-56388303D01*
X94179028Y-56420146D01*
X94188223Y-56465628D01*
X94198133Y-56516535D01*
X94201318Y-56533333D01*
X94234303Y-56673119D01*
X94281431Y-56821505D01*
X94340271Y-56972283D01*
X94408395Y-57119244D01*
X94483376Y-57256181D01*
X94485348Y-57259473D01*
X94613940Y-57452506D01*
X94758539Y-57630548D01*
X94918115Y-57792873D01*
X95091640Y-57938759D01*
X95278083Y-58067480D01*
X95476414Y-58178313D01*
X95685604Y-58270533D01*
X95904623Y-58343417D01*
X96090303Y-58388139D01*
X96153392Y-58399477D01*
X96221792Y-58409494D01*
X96291827Y-58417903D01*
X96359817Y-58424419D01*
X96422084Y-58428755D01*
X96474951Y-58430626D01*
X96514738Y-58429744D01*
X96537768Y-58425823D01*
X96541526Y-58423252D01*
X96542499Y-58411984D01*
X97774948Y-58411984D01*
X97786649Y-58416353D01*
X97816467Y-58425711D01*
X97861111Y-58439077D01*
X97917293Y-58455469D01*
X97981724Y-58473905D01*
X97995469Y-58477796D01*
X98092152Y-58505156D01*
X98171105Y-58527598D01*
X98236003Y-58546177D01*
X98290521Y-58561948D01*
X98338335Y-58575966D01*
X98366667Y-58584372D01*
X98395463Y-58592752D01*
X98444872Y-58606880D01*
X98514102Y-58626531D01*
X98602362Y-58651481D01*
X98708859Y-58681507D01*
X98832802Y-58716383D01*
X98850000Y-58721218D01*
X98915778Y-58739723D01*
X98978945Y-58757517D01*
X99034325Y-58773141D01*
X99076742Y-58785134D01*
X99094445Y-58790159D01*
X99138448Y-58802669D01*
X99191197Y-58817634D01*
X99233334Y-58829569D01*
X99279144Y-58842575D01*
X99322716Y-58855021D01*
X99352833Y-58863695D01*
X99371960Y-58869519D01*
X99386272Y-58872897D01*
X99395702Y-58871437D01*
X99400180Y-58862748D01*
X99399638Y-58844437D01*
X99394008Y-58814113D01*
X99383220Y-58769382D01*
X99367207Y-58707853D01*
X99346069Y-58627777D01*
X99331488Y-58572633D01*
X99316575Y-58516653D01*
X99303838Y-58469237D01*
X99300127Y-58455555D01*
X99289576Y-58416330D01*
X99275551Y-58363524D01*
X99260152Y-58305065D01*
X99249789Y-58265443D01*
X99223258Y-58164050D01*
X99200490Y-58077993D01*
X99179811Y-58001059D01*
X99159548Y-57927036D01*
X99138030Y-57849713D01*
X99133436Y-57833333D01*
X99116439Y-57771977D01*
X99096182Y-57697581D01*
X99074954Y-57618625D01*
X99055045Y-57543586D01*
X99050895Y-57527777D01*
X99027113Y-57437255D01*
X99008173Y-57366036D01*
X98993396Y-57311899D01*
X98982105Y-57272621D01*
X98973620Y-57245981D01*
X98967263Y-57229757D01*
X98962355Y-57221726D01*
X98958218Y-57219667D01*
X98956872Y-57219931D01*
X98946287Y-57231042D01*
X98930154Y-57255958D01*
X98917599Y-57278643D01*
X98811330Y-57461137D01*
X98685585Y-57638988D01*
X98543041Y-57809313D01*
X98386374Y-57969228D01*
X98218261Y-58115850D01*
X98041380Y-58246296D01*
X97985456Y-58282826D01*
X97934934Y-58314341D01*
X97886307Y-58343811D01*
X97845253Y-58367846D01*
X97818368Y-58382592D01*
X97791505Y-58397571D01*
X97776317Y-58408711D01*
X97774948Y-58411984D01*
X96542499Y-58411984D01*
X96542609Y-58410715D01*
X96543602Y-58377414D01*
X96544498Y-58324806D01*
X96545290Y-58254349D01*
X96545971Y-58167502D01*
X96546536Y-58065720D01*
X96546976Y-57950463D01*
X96547286Y-57823188D01*
X96547458Y-57685352D01*
X96547486Y-57538414D01*
X96547364Y-57383831D01*
X96547221Y-57302261D01*
X96761112Y-57302261D01*
X96852778Y-57309397D01*
X96906567Y-57312928D01*
X96961785Y-57315501D01*
X97007048Y-57316592D01*
X97009523Y-57316600D01*
X97045652Y-57315915D01*
X97063941Y-57312773D01*
X97068752Y-57305684D01*
X97066284Y-57297222D01*
X97053082Y-57249198D01*
X97056096Y-57208635D01*
X97074394Y-57179108D01*
X97100725Y-57165491D01*
X97117669Y-57164435D01*
X97136249Y-57171909D01*
X97160989Y-57190602D01*
X97194024Y-57220916D01*
X97226451Y-57250055D01*
X97254370Y-57271928D01*
X97272870Y-57282780D01*
X97275593Y-57283333D01*
X97299306Y-57293521D01*
X97314978Y-57322549D01*
X97321408Y-57368115D01*
X97321474Y-57371319D01*
X97330762Y-57423357D01*
X97357088Y-57461569D01*
X97400714Y-57486156D01*
X97421866Y-57490015D01*
X97461900Y-57497318D01*
X97486537Y-57498090D01*
X97531573Y-57494951D01*
X97567043Y-57483303D01*
X97597225Y-57459938D01*
X97626398Y-57421648D01*
X97655556Y-57371348D01*
X97692487Y-57312305D01*
X97729338Y-57273882D01*
X97768173Y-57254580D01*
X97811055Y-57252901D01*
X97817193Y-57253928D01*
X97863052Y-57267897D01*
X97899820Y-57289092D01*
X97922663Y-57314101D01*
X97927778Y-57331994D01*
X97937647Y-57365534D01*
X97962891Y-57396696D01*
X97996963Y-57419447D01*
X98031713Y-57427777D01*
X98074171Y-57422293D01*
X98117660Y-57408569D01*
X98136875Y-57398838D01*
X98132804Y-57389479D01*
X98118687Y-57367247D01*
X98099678Y-57339916D01*
X98065172Y-57299331D01*
X98031705Y-57277785D01*
X97994608Y-57272839D01*
X97976000Y-57275281D01*
X97945414Y-57273489D01*
X97904306Y-57260616D01*
X97890094Y-57254424D01*
X97826852Y-57232667D01*
X97771584Y-57230637D01*
X97722139Y-57248277D01*
X97719215Y-57250017D01*
X97695451Y-57269863D01*
X97668628Y-57299956D01*
X97643433Y-57333942D01*
X97624557Y-57365469D01*
X97616688Y-57388182D01*
X97616667Y-57388985D01*
X97609240Y-57403877D01*
X97590689Y-57425972D01*
X97583215Y-57433446D01*
X97543649Y-57458268D01*
X97497193Y-57467916D01*
X97449648Y-57463419D01*
X97406820Y-57445807D01*
X97374510Y-57416110D01*
X97363102Y-57394386D01*
X97358805Y-57355966D01*
X97375838Y-57323714D01*
X97414159Y-57297702D01*
X97419193Y-57295433D01*
X97459057Y-57273359D01*
X97495719Y-57241665D01*
X97533588Y-57196089D01*
X97558183Y-57161111D01*
X97588743Y-57118199D01*
X97614404Y-57091152D01*
X97641209Y-57076493D01*
X97675204Y-57070744D01*
X97716045Y-57070298D01*
X97779237Y-57076120D01*
X97854764Y-57090687D01*
X97907764Y-57104450D01*
X97989239Y-57127964D01*
X98060391Y-57148933D01*
X98118435Y-57166513D01*
X98160584Y-57179861D01*
X98183834Y-57188043D01*
X98197856Y-57186253D01*
X98212253Y-57167001D01*
X98221448Y-57147537D01*
X98238455Y-57113213D01*
X98256440Y-57084463D01*
X98261783Y-57077777D01*
X98279985Y-57052522D01*
X98300348Y-57017155D01*
X98319321Y-56978851D01*
X98333352Y-56944785D01*
X98338889Y-56922135D01*
X98338889Y-56922009D01*
X98331006Y-56904483D01*
X98310697Y-56879630D01*
X98291604Y-56861179D01*
X98246954Y-56809469D01*
X98223385Y-56759778D01*
X98208116Y-56718700D01*
X98196215Y-56695591D01*
X98184775Y-56687101D01*
X98170888Y-56689881D01*
X98165199Y-56692740D01*
X98142696Y-56703319D01*
X98109296Y-56717342D01*
X98091883Y-56724207D01*
X98047589Y-56749443D01*
X98023065Y-56782816D01*
X98019116Y-56823099D01*
X98021005Y-56832436D01*
X98022860Y-56859239D01*
X98013110Y-56870181D01*
X97995079Y-56865860D01*
X97972096Y-56846873D01*
X97951335Y-56819932D01*
X97930403Y-56768212D01*
X97925869Y-56705021D01*
X97937844Y-56634010D01*
X97944882Y-56611111D01*
X97971045Y-56550179D01*
X98004610Y-56505033D01*
X98049175Y-56473032D01*
X98108338Y-56451535D01*
X98179948Y-56438613D01*
X98244274Y-56425801D01*
X98287971Y-56406093D01*
X98311658Y-56379109D01*
X98316667Y-56354807D01*
X98307702Y-56331297D01*
X98284671Y-56318002D01*
X98253369Y-56315170D01*
X98219591Y-56323050D01*
X98189134Y-56341889D01*
X98182095Y-56349042D01*
X98153248Y-56373188D01*
X98115096Y-56386402D01*
X98099065Y-56389103D01*
X98061419Y-56397918D01*
X98014065Y-56413833D01*
X97966906Y-56433497D01*
X97964471Y-56434642D01*
X97915153Y-56460969D01*
X97873719Y-56491176D01*
X97831882Y-56531658D01*
X97815401Y-56549672D01*
X97782788Y-56585665D01*
X97760237Y-56607948D01*
X97743018Y-56619392D01*
X97726399Y-56622872D01*
X97705650Y-56621260D01*
X97698996Y-56620361D01*
X97629665Y-56619247D01*
X97571323Y-56635944D01*
X97540465Y-56655934D01*
X97516487Y-56683955D01*
X97501404Y-56722224D01*
X97494151Y-56774697D01*
X97493311Y-56831494D01*
X97487112Y-56899536D01*
X97463863Y-56957030D01*
X97421072Y-57010017D01*
X97418641Y-57012399D01*
X97385315Y-57040643D01*
X97361329Y-57049458D01*
X97344108Y-57038177D01*
X97331079Y-57006131D01*
X97326723Y-56988512D01*
X97305740Y-56928954D01*
X97273603Y-56888554D01*
X97230079Y-56867187D01*
X97174939Y-56864729D01*
X97120850Y-56876749D01*
X97048163Y-56907137D01*
X96996012Y-56945996D01*
X96964404Y-56993317D01*
X96953344Y-57049090D01*
X96962839Y-57113302D01*
X96969990Y-57135011D01*
X96983381Y-57178781D01*
X96983740Y-57206709D01*
X96969627Y-57221911D01*
X96939597Y-57227506D01*
X96927074Y-57227777D01*
X96898674Y-57225644D01*
X96880305Y-57216221D01*
X96868067Y-57194976D01*
X96858059Y-57157375D01*
X96855357Y-57144444D01*
X96846521Y-57110086D01*
X96835803Y-57092282D01*
X96819707Y-57085426D01*
X96818438Y-57085232D01*
X96793267Y-57083336D01*
X96776751Y-57088602D01*
X96767091Y-57104567D01*
X96762490Y-57134768D01*
X96761148Y-57182742D01*
X96761112Y-57198004D01*
X96761112Y-57302261D01*
X96547221Y-57302261D01*
X96547083Y-57223060D01*
X96547081Y-57222222D01*
X96545423Y-56474419D01*
X97051669Y-56474419D01*
X97052102Y-56537733D01*
X97052502Y-56563646D01*
X97055556Y-56744444D01*
X97090729Y-56747856D01*
X97122732Y-56757860D01*
X97154282Y-56777780D01*
X97157395Y-56780545D01*
X97191639Y-56803181D01*
X97233778Y-56810705D01*
X97235677Y-56810751D01*
X97289445Y-56822095D01*
X97333245Y-56852728D01*
X97360465Y-56892130D01*
X97373762Y-56915545D01*
X97383846Y-56927234D01*
X97384831Y-56927525D01*
X97390974Y-56917702D01*
X97396254Y-56892011D01*
X97400111Y-56856804D01*
X97401984Y-56818434D01*
X97401312Y-56783252D01*
X97399197Y-56764836D01*
X97379705Y-56698962D01*
X97348811Y-56649467D01*
X97307898Y-56617861D01*
X97258348Y-56605651D01*
X97253203Y-56605555D01*
X97217426Y-56608205D01*
X97187992Y-56614820D01*
X97181893Y-56617437D01*
X97155759Y-56622156D01*
X97135540Y-56605982D01*
X97122105Y-56569665D01*
X97121197Y-56565105D01*
X97121477Y-56536111D01*
X97618024Y-56536111D01*
X97627464Y-56545933D01*
X97658067Y-56549911D01*
X97665478Y-56550000D01*
X97698067Y-56547518D01*
X97716896Y-56537005D01*
X97725590Y-56513863D01*
X97727775Y-56473492D01*
X97727778Y-56470956D01*
X97733050Y-56425121D01*
X97746957Y-56382961D01*
X97766633Y-56351645D01*
X97779615Y-56341245D01*
X97804194Y-56332187D01*
X97837282Y-56324006D01*
X97841365Y-56323237D01*
X97877654Y-56310383D01*
X97896348Y-56289570D01*
X97895371Y-56263393D01*
X97893112Y-56258620D01*
X97880390Y-56246197D01*
X97855792Y-56240170D01*
X97823615Y-56238888D01*
X97788264Y-56240109D01*
X97768157Y-56245615D01*
X97756370Y-56258174D01*
X97751560Y-56267680D01*
X97736394Y-56293675D01*
X97713387Y-56325770D01*
X97702679Y-56339070D01*
X97681507Y-56371078D01*
X97658845Y-56415731D01*
X97638273Y-56464696D01*
X97623369Y-56509644D01*
X97618024Y-56536111D01*
X97121477Y-56536111D01*
X97121581Y-56525388D01*
X97139943Y-56498670D01*
X97176117Y-56485119D01*
X97201723Y-56483333D01*
X97246888Y-56476035D01*
X97278007Y-56455725D01*
X97292240Y-56424772D01*
X97292340Y-56407660D01*
X97290015Y-56393752D01*
X97284057Y-56384862D01*
X97270152Y-56379668D01*
X97243985Y-56376850D01*
X97201242Y-56375088D01*
X97184167Y-56374557D01*
X97136834Y-56373732D01*
X97097118Y-56374200D01*
X97070827Y-56375840D01*
X97064447Y-56377092D01*
X97058713Y-56383690D01*
X97054793Y-56400225D01*
X97052505Y-56429525D01*
X97051669Y-56474419D01*
X96545423Y-56474419D01*
X96544445Y-56033333D01*
X95361282Y-56030367D01*
X95200790Y-56030021D01*
X95046422Y-56029797D01*
X94899645Y-56029691D01*
X94761926Y-56029701D01*
X94634732Y-56029822D01*
X94519531Y-56030050D01*
X94417790Y-56030381D01*
X94330975Y-56030813D01*
X94260555Y-56031341D01*
X94207997Y-56031960D01*
X94174766Y-56032669D01*
X94162384Y-56033439D01*
X94156100Y-56039374D01*
X94152257Y-56053592D01*
X94150685Y-56079419D01*
X93887076Y-56079419D01*
X93889114Y-55897228D01*
X93902345Y-55716696D01*
X93926261Y-55550000D01*
X93936956Y-55495875D01*
X93949920Y-55436030D01*
X93964055Y-55374924D01*
X93978262Y-55317012D01*
X93982552Y-55300654D01*
X94695734Y-55300654D01*
X94697100Y-55348756D01*
X94702515Y-55383228D01*
X94708334Y-55396556D01*
X94724565Y-55404631D01*
X94756494Y-55411632D01*
X94799322Y-55417323D01*
X94848250Y-55421465D01*
X94898481Y-55423822D01*
X94899645Y-55423830D01*
X94945215Y-55424157D01*
X94983654Y-55422231D01*
X95009000Y-55417807D01*
X95016667Y-55411810D01*
X95009913Y-55392874D01*
X95005556Y-55388888D01*
X94997976Y-55374080D01*
X94994473Y-55347277D01*
X94994445Y-55344595D01*
X95002004Y-55308616D01*
X95022932Y-55284760D01*
X95048231Y-55270321D01*
X95071860Y-55271394D01*
X95098277Y-55289381D01*
X95124166Y-55316604D01*
X95156643Y-55347241D01*
X95196202Y-55375920D01*
X95210277Y-55384105D01*
X95240161Y-55401172D01*
X95255206Y-55416214D01*
X95260493Y-55437055D01*
X95261112Y-55462371D01*
X95270855Y-55516259D01*
X95298668Y-55559051D01*
X95342426Y-55588919D01*
X95400002Y-55604041D01*
X95427864Y-55605555D01*
X95484076Y-55598092D01*
X95529965Y-55574280D01*
X95568589Y-55531980D01*
X95593027Y-55490049D01*
X95631053Y-55426937D01*
X95672153Y-55381652D01*
X95714371Y-55356321D01*
X95716829Y-55355504D01*
X95740146Y-55354735D01*
X95774239Y-55360789D01*
X95793533Y-55366363D01*
X95829145Y-55380955D01*
X95849721Y-55398242D01*
X95860895Y-55419960D01*
X95875892Y-55457500D01*
X95889569Y-55481450D01*
X95906986Y-55499506D01*
X95919833Y-55509593D01*
X95959032Y-55526419D01*
X96006110Y-55528556D01*
X96052017Y-55515714D01*
X96055509Y-55513957D01*
X96083172Y-55499463D01*
X96044630Y-55442231D01*
X96015044Y-55403248D01*
X95988086Y-55381777D01*
X95957956Y-55374767D01*
X95923118Y-55378342D01*
X95884628Y-55379094D01*
X95847633Y-55363445D01*
X95793543Y-55340060D01*
X95737394Y-55332017D01*
X95686734Y-55340287D01*
X95681966Y-55342172D01*
X95648970Y-55359988D01*
X95621603Y-55385197D01*
X95595380Y-55422786D01*
X95573374Y-55462857D01*
X95549344Y-55501083D01*
X95521110Y-55534266D01*
X95504719Y-55548212D01*
X95461931Y-55567089D01*
X95416145Y-55570783D01*
X95372306Y-55561115D01*
X95335359Y-55539907D01*
X95310248Y-55508980D01*
X95301852Y-55473487D01*
X95308644Y-55437601D01*
X95326495Y-55413163D01*
X95347986Y-55405555D01*
X95376697Y-55396573D01*
X95411640Y-55372379D01*
X95448101Y-55337102D01*
X95481369Y-55294872D01*
X95490518Y-55280651D01*
X95517486Y-55240547D01*
X95545511Y-55209842D01*
X95577034Y-55188363D01*
X95614496Y-55175936D01*
X95660338Y-55172388D01*
X95716998Y-55177546D01*
X95786919Y-55191237D01*
X95872541Y-55213287D01*
X95976303Y-55243522D01*
X95983334Y-55245645D01*
X96028232Y-55259694D01*
X96066532Y-55272527D01*
X96092040Y-55282036D01*
X96097072Y-55284330D01*
X96124292Y-55293464D01*
X96145143Y-55286055D01*
X96163729Y-55259851D01*
X96171469Y-55243561D01*
X96192992Y-55202284D01*
X96219277Y-55161286D01*
X96227133Y-55150815D01*
X96251052Y-55112787D01*
X96270497Y-55068685D01*
X96274542Y-55055658D01*
X96282294Y-55023315D01*
X96282716Y-55005322D01*
X96275104Y-54994816D01*
X96267799Y-54990070D01*
X96224284Y-54957949D01*
X96191656Y-54916517D01*
X96167422Y-54866666D01*
X96151153Y-54830522D01*
X96135005Y-54809389D01*
X96114341Y-54802129D01*
X96084522Y-54807601D01*
X96040911Y-54824668D01*
X96024928Y-54831665D01*
X95961112Y-54859888D01*
X95961112Y-54916055D01*
X95957811Y-54954213D01*
X95947977Y-54971148D01*
X95931710Y-54966845D01*
X95909110Y-54941290D01*
X95898306Y-54925093D01*
X95874783Y-54868914D01*
X95870318Y-54804200D01*
X95879095Y-54759083D01*
X96562831Y-54759083D01*
X96562842Y-54899506D01*
X96562930Y-55038726D01*
X96563095Y-55174942D01*
X96563335Y-55306351D01*
X96563653Y-55431153D01*
X96564047Y-55547544D01*
X96564518Y-55653724D01*
X96565066Y-55747890D01*
X96565691Y-55828240D01*
X96566393Y-55892973D01*
X96567172Y-55940286D01*
X96568029Y-55968378D01*
X96568535Y-55975000D01*
X96575063Y-56016666D01*
X97136834Y-56016666D01*
X97768087Y-56016666D01*
X97823615Y-56016666D01*
X98253369Y-56016666D01*
X98958218Y-56016666D01*
X98961112Y-56016666D01*
X98962702Y-55986111D01*
X98962465Y-55871269D01*
X98951384Y-55742487D01*
X98930495Y-55604607D01*
X98900833Y-55462468D01*
X98863433Y-55320912D01*
X98819333Y-55184778D01*
X98816622Y-55177921D01*
X99099523Y-55177921D01*
X99104338Y-55205095D01*
X99115554Y-55248693D01*
X99132884Y-55311136D01*
X99134428Y-55316666D01*
X99181233Y-55513841D01*
X99211477Y-55712710D01*
X99225957Y-55919343D01*
X99227542Y-56024115D01*
X99222387Y-56204565D01*
X99206696Y-56373513D01*
X99179364Y-56539579D01*
X99139665Y-56709941D01*
X99126737Y-56760862D01*
X99116813Y-56803493D01*
X99110829Y-56833538D01*
X99109721Y-56846706D01*
X99109832Y-56846868D01*
X99121427Y-56844753D01*
X99145614Y-56833928D01*
X99162930Y-56824685D01*
X99201345Y-56803056D01*
X99239433Y-56781576D01*
X99250000Y-56775608D01*
X99280735Y-56758368D01*
X99321228Y-56735821D01*
X99355556Y-56716806D01*
X99388282Y-56698607D01*
X99435329Y-56672284D01*
X99491676Y-56640652D01*
X99552303Y-56606530D01*
X99588889Y-56585894D01*
X99651855Y-56550486D01*
X99728018Y-56507877D01*
X99811100Y-56461563D01*
X99894824Y-56415045D01*
X99972911Y-56371823D01*
X99977778Y-56369135D01*
X100044324Y-56332265D01*
X100106692Y-56297455D01*
X100161430Y-56266652D01*
X100205087Y-56241804D01*
X100234209Y-56224855D01*
X100241446Y-56220455D01*
X100267598Y-56204671D01*
X100284834Y-56195437D01*
X100287740Y-56194444D01*
X100298813Y-56189331D01*
X100325012Y-56175496D01*
X100362140Y-56155191D01*
X100396347Y-56136111D01*
X100444319Y-56109276D01*
X100489719Y-56084117D01*
X100526173Y-56064153D01*
X100541720Y-56055806D01*
X100567326Y-56038551D01*
X100582022Y-56021558D01*
X100583139Y-56009188D01*
X100572438Y-56005555D01*
X100557922Y-55999983D01*
X100531107Y-55985490D01*
X100502994Y-55968450D01*
X100458005Y-55940917D01*
X100408161Y-55911824D01*
X100383334Y-55897933D01*
X100358883Y-55884251D01*
X100318035Y-55861027D01*
X100263607Y-55829881D01*
X100198420Y-55792429D01*
X100125292Y-55750292D01*
X100047042Y-55705086D01*
X100000000Y-55677855D01*
X99907980Y-55624562D01*
X99808711Y-55567096D01*
X99707353Y-55508443D01*
X99609060Y-55451585D01*
X99518991Y-55399505D01*
X99442300Y-55355187D01*
X99433334Y-55350009D01*
X99364345Y-55310111D01*
X99299746Y-55272652D01*
X99242665Y-55239455D01*
X99196231Y-55212341D01*
X99163574Y-55193134D01*
X99150000Y-55185010D01*
X99126347Y-55170715D01*
X99110241Y-55163153D01*
X99101395Y-55164748D01*
X99099523Y-55177921D01*
X98816622Y-55177921D01*
X98769566Y-55058909D01*
X98759518Y-55036471D01*
X98651324Y-54825213D01*
X98526951Y-54629092D01*
X98386601Y-54448323D01*
X98230477Y-54283123D01*
X98058781Y-54133706D01*
X97871716Y-54000288D01*
X97683334Y-53890338D01*
X97511388Y-53808118D01*
X97333734Y-53739183D01*
X97154197Y-53684569D01*
X96976603Y-53645314D01*
X96804775Y-53622453D01*
X96701753Y-53617905D01*
X97750000Y-53617905D01*
X97759131Y-53626024D01*
X97784184Y-53642719D01*
X97821650Y-53665784D01*
X97868022Y-53693013D01*
X97883528Y-53701881D01*
X98087099Y-53830240D01*
X98277037Y-53976140D01*
X98453311Y-54139550D01*
X98615890Y-54320439D01*
X98764744Y-54518776D01*
X98899844Y-54734529D01*
X98910681Y-54753650D01*
X98927950Y-54782008D01*
X98941095Y-54799306D01*
X98946069Y-54802079D01*
X98951163Y-54789346D01*
X98961559Y-54756813D01*
X98976770Y-54706135D01*
X98996307Y-54638966D01*
X99019686Y-54556961D01*
X99046417Y-54461776D01*
X99049701Y-54450000D01*
X99075501Y-54357783D01*
X99102737Y-54261094D01*
X99110241Y-54234614D01*
X99129914Y-54165192D01*
X99155537Y-54075337D01*
X99178113Y-53996788D01*
X99194946Y-53938888D01*
X99209754Y-53887955D01*
X99227295Y-53826941D01*
X99245641Y-53762633D01*
X99262858Y-53701816D01*
X99277016Y-53651278D01*
X99283493Y-53627777D01*
X99294013Y-53589639D01*
X99309408Y-53534473D01*
X99328458Y-53466623D01*
X99349943Y-53390430D01*
X99372643Y-53310238D01*
X99377978Y-53291435D01*
X99390343Y-53245498D01*
X99399165Y-53207996D01*
X99403394Y-53183710D01*
X99403088Y-53177161D01*
X99389712Y-53175971D01*
X99363398Y-53180021D01*
X99354245Y-53182130D01*
X99309470Y-53193399D01*
X99251814Y-53208173D01*
X99187415Y-53224849D01*
X99122412Y-53241828D01*
X99062945Y-53257508D01*
X99015152Y-53270289D01*
X98994445Y-53275952D01*
X98951611Y-53287748D01*
X98898982Y-53302094D01*
X98850000Y-53315332D01*
X98797694Y-53329449D01*
X98742754Y-53344365D01*
X98700000Y-53356050D01*
X98656771Y-53367713D01*
X98615853Y-53378403D01*
X98594445Y-53383766D01*
X98566581Y-53390886D01*
X98524414Y-53402112D01*
X98475036Y-53415545D01*
X98450000Y-53422456D01*
X98388583Y-53439325D01*
X98320172Y-53457846D01*
X98257420Y-53474598D01*
X98244445Y-53478019D01*
X98186753Y-53493283D01*
X98124699Y-53509871D01*
X98070049Y-53524635D01*
X98061112Y-53527074D01*
X98012295Y-53540300D01*
X97951971Y-53556471D01*
X97890132Y-53572913D01*
X97863889Y-53579842D01*
X97817255Y-53592832D01*
X97779859Y-53604605D01*
X97756143Y-53613676D01*
X97750000Y-53617905D01*
X96701753Y-53617905D01*
X96673687Y-53616666D01*
X96625295Y-53617232D01*
X96594778Y-53619464D01*
X96577805Y-53624163D01*
X96570045Y-53632131D01*
X96568631Y-53636111D01*
X96567731Y-53650415D01*
X96566906Y-53685140D01*
X96566157Y-53738483D01*
X96565484Y-53808642D01*
X96564886Y-53893816D01*
X96564365Y-53992203D01*
X96563919Y-54102001D01*
X96563549Y-54221407D01*
X96563255Y-54348620D01*
X96563038Y-54481839D01*
X96562896Y-54619260D01*
X96562831Y-54759083D01*
X95879095Y-54759083D01*
X95884847Y-54729516D01*
X95889286Y-54715471D01*
X95921010Y-54648177D01*
X95966307Y-54597989D01*
X96026221Y-54564088D01*
X96101790Y-54545653D01*
X96105556Y-54545176D01*
X96159915Y-54537923D01*
X96196719Y-54530946D01*
X96220563Y-54522726D01*
X96236043Y-54511742D01*
X96246398Y-54498579D01*
X96257969Y-54472845D01*
X96253548Y-54447958D01*
X96251815Y-54443989D01*
X96231464Y-54422833D01*
X96200649Y-54414637D01*
X96166937Y-54419371D01*
X96137893Y-54437007D01*
X96131483Y-54444450D01*
X96109002Y-54464288D01*
X96070704Y-54481929D01*
X96030059Y-54494627D01*
X95955749Y-54517618D01*
X95896815Y-54542594D01*
X95846486Y-54573391D01*
X95797994Y-54613843D01*
X95768395Y-54642882D01*
X95692345Y-54720564D01*
X95612045Y-54722002D01*
X95549650Y-54727890D01*
X95502676Y-54744487D01*
X95469324Y-54773986D01*
X95447792Y-54818579D01*
X95436279Y-54880462D01*
X95433130Y-54939919D01*
X95426865Y-55008044D01*
X95408896Y-55061464D01*
X95376672Y-55105722D01*
X95343366Y-55134909D01*
X95317359Y-55152433D01*
X95300588Y-55156156D01*
X95288863Y-55149978D01*
X95276954Y-55129592D01*
X95272181Y-55101417D01*
X95262144Y-55055188D01*
X95235749Y-55012575D01*
X95198410Y-54981651D01*
X95188805Y-54977026D01*
X95155880Y-54967427D01*
X95120737Y-54968093D01*
X95097382Y-54972360D01*
X95039143Y-54989800D01*
X94984244Y-55014848D01*
X94940537Y-55043659D01*
X94928031Y-55055286D01*
X94908137Y-55090407D01*
X94898270Y-55138362D01*
X94899156Y-55191800D01*
X94909882Y-55238888D01*
X94923160Y-55281212D01*
X94926265Y-55307751D01*
X94918558Y-55322795D01*
X94899400Y-55330635D01*
X94896097Y-55331336D01*
X94854446Y-55333623D01*
X94825120Y-55322726D01*
X94812058Y-55301450D01*
X94802493Y-55251003D01*
X94794695Y-55218353D01*
X94786426Y-55199436D01*
X94775448Y-55190189D01*
X94759520Y-55186551D01*
X94748156Y-55185496D01*
X94725879Y-55184841D01*
X94711253Y-55189822D01*
X94702570Y-55204193D01*
X94698121Y-55231706D01*
X94696198Y-55276115D01*
X94695734Y-55300654D01*
X93982552Y-55300654D01*
X93991441Y-55266755D01*
X94002493Y-55228608D01*
X94010319Y-55207031D01*
X94011222Y-55205376D01*
X94012745Y-55195163D01*
X94010545Y-55194444D01*
X93997038Y-55199401D01*
X93969878Y-55212290D01*
X93934774Y-55230140D01*
X93897438Y-55249981D01*
X93863578Y-55268841D01*
X93838905Y-55283749D01*
X93838889Y-55283759D01*
X93816530Y-55297275D01*
X93780912Y-55317543D01*
X93738432Y-55340947D01*
X93722223Y-55349695D01*
X93685338Y-55369767D01*
X93633574Y-55398334D01*
X93571379Y-55432921D01*
X93503198Y-55471054D01*
X93433479Y-55510257D01*
X93416667Y-55519744D01*
X93339363Y-55563392D01*
X93277646Y-55598200D01*
X93227762Y-55626269D01*
X93185955Y-55649702D01*
X93148471Y-55670599D01*
X93111555Y-55691063D01*
X93071452Y-55713193D01*
X93044445Y-55728066D01*
X92952892Y-55778556D01*
X92865145Y-55827131D01*
X92783673Y-55872411D01*
X92710943Y-55913017D01*
X92649422Y-55947571D01*
X92601578Y-55974693D01*
X92569879Y-55993003D01*
X92562978Y-55997122D01*
X92547500Y-56006975D01*
X92538418Y-56015766D01*
X92537603Y-56025231D01*
X92274136Y-56025231D01*
X92273680Y-55990729D01*
X92273787Y-55979671D01*
X92275397Y-55920362D01*
X92278670Y-55847662D01*
X92283148Y-55770302D01*
X92288373Y-55697011D01*
X92289030Y-55688888D01*
X92321060Y-55407485D01*
X92370228Y-55130875D01*
X92435758Y-54862384D01*
X92516877Y-54605335D01*
X92580381Y-54439172D01*
X92600801Y-54389296D01*
X92620774Y-54340094D01*
X92636802Y-54300193D01*
X92640339Y-54291275D01*
X92657746Y-54251148D01*
X92683556Y-54196683D01*
X92715197Y-54132864D01*
X92750096Y-54064676D01*
X92785681Y-53997103D01*
X92819381Y-53935131D01*
X92848623Y-53883743D01*
X92862302Y-53861111D01*
X92876432Y-53838497D01*
X92898113Y-53803781D01*
X92923128Y-53763713D01*
X92928220Y-53755555D01*
X92963306Y-53701212D01*
X93008993Y-53633330D01*
X93062428Y-53556055D01*
X93120754Y-53473534D01*
X93161112Y-53417423D01*
X93209337Y-53354642D01*
X93270481Y-53280964D01*
X93340962Y-53200375D01*
X93358028Y-53181680D01*
X93707450Y-53181680D01*
X93709361Y-53199953D01*
X93717290Y-53232428D01*
X93731008Y-53282584D01*
X93732739Y-53288888D01*
X93744095Y-53330638D01*
X93758608Y-53384479D01*
X93773749Y-53441022D01*
X93779100Y-53461111D01*
X93799031Y-53535964D01*
X93814742Y-53594692D01*
X93827691Y-53642655D01*
X93839334Y-53685211D01*
X93851130Y-53727721D01*
X93864535Y-53775544D01*
X93866726Y-53783333D01*
X93880682Y-53833624D01*
X93893280Y-53880240D01*
X93902620Y-53916101D01*
X93905473Y-53927777D01*
X93913616Y-53960256D01*
X93925057Y-54002927D01*
X93933563Y-54033333D01*
X93945489Y-54076475D01*
X93956137Y-54117336D01*
X93961323Y-54138888D01*
X93968223Y-54167250D01*
X93979154Y-54209561D01*
X93992178Y-54258365D01*
X93997468Y-54277777D01*
X94010545Y-54325574D01*
X94026399Y-54383520D01*
X94054354Y-54486196D01*
X94080116Y-54581315D01*
X94102471Y-54664389D01*
X94120203Y-54730928D01*
X94121479Y-54735756D01*
X94133172Y-54778076D01*
X94143418Y-54811636D01*
X94150524Y-54831010D01*
X94151975Y-54833455D01*
X94159758Y-54827612D01*
X94174325Y-54806262D01*
X94192682Y-54773855D01*
X94194745Y-54769921D01*
X94203418Y-54755044D01*
X94987951Y-54755044D01*
X94988010Y-54766394D01*
X94988889Y-54832789D01*
X95035445Y-54849942D01*
X95071339Y-54866670D01*
X95102520Y-54886857D01*
X95108383Y-54891880D01*
X95144662Y-54912443D01*
X95178494Y-54916708D01*
X95229623Y-54925813D01*
X95272947Y-54950579D01*
X95302385Y-54987333D01*
X95305012Y-54993130D01*
X95318577Y-55019655D01*
X95329181Y-55024982D01*
X95337674Y-55008756D01*
X95344003Y-54976850D01*
X95346480Y-54906203D01*
X95333895Y-54838908D01*
X95307987Y-54780157D01*
X95270493Y-54735144D01*
X95260528Y-54727362D01*
X95232082Y-54711379D01*
X95203176Y-54707824D01*
X95179721Y-54710705D01*
X95132514Y-54718071D01*
X95102415Y-54720111D01*
X95084741Y-54715840D01*
X95074807Y-54704275D01*
X95068786Y-54687417D01*
X95065359Y-54646718D01*
X95068334Y-54637632D01*
X95563178Y-54637632D01*
X95573632Y-54647206D01*
X95599072Y-54648631D01*
X95613889Y-54647831D01*
X95666667Y-54644444D01*
X95673540Y-54572222D01*
X95678378Y-54531497D01*
X95684102Y-54497672D01*
X95688775Y-54480144D01*
X95707579Y-54458128D01*
X95739338Y-54439330D01*
X95774851Y-54428673D01*
X95786616Y-54427777D01*
X95815388Y-54420482D01*
X95835092Y-54402564D01*
X95843440Y-54379976D01*
X95838143Y-54358672D01*
X95818418Y-54345053D01*
X95785438Y-54339908D01*
X95749917Y-54341862D01*
X95720299Y-54349732D01*
X95705700Y-54360842D01*
X95693593Y-54378939D01*
X95672222Y-54407142D01*
X95651774Y-54432551D01*
X95627259Y-54464845D01*
X95608937Y-54493827D01*
X95601950Y-54509642D01*
X95594328Y-54535147D01*
X95582499Y-54568958D01*
X95579171Y-54577777D01*
X95565696Y-54615844D01*
X95563178Y-54637632D01*
X95068334Y-54637632D01*
X95073861Y-54620751D01*
X95085705Y-54601477D01*
X95102260Y-54591292D01*
X95130883Y-54586626D01*
X95146411Y-54585561D01*
X95181175Y-54581230D01*
X95206785Y-54573835D01*
X95214230Y-54568895D01*
X95227292Y-54543587D01*
X95232998Y-54515295D01*
X95230107Y-54493137D01*
X95225315Y-54487366D01*
X95204332Y-54481336D01*
X95168581Y-54477172D01*
X95125458Y-54475119D01*
X95082359Y-54475422D01*
X95046679Y-54478327D01*
X95033334Y-54480998D01*
X95000000Y-54490408D01*
X94993566Y-54595204D01*
X94990698Y-54651067D01*
X94988719Y-54707645D01*
X94987951Y-54755044D01*
X94203418Y-54755044D01*
X94307658Y-54576232D01*
X94440249Y-54390342D01*
X94590810Y-54214004D01*
X94757637Y-54048965D01*
X94939022Y-53896978D01*
X95125458Y-53765302D01*
X95133259Y-53759792D01*
X95247724Y-53689671D01*
X95286722Y-53666435D01*
X95316676Y-53647420D01*
X95333631Y-53635205D01*
X95335911Y-53632206D01*
X95324721Y-53628158D01*
X95296223Y-53619181D01*
X95254468Y-53606470D01*
X95203509Y-53591221D01*
X95147398Y-53574632D01*
X95090188Y-53557898D01*
X95035931Y-53542214D01*
X94988679Y-53528779D01*
X94952485Y-53518786D01*
X94944445Y-53516654D01*
X94914528Y-53508582D01*
X94874466Y-53497463D01*
X94850000Y-53490555D01*
X94795907Y-53475211D01*
X95694551Y-53475211D01*
X95703728Y-53479195D01*
X95725000Y-53476731D01*
X95749661Y-53470546D01*
X95785438Y-53461059D01*
X95788578Y-53460226D01*
X95834620Y-53447671D01*
X95850000Y-53443407D01*
X96047400Y-53397701D01*
X96200649Y-53374874D01*
X96255415Y-53366717D01*
X96467551Y-53350995D01*
X96673687Y-53351075D01*
X96677317Y-53351076D01*
X96830120Y-53361930D01*
X96917423Y-53373219D01*
X97017122Y-53389652D01*
X97120464Y-53409559D01*
X97218694Y-53431269D01*
X97293080Y-53450293D01*
X97332619Y-53460567D01*
X97363054Y-53467108D01*
X97378838Y-53468758D01*
X97379753Y-53468395D01*
X97376989Y-53457519D01*
X97366331Y-53433209D01*
X97350775Y-53401404D01*
X97333315Y-53368044D01*
X97316945Y-53339067D01*
X97306052Y-53322222D01*
X97297267Y-53307798D01*
X97281073Y-53279089D01*
X97260469Y-53241442D01*
X97253110Y-53227777D01*
X97236145Y-53196648D01*
X97210076Y-53149459D01*
X97176734Y-53089493D01*
X97137949Y-53020035D01*
X97095553Y-52944369D01*
X97051378Y-52865781D01*
X97040319Y-52846147D01*
X96998695Y-52772137D01*
X96960823Y-52704515D01*
X96928024Y-52645663D01*
X96901618Y-52597960D01*
X96882926Y-52563789D01*
X96873269Y-52545530D01*
X96872223Y-52543149D01*
X96866836Y-52531753D01*
X96853262Y-52508554D01*
X96846093Y-52497001D01*
X96828206Y-52467015D01*
X96804669Y-52425410D01*
X96780054Y-52380297D01*
X96775751Y-52372222D01*
X96757318Y-52337995D01*
X96732889Y-52293370D01*
X96704504Y-52241993D01*
X96674204Y-52187507D01*
X96644028Y-52133558D01*
X96616017Y-52083790D01*
X96592209Y-52041848D01*
X96574645Y-52011378D01*
X96565364Y-51996024D01*
X96564697Y-51995105D01*
X96558768Y-51993402D01*
X96549452Y-52000540D01*
X96535548Y-52018354D01*
X96515857Y-52048678D01*
X96489178Y-52093346D01*
X96454312Y-52154192D01*
X96416101Y-52222222D01*
X96402536Y-52246208D01*
X96379607Y-52286406D01*
X96349054Y-52339780D01*
X96312619Y-52403292D01*
X96272041Y-52473906D01*
X96229063Y-52548584D01*
X96221848Y-52561111D01*
X96178635Y-52636170D01*
X96137529Y-52707667D01*
X96100270Y-52772563D01*
X96068602Y-52827823D01*
X96044265Y-52870408D01*
X96029002Y-52897283D01*
X96027475Y-52900000D01*
X96011740Y-52927627D01*
X95987220Y-52970140D01*
X95956394Y-53023265D01*
X95921740Y-53082732D01*
X95889832Y-53137282D01*
X95856577Y-53194226D01*
X95827564Y-53244284D01*
X95804530Y-53284427D01*
X95789212Y-53311628D01*
X95783348Y-53322858D01*
X95783334Y-53322946D01*
X95777821Y-53333531D01*
X95763257Y-53357885D01*
X95742599Y-53391081D01*
X95738995Y-53396775D01*
X95717534Y-53431656D01*
X95701756Y-53459304D01*
X95694676Y-53474401D01*
X95694551Y-53475211D01*
X94795907Y-53475211D01*
X94791680Y-53474012D01*
X94719716Y-53453677D01*
X94641870Y-53431737D01*
X94565900Y-53410381D01*
X94511112Y-53395023D01*
X94468995Y-53383111D01*
X94413083Y-53367121D01*
X94350909Y-53349213D01*
X94294445Y-53332843D01*
X94224645Y-53312548D01*
X94172127Y-53297328D01*
X94132844Y-53286029D01*
X94102748Y-53277494D01*
X94077791Y-53270568D01*
X94053924Y-53264094D01*
X94050000Y-53263040D01*
X94020467Y-53255116D01*
X93977837Y-53243678D01*
X93930477Y-53230972D01*
X93922223Y-53228757D01*
X93876892Y-53216280D01*
X93836794Y-53204685D01*
X93809247Y-53196103D01*
X93805556Y-53194816D01*
X93774314Y-53185341D01*
X93740139Y-53177254D01*
X93722608Y-53173812D01*
X93711789Y-53174127D01*
X93707450Y-53181680D01*
X93358028Y-53181680D01*
X93417197Y-53116861D01*
X93495603Y-53034409D01*
X93572598Y-52957005D01*
X93590734Y-52939367D01*
X93722608Y-52820810D01*
X93818770Y-52734359D01*
X94059564Y-52547050D01*
X94312054Y-52377973D01*
X94575178Y-52227659D01*
X94847875Y-52096637D01*
X95129083Y-51985440D01*
X95417741Y-51894599D01*
X95712786Y-51824645D01*
X95877764Y-51795207D01*
X95976894Y-51780118D01*
X96063743Y-51768379D01*
X96143701Y-51759598D01*
X96222159Y-51753381D01*
X96304508Y-51749335D01*
X96396139Y-51747065D01*
X96502441Y-51746178D01*
X96550000Y-51746122D01*
X96558768Y-51746229D01*
G37*
G36*
X95421689Y-56361111D02*
G01*
X95534601Y-56472222D01*
X95692269Y-56472222D01*
X95849936Y-56472222D01*
X95892982Y-56433333D01*
X95936027Y-56394444D01*
X96114487Y-56394444D01*
X96182973Y-56394377D01*
X96232401Y-56395138D01*
X96265928Y-56398168D01*
X96286712Y-56404909D01*
X96297908Y-56416802D01*
X96302673Y-56435290D01*
X96304163Y-56461813D01*
X96304768Y-56481348D01*
X96304903Y-56526062D01*
X96298608Y-56553096D01*
X96281957Y-56566850D01*
X96251022Y-56571727D01*
X96223696Y-56572222D01*
X96183875Y-56574293D01*
X96153550Y-56579737D01*
X96141112Y-56585555D01*
X96131106Y-56608006D01*
X96127974Y-56641823D01*
X96131395Y-56677346D01*
X96141049Y-56704915D01*
X96145239Y-56710317D01*
X96159225Y-56718876D01*
X96183272Y-56724264D01*
X96221513Y-56727042D01*
X96273484Y-56727777D01*
X96384269Y-56727777D01*
X96381023Y-56813888D01*
X96377778Y-56900000D01*
X96255556Y-56905555D01*
X96133334Y-56911111D01*
X96133334Y-56977777D01*
X96133334Y-57044444D01*
X96205130Y-57047813D01*
X96244113Y-57050988D01*
X96274550Y-57055926D01*
X96288684Y-57060940D01*
X96295190Y-57076390D01*
X96300657Y-57107182D01*
X96303723Y-57143772D01*
X96304778Y-57183585D01*
X96302544Y-57206821D01*
X96295656Y-57219044D01*
X96283666Y-57225480D01*
X96264623Y-57228406D01*
X96227959Y-57230639D01*
X96178270Y-57232015D01*
X96120152Y-57232374D01*
X96093987Y-57232178D01*
X95927646Y-57230243D01*
X95883236Y-57190121D01*
X95838825Y-57150000D01*
X95687247Y-57150000D01*
X95535668Y-57150000D01*
X95422756Y-57261111D01*
X95309844Y-57372222D01*
X95096589Y-57372222D01*
X94883334Y-57372222D01*
X94883334Y-57150000D01*
X94883334Y-56927777D01*
X95013889Y-56927736D01*
X95073427Y-56927118D01*
X95115546Y-56924903D01*
X95145028Y-56920485D01*
X95166655Y-56913258D01*
X95178664Y-56906828D01*
X95215322Y-56873322D01*
X95233332Y-56831892D01*
X95232094Y-56787414D01*
X95211011Y-56744763D01*
X95200054Y-56732376D01*
X95187049Y-56720769D01*
X95172624Y-56713098D01*
X95152121Y-56708553D01*
X95120887Y-56706325D01*
X95074265Y-56705604D01*
X95045859Y-56705555D01*
X94993437Y-56704989D01*
X94948184Y-56703452D01*
X94915340Y-56701190D01*
X94900909Y-56698811D01*
X94894739Y-56693884D01*
X94890177Y-56682581D01*
X94886991Y-56662001D01*
X94884949Y-56629241D01*
X94883821Y-56581400D01*
X94883374Y-56515577D01*
X94883334Y-56478440D01*
X94883702Y-56411678D01*
X94884728Y-56352667D01*
X94886293Y-56304958D01*
X94888277Y-56272102D01*
X94890561Y-56257650D01*
X94890741Y-56257407D01*
X94903704Y-56255061D01*
X94935260Y-56253021D01*
X94981779Y-56251413D01*
X95039634Y-56250364D01*
X95103463Y-56250000D01*
X95308778Y-56250000D01*
X95421689Y-56361111D01*
G37*
G36*
X97344445Y-54738888D02*
G01*
X97458797Y-54850000D01*
X97614458Y-54850000D01*
X97770120Y-54850000D01*
X97816667Y-54811111D01*
X97863214Y-54772222D01*
X98040427Y-54772222D01*
X98217641Y-54772222D01*
X98214376Y-54851772D01*
X98211112Y-54931323D01*
X98140289Y-54934262D01*
X98101850Y-54937319D01*
X98072256Y-54942355D01*
X98059131Y-54947536D01*
X98054097Y-54963504D01*
X98051733Y-54994168D01*
X98052175Y-55023380D01*
X98055556Y-55088888D01*
X98166045Y-55092095D01*
X98214644Y-55094661D01*
X98255651Y-55098960D01*
X98283458Y-55104294D01*
X98291529Y-55107746D01*
X98300861Y-55126645D01*
X98303899Y-55163875D01*
X98303263Y-55187873D01*
X98300000Y-55255555D01*
X98177778Y-55261111D01*
X98055556Y-55266666D01*
X98055556Y-55344444D01*
X98055556Y-55422222D01*
X98136588Y-55425496D01*
X98217621Y-55428770D01*
X98214366Y-55508829D01*
X98211112Y-55588888D01*
X98055556Y-55592083D01*
X97996993Y-55592824D01*
X97944740Y-55592632D01*
X97903660Y-55591587D01*
X97878615Y-55589766D01*
X97875225Y-55589150D01*
X97851607Y-55577590D01*
X97823627Y-55556453D01*
X97816508Y-55549844D01*
X97800900Y-55535423D01*
X97786011Y-55525855D01*
X97766930Y-55520049D01*
X97738745Y-55516915D01*
X97696544Y-55515365D01*
X97657951Y-55514670D01*
X97588850Y-55513493D01*
X97537282Y-55513640D01*
X97498562Y-55516803D01*
X97468004Y-55524679D01*
X97440921Y-55538961D01*
X97412629Y-55561345D01*
X97378442Y-55593524D01*
X97342286Y-55628834D01*
X97228650Y-55739393D01*
X97025436Y-55736363D01*
X96822223Y-55733333D01*
X96819206Y-55519716D01*
X96816189Y-55306098D01*
X96841428Y-55300269D01*
X96863822Y-55297967D01*
X96901524Y-55296906D01*
X96947648Y-55297230D01*
X96964342Y-55297692D01*
X97028463Y-55297665D01*
X97075441Y-55291694D01*
X97109890Y-55278363D01*
X97136424Y-55256255D01*
X97148375Y-55241171D01*
X97168571Y-55201329D01*
X97168917Y-55162278D01*
X97155368Y-55127414D01*
X97137940Y-55101252D01*
X97114591Y-55082727D01*
X97081606Y-55070670D01*
X97035273Y-55063909D01*
X96971876Y-55061275D01*
X96944997Y-55061111D01*
X96816667Y-55061111D01*
X96816667Y-54844444D01*
X96816667Y-54627777D01*
X97023380Y-54627777D01*
X97230093Y-54627777D01*
X97344445Y-54738888D01*
G37*
G36*
X127808658Y-45593353D02*
G01*
X131341733Y-47471922D01*
X130830184Y-48434004D01*
X130318635Y-49396088D01*
X128203816Y-48271619D01*
X128939841Y-48271619D01*
X128940952Y-48273117D01*
X128954942Y-48270740D01*
X128958886Y-48268709D01*
X128966714Y-48260387D01*
X128982572Y-48260387D01*
X129018605Y-48246626D01*
X129045858Y-48233529D01*
X129060741Y-48221387D01*
X129063982Y-48213833D01*
X129058942Y-48214249D01*
X129040894Y-48224512D01*
X129019010Y-48237927D01*
X128982572Y-48260387D01*
X128966714Y-48260387D01*
X128967060Y-48260019D01*
X128965950Y-48258520D01*
X128951959Y-48260899D01*
X128948015Y-48262929D01*
X128939841Y-48271619D01*
X128203816Y-48271619D01*
X127809885Y-48062162D01*
X128490018Y-48062162D01*
X128691890Y-48167947D01*
X128771608Y-48209053D01*
X128830735Y-48238003D01*
X128869921Y-48255090D01*
X128889819Y-48260609D01*
X128892776Y-48258545D01*
X128897845Y-48251648D01*
X128903993Y-48256190D01*
X128914079Y-48257922D01*
X128921787Y-48259245D01*
X128953006Y-48252360D01*
X128961484Y-48249174D01*
X128990063Y-48238436D01*
X129025374Y-48220376D01*
X129051354Y-48201083D01*
X129053263Y-48199068D01*
X129057532Y-48192322D01*
X129083863Y-48192322D01*
X129088486Y-48187716D01*
X129107127Y-48156994D01*
X129114496Y-48138797D01*
X129114548Y-48132216D01*
X129105580Y-48144967D01*
X129096780Y-48160752D01*
X129085126Y-48184714D01*
X129083863Y-48192322D01*
X129057532Y-48192322D01*
X129073811Y-48166601D01*
X129080132Y-48151899D01*
X129096816Y-48113088D01*
X129108894Y-48077968D01*
X129116979Y-48077968D01*
X129118512Y-48095859D01*
X129123358Y-48098558D01*
X129128253Y-48086409D01*
X129126300Y-48075119D01*
X129120813Y-48063389D01*
X129117301Y-48075494D01*
X129116979Y-48077968D01*
X129108894Y-48077968D01*
X129114975Y-48060285D01*
X129116318Y-48056382D01*
X129119553Y-48031250D01*
X129118081Y-48022459D01*
X129113910Y-48020529D01*
X129112773Y-48029811D01*
X129110211Y-48033633D01*
X129104567Y-48016964D01*
X129103060Y-48010750D01*
X130204625Y-48010750D01*
X130269851Y-48045431D01*
X130335077Y-48080113D01*
X130468022Y-47830079D01*
X130600966Y-47580047D01*
X130687934Y-47626289D01*
X130774902Y-47672530D01*
X130779503Y-47663876D01*
X130800742Y-47663876D01*
X130806565Y-47657990D01*
X130827055Y-47623844D01*
X130838356Y-47598200D01*
X130839572Y-47590196D01*
X130831369Y-47601671D01*
X130817932Y-47625688D01*
X130804336Y-47652884D01*
X130800742Y-47663876D01*
X130779503Y-47663876D01*
X130803803Y-47618175D01*
X130832704Y-47563820D01*
X130593542Y-47436656D01*
X130354380Y-47309491D01*
X130325479Y-47363846D01*
X130296578Y-47418201D01*
X130383546Y-47464443D01*
X130470514Y-47510685D01*
X130337570Y-47760717D01*
X130204625Y-48010750D01*
X129103060Y-48010750D01*
X129103047Y-48010695D01*
X129097045Y-47989375D01*
X129093891Y-47987242D01*
X129093758Y-47989717D01*
X129091383Y-47999925D01*
X129082003Y-47991173D01*
X129075014Y-47981349D01*
X129065793Y-47967666D01*
X129105528Y-47958239D01*
X129137905Y-47945041D01*
X129144146Y-47936631D01*
X129150775Y-47934045D01*
X129145530Y-47934765D01*
X129144146Y-47936631D01*
X129106786Y-47951212D01*
X129065549Y-47967304D01*
X129060704Y-47960116D01*
X129054871Y-47950825D01*
X129064713Y-47947220D01*
X129091138Y-47942334D01*
X129102068Y-47940740D01*
X129145530Y-47934765D01*
X129150764Y-47927713D01*
X129155951Y-47915985D01*
X129161128Y-47920782D01*
X129169706Y-47922898D01*
X129176636Y-47906912D01*
X129183046Y-47890876D01*
X129186829Y-47898879D01*
X129186834Y-47898920D01*
X129192939Y-47903171D01*
X129207082Y-47884186D01*
X129215849Y-47868480D01*
X129230174Y-47837486D01*
X129229729Y-47826163D01*
X129224860Y-47827403D01*
X129216072Y-47828773D01*
X129225745Y-47814525D01*
X129225784Y-47814479D01*
X129235444Y-47797736D01*
X129228610Y-47793867D01*
X129221743Y-47789405D01*
X129228685Y-47781291D01*
X129236485Y-47759722D01*
X129231242Y-47735044D01*
X129222134Y-47713150D01*
X129220087Y-47713740D01*
X129222636Y-47733328D01*
X129224531Y-47750183D01*
X129221649Y-47744409D01*
X129216677Y-47727563D01*
X129206633Y-47702978D01*
X129196617Y-47693831D01*
X129196218Y-47693922D01*
X129191027Y-47689011D01*
X129192742Y-47684650D01*
X129188851Y-47672921D01*
X129179670Y-47669895D01*
X129165963Y-47661994D01*
X129166435Y-47655449D01*
X129160142Y-47645667D01*
X129134559Y-47627415D01*
X129088773Y-47600128D01*
X129021877Y-47563242D01*
X128993462Y-47548040D01*
X128831917Y-47462145D01*
X129551108Y-47462145D01*
X129552796Y-47546403D01*
X129556110Y-47563611D01*
X129578691Y-47633385D01*
X129614100Y-47688427D01*
X129666536Y-47733815D01*
X129724211Y-47766907D01*
X129765105Y-47785745D01*
X129796834Y-47797555D01*
X129813763Y-47800317D01*
X129814984Y-47799437D01*
X129825888Y-47798307D01*
X129833714Y-47804910D01*
X129844492Y-47811745D01*
X129846056Y-47803622D01*
X129849936Y-47795438D01*
X129859817Y-47803967D01*
X129871645Y-47812484D01*
X129873616Y-47804893D01*
X129877986Y-47796950D01*
X129884750Y-47802260D01*
X129904968Y-47809123D01*
X129935095Y-47805439D01*
X129964868Y-47794236D01*
X129984026Y-47778540D01*
X129986361Y-47772281D01*
X129991477Y-47760622D01*
X129997308Y-47766483D01*
X130005101Y-47771099D01*
X130008524Y-47758502D01*
X130013135Y-47744725D01*
X130020951Y-47752596D01*
X130028631Y-47760523D01*
X130029527Y-47752346D01*
X130032373Y-47742454D01*
X130045605Y-47742454D01*
X130049779Y-47742492D01*
X130057940Y-47730283D01*
X130057486Y-47727998D01*
X130050230Y-47726054D01*
X130046385Y-47731392D01*
X130045605Y-47742454D01*
X130032373Y-47742454D01*
X130035302Y-47732270D01*
X130039315Y-47727632D01*
X130049992Y-47715292D01*
X130065882Y-47708370D01*
X130073360Y-47712825D01*
X130079755Y-47716801D01*
X130080218Y-47710311D01*
X130069094Y-47694898D01*
X130059962Y-47691905D01*
X130046474Y-47684086D01*
X130046965Y-47677852D01*
X130042753Y-47666661D01*
X130033548Y-47663745D01*
X130019748Y-47655998D01*
X130020131Y-47649640D01*
X130015921Y-47638450D01*
X130006715Y-47635534D01*
X129993008Y-47627632D01*
X129993481Y-47621087D01*
X129994674Y-47605758D01*
X129981383Y-47601185D01*
X129961300Y-47607425D01*
X129945085Y-47620734D01*
X129903007Y-47652535D01*
X129850681Y-47665978D01*
X129794820Y-47660561D01*
X129742326Y-47635918D01*
X129725439Y-47615082D01*
X129710665Y-47582942D01*
X129709565Y-47579518D01*
X129696525Y-47537052D01*
X129703538Y-47576313D01*
X129710551Y-47615575D01*
X129694826Y-47573789D01*
X129685703Y-47537082D01*
X129686928Y-47507686D01*
X129691222Y-47507686D01*
X129693767Y-47516013D01*
X129702094Y-47513467D01*
X129699547Y-47505141D01*
X129691222Y-47507686D01*
X129686928Y-47507686D01*
X129687021Y-47505452D01*
X129687310Y-47498496D01*
X129694887Y-47473136D01*
X129699313Y-47473136D01*
X129702935Y-47475277D01*
X129713266Y-47462107D01*
X129714872Y-47454897D01*
X129712234Y-47448213D01*
X129704811Y-47457973D01*
X129699313Y-47473136D01*
X129694887Y-47473136D01*
X129700157Y-47455498D01*
X129700875Y-47453093D01*
X129727627Y-47395937D01*
X129748792Y-47357020D01*
X129776671Y-47310070D01*
X129786017Y-47310070D01*
X129789638Y-47312212D01*
X129799970Y-47299042D01*
X129801575Y-47291833D01*
X129798938Y-47285148D01*
X129791515Y-47294908D01*
X129786017Y-47310070D01*
X129776671Y-47310070D01*
X129780292Y-47303972D01*
X129788169Y-47293129D01*
X129801000Y-47275466D01*
X129819177Y-47275466D01*
X129831775Y-47271111D01*
X129839486Y-47265075D01*
X129846212Y-47254257D01*
X129840653Y-47252574D01*
X129822892Y-47260983D01*
X129820935Y-47263730D01*
X129819177Y-47275466D01*
X129801000Y-47275466D01*
X129805732Y-47268952D01*
X129814769Y-47260452D01*
X129828707Y-47247339D01*
X129836036Y-47242746D01*
X129863401Y-47242746D01*
X129864512Y-47244245D01*
X129878501Y-47241867D01*
X129882446Y-47239836D01*
X129890620Y-47231145D01*
X129889509Y-47229647D01*
X129875520Y-47232025D01*
X129871575Y-47234056D01*
X129863401Y-47242746D01*
X129836036Y-47242746D01*
X129839273Y-47240717D01*
X129850607Y-47235944D01*
X129862653Y-47230870D01*
X129888739Y-47223623D01*
X129911198Y-47219939D01*
X129923696Y-47220784D01*
X129919903Y-47227123D01*
X129917139Y-47228843D01*
X129913695Y-47236456D01*
X129923774Y-47239273D01*
X129940746Y-47235792D01*
X129943261Y-47230205D01*
X129950668Y-47228244D01*
X129970292Y-47238816D01*
X129996364Y-47257639D01*
X130023111Y-47280430D01*
X130044762Y-47302906D01*
X130049409Y-47308958D01*
X130063126Y-47342406D01*
X130066280Y-47378758D01*
X130068305Y-47407083D01*
X130077554Y-47426759D01*
X130089901Y-47432063D01*
X130098532Y-47423513D01*
X130110535Y-47421356D01*
X130122774Y-47430371D01*
X130140093Y-47440714D01*
X130147406Y-47436496D01*
X130159774Y-47433614D01*
X130173269Y-47443878D01*
X130187518Y-47455152D01*
X130194399Y-47449090D01*
X130210432Y-47449090D01*
X130212977Y-47457416D01*
X130221303Y-47454870D01*
X130218758Y-47446544D01*
X130210432Y-47449090D01*
X130194399Y-47449090D01*
X130195945Y-47447728D01*
X130197633Y-47442284D01*
X130201861Y-47428645D01*
X130208736Y-47407756D01*
X130212648Y-47409940D01*
X130213515Y-47415869D01*
X130217206Y-47431155D01*
X130221508Y-47426054D01*
X130224858Y-47404705D01*
X130225792Y-47383356D01*
X130221543Y-47345372D01*
X130210791Y-47304512D01*
X130210050Y-47302472D01*
X130201247Y-47279631D01*
X130198695Y-47276990D01*
X130202127Y-47296003D01*
X130207027Y-47318779D01*
X130213799Y-47354753D01*
X130216533Y-47379979D01*
X130215891Y-47386242D01*
X130211229Y-47380719D01*
X130204275Y-47357359D01*
X130196570Y-47322652D01*
X130189654Y-47283085D01*
X130187182Y-47265209D01*
X130178504Y-47239567D01*
X130165202Y-47228681D01*
X130152739Y-47220829D01*
X130153445Y-47215335D01*
X130149913Y-47205713D01*
X130144309Y-47205143D01*
X130127652Y-47196089D01*
X130120939Y-47185368D01*
X130120291Y-47184332D01*
X130101992Y-47164784D01*
X130066422Y-47143800D01*
X130020557Y-47124235D01*
X129971374Y-47108938D01*
X129925850Y-47100763D01*
X129914302Y-47100132D01*
X129829900Y-47108801D01*
X129755394Y-47138506D01*
X129689206Y-47190217D01*
X129629759Y-47264910D01*
X129618869Y-47282151D01*
X129573066Y-47374359D01*
X129551108Y-47462145D01*
X128831917Y-47462145D01*
X128814091Y-47452667D01*
X128652054Y-47757415D01*
X128490018Y-48062162D01*
X127809885Y-48062162D01*
X126785561Y-47517519D01*
X126198331Y-47205283D01*
X126853969Y-47205283D01*
X127342486Y-47465032D01*
X127831002Y-47724780D01*
X127863308Y-47667972D01*
X127975895Y-47667972D01*
X127977442Y-47702353D01*
X127978634Y-47709275D01*
X127997526Y-47763780D01*
X128030946Y-47810530D01*
X128082254Y-47853112D01*
X128151067Y-47893196D01*
X128196100Y-47914895D01*
X128230687Y-47928741D01*
X128250158Y-47932959D01*
X128252572Y-47931768D01*
X128263786Y-47929886D01*
X128271233Y-47936009D01*
X128285517Y-47942808D01*
X128290775Y-47938595D01*
X128298751Y-47933285D01*
X128300321Y-47936012D01*
X128312607Y-47938962D01*
X128339409Y-47934142D01*
X128347972Y-47931627D01*
X128374795Y-47923341D01*
X128379329Y-47922947D01*
X128362701Y-47930724D01*
X128356169Y-47933622D01*
X128319698Y-47949763D01*
X128362429Y-47939624D01*
X128394806Y-47926426D01*
X128407665Y-47909098D01*
X128412777Y-47897250D01*
X128416909Y-47900162D01*
X128426149Y-47896924D01*
X128427668Y-47895123D01*
X128444491Y-47895123D01*
X128448665Y-47895161D01*
X128456827Y-47882951D01*
X128456372Y-47880667D01*
X128449115Y-47878722D01*
X128445271Y-47884060D01*
X128444491Y-47895123D01*
X128427668Y-47895123D01*
X128439562Y-47881025D01*
X128443167Y-47876753D01*
X128455947Y-47857207D01*
X128478183Y-47857207D01*
X128479765Y-47861038D01*
X128482422Y-47858494D01*
X128498772Y-47831822D01*
X128502652Y-47820446D01*
X128501300Y-47815387D01*
X128491593Y-47829506D01*
X128487565Y-47836826D01*
X128478183Y-47857207D01*
X128455947Y-47857207D01*
X128459445Y-47851858D01*
X128473557Y-47829378D01*
X128482515Y-47815108D01*
X128503189Y-47785114D01*
X128512530Y-47773406D01*
X128522709Y-47760520D01*
X128513878Y-47762036D01*
X128508622Y-47764356D01*
X128495370Y-47768610D01*
X128500322Y-47759010D01*
X128505805Y-47752381D01*
X128515380Y-47735761D01*
X128509212Y-47731730D01*
X128502740Y-47726771D01*
X128507700Y-47720487D01*
X128516254Y-47699536D01*
X128511983Y-47673747D01*
X128497942Y-47655191D01*
X128490495Y-47652523D01*
X128476151Y-47640639D01*
X128475048Y-47631615D01*
X128481889Y-47631615D01*
X128484434Y-47639940D01*
X128492759Y-47637395D01*
X128490214Y-47629069D01*
X128481889Y-47631615D01*
X128475048Y-47631615D01*
X128474772Y-47629358D01*
X128474382Y-47627623D01*
X128470870Y-47612034D01*
X128464413Y-47609281D01*
X128456190Y-47602598D01*
X128457423Y-47598949D01*
X128452954Y-47588195D01*
X128443730Y-47585366D01*
X128430220Y-47577135D01*
X128430884Y-47570186D01*
X128426754Y-47557885D01*
X128412261Y-47552759D01*
X128394327Y-47544652D01*
X128392838Y-47536837D01*
X128388624Y-47525829D01*
X128380517Y-47523325D01*
X128363605Y-47513109D01*
X128361246Y-47506278D01*
X128350194Y-47491965D01*
X128341070Y-47489119D01*
X128327996Y-47480613D01*
X128328873Y-47473560D01*
X128325408Y-47461120D01*
X128316256Y-47457950D01*
X128302314Y-47450439D01*
X128302562Y-47444365D01*
X128299030Y-47434744D01*
X128293426Y-47434174D01*
X128276009Y-47425201D01*
X128267716Y-47402415D01*
X128275490Y-47402415D01*
X128279880Y-47419166D01*
X128286000Y-47412253D01*
X128287879Y-47402356D01*
X128286169Y-47386262D01*
X128282424Y-47384584D01*
X128275643Y-47396874D01*
X128275490Y-47402415D01*
X128267716Y-47402415D01*
X128267538Y-47401925D01*
X128268576Y-47393117D01*
X128270839Y-47373899D01*
X128273696Y-47367528D01*
X128295740Y-47345496D01*
X128313688Y-47338208D01*
X128331690Y-47335858D01*
X128327617Y-47340540D01*
X128320832Y-47344442D01*
X128310558Y-47351117D01*
X128321880Y-47348303D01*
X128327095Y-47346543D01*
X128358973Y-47346715D01*
X128397701Y-47361614D01*
X128435347Y-47386268D01*
X128463978Y-47415711D01*
X128475025Y-47439190D01*
X128477446Y-47469865D01*
X128473825Y-47489427D01*
X128475166Y-47501247D01*
X128492775Y-47516741D01*
X128529728Y-47538496D01*
X128536456Y-47542101D01*
X128574608Y-47561887D01*
X128597039Y-47570535D01*
X128609726Y-47568551D01*
X128618645Y-47556441D01*
X128622249Y-47549371D01*
X128631209Y-47529331D01*
X128626992Y-47527965D01*
X128616477Y-47535844D01*
X128602102Y-47545529D01*
X128602767Y-47537737D01*
X128604452Y-47534077D01*
X128614407Y-47505581D01*
X128617458Y-47492186D01*
X128621129Y-47477591D01*
X128624055Y-47487227D01*
X128624645Y-47491381D01*
X128629726Y-47505285D01*
X128634895Y-47500802D01*
X128636925Y-47481562D01*
X128632820Y-47450821D01*
X128624728Y-47417225D01*
X128614799Y-47389414D01*
X128605184Y-47376034D01*
X128603810Y-47375811D01*
X128586465Y-47369142D01*
X128574826Y-47353550D01*
X128574836Y-47353370D01*
X128588000Y-47353370D01*
X128590546Y-47361695D01*
X128598871Y-47359150D01*
X128596326Y-47350824D01*
X128588000Y-47353370D01*
X128574836Y-47353370D01*
X128575232Y-47346581D01*
X128575665Y-47339157D01*
X128578018Y-47337258D01*
X128580752Y-47329922D01*
X128567891Y-47326604D01*
X128549271Y-47317125D01*
X128900105Y-47317125D01*
X128959896Y-47348916D01*
X129019686Y-47380707D01*
X129083972Y-47264986D01*
X129148258Y-47149266D01*
X129091249Y-47272341D01*
X129034240Y-47395417D01*
X129094788Y-47286727D01*
X129155336Y-47178038D01*
X129243909Y-47214703D01*
X129288839Y-47233644D01*
X129326387Y-47250092D01*
X129349415Y-47260908D01*
X129351281Y-47261909D01*
X129369879Y-47265819D01*
X129375754Y-47261778D01*
X129388153Y-47258353D01*
X129394174Y-47261980D01*
X129413436Y-47265707D01*
X129443741Y-47260475D01*
X129447975Y-47259140D01*
X129467359Y-47253581D01*
X129466355Y-47256212D01*
X129460881Y-47259030D01*
X129442393Y-47268351D01*
X129444870Y-47269742D01*
X129467823Y-47265026D01*
X129492596Y-47255877D01*
X129502108Y-47245020D01*
X129510890Y-47229639D01*
X129523744Y-47220040D01*
X129539081Y-47212212D01*
X129534620Y-47218653D01*
X129527970Y-47225238D01*
X129518193Y-47237748D01*
X129521534Y-47239415D01*
X129527465Y-47233551D01*
X129533109Y-47227972D01*
X129550403Y-47202261D01*
X129560245Y-47185395D01*
X129577115Y-47185395D01*
X129581773Y-47181254D01*
X129599588Y-47152471D01*
X129610823Y-47126978D01*
X129612343Y-47118110D01*
X129604384Y-47128949D01*
X129593205Y-47148794D01*
X129580188Y-47174941D01*
X129577115Y-47185395D01*
X129560245Y-47185395D01*
X129570298Y-47168166D01*
X129583336Y-47143546D01*
X129589675Y-47131576D01*
X129605412Y-47098375D01*
X129614393Y-47074450D01*
X129613611Y-47065675D01*
X129609909Y-47060223D01*
X129617411Y-47051672D01*
X129625988Y-47039893D01*
X129617755Y-47037911D01*
X129609410Y-47033993D01*
X129616648Y-47025413D01*
X129624448Y-47003843D01*
X129619206Y-46979165D01*
X129610098Y-46957270D01*
X129608051Y-46957861D01*
X129610600Y-46977449D01*
X129612494Y-46994304D01*
X129609612Y-46988529D01*
X129604641Y-46971685D01*
X129594596Y-46947099D01*
X129584581Y-46937952D01*
X129584181Y-46938044D01*
X129578991Y-46933132D01*
X129580705Y-46928771D01*
X129576815Y-46917042D01*
X129567634Y-46914016D01*
X129553927Y-46906115D01*
X129554399Y-46899569D01*
X129548002Y-46889537D01*
X129521933Y-46870952D01*
X129475339Y-46843279D01*
X129407368Y-46805984D01*
X129392297Y-46797942D01*
X129223797Y-46708349D01*
X129061951Y-47012737D01*
X128900105Y-47317125D01*
X128549271Y-47317125D01*
X128544004Y-47314444D01*
X128537874Y-47305800D01*
X128536030Y-47303200D01*
X128517954Y-47284027D01*
X128482458Y-47262994D01*
X128436313Y-47242847D01*
X128386289Y-47226333D01*
X128339155Y-47216199D01*
X128316988Y-47214341D01*
X128252815Y-47224568D01*
X128198314Y-47254988D01*
X128157461Y-47301834D01*
X128134233Y-47361339D01*
X128130610Y-47390817D01*
X128132995Y-47433619D01*
X128146181Y-47473475D01*
X128172919Y-47515383D01*
X128215963Y-47564340D01*
X128239001Y-47587650D01*
X128288969Y-47637510D01*
X128323649Y-47673603D01*
X128345569Y-47699159D01*
X128357258Y-47717411D01*
X128361245Y-47731590D01*
X128360466Y-47742857D01*
X128343483Y-47778378D01*
X128311054Y-47798134D01*
X128267203Y-47801431D01*
X128215955Y-47787577D01*
X128186710Y-47772772D01*
X128148448Y-47748977D01*
X128126809Y-47730685D01*
X128125152Y-47727650D01*
X128137993Y-47727650D01*
X128140538Y-47735975D01*
X128148864Y-47733430D01*
X128146319Y-47725104D01*
X128137993Y-47727650D01*
X128125152Y-47727650D01*
X128119897Y-47718028D01*
X128116597Y-47711984D01*
X128115485Y-47705219D01*
X128122032Y-47705219D01*
X128124577Y-47713544D01*
X128132902Y-47710999D01*
X128130357Y-47702673D01*
X128122032Y-47705219D01*
X128115485Y-47705219D01*
X128114858Y-47701405D01*
X128112765Y-47688662D01*
X128112438Y-47668409D01*
X128120113Y-47668409D01*
X128124503Y-47685160D01*
X128130624Y-47678249D01*
X128132502Y-47668350D01*
X128130793Y-47652257D01*
X128127048Y-47650579D01*
X128120267Y-47662869D01*
X128120113Y-47668409D01*
X128112438Y-47668409D01*
X128112322Y-47661225D01*
X128112553Y-47658767D01*
X128114825Y-47634513D01*
X128119031Y-47614712D01*
X128123697Y-47608006D01*
X128127105Y-47617278D01*
X128130609Y-47632959D01*
X128134054Y-47625765D01*
X128135045Y-47621499D01*
X128132323Y-47608154D01*
X128115120Y-47593870D01*
X128079292Y-47575378D01*
X128072920Y-47572433D01*
X128036514Y-47556488D01*
X128009884Y-47546187D01*
X128000232Y-47543843D01*
X127991596Y-47557344D01*
X127983985Y-47587705D01*
X127978414Y-47627169D01*
X127975895Y-47667972D01*
X127863308Y-47667972D01*
X127897992Y-47606983D01*
X127941400Y-47530654D01*
X127964983Y-47489186D01*
X127614381Y-47302795D01*
X127393209Y-47185214D01*
X128691355Y-47185214D01*
X128693900Y-47193539D01*
X128702226Y-47190994D01*
X128699680Y-47182668D01*
X128691355Y-47185214D01*
X127393209Y-47185214D01*
X127263780Y-47116406D01*
X127359066Y-46937198D01*
X127454352Y-46757992D01*
X127773861Y-46924181D01*
X128093370Y-47090370D01*
X128161471Y-46969706D01*
X128182157Y-46933054D01*
X128363851Y-46933054D01*
X128368465Y-46968567D01*
X128381962Y-47001735D01*
X128403728Y-47035695D01*
X128410453Y-47044761D01*
X128436103Y-47072736D01*
X128471452Y-47099276D01*
X128522471Y-47128678D01*
X128539031Y-47137318D01*
X128584064Y-47159016D01*
X128618651Y-47172861D01*
X128638122Y-47177079D01*
X128640536Y-47175888D01*
X128651771Y-47173793D01*
X128658481Y-47179306D01*
X128676568Y-47184885D01*
X128683832Y-47181214D01*
X128686076Y-47180080D01*
X128705299Y-47175552D01*
X128713682Y-47180865D01*
X128733409Y-47187607D01*
X128759557Y-47181109D01*
X128780050Y-47164388D01*
X128780118Y-47164284D01*
X128783242Y-47160249D01*
X128791918Y-47160249D01*
X128802652Y-47159274D01*
X128804831Y-47158630D01*
X128820996Y-47148942D01*
X128822618Y-47143084D01*
X128812797Y-47142046D01*
X128801981Y-47149309D01*
X128791918Y-47160249D01*
X128783242Y-47160249D01*
X128785772Y-47156981D01*
X128792892Y-47147786D01*
X128814079Y-47122906D01*
X128816637Y-47120009D01*
X128835560Y-47100349D01*
X128843201Y-47099093D01*
X128843643Y-47113451D01*
X128844435Y-47124746D01*
X128850646Y-47113162D01*
X128855496Y-47099928D01*
X128865557Y-47076727D01*
X128885216Y-47036026D01*
X128912377Y-46981993D01*
X128919824Y-46967542D01*
X128941257Y-46967542D01*
X128950433Y-46952810D01*
X128954804Y-46945307D01*
X128988916Y-46884262D01*
X129025953Y-46814781D01*
X129058512Y-46750786D01*
X129061738Y-46744194D01*
X129071756Y-46722756D01*
X129071113Y-46721683D01*
X129060625Y-46739560D01*
X129041112Y-46774967D01*
X129013395Y-46826489D01*
X129004684Y-46842844D01*
X128975241Y-46898618D01*
X128954378Y-46938974D01*
X128942812Y-46962439D01*
X128941257Y-46967542D01*
X128919824Y-46967542D01*
X128944944Y-46918798D01*
X128980823Y-46850610D01*
X128981353Y-46849612D01*
X128989301Y-46834664D01*
X129093345Y-46638986D01*
X129034341Y-46607614D01*
X128975338Y-46576241D01*
X128850597Y-46802388D01*
X128808881Y-46877805D01*
X128777012Y-46934484D01*
X128753030Y-46975292D01*
X128734971Y-47003098D01*
X128720874Y-47020772D01*
X128708775Y-47031180D01*
X128696713Y-47037193D01*
X128687987Y-47040095D01*
X128656615Y-47044351D01*
X128622027Y-47035840D01*
X128592829Y-47022368D01*
X128558279Y-47002910D01*
X128539898Y-46985242D01*
X128531124Y-46961686D01*
X128528571Y-46947185D01*
X128523040Y-46920332D01*
X128517809Y-46909746D01*
X128516598Y-46910696D01*
X128515088Y-46928701D01*
X128518200Y-46952604D01*
X128521280Y-46970298D01*
X128518385Y-46965980D01*
X128511185Y-46946129D01*
X128506930Y-46932626D01*
X128505312Y-46919451D01*
X128507582Y-46903372D01*
X128514998Y-46881152D01*
X128528812Y-46849561D01*
X128546817Y-46812494D01*
X128563330Y-46812494D01*
X128570255Y-46801764D01*
X128578730Y-46787179D01*
X128614341Y-46723172D01*
X128653387Y-46650107D01*
X128688829Y-46581215D01*
X128697224Y-46564323D01*
X128708188Y-46541275D01*
X128708433Y-46538655D01*
X128698732Y-46555116D01*
X128679860Y-46589308D01*
X128652587Y-46639881D01*
X128634454Y-46673877D01*
X128603222Y-46732972D01*
X128580500Y-46776703D01*
X128566974Y-46803676D01*
X128563330Y-46812494D01*
X128546817Y-46812494D01*
X128550281Y-46805363D01*
X128580658Y-46745325D01*
X128615473Y-46677372D01*
X128620950Y-46666697D01*
X128733381Y-46447590D01*
X128674201Y-46416124D01*
X128615020Y-46384657D01*
X128495559Y-46610484D01*
X128446530Y-46704791D01*
X128409461Y-46781065D01*
X128383734Y-46842441D01*
X128368736Y-46892058D01*
X128363851Y-46933054D01*
X128182157Y-46933054D01*
X128229572Y-46849041D01*
X127908522Y-46678336D01*
X127587472Y-46507630D01*
X127665504Y-46360872D01*
X127743538Y-46214113D01*
X128085974Y-46396189D01*
X128428410Y-46578266D01*
X128491992Y-46458686D01*
X128549794Y-46349976D01*
X128555574Y-46339105D01*
X128071815Y-46081885D01*
X127588056Y-45824666D01*
X127221013Y-46514974D01*
X126853969Y-47205283D01*
X126198331Y-47205283D01*
X124915553Y-46523218D01*
X125571191Y-46523218D01*
X126059708Y-46782966D01*
X126548225Y-47042716D01*
X126615215Y-46924918D01*
X126682205Y-46807120D01*
X126331604Y-46620731D01*
X125981002Y-46434341D01*
X126076288Y-46255133D01*
X126171574Y-46075927D01*
X126491083Y-46242116D01*
X126810592Y-46408305D01*
X126878693Y-46287641D01*
X126946794Y-46166976D01*
X126625744Y-45996271D01*
X126304694Y-45825565D01*
X126382726Y-45678807D01*
X126460760Y-45532048D01*
X126803196Y-45714124D01*
X127145633Y-45896201D01*
X127209215Y-45776621D01*
X127272797Y-45657040D01*
X126789037Y-45399820D01*
X126305278Y-45142601D01*
X125938235Y-45832909D01*
X125571191Y-46523218D01*
X124915553Y-46523218D01*
X123621903Y-45835372D01*
X124277542Y-45835372D01*
X124766059Y-46095121D01*
X125254576Y-46354870D01*
X125321566Y-46237073D01*
X125388556Y-46119275D01*
X125037955Y-45932885D01*
X124687353Y-45746495D01*
X124782639Y-45567288D01*
X124877925Y-45388081D01*
X125197434Y-45554271D01*
X125516943Y-45720460D01*
X125585044Y-45599795D01*
X125653146Y-45479131D01*
X125332095Y-45308425D01*
X125011045Y-45137720D01*
X125089077Y-44990962D01*
X125167111Y-44844202D01*
X125509548Y-45026279D01*
X125851984Y-45208356D01*
X125915566Y-45088776D01*
X125979148Y-44969195D01*
X125495388Y-44711975D01*
X125011629Y-44454756D01*
X124644586Y-45145064D01*
X124277542Y-45835372D01*
X123621903Y-45835372D01*
X123252487Y-45638950D01*
X123301717Y-45546362D01*
X123733993Y-45546362D01*
X123864445Y-45615724D01*
X123994897Y-45685087D01*
X124127516Y-45435666D01*
X124150209Y-45435666D01*
X124156116Y-45425640D01*
X124172864Y-45395297D01*
X124194127Y-45356267D01*
X124251677Y-45249742D01*
X124316598Y-45128647D01*
X124384996Y-45000308D01*
X124452974Y-44872051D01*
X124516639Y-44751204D01*
X124564063Y-44660525D01*
X124589299Y-44611859D01*
X124603408Y-44584182D01*
X124606806Y-44576729D01*
X124599907Y-44588735D01*
X124583125Y-44619438D01*
X124556878Y-44668071D01*
X124521577Y-44733872D01*
X124477641Y-44816077D01*
X124425482Y-44913920D01*
X124377932Y-45003281D01*
X124319449Y-45113372D01*
X124268931Y-45208671D01*
X124226790Y-45288390D01*
X124193435Y-45351738D01*
X124169280Y-45397926D01*
X124154735Y-45426165D01*
X124150209Y-45435666D01*
X124127516Y-45435666D01*
X124361940Y-44994778D01*
X124728984Y-44304470D01*
X124598532Y-44235108D01*
X124468080Y-44165745D01*
X124101037Y-44856053D01*
X123733993Y-45546362D01*
X123301717Y-45546362D01*
X123764036Y-44676867D01*
X124131079Y-43986559D01*
X124275584Y-43714784D01*
X127808658Y-45593353D01*
G37*
G36*
X124822394Y-45459068D02*
G01*
X124819376Y-45465303D01*
X124788515Y-45526436D01*
X124753016Y-45593407D01*
X124719832Y-45653145D01*
X124715311Y-45660970D01*
X124703863Y-45679848D01*
X124703303Y-45678579D01*
X124712877Y-45658711D01*
X124731830Y-45621794D01*
X124759407Y-45569379D01*
X124765476Y-45557952D01*
X124794680Y-45503454D01*
X124815776Y-45464936D01*
X124827963Y-45443780D01*
X124830436Y-45441363D01*
X124822394Y-45459068D01*
G37*
G36*
X125603238Y-45537955D02*
G01*
X125602400Y-45539810D01*
X125578451Y-45588586D01*
X125551147Y-45638652D01*
X125538773Y-45659367D01*
X125530581Y-45671100D01*
X125533169Y-45663224D01*
X125545608Y-45637793D01*
X125566963Y-45596859D01*
X125568285Y-45594371D01*
X125590334Y-45553668D01*
X125604216Y-45529568D01*
X125608871Y-45523765D01*
X125603238Y-45537955D01*
G37*
G36*
X125124688Y-44888789D02*
G01*
X125117068Y-44905384D01*
X125088925Y-44961647D01*
X125056628Y-45022178D01*
X125030337Y-45068435D01*
X125020214Y-45084481D01*
X125020937Y-45080556D01*
X125031688Y-45058378D01*
X125051645Y-45019663D01*
X125071683Y-44981713D01*
X125098023Y-44932704D01*
X125116228Y-44899885D01*
X125125413Y-44884750D01*
X125124688Y-44888789D01*
G37*
G36*
X126116043Y-46146913D02*
G01*
X126113024Y-46153148D01*
X126082163Y-46214282D01*
X126046665Y-46281252D01*
X126013481Y-46340991D01*
X126008960Y-46348815D01*
X125997512Y-46367694D01*
X125996952Y-46366424D01*
X126006526Y-46346556D01*
X126025479Y-46309640D01*
X126053056Y-46257224D01*
X126059125Y-46245797D01*
X126088329Y-46191299D01*
X126109425Y-46152782D01*
X126121611Y-46131625D01*
X126124085Y-46129209D01*
X126116043Y-46146913D01*
G37*
G36*
X126896887Y-46225801D02*
G01*
X126896049Y-46227655D01*
X126872100Y-46276431D01*
X126844796Y-46326497D01*
X126832422Y-46347213D01*
X126824230Y-46358945D01*
X126826818Y-46351069D01*
X126839256Y-46325638D01*
X126860611Y-46284704D01*
X126861934Y-46282216D01*
X126883983Y-46241514D01*
X126897864Y-46217413D01*
X126902520Y-46211610D01*
X126896887Y-46225801D01*
G37*
G36*
X126418337Y-45576634D02*
G01*
X126410717Y-45593230D01*
X126382573Y-45649491D01*
X126350277Y-45710024D01*
X126323985Y-45756280D01*
X126313863Y-45772326D01*
X126314586Y-45768401D01*
X126325337Y-45746223D01*
X126345294Y-45707508D01*
X126365332Y-45669558D01*
X126391672Y-45620549D01*
X126409877Y-45587731D01*
X126419061Y-45572595D01*
X126418337Y-45576634D01*
G37*
G36*
X127398821Y-46828979D02*
G01*
X127395802Y-46835213D01*
X127364941Y-46896346D01*
X127329443Y-46963317D01*
X127296258Y-47023055D01*
X127291738Y-47030881D01*
X127280289Y-47049758D01*
X127279730Y-47048489D01*
X127289304Y-47028621D01*
X127308257Y-46991705D01*
X127335833Y-46939289D01*
X127341903Y-46927862D01*
X127371107Y-46873364D01*
X127392203Y-46834847D01*
X127404389Y-46813690D01*
X127406863Y-46811274D01*
X127398821Y-46828979D01*
G37*
G36*
X128179665Y-46907866D02*
G01*
X128178826Y-46909720D01*
X128154878Y-46958496D01*
X128127574Y-47008562D01*
X128115200Y-47029278D01*
X128107008Y-47041010D01*
X128109596Y-47033134D01*
X128122035Y-47007703D01*
X128143389Y-46966769D01*
X128144712Y-46964281D01*
X128166761Y-46923579D01*
X128180642Y-46899478D01*
X128185298Y-46893675D01*
X128179665Y-46907866D01*
G37*
G36*
X127701115Y-46258700D02*
G01*
X127693494Y-46275294D01*
X127665351Y-46331557D01*
X127633054Y-46392088D01*
X127606763Y-46438345D01*
X127596641Y-46454391D01*
X127597364Y-46450466D01*
X127608114Y-46428288D01*
X127628072Y-46389573D01*
X127648110Y-46351623D01*
X127674450Y-46302614D01*
X127692655Y-46269796D01*
X127701839Y-46254660D01*
X127701115Y-46258700D01*
G37*
G36*
X128498858Y-47665930D02*
G01*
X128503506Y-47676191D01*
X128511431Y-47697607D01*
X128512415Y-47705331D01*
X128505396Y-47705772D01*
X128498370Y-47684124D01*
X128497220Y-47678113D01*
X128494665Y-47660237D01*
X128498858Y-47665930D01*
G37*
G36*
X128614409Y-47415161D02*
G01*
X128624316Y-47443602D01*
X128628509Y-47459904D01*
X128628408Y-47460952D01*
X128622912Y-47461645D01*
X128615683Y-47442838D01*
X128608986Y-47416819D01*
X128598526Y-47372911D01*
X128614409Y-47415161D01*
G37*
G36*
X128738227Y-47900848D02*
G01*
X128734850Y-47909415D01*
X128714714Y-47951373D01*
X128691940Y-47991153D01*
X128688537Y-47996345D01*
X128681940Y-48004217D01*
X128686085Y-47992958D01*
X128699922Y-47965053D01*
X128709080Y-47947636D01*
X128727404Y-47914291D01*
X128737549Y-47898059D01*
X128738227Y-47900848D01*
G37*
G36*
X128838359Y-47911869D02*
G01*
X128906082Y-47952834D01*
X128950359Y-47991606D01*
X128972118Y-48029495D01*
X128972284Y-48067815D01*
X128963747Y-48089100D01*
X128943453Y-48109411D01*
X128918504Y-48121739D01*
X128899054Y-48125087D01*
X128876900Y-48121709D01*
X128846383Y-48109797D01*
X128801839Y-48087546D01*
X128787363Y-48079898D01*
X128689524Y-48027876D01*
X128729986Y-47951779D01*
X128770447Y-47875682D01*
X128838359Y-47911869D01*
G37*
G36*
X128873117Y-47647487D02*
G01*
X128870783Y-47653630D01*
X128850838Y-47695386D01*
X128827431Y-47735163D01*
X128820403Y-47743690D01*
X128824193Y-47732992D01*
X128837833Y-47705465D01*
X128844844Y-47692129D01*
X128862684Y-47659716D01*
X128872589Y-47644122D01*
X128873117Y-47647487D01*
G37*
G36*
X128990040Y-47687721D02*
G01*
X129036207Y-47715828D01*
X129064663Y-47736507D01*
X129079665Y-47753451D01*
X129085476Y-47770350D01*
X129085491Y-47770458D01*
X129081983Y-47811608D01*
X129057704Y-47839532D01*
X129035488Y-47849274D01*
X129014521Y-47852637D01*
X128990441Y-47848359D01*
X128957056Y-47834584D01*
X128915217Y-47813214D01*
X128828249Y-47766972D01*
X128863524Y-47700631D01*
X128898798Y-47634289D01*
X128990040Y-47687721D01*
G37*
G36*
X128765272Y-47169093D02*
G01*
X128755012Y-47173741D01*
X128730158Y-47182206D01*
X128723114Y-47178366D01*
X128723950Y-47176363D01*
X128736204Y-47171239D01*
X128753089Y-47167455D01*
X128770965Y-47164900D01*
X128765272Y-47169093D01*
G37*
G36*
X129977446Y-47778402D02*
G01*
X129970996Y-47783729D01*
X129948100Y-47793084D01*
X129942899Y-47794893D01*
X129914577Y-47803288D01*
X129898208Y-47805824D01*
X129897480Y-47805606D01*
X129903930Y-47800279D01*
X129926827Y-47790925D01*
X129932028Y-47789113D01*
X129960348Y-47780720D01*
X129976719Y-47778183D01*
X129977446Y-47778402D01*
G37*
G36*
X129736182Y-47361935D02*
G01*
X129730624Y-47375529D01*
X129728475Y-47376431D01*
X129722805Y-47371502D01*
X129725081Y-47365330D01*
X129733817Y-47358496D01*
X129736182Y-47361935D01*
G37*
G36*
X130176865Y-47249965D02*
G01*
X130168539Y-47252510D01*
X130165994Y-47244184D01*
X130174319Y-47241639D01*
X130176865Y-47249965D01*
G37*
G36*
X129416425Y-47263964D02*
G01*
X129408099Y-47266508D01*
X129405553Y-47258183D01*
X129413879Y-47255638D01*
X129416425Y-47263964D01*
G37*
G36*
X129275431Y-46916366D02*
G01*
X129271860Y-46925640D01*
X129250551Y-46969842D01*
X129225533Y-47013671D01*
X129222728Y-47018044D01*
X129215175Y-47027923D01*
X129218435Y-47018399D01*
X129231570Y-46991705D01*
X129243132Y-46969629D01*
X129262298Y-46934569D01*
X129273506Y-46916138D01*
X129275431Y-46916366D01*
G37*
G36*
X129353487Y-46916828D02*
G01*
X129410030Y-46953858D01*
X129448145Y-46993206D01*
X129467143Y-47032126D01*
X129466338Y-47067865D01*
X129445047Y-47097675D01*
X129403797Y-47118439D01*
X129377722Y-47123742D01*
X129352274Y-47120615D01*
X129319276Y-47107209D01*
X129291770Y-47093101D01*
X129220614Y-47055266D01*
X129263966Y-46973734D01*
X129307317Y-46892202D01*
X129353487Y-46916828D01*
G37*
D10*
%TO.C,C1*%
X94838748Y-47065000D02*
X95361252Y-47065000D01*
X94838748Y-48535000D02*
X95361252Y-48535000D01*
%TO.C,C2*%
X98338748Y-41465000D02*
X98861252Y-41465000D01*
X98338748Y-42935000D02*
X98861252Y-42935000D01*
%TO.C,R4*%
X98372936Y-43665000D02*
X98827064Y-43665000D01*
X98372936Y-45135000D02*
X98827064Y-45135000D01*
%TO.C,D2*%
X154560000Y-54077500D02*
X152640000Y-54077500D01*
X152640000Y-54077500D02*
X152640000Y-56762500D01*
X154560000Y-56762500D02*
X154560000Y-54077500D01*
%TO.C,Q1*%
X104130000Y-40890000D02*
X101700000Y-40890000D01*
X104150000Y-40900000D02*
X104150000Y-41900000D01*
X104150000Y-42900000D02*
X104150000Y-43950000D01*
X104150000Y-43950000D02*
X102300000Y-43950000D01*
%TO.C,D1*%
X142110000Y-54127500D02*
X140190000Y-54127500D01*
X140190000Y-54127500D02*
X140190000Y-56812500D01*
X142110000Y-56812500D02*
X142110000Y-54127500D01*
%TO.C,D6*%
X134340000Y-57522500D02*
X136260000Y-57522500D01*
X136260000Y-57522500D02*
X136260000Y-54837500D01*
X134340000Y-54837500D02*
X134340000Y-57522500D01*
%TO.C,R2*%
X105915000Y-45177064D02*
X105915000Y-44722936D01*
X107385000Y-45177064D02*
X107385000Y-44722936D01*
%TO.C,D4*%
X147230000Y-57497500D02*
X149150000Y-57497500D01*
X149150000Y-57497500D02*
X149150000Y-54812500D01*
X147230000Y-54812500D02*
X147230000Y-57497500D01*
%TO.C,Q2*%
X100730000Y-46090000D02*
X98300000Y-46090000D01*
X100750000Y-46100000D02*
X100750000Y-47100000D01*
X100750000Y-48100000D02*
X100750000Y-49150000D01*
X100750000Y-49150000D02*
X98900000Y-49150000D01*
%TO.C,Ref\u002A\u002A*%
D11*
X98747974Y-64083273D02*
X98903974Y-64115034D01*
X98913295Y-64117837D01*
X99110395Y-64199833D01*
X99286282Y-64315563D01*
X99437504Y-64460331D01*
X99560605Y-64629441D01*
X99652131Y-64818198D01*
X99708627Y-65021906D01*
X99726707Y-65223500D01*
X99707031Y-65440235D01*
X99650493Y-65641984D01*
X99560834Y-65825749D01*
X99441794Y-65988533D01*
X99297112Y-66127337D01*
X99130528Y-66239164D01*
X98945782Y-66321016D01*
X98746612Y-66369895D01*
X98536760Y-66382804D01*
X98319963Y-66356746D01*
X98314469Y-66355565D01*
X98113512Y-66290851D01*
X97928702Y-66189780D01*
X97764808Y-66056771D01*
X97626594Y-65896241D01*
X97518830Y-65712609D01*
X97461731Y-65565228D01*
X97435436Y-65443150D01*
X97421749Y-65298368D01*
X97420862Y-65147170D01*
X97432968Y-65005842D01*
X97453935Y-64904550D01*
X97535161Y-64700699D01*
X97651033Y-64518758D01*
X97798134Y-64362111D01*
X97973044Y-64234142D01*
X98172347Y-64138237D01*
X98256250Y-64110166D01*
X98406625Y-64080635D01*
X98576362Y-64071738D01*
X98747974Y-64083273D01*
G36*
X98747974Y-64083273D02*
G01*
X98903974Y-64115034D01*
X98913295Y-64117837D01*
X99110395Y-64199833D01*
X99286282Y-64315563D01*
X99437504Y-64460331D01*
X99560605Y-64629441D01*
X99652131Y-64818198D01*
X99708627Y-65021906D01*
X99726707Y-65223500D01*
X99707031Y-65440235D01*
X99650493Y-65641984D01*
X99560834Y-65825749D01*
X99441794Y-65988533D01*
X99297112Y-66127337D01*
X99130528Y-66239164D01*
X98945782Y-66321016D01*
X98746612Y-66369895D01*
X98536760Y-66382804D01*
X98319963Y-66356746D01*
X98314469Y-66355565D01*
X98113512Y-66290851D01*
X97928702Y-66189780D01*
X97764808Y-66056771D01*
X97626594Y-65896241D01*
X97518830Y-65712609D01*
X97461731Y-65565228D01*
X97435436Y-65443150D01*
X97421749Y-65298368D01*
X97420862Y-65147170D01*
X97432968Y-65005842D01*
X97453935Y-64904550D01*
X97535161Y-64700699D01*
X97651033Y-64518758D01*
X97798134Y-64362111D01*
X97973044Y-64234142D01*
X98172347Y-64138237D01*
X98256250Y-64110166D01*
X98406625Y-64080635D01*
X98576362Y-64071738D01*
X98747974Y-64083273D01*
G37*
X107156129Y-64940347D02*
X107249605Y-64943340D01*
X107319762Y-64949623D01*
X107376098Y-64960253D01*
X107428110Y-64976289D01*
X107456701Y-64987156D01*
X107545980Y-65027628D01*
X107619393Y-65070462D01*
X107668776Y-65110204D01*
X107686000Y-65140369D01*
X107666370Y-65148804D01*
X107613608Y-65155423D01*
X107536904Y-65159330D01*
X107484917Y-65160000D01*
X107283833Y-65160000D01*
X107283833Y-65348851D01*
X107469042Y-65354967D01*
X107654250Y-65361083D01*
X107580969Y-65408032D01*
X107486929Y-65451426D01*
X107361785Y-65484816D01*
X107215776Y-65507311D01*
X107059139Y-65518022D01*
X106902110Y-65516059D01*
X106754928Y-65500534D01*
X106682714Y-65486092D01*
X106544815Y-65440898D01*
X106443433Y-65383176D01*
X106379194Y-65316512D01*
X106352722Y-65244496D01*
X106364643Y-65170714D01*
X106415583Y-65098754D01*
X106506167Y-65032204D01*
X106596177Y-64989695D01*
X106651563Y-64969508D01*
X106704414Y-64955545D01*
X106764377Y-64946692D01*
X106841103Y-64941833D01*
X106944241Y-64939855D01*
X107029833Y-64939585D01*
X107156129Y-64940347D01*
G36*
X107156129Y-64940347D02*
G01*
X107249605Y-64943340D01*
X107319762Y-64949623D01*
X107376098Y-64960253D01*
X107428110Y-64976289D01*
X107456701Y-64987156D01*
X107545980Y-65027628D01*
X107619393Y-65070462D01*
X107668776Y-65110204D01*
X107686000Y-65140369D01*
X107666370Y-65148804D01*
X107613608Y-65155423D01*
X107536904Y-65159330D01*
X107484917Y-65160000D01*
X107283833Y-65160000D01*
X107283833Y-65348851D01*
X107469042Y-65354967D01*
X107654250Y-65361083D01*
X107580969Y-65408032D01*
X107486929Y-65451426D01*
X107361785Y-65484816D01*
X107215776Y-65507311D01*
X107059139Y-65518022D01*
X106902110Y-65516059D01*
X106754928Y-65500534D01*
X106682714Y-65486092D01*
X106544815Y-65440898D01*
X106443433Y-65383176D01*
X106379194Y-65316512D01*
X106352722Y-65244496D01*
X106364643Y-65170714D01*
X106415583Y-65098754D01*
X106506167Y-65032204D01*
X106596177Y-64989695D01*
X106651563Y-64969508D01*
X106704414Y-64955545D01*
X106764377Y-64946692D01*
X106841103Y-64941833D01*
X106944241Y-64939855D01*
X107029833Y-64939585D01*
X107156129Y-64940347D01*
G37*
X104843974Y-64083273D02*
X104999974Y-64115034D01*
X105009295Y-64117837D01*
X105210048Y-64200694D01*
X105387012Y-64316283D01*
X105537449Y-64460608D01*
X105658623Y-64629672D01*
X105747795Y-64819481D01*
X105802228Y-65026036D01*
X105819185Y-65245343D01*
X105817474Y-65297583D01*
X105785769Y-65516208D01*
X105716289Y-65718272D01*
X105611288Y-65900377D01*
X105473024Y-66059123D01*
X105303752Y-66191111D01*
X105177750Y-66261146D01*
X104973307Y-66340865D01*
X104772582Y-66380399D01*
X104568848Y-66380586D01*
X104414380Y-66356363D01*
X104214756Y-66292078D01*
X104030516Y-66191950D01*
X103866721Y-66060813D01*
X103728431Y-65903499D01*
X103620708Y-65724841D01*
X103548612Y-65529672D01*
X103548577Y-65529537D01*
X103526872Y-65404883D01*
X103517740Y-65257964D01*
X103521181Y-65106936D01*
X103537196Y-64969956D01*
X103548577Y-64917462D01*
X103621346Y-64719834D01*
X103729970Y-64540590D01*
X103870503Y-64383693D01*
X104038998Y-64253109D01*
X104231508Y-64152802D01*
X104352250Y-64110166D01*
X104502625Y-64080635D01*
X104672362Y-64071738D01*
X104843974Y-64083273D01*
G36*
X104843974Y-64083273D02*
G01*
X104999974Y-64115034D01*
X105009295Y-64117837D01*
X105210048Y-64200694D01*
X105387012Y-64316283D01*
X105537449Y-64460608D01*
X105658623Y-64629672D01*
X105747795Y-64819481D01*
X105802228Y-65026036D01*
X105819185Y-65245343D01*
X105817474Y-65297583D01*
X105785769Y-65516208D01*
X105716289Y-65718272D01*
X105611288Y-65900377D01*
X105473024Y-66059123D01*
X105303752Y-66191111D01*
X105177750Y-66261146D01*
X104973307Y-66340865D01*
X104772582Y-66380399D01*
X104568848Y-66380586D01*
X104414380Y-66356363D01*
X104214756Y-66292078D01*
X104030516Y-66191950D01*
X103866721Y-66060813D01*
X103728431Y-65903499D01*
X103620708Y-65724841D01*
X103548612Y-65529672D01*
X103548577Y-65529537D01*
X103526872Y-65404883D01*
X103517740Y-65257964D01*
X103521181Y-65106936D01*
X103537196Y-64969956D01*
X103548577Y-64917462D01*
X103621346Y-64719834D01*
X103729970Y-64540590D01*
X103870503Y-64383693D01*
X104038998Y-64253109D01*
X104231508Y-64152802D01*
X104352250Y-64110166D01*
X104502625Y-64080635D01*
X104672362Y-64071738D01*
X104843974Y-64083273D01*
G37*
X110743674Y-52089382D02*
X110886273Y-52147469D01*
X111013636Y-52237690D01*
X111120619Y-52358267D01*
X111202073Y-52507426D01*
X111232870Y-52596531D01*
X111241928Y-52628101D01*
X111249883Y-52657705D01*
X111256197Y-52687306D01*
X111260332Y-52718864D01*
X111261749Y-52754344D01*
X111259910Y-52795707D01*
X111254278Y-52844916D01*
X111244313Y-52903932D01*
X111229479Y-52974719D01*
X111209235Y-53059238D01*
X111183045Y-53159452D01*
X111150369Y-53277324D01*
X111110671Y-53414815D01*
X111063411Y-53573888D01*
X111008051Y-53756505D01*
X110944053Y-53964628D01*
X110870879Y-54200221D01*
X110787991Y-54465245D01*
X110694851Y-54761663D01*
X110590919Y-55091436D01*
X110475659Y-55456528D01*
X110348531Y-55858900D01*
X110269360Y-56109459D01*
X110158069Y-56461206D01*
X110049634Y-56802986D01*
X109944793Y-57132514D01*
X109844286Y-57447505D01*
X109748850Y-57745677D01*
X109659225Y-58024743D01*
X109576149Y-58282421D01*
X109500361Y-58516425D01*
X109432599Y-58724471D01*
X109373601Y-58904276D01*
X109324108Y-59053553D01*
X109284856Y-59170020D01*
X109256586Y-59251391D01*
X109240034Y-59295383D01*
X109237359Y-59301147D01*
X109143286Y-59433686D01*
X109022101Y-59542545D01*
X108881259Y-59624694D01*
X108728217Y-59677102D01*
X108570431Y-59696735D01*
X108415359Y-59680564D01*
X108350709Y-59661612D01*
X108206029Y-59588319D01*
X108083654Y-59482932D01*
X107987019Y-59351254D01*
X107919557Y-59199084D01*
X107884703Y-59032226D01*
X107884128Y-58873500D01*
X107890797Y-58837938D01*
X107906989Y-58773534D01*
X107932984Y-58679380D01*
X107969060Y-58554565D01*
X108015496Y-58398182D01*
X108072571Y-58209321D01*
X108140564Y-57987073D01*
X108219753Y-57730531D01*
X108310417Y-57438784D01*
X108412836Y-57110924D01*
X108527288Y-56746042D01*
X108654052Y-56343230D01*
X108793407Y-55901578D01*
X108880436Y-55626238D01*
X109014488Y-55202283D01*
X109136391Y-54816755D01*
X109246841Y-54467745D01*
X109346533Y-54153343D01*
X109436164Y-53871638D01*
X109516430Y-53620721D01*
X109588026Y-53398682D01*
X109651649Y-53203611D01*
X109707994Y-53033598D01*
X109757757Y-52886733D01*
X109801635Y-52761106D01*
X109840323Y-52654807D01*
X109874517Y-52565926D01*
X109904914Y-52492553D01*
X109932208Y-52432779D01*
X109957097Y-52384693D01*
X109980276Y-52346385D01*
X110002441Y-52315946D01*
X110024288Y-52291466D01*
X110046513Y-52271034D01*
X110069812Y-52252741D01*
X110094881Y-52234676D01*
X110122415Y-52214931D01*
X110123854Y-52213876D01*
X110275930Y-52125674D01*
X110433357Y-52076709D01*
X110590987Y-52065203D01*
X110743674Y-52089382D01*
G36*
X110743674Y-52089382D02*
G01*
X110886273Y-52147469D01*
X111013636Y-52237690D01*
X111120619Y-52358267D01*
X111202073Y-52507426D01*
X111232870Y-52596531D01*
X111241928Y-52628101D01*
X111249883Y-52657705D01*
X111256197Y-52687306D01*
X111260332Y-52718864D01*
X111261749Y-52754344D01*
X111259910Y-52795707D01*
X111254278Y-52844916D01*
X111244313Y-52903932D01*
X111229479Y-52974719D01*
X111209235Y-53059238D01*
X111183045Y-53159452D01*
X111150369Y-53277324D01*
X111110671Y-53414815D01*
X111063411Y-53573888D01*
X111008051Y-53756505D01*
X110944053Y-53964628D01*
X110870879Y-54200221D01*
X110787991Y-54465245D01*
X110694851Y-54761663D01*
X110590919Y-55091436D01*
X110475659Y-55456528D01*
X110348531Y-55858900D01*
X110269360Y-56109459D01*
X110158069Y-56461206D01*
X110049634Y-56802986D01*
X109944793Y-57132514D01*
X109844286Y-57447505D01*
X109748850Y-57745677D01*
X109659225Y-58024743D01*
X109576149Y-58282421D01*
X109500361Y-58516425D01*
X109432599Y-58724471D01*
X109373601Y-58904276D01*
X109324108Y-59053553D01*
X109284856Y-59170020D01*
X109256586Y-59251391D01*
X109240034Y-59295383D01*
X109237359Y-59301147D01*
X109143286Y-59433686D01*
X109022101Y-59542545D01*
X108881259Y-59624694D01*
X108728217Y-59677102D01*
X108570431Y-59696735D01*
X108415359Y-59680564D01*
X108350709Y-59661612D01*
X108206029Y-59588319D01*
X108083654Y-59482932D01*
X107987019Y-59351254D01*
X107919557Y-59199084D01*
X107884703Y-59032226D01*
X107884128Y-58873500D01*
X107890797Y-58837938D01*
X107906989Y-58773534D01*
X107932984Y-58679380D01*
X107969060Y-58554565D01*
X108015496Y-58398182D01*
X108072571Y-58209321D01*
X108140564Y-57987073D01*
X108219753Y-57730531D01*
X108310417Y-57438784D01*
X108412836Y-57110924D01*
X108527288Y-56746042D01*
X108654052Y-56343230D01*
X108793407Y-55901578D01*
X108880436Y-55626238D01*
X109014488Y-55202283D01*
X109136391Y-54816755D01*
X109246841Y-54467745D01*
X109346533Y-54153343D01*
X109436164Y-53871638D01*
X109516430Y-53620721D01*
X109588026Y-53398682D01*
X109651649Y-53203611D01*
X109707994Y-53033598D01*
X109757757Y-52886733D01*
X109801635Y-52761106D01*
X109840323Y-52654807D01*
X109874517Y-52565926D01*
X109904914Y-52492553D01*
X109932208Y-52432779D01*
X109957097Y-52384693D01*
X109980276Y-52346385D01*
X110002441Y-52315946D01*
X110024288Y-52291466D01*
X110046513Y-52271034D01*
X110069812Y-52252741D01*
X110094881Y-52234676D01*
X110122415Y-52214931D01*
X110123854Y-52213876D01*
X110275930Y-52125674D01*
X110433357Y-52076709D01*
X110590987Y-52065203D01*
X110743674Y-52089382D01*
G37*
X117690723Y-47347414D02*
X118393457Y-47372713D01*
X119068648Y-47414453D01*
X119306500Y-47433787D01*
X120177207Y-47525120D01*
X121021630Y-47645523D01*
X121839267Y-47794777D01*
X122629611Y-47972662D01*
X123392160Y-48178958D01*
X124126409Y-48413445D01*
X124831854Y-48675905D01*
X125507989Y-48966118D01*
X126154312Y-49283864D01*
X126770317Y-49628924D01*
X127355501Y-50001077D01*
X127909359Y-50400106D01*
X128431387Y-50825790D01*
X128921081Y-51277909D01*
X129377935Y-51756244D01*
X129466943Y-51856895D01*
X129568845Y-51975776D01*
X129676182Y-52104761D01*
X129785599Y-52239458D01*
X129893739Y-52375475D01*
X129997247Y-52508419D01*
X130092767Y-52633897D01*
X130176944Y-52747519D01*
X130246423Y-52844890D01*
X130297846Y-52921620D01*
X130327860Y-52973315D01*
X130334333Y-52992272D01*
X130313512Y-52994126D01*
X130252432Y-52995928D01*
X130153167Y-52997668D01*
X130017791Y-52999336D01*
X129848378Y-53000923D01*
X129647003Y-53002420D01*
X129415740Y-53003817D01*
X129156662Y-53005105D01*
X128871845Y-53006274D01*
X128563361Y-53007314D01*
X128233286Y-53008217D01*
X127883693Y-53008972D01*
X127516657Y-53009571D01*
X127134252Y-53010003D01*
X126738551Y-53010260D01*
X126383314Y-53010333D01*
X122432295Y-53010333D01*
X122446314Y-53807547D01*
X122448362Y-53946575D01*
X122450320Y-54123467D01*
X122452166Y-54333755D01*
X122453880Y-54572970D01*
X122455438Y-54836642D01*
X122456820Y-55120304D01*
X122458005Y-55419487D01*
X122458970Y-55729721D01*
X122459694Y-56046537D01*
X122460155Y-56365468D01*
X122460332Y-56682044D01*
X122460333Y-56710435D01*
X122460333Y-58816109D01*
X124227750Y-58800490D01*
X124497166Y-58798318D01*
X124754056Y-58796652D01*
X124995321Y-58795490D01*
X125217862Y-58794826D01*
X125418580Y-58794657D01*
X125594376Y-58794980D01*
X125742152Y-58795789D01*
X125858810Y-58797082D01*
X125941249Y-58798854D01*
X125986372Y-58801102D01*
X125994250Y-58802727D01*
X125977615Y-58822138D01*
X125933981Y-58858686D01*
X125871414Y-58905795D01*
X125842476Y-58926416D01*
X125741614Y-59003773D01*
X125622573Y-59105568D01*
X125493984Y-59223480D01*
X125364481Y-59349186D01*
X125242696Y-59474366D01*
X125137261Y-59590697D01*
X125074115Y-59667121D01*
X124893901Y-59919361D01*
X124749877Y-60169284D01*
X124637400Y-60425733D01*
X124572524Y-60622204D01*
X124552607Y-60697785D01*
X124538918Y-60769911D01*
X124530380Y-60849430D01*
X124525916Y-60947190D01*
X124524449Y-61074040D01*
X124524421Y-61106583D01*
X124528391Y-61285187D01*
X124542120Y-61438215D01*
X124568582Y-61577597D01*
X124610749Y-61715264D01*
X124671595Y-61863145D01*
X124754092Y-62033171D01*
X124756512Y-62037916D01*
X124958474Y-62401085D01*
X125178941Y-62736990D01*
X125415282Y-63042350D01*
X125664865Y-63313880D01*
X125925058Y-63548298D01*
X126036567Y-63634673D01*
X126117324Y-63692818D01*
X126200830Y-63749617D01*
X126291708Y-63807761D01*
X126394584Y-63869940D01*
X126514082Y-63938846D01*
X126654827Y-64017169D01*
X126821443Y-64107600D01*
X127018556Y-64212829D01*
X127148750Y-64281740D01*
X127417488Y-64424476D01*
X127654627Y-64552435D01*
X127866612Y-64669408D01*
X128059888Y-64779186D01*
X128240902Y-64885558D01*
X128416098Y-64992316D01*
X128591921Y-65103249D01*
X128774818Y-65222149D01*
X128971233Y-65352805D01*
X128979667Y-65358466D01*
X129374339Y-65630932D01*
X129728842Y-65891335D01*
X130043491Y-66139988D01*
X130318602Y-66377202D01*
X130554490Y-66603289D01*
X130751470Y-66818561D01*
X130909858Y-67023330D01*
X131029969Y-67217907D01*
X131112118Y-67402605D01*
X131139749Y-67494090D01*
X131151424Y-67568796D01*
X131157199Y-67666716D01*
X131155965Y-67769004D01*
X131155938Y-67769518D01*
X131147523Y-67871591D01*
X131132059Y-67948731D01*
X131105272Y-68018247D01*
X131084517Y-68058854D01*
X130978303Y-68212002D01*
X130831724Y-68353857D01*
X130644734Y-68484434D01*
X130417287Y-68603746D01*
X130149338Y-68711807D01*
X129840843Y-68808630D01*
X129491755Y-68894228D01*
X129102030Y-68968616D01*
X128671622Y-69031806D01*
X128200485Y-69083812D01*
X127688575Y-69124647D01*
X127455667Y-69138789D01*
X127333008Y-69144108D01*
X127178009Y-69148504D01*
X126996935Y-69151982D01*
X126796055Y-69154544D01*
X126581637Y-69156194D01*
X126359948Y-69156935D01*
X126137257Y-69156771D01*
X125919831Y-69155705D01*
X125713938Y-69153742D01*
X125525845Y-69150883D01*
X125361821Y-69147134D01*
X125228134Y-69142497D01*
X125137917Y-69137494D01*
X124613899Y-69086153D01*
X124117071Y-69009900D01*
X123639031Y-68906742D01*
X123171377Y-68774687D01*
X122705706Y-68611740D01*
X122399264Y-68487960D01*
X122203014Y-68401643D01*
X121973270Y-68295173D01*
X121712947Y-68169991D01*
X121424963Y-68027538D01*
X121112234Y-67869254D01*
X120777676Y-67696582D01*
X120460083Y-67529939D01*
X120255981Y-67422588D01*
X120083604Y-67333328D01*
X119937636Y-67259754D01*
X119812762Y-67199458D01*
X119703668Y-67150036D01*
X119605038Y-67109079D01*
X119511557Y-67074182D01*
X119417910Y-67042939D01*
X119318782Y-67012943D01*
X119317083Y-67012448D01*
X118979238Y-66931512D01*
X118608731Y-66875324D01*
X118207153Y-66843754D01*
X117776093Y-66836673D01*
X117317141Y-66853949D01*
X116831886Y-66895453D01*
X116321919Y-66961054D01*
X115788830Y-67050621D01*
X115234207Y-67164024D01*
X114659641Y-67301133D01*
X114159377Y-67435481D01*
X113846490Y-67526520D01*
X113515036Y-67628196D01*
X113171981Y-67738085D01*
X112824293Y-67853761D01*
X112478941Y-67972799D01*
X112142891Y-68092772D01*
X111823111Y-68211257D01*
X111526569Y-68325827D01*
X111260233Y-68434058D01*
X111125965Y-68491390D01*
X111049593Y-68523682D01*
X110989556Y-68547156D01*
X110955057Y-68558296D01*
X110950391Y-68558447D01*
X110949272Y-68536517D01*
X110948998Y-68477007D01*
X110949518Y-68384660D01*
X110950783Y-68264220D01*
X110952743Y-68120430D01*
X110955347Y-67958034D01*
X110958547Y-67781775D01*
X110958591Y-67779490D01*
X110973413Y-67007156D01*
X111091831Y-66970015D01*
X111164263Y-66944714D01*
X111259551Y-66907905D01*
X111362069Y-66865727D01*
X111411333Y-66844466D01*
X111675466Y-66711504D01*
X111900776Y-66561897D01*
X112087424Y-66395508D01*
X112235570Y-66212200D01*
X112320135Y-66066328D01*
X112373685Y-65947281D01*
X112414296Y-65829973D01*
X112443895Y-65704965D01*
X112464408Y-65562819D01*
X112477763Y-65394094D01*
X112483512Y-65265833D01*
X112486669Y-65078974D01*
X112480433Y-64923600D01*
X112463035Y-64789556D01*
X112432706Y-64666686D01*
X112387677Y-64544835D01*
X112339900Y-64441301D01*
X112231945Y-64264968D01*
X112084596Y-64091662D01*
X111900787Y-63923892D01*
X111683454Y-63764168D01*
X111435533Y-63615002D01*
X111280009Y-63534861D01*
X111074601Y-63434916D01*
X111073634Y-61937375D01*
X111072667Y-60439833D01*
X112197048Y-60439833D01*
X112185308Y-60138208D01*
X112184007Y-60086527D01*
X112182519Y-59994742D01*
X112180861Y-59865081D01*
X112179051Y-59699772D01*
X112177105Y-59501044D01*
X112175041Y-59271124D01*
X112172875Y-59012242D01*
X112170624Y-58726626D01*
X112168306Y-58416503D01*
X112165938Y-58084103D01*
X112163536Y-57731653D01*
X112161118Y-57361382D01*
X112158701Y-56975519D01*
X112156301Y-56576292D01*
X112153936Y-56165928D01*
X112151623Y-55746657D01*
X112151364Y-55698500D01*
X112149072Y-55281473D01*
X112146734Y-54874870D01*
X112145221Y-54623216D01*
X120155433Y-54623216D01*
X120155601Y-54984898D01*
X120156064Y-55385431D01*
X120156812Y-55826251D01*
X120157216Y-56026583D01*
X120163750Y-59138083D01*
X120213266Y-59260782D01*
X120278365Y-59380259D01*
X120371724Y-59494268D01*
X120372016Y-59494565D01*
X120513590Y-59611312D01*
X120668427Y-59688324D01*
X120834072Y-59724951D01*
X121008074Y-59720543D01*
X121126833Y-59694683D01*
X121269297Y-59632146D01*
X121400368Y-59534465D01*
X121512241Y-59408680D01*
X121590360Y-59276632D01*
X121645417Y-59159250D01*
X121645417Y-52766916D01*
X121584467Y-52634957D01*
X121497075Y-52493318D01*
X121377158Y-52369439D01*
X121233531Y-52271969D01*
X121194949Y-52252740D01*
X121048799Y-52206426D01*
X120890100Y-52192919D01*
X120732794Y-52212229D01*
X120615126Y-52252324D01*
X120458923Y-52346758D01*
X120331840Y-52469989D01*
X120237083Y-52618038D01*
X120177855Y-52786923D01*
X120175282Y-52798666D01*
X120171686Y-52827658D01*
X120168472Y-52879722D01*
X120165633Y-52956291D01*
X120163160Y-53058801D01*
X120161046Y-53188686D01*
X120159282Y-53347381D01*
X120157859Y-53536321D01*
X120156772Y-53756940D01*
X120156010Y-54010672D01*
X120155566Y-54298953D01*
X120155433Y-54623216D01*
X112145221Y-54623216D01*
X112144364Y-54480789D01*
X112141980Y-54101330D01*
X112139598Y-53738594D01*
X112137234Y-53394679D01*
X112134906Y-53071685D01*
X112132629Y-52771712D01*
X112130419Y-52496860D01*
X112128294Y-52249229D01*
X112126270Y-52030917D01*
X112124363Y-51844026D01*
X112122591Y-51690653D01*
X112120968Y-51572900D01*
X112119512Y-51492866D01*
X112118240Y-51452651D01*
X112118012Y-51449599D01*
X112106864Y-51338782D01*
X111468057Y-51333183D01*
X110829250Y-51327583D01*
X110783355Y-49877666D01*
X110775405Y-49626286D01*
X110767684Y-49381685D01*
X110760322Y-49148072D01*
X110753453Y-48929657D01*
X110747208Y-48730649D01*
X110741719Y-48555255D01*
X110737119Y-48407686D01*
X110733538Y-48292149D01*
X110731110Y-48212854D01*
X110730438Y-48190436D01*
X110723417Y-47953123D01*
X110818667Y-47931324D01*
X111019094Y-47888564D01*
X111255888Y-47843367D01*
X111523207Y-47796573D01*
X111815211Y-47749022D01*
X112126058Y-47701555D01*
X112449909Y-47655009D01*
X112780923Y-47610226D01*
X113113258Y-47568045D01*
X113441076Y-47529305D01*
X113758534Y-47494846D01*
X114057167Y-47465747D01*
X114771931Y-47409607D01*
X115501048Y-47369652D01*
X116236139Y-47345934D01*
X116968823Y-47338505D01*
X117690723Y-47347414D01*
G36*
X117690723Y-47347414D02*
G01*
X118393457Y-47372713D01*
X119068648Y-47414453D01*
X119306500Y-47433787D01*
X120177207Y-47525120D01*
X121021630Y-47645523D01*
X121839267Y-47794777D01*
X122629611Y-47972662D01*
X123392160Y-48178958D01*
X124126409Y-48413445D01*
X124831854Y-48675905D01*
X125507989Y-48966118D01*
X126154312Y-49283864D01*
X126770317Y-49628924D01*
X127355501Y-50001077D01*
X127909359Y-50400106D01*
X128431387Y-50825790D01*
X128921081Y-51277909D01*
X129377935Y-51756244D01*
X129466943Y-51856895D01*
X129568845Y-51975776D01*
X129676182Y-52104761D01*
X129785599Y-52239458D01*
X129893739Y-52375475D01*
X129997247Y-52508419D01*
X130092767Y-52633897D01*
X130176944Y-52747519D01*
X130246423Y-52844890D01*
X130297846Y-52921620D01*
X130327860Y-52973315D01*
X130334333Y-52992272D01*
X130313512Y-52994126D01*
X130252432Y-52995928D01*
X130153167Y-52997668D01*
X130017791Y-52999336D01*
X129848378Y-53000923D01*
X129647003Y-53002420D01*
X129415740Y-53003817D01*
X129156662Y-53005105D01*
X128871845Y-53006274D01*
X128563361Y-53007314D01*
X128233286Y-53008217D01*
X127883693Y-53008972D01*
X127516657Y-53009571D01*
X127134252Y-53010003D01*
X126738551Y-53010260D01*
X126383314Y-53010333D01*
X122432295Y-53010333D01*
X122446314Y-53807547D01*
X122448362Y-53946575D01*
X122450320Y-54123467D01*
X122452166Y-54333755D01*
X122453880Y-54572970D01*
X122455438Y-54836642D01*
X122456820Y-55120304D01*
X122458005Y-55419487D01*
X122458970Y-55729721D01*
X122459694Y-56046537D01*
X122460155Y-56365468D01*
X122460332Y-56682044D01*
X122460333Y-56710435D01*
X122460333Y-58816109D01*
X124227750Y-58800490D01*
X124497166Y-58798318D01*
X124754056Y-58796652D01*
X124995321Y-58795490D01*
X125217862Y-58794826D01*
X125418580Y-58794657D01*
X125594376Y-58794980D01*
X125742152Y-58795789D01*
X125858810Y-58797082D01*
X125941249Y-58798854D01*
X125986372Y-58801102D01*
X125994250Y-58802727D01*
X125977615Y-58822138D01*
X125933981Y-58858686D01*
X125871414Y-58905795D01*
X125842476Y-58926416D01*
X125741614Y-59003773D01*
X125622573Y-59105568D01*
X125493984Y-59223480D01*
X125364481Y-59349186D01*
X125242696Y-59474366D01*
X125137261Y-59590697D01*
X125074115Y-59667121D01*
X124893901Y-59919361D01*
X124749877Y-60169284D01*
X124637400Y-60425733D01*
X124572524Y-60622204D01*
X124552607Y-60697785D01*
X124538918Y-60769911D01*
X124530380Y-60849430D01*
X124525916Y-60947190D01*
X124524449Y-61074040D01*
X124524421Y-61106583D01*
X124528391Y-61285187D01*
X124542120Y-61438215D01*
X124568582Y-61577597D01*
X124610749Y-61715264D01*
X124671595Y-61863145D01*
X124754092Y-62033171D01*
X124756512Y-62037916D01*
X124958474Y-62401085D01*
X125178941Y-62736990D01*
X125415282Y-63042350D01*
X125664865Y-63313880D01*
X125925058Y-63548298D01*
X126036567Y-63634673D01*
X126117324Y-63692818D01*
X126200830Y-63749617D01*
X126291708Y-63807761D01*
X126394584Y-63869940D01*
X126514082Y-63938846D01*
X126654827Y-64017169D01*
X126821443Y-64107600D01*
X127018556Y-64212829D01*
X127148750Y-64281740D01*
X127417488Y-64424476D01*
X127654627Y-64552435D01*
X127866612Y-64669408D01*
X128059888Y-64779186D01*
X128240902Y-64885558D01*
X128416098Y-64992316D01*
X128591921Y-65103249D01*
X128774818Y-65222149D01*
X128971233Y-65352805D01*
X128979667Y-65358466D01*
X129374339Y-65630932D01*
X129728842Y-65891335D01*
X130043491Y-66139988D01*
X130318602Y-66377202D01*
X130554490Y-66603289D01*
X130751470Y-66818561D01*
X130909858Y-67023330D01*
X131029969Y-67217907D01*
X131112118Y-67402605D01*
X131139749Y-67494090D01*
X131151424Y-67568796D01*
X131157199Y-67666716D01*
X131155965Y-67769004D01*
X131155938Y-67769518D01*
X131147523Y-67871591D01*
X131132059Y-67948731D01*
X131105272Y-68018247D01*
X131084517Y-68058854D01*
X130978303Y-68212002D01*
X130831724Y-68353857D01*
X130644734Y-68484434D01*
X130417287Y-68603746D01*
X130149338Y-68711807D01*
X129840843Y-68808630D01*
X129491755Y-68894228D01*
X129102030Y-68968616D01*
X128671622Y-69031806D01*
X128200485Y-69083812D01*
X127688575Y-69124647D01*
X127455667Y-69138789D01*
X127333008Y-69144108D01*
X127178009Y-69148504D01*
X126996935Y-69151982D01*
X126796055Y-69154544D01*
X126581637Y-69156194D01*
X126359948Y-69156935D01*
X126137257Y-69156771D01*
X125919831Y-69155705D01*
X125713938Y-69153742D01*
X125525845Y-69150883D01*
X125361821Y-69147134D01*
X125228134Y-69142497D01*
X125137917Y-69137494D01*
X124613899Y-69086153D01*
X124117071Y-69009900D01*
X123639031Y-68906742D01*
X123171377Y-68774687D01*
X122705706Y-68611740D01*
X122399264Y-68487960D01*
X122203014Y-68401643D01*
X121973270Y-68295173D01*
X121712947Y-68169991D01*
X121424963Y-68027538D01*
X121112234Y-67869254D01*
X120777676Y-67696582D01*
X120460083Y-67529939D01*
X120255981Y-67422588D01*
X120083604Y-67333328D01*
X119937636Y-67259754D01*
X119812762Y-67199458D01*
X119703668Y-67150036D01*
X119605038Y-67109079D01*
X119511557Y-67074182D01*
X119417910Y-67042939D01*
X119318782Y-67012943D01*
X119317083Y-67012448D01*
X118979238Y-66931512D01*
X118608731Y-66875324D01*
X118207153Y-66843754D01*
X117776093Y-66836673D01*
X117317141Y-66853949D01*
X116831886Y-66895453D01*
X116321919Y-66961054D01*
X115788830Y-67050621D01*
X115234207Y-67164024D01*
X114659641Y-67301133D01*
X114159377Y-67435481D01*
X113846490Y-67526520D01*
X113515036Y-67628196D01*
X113171981Y-67738085D01*
X112824293Y-67853761D01*
X112478941Y-67972799D01*
X112142891Y-68092772D01*
X111823111Y-68211257D01*
X111526569Y-68325827D01*
X111260233Y-68434058D01*
X111125965Y-68491390D01*
X111049593Y-68523682D01*
X110989556Y-68547156D01*
X110955057Y-68558296D01*
X110950391Y-68558447D01*
X110949272Y-68536517D01*
X110948998Y-68477007D01*
X110949518Y-68384660D01*
X110950783Y-68264220D01*
X110952743Y-68120430D01*
X110955347Y-67958034D01*
X110958547Y-67781775D01*
X110958591Y-67779490D01*
X110973413Y-67007156D01*
X111091831Y-66970015D01*
X111164263Y-66944714D01*
X111259551Y-66907905D01*
X111362069Y-66865727D01*
X111411333Y-66844466D01*
X111675466Y-66711504D01*
X111900776Y-66561897D01*
X112087424Y-66395508D01*
X112235570Y-66212200D01*
X112320135Y-66066328D01*
X112373685Y-65947281D01*
X112414296Y-65829973D01*
X112443895Y-65704965D01*
X112464408Y-65562819D01*
X112477763Y-65394094D01*
X112483512Y-65265833D01*
X112486669Y-65078974D01*
X112480433Y-64923600D01*
X112463035Y-64789556D01*
X112432706Y-64666686D01*
X112387677Y-64544835D01*
X112339900Y-64441301D01*
X112231945Y-64264968D01*
X112084596Y-64091662D01*
X111900787Y-63923892D01*
X111683454Y-63764168D01*
X111435533Y-63615002D01*
X111280009Y-63534861D01*
X111074601Y-63434916D01*
X111073634Y-61937375D01*
X111072667Y-60439833D01*
X112197048Y-60439833D01*
X112185308Y-60138208D01*
X112184007Y-60086527D01*
X112182519Y-59994742D01*
X112180861Y-59865081D01*
X112179051Y-59699772D01*
X112177105Y-59501044D01*
X112175041Y-59271124D01*
X112172875Y-59012242D01*
X112170624Y-58726626D01*
X112168306Y-58416503D01*
X112165938Y-58084103D01*
X112163536Y-57731653D01*
X112161118Y-57361382D01*
X112158701Y-56975519D01*
X112156301Y-56576292D01*
X112153936Y-56165928D01*
X112151623Y-55746657D01*
X112151364Y-55698500D01*
X112149072Y-55281473D01*
X112146734Y-54874870D01*
X112145221Y-54623216D01*
X120155433Y-54623216D01*
X120155601Y-54984898D01*
X120156064Y-55385431D01*
X120156812Y-55826251D01*
X120157216Y-56026583D01*
X120163750Y-59138083D01*
X120213266Y-59260782D01*
X120278365Y-59380259D01*
X120371724Y-59494268D01*
X120372016Y-59494565D01*
X120513590Y-59611312D01*
X120668427Y-59688324D01*
X120834072Y-59724951D01*
X121008074Y-59720543D01*
X121126833Y-59694683D01*
X121269297Y-59632146D01*
X121400368Y-59534465D01*
X121512241Y-59408680D01*
X121590360Y-59276632D01*
X121645417Y-59159250D01*
X121645417Y-52766916D01*
X121584467Y-52634957D01*
X121497075Y-52493318D01*
X121377158Y-52369439D01*
X121233531Y-52271969D01*
X121194949Y-52252740D01*
X121048799Y-52206426D01*
X120890100Y-52192919D01*
X120732794Y-52212229D01*
X120615126Y-52252324D01*
X120458923Y-52346758D01*
X120331840Y-52469989D01*
X120237083Y-52618038D01*
X120177855Y-52786923D01*
X120175282Y-52798666D01*
X120171686Y-52827658D01*
X120168472Y-52879722D01*
X120165633Y-52956291D01*
X120163160Y-53058801D01*
X120161046Y-53188686D01*
X120159282Y-53347381D01*
X120157859Y-53536321D01*
X120156772Y-53756940D01*
X120156010Y-54010672D01*
X120155566Y-54298953D01*
X120155433Y-54623216D01*
X112145221Y-54623216D01*
X112144364Y-54480789D01*
X112141980Y-54101330D01*
X112139598Y-53738594D01*
X112137234Y-53394679D01*
X112134906Y-53071685D01*
X112132629Y-52771712D01*
X112130419Y-52496860D01*
X112128294Y-52249229D01*
X112126270Y-52030917D01*
X112124363Y-51844026D01*
X112122591Y-51690653D01*
X112120968Y-51572900D01*
X112119512Y-51492866D01*
X112118240Y-51452651D01*
X112118012Y-51449599D01*
X112106864Y-51338782D01*
X111468057Y-51333183D01*
X110829250Y-51327583D01*
X110783355Y-49877666D01*
X110775405Y-49626286D01*
X110767684Y-49381685D01*
X110760322Y-49148072D01*
X110753453Y-48929657D01*
X110747208Y-48730649D01*
X110741719Y-48555255D01*
X110737119Y-48407686D01*
X110733538Y-48292149D01*
X110731110Y-48212854D01*
X110730438Y-48190436D01*
X110723417Y-47953123D01*
X110818667Y-47931324D01*
X111019094Y-47888564D01*
X111255888Y-47843367D01*
X111523207Y-47796573D01*
X111815211Y-47749022D01*
X112126058Y-47701555D01*
X112449909Y-47655009D01*
X112780923Y-47610226D01*
X113113258Y-47568045D01*
X113441076Y-47529305D01*
X113758534Y-47494846D01*
X114057167Y-47465747D01*
X114771931Y-47409607D01*
X115501048Y-47369652D01*
X116236139Y-47345934D01*
X116968823Y-47338505D01*
X117690723Y-47347414D01*
G37*
D10*
%TO.C,R1*%
X104635000Y-46572936D02*
X104635000Y-47027064D01*
X103165000Y-46572936D02*
X103165000Y-47027064D01*
%TO.C,R3*%
X94872936Y-49365000D02*
X95327064Y-49365000D01*
X94872936Y-50835000D02*
X95327064Y-50835000D01*
%TO.C,D5*%
X158790000Y-57447500D02*
X160710000Y-57447500D01*
X160710000Y-57447500D02*
X160710000Y-54762500D01*
X158790000Y-54762500D02*
X158790000Y-57447500D01*
%TO.C,D3*%
X167310000Y-54077500D02*
X165390000Y-54077500D01*
X165390000Y-54077500D02*
X165390000Y-56762500D01*
X167310000Y-56762500D02*
X167310000Y-54077500D01*
%TD*%
M02*
