M48
; DRILL file {KiCad 7.0.5-4d25ed1034~172~ubuntu22.04.1} date Thu 15 Jun 2023 22:52:09 CEST
; FORMAT={-:-/ absolute / metric / decimal}
; #@! TF.CreationDate,2023-06-15T22:52:09+02:00
; #@! TF.GenerationSoftware,Kicad,Pcbnew,7.0.5-4d25ed1034~172~ubuntu22.04.1
; #@! TF.FileFunction,Plated,1,2,PTH
FMAT,2
METRIC
; #@! TA.AperFunction,Plated,PTH,ViaDrill
T1C0.300
%
G90
G05
T1
X93.0Y-50.15
X94.15Y-45.9
X99.95Y-46.65
X101.15Y-44.75
X102.4Y-47.6
X102.75Y-39.6
X104.55Y-41.15
X104.6Y-44.1
X106.1Y-42.4
X108.488Y-44.012
X110.9Y-46.1
X119.9Y-46.8
X135.2Y-53.8
X135.2Y-55.95
X141.15Y-55.763
X141.15Y-57.55
X148.2Y-53.8
X148.2Y-55.862
X153.6Y-55.7
X153.6Y-57.55
X159.75Y-53.8
X159.75Y-55.812
X166.35Y-53.85
X166.35Y-55.812
T0
M30
